M48
;GenerationSoftware,Autodesk,EAGLE,9.3.0*%
;CreationDate,2019-03-14T16:28:11Z*%
FMAT,2
ICI,OFF
METRIC,TZ,000.000
T6C1.000
T5C2.000
T4C2.800
T3C3.200
T2C3.500
T1C6.000
%
G90
M71
T1
X5250Y112250
X15250Y112250
X5250Y99250
X15250Y99250
X25330Y112270
X25330Y99270
X35330Y99270
X35330Y112270
X45330Y112270
X45330Y99270
X55330Y99270
X55330Y112270
X9050Y84950
X51550Y84950
T2
X51590Y72930
X9090Y72930
T3
X55250Y125500
X52250Y125500
X5500Y125500
X51250Y125500
X54250Y3000
X55250Y3000
X52250Y3000
X51250Y3000
X53250Y3000
X7500Y3000
X7500Y125500
X53250Y125500
X6500Y125500
X8500Y125500
X9500Y125500
X6500Y3000
X5500Y3000
X8500Y3000
X9500Y3000
X54250Y125500
T4
X30300Y54250
X30300Y24250
T5
X18490Y91330
X41960Y91330
X45370Y54200
X45370Y24200
X15370Y24200
X15370Y54200
T6
X1660Y10500
X59070Y10500
X59060Y67900
X1670Y67900
M30