M48
;GenerationSoftware,Autodesk,EAGLE,9.3.0*%
;CreationDate,2019-03-27T20:46:44Z*%
FMAT,2
ICI,OFF
METRIC,TZ,000.000
T7C1.000
T6C2.000
T5C2.200
T4C2.800
T3C3.200
T2C3.500
T1C6.000
%
G90
M71
T1
X5253Y112505
X15286Y112505
X5253Y99500
X15286Y99500
X25319Y112505
X25319Y99500
X35352Y99500
X35352Y112505
X45385Y112505
X45385Y99500
X55418Y99500
X55418Y112505
X9035Y84692
X51578Y84682
T2
X51588Y72677
X9045Y72697
T3
X55250Y125500
X52250Y125500
X5500Y125500
X51250Y125500
X54250Y3000
X55250Y3000
X52250Y3000
X51250Y3000
X53250Y3000
X7500Y3000
X7500Y125500
X53250Y125500
X6500Y125500
X8500Y125500
X9500Y125500
X6500Y3000
X5500Y3000
X8500Y3000
X9500Y3000
X54250Y125500
T4
X30300Y54000
X30300Y24000
T5
X18490Y91580
X41960Y91580
T6
X45370Y53950
X45370Y23950
X15370Y23950
X15370Y53950
T7
X1660Y10250
X59070Y10250
X59060Y67650
X1670Y67650
M30