M48
;GenerationSoftware,Autodesk,EAGLE,9.3.0*%
;CreationDate,2019-03-01T22:19:22Z*%
FMAT,2
ICI,OFF
METRIC,TZ,000.000
T11C0.350
T10C0.730
T9C0.759
T8C0.965
T7C1.000
T6C1.016
T5C1.100
T4C1.118
T3C2.000
T2C2.200
T1C2.800
%
G90
M71
T1
X2035Y44964
X58035Y44964
X2035Y14964
X58035Y14964
X44961Y29950
X14989Y29950
X15179Y3772
T2
X2635Y75692
X14835Y75692
X45178Y75682
X57378Y75682
T3
X41661Y82081
X41661Y65571
X18185Y65571
X18185Y82081
T4
X2612Y22275
X12772Y22275
X55000Y12080
X55000Y1920
T5
X45085Y97005
X45085Y100005
X45085Y108505
X55118Y97005
X55118Y100005
X55118Y108505
X4953Y97000
X45085Y85500
X4953Y85500
X14986Y97000
X14986Y94000
X14986Y85500
X25019Y97000
X25019Y94000
X35052Y97000
X35052Y94000
X35052Y85500
X45085Y97000
X45085Y94000
X4953Y97005
X4953Y100005
X4953Y108505
X14986Y97005
X14986Y100005
X14986Y108505
X25019Y97005
X25019Y100005
X25019Y108505
X55118Y97000
X55118Y94000
X55118Y85500
X17338Y19774
X15052Y19774
X12766Y19774
X25019Y85500
X4953Y94000
X35052Y97005
X35052Y100005
X35052Y108505
T6
X6331Y14205
X54539Y61416
X11996Y65958
X5494Y61436
X11996Y61436
X48037Y61416
X6331Y4045
X6331Y6585
X6331Y9125
X6331Y11665
X54539Y65938
X8871Y4045
X8871Y6585
X8871Y9125
X8871Y11665
X8871Y14205
X48037Y65938
X5494Y65958
T7
X11235Y82692
X1336Y1265
X58735Y58664
X1336Y58664
X58735Y1265
X11235Y68192
X48778Y68182
X51278Y68182
X53778Y68182
X48778Y82682
X53778Y82682
X8735Y68192
X6235Y68192
X6235Y82692
X24865Y82160
X27405Y82160
X29945Y82160
X32485Y82160
X35025Y82160
X37565Y82160
X2540Y35108
X2540Y32568
X2540Y30028
X2540Y27488
X2540Y24948
X22325Y82160
T8
X35616Y25181
X20376Y25181
X35616Y22641
X35616Y20101
X35616Y17561
X35616Y15021
X35616Y12481
X35616Y9941
X35616Y7401
X35616Y4861
X35616Y2321
X20376Y2321
X20376Y4861
X20376Y7401
X20376Y9941
X20376Y12481
X20376Y35341
X20376Y17561
X20376Y20101
X20376Y22641
X22916Y58201
X22916Y53121
X22916Y50581
X22916Y48041
X20376Y15021
X35616Y55661
X35616Y53121
X35616Y50581
X35616Y48041
X35616Y45501
X35616Y42961
X35616Y40421
X35616Y37881
X35616Y35341
X35616Y32801
X35616Y30261
X35616Y27721
X20376Y27721
X20376Y30261
X20376Y32801
X20376Y37881
X20376Y40421
X20376Y42961
X20376Y45501
X20376Y48041
X20376Y50581
X20376Y53121
X35616Y58201
X20376Y55661
X20376Y58201
X35616Y60741
X20376Y60741
T9
X6095Y57120
X6095Y44420
X6095Y41880
X13905Y44420
X13905Y41880
X13905Y46960
X6095Y54580
X6095Y52040
X6095Y49500
X6095Y46960
X13905Y57120
X13905Y49500
X13905Y52040
X13905Y54580
T10
X45530Y41420
X47920Y31580
X47920Y29040
X47920Y26500
X47920Y23960
X47920Y21420
X47920Y18880
X55860Y18880
X55860Y21420
X55860Y23960
X55860Y26500
X55860Y29040
X55860Y31580
X55860Y34120
X45530Y54120
X45530Y51580
X45530Y49040
X45530Y46500
X45530Y43960
X45530Y38880
X53470Y38880
X53470Y41420
X53470Y43960
X53470Y46500
X53470Y49040
X53470Y51580
X53470Y54120
X47920Y34120
T11
X8500Y51000
X41000Y16500
X34000Y52000
X31500Y16500
X25500Y16500
X20000Y86500
X10000Y86500
X20000Y100000
X10000Y100000
X9000Y31000
X23000Y61000
X51500Y43000
X52000Y26500
X50000Y6000
X17000Y60000
X38000Y51000
X25500Y8500
X58500Y100000
X50000Y100000
X47500Y46000
X40000Y100000
X30000Y100000
X58500Y85500
X30000Y86000
X50000Y86000
X40000Y86000
X50000Y16000
X51500Y12500
X45000Y13500
X39500Y14000
X44000Y22500
X41000Y14000
X51000Y15000
X39500Y50000
X51500Y11000
X45000Y12000
X42500Y20500
X41000Y48500
X11500Y48000
X31500Y8500
M30