G04 EAGLE Gerber RS-274X export*
G75*
%MOMM*%
%FSLAX34Y34*%
%LPD*%
%IN*%
%IPPOS*%
%AMOC8*
5,1,8,0,0,1.08239X$1,22.5*%
G01*
%ADD10C,0.254000*%


D10*
X300Y300D02*
X606300Y300D01*
X606300Y1285300D01*
X300Y1285300D01*
X300Y300D01*
X478000Y568000D02*
X578000Y568000D01*
X578000Y668000D01*
X478000Y668000D01*
X478000Y568000D01*
X328000Y568000D02*
X428000Y568000D01*
X428000Y668000D01*
X328000Y668000D01*
X328000Y568000D01*
X28000Y118000D02*
X128000Y118000D01*
X128000Y218000D01*
X28000Y218000D01*
X28000Y118000D01*
X178000Y118000D02*
X278000Y118000D01*
X278000Y218000D01*
X178000Y218000D01*
X178000Y118000D01*
X328000Y118000D02*
X428000Y118000D01*
X428000Y218000D01*
X328000Y218000D01*
X328000Y118000D01*
X478000Y118000D02*
X578000Y118000D01*
X578000Y218000D01*
X478000Y218000D01*
X478000Y118000D01*
X28000Y268000D02*
X128000Y268000D01*
X128000Y368000D01*
X28000Y368000D01*
X28000Y268000D01*
X28000Y418000D02*
X128000Y418000D01*
X128000Y518000D01*
X28000Y518000D01*
X28000Y418000D01*
X28000Y568000D02*
X128000Y568000D01*
X128000Y668000D01*
X28000Y668000D01*
X28000Y568000D01*
X178000Y268000D02*
X278000Y268000D01*
X278000Y368000D01*
X178000Y368000D01*
X178000Y268000D01*
X328000Y268000D02*
X428000Y268000D01*
X428000Y368000D01*
X328000Y368000D01*
X328000Y268000D01*
X478000Y268000D02*
X578000Y268000D01*
X578000Y368000D01*
X478000Y368000D01*
X478000Y268000D01*
X178000Y418000D02*
X278000Y418000D01*
X278000Y518000D01*
X178000Y518000D01*
X178000Y418000D01*
X328000Y418000D02*
X428000Y418000D01*
X428000Y518000D01*
X328000Y518000D01*
X328000Y418000D01*
X478000Y418000D02*
X578000Y418000D01*
X578000Y518000D01*
X478000Y518000D01*
X478000Y418000D01*
X178000Y568000D02*
X278000Y568000D01*
X278000Y668000D01*
X178000Y668000D01*
X178000Y568000D01*
X162500Y725000D02*
X442500Y725000D01*
X442500Y897500D01*
X162500Y897500D01*
X162500Y725000D01*
X82500Y1121764D02*
X82428Y1120292D01*
X82283Y1118827D01*
X82067Y1117370D01*
X81780Y1115925D01*
X81422Y1114496D01*
X80994Y1113087D01*
X80498Y1111700D01*
X79935Y1110339D01*
X79305Y1109008D01*
X78610Y1107709D01*
X77853Y1106445D01*
X77035Y1105221D01*
X76158Y1104038D01*
X75223Y1102899D01*
X74234Y1101808D01*
X73192Y1100766D01*
X72101Y1099777D01*
X70963Y1098842D01*
X69779Y1097965D01*
X68555Y1097147D01*
X67291Y1096390D01*
X65992Y1095695D01*
X64661Y1095065D01*
X63300Y1094502D01*
X61913Y1094006D01*
X60504Y1093578D01*
X59075Y1093220D01*
X57630Y1092933D01*
X56173Y1092717D01*
X54708Y1092572D01*
X53236Y1092500D01*
X51764Y1092500D01*
X50292Y1092572D01*
X48827Y1092717D01*
X47370Y1092933D01*
X45925Y1093220D01*
X44496Y1093578D01*
X43087Y1094006D01*
X41700Y1094502D01*
X40339Y1095065D01*
X39008Y1095695D01*
X37709Y1096390D01*
X36445Y1097147D01*
X35221Y1097965D01*
X34038Y1098842D01*
X32899Y1099777D01*
X31808Y1100766D01*
X30766Y1101808D01*
X29777Y1102899D01*
X28842Y1104038D01*
X27965Y1105221D01*
X27147Y1106445D01*
X26390Y1107709D01*
X25695Y1109008D01*
X25065Y1110339D01*
X24502Y1111700D01*
X24006Y1113087D01*
X23578Y1114496D01*
X23220Y1115925D01*
X22933Y1117370D01*
X22717Y1118827D01*
X22572Y1120292D01*
X22500Y1121764D01*
X22500Y1123236D01*
X22572Y1124708D01*
X22717Y1126173D01*
X22933Y1127630D01*
X23220Y1129075D01*
X23578Y1130504D01*
X24006Y1131913D01*
X24502Y1133300D01*
X25065Y1134661D01*
X25695Y1135992D01*
X26390Y1137291D01*
X27147Y1138555D01*
X27965Y1139779D01*
X28842Y1140963D01*
X29777Y1142101D01*
X30766Y1143192D01*
X31808Y1144234D01*
X32899Y1145223D01*
X34038Y1146158D01*
X35221Y1147035D01*
X36445Y1147853D01*
X37709Y1148610D01*
X39008Y1149305D01*
X40339Y1149935D01*
X41700Y1150498D01*
X43087Y1150994D01*
X44496Y1151422D01*
X45925Y1151780D01*
X47370Y1152067D01*
X48827Y1152283D01*
X50292Y1152428D01*
X51764Y1152500D01*
X53236Y1152500D01*
X54708Y1152428D01*
X56173Y1152283D01*
X57630Y1152067D01*
X59075Y1151780D01*
X60504Y1151422D01*
X61913Y1150994D01*
X63300Y1150498D01*
X64661Y1149935D01*
X65992Y1149305D01*
X67291Y1148610D01*
X68555Y1147853D01*
X69779Y1147035D01*
X70963Y1146158D01*
X72101Y1145223D01*
X73192Y1144234D01*
X74234Y1143192D01*
X75223Y1142101D01*
X76158Y1140963D01*
X77035Y1139779D01*
X77853Y1138555D01*
X78610Y1137291D01*
X79305Y1135992D01*
X79935Y1134661D01*
X80498Y1133300D01*
X80994Y1131913D01*
X81422Y1130504D01*
X81780Y1129075D01*
X82067Y1127630D01*
X82283Y1126173D01*
X82428Y1124708D01*
X82500Y1123236D01*
X82500Y1121764D01*
X182500Y1121764D02*
X182428Y1120292D01*
X182283Y1118827D01*
X182067Y1117370D01*
X181780Y1115925D01*
X181422Y1114496D01*
X180994Y1113087D01*
X180498Y1111700D01*
X179935Y1110339D01*
X179305Y1109008D01*
X178610Y1107709D01*
X177853Y1106445D01*
X177035Y1105221D01*
X176158Y1104038D01*
X175223Y1102899D01*
X174234Y1101808D01*
X173192Y1100766D01*
X172101Y1099777D01*
X170963Y1098842D01*
X169779Y1097965D01*
X168555Y1097147D01*
X167291Y1096390D01*
X165992Y1095695D01*
X164661Y1095065D01*
X163300Y1094502D01*
X161913Y1094006D01*
X160504Y1093578D01*
X159075Y1093220D01*
X157630Y1092933D01*
X156173Y1092717D01*
X154708Y1092572D01*
X153236Y1092500D01*
X151764Y1092500D01*
X150292Y1092572D01*
X148827Y1092717D01*
X147370Y1092933D01*
X145925Y1093220D01*
X144496Y1093578D01*
X143087Y1094006D01*
X141700Y1094502D01*
X140339Y1095065D01*
X139008Y1095695D01*
X137709Y1096390D01*
X136445Y1097147D01*
X135221Y1097965D01*
X134038Y1098842D01*
X132899Y1099777D01*
X131808Y1100766D01*
X130766Y1101808D01*
X129777Y1102899D01*
X128842Y1104038D01*
X127965Y1105221D01*
X127147Y1106445D01*
X126390Y1107709D01*
X125695Y1109008D01*
X125065Y1110339D01*
X124502Y1111700D01*
X124006Y1113087D01*
X123578Y1114496D01*
X123220Y1115925D01*
X122933Y1117370D01*
X122717Y1118827D01*
X122572Y1120292D01*
X122500Y1121764D01*
X122500Y1123236D01*
X122572Y1124708D01*
X122717Y1126173D01*
X122933Y1127630D01*
X123220Y1129075D01*
X123578Y1130504D01*
X124006Y1131913D01*
X124502Y1133300D01*
X125065Y1134661D01*
X125695Y1135992D01*
X126390Y1137291D01*
X127147Y1138555D01*
X127965Y1139779D01*
X128842Y1140963D01*
X129777Y1142101D01*
X130766Y1143192D01*
X131808Y1144234D01*
X132899Y1145223D01*
X134038Y1146158D01*
X135221Y1147035D01*
X136445Y1147853D01*
X137709Y1148610D01*
X139008Y1149305D01*
X140339Y1149935D01*
X141700Y1150498D01*
X143087Y1150994D01*
X144496Y1151422D01*
X145925Y1151780D01*
X147370Y1152067D01*
X148827Y1152283D01*
X150292Y1152428D01*
X151764Y1152500D01*
X153236Y1152500D01*
X154708Y1152428D01*
X156173Y1152283D01*
X157630Y1152067D01*
X159075Y1151780D01*
X160504Y1151422D01*
X161913Y1150994D01*
X163300Y1150498D01*
X164661Y1149935D01*
X165992Y1149305D01*
X167291Y1148610D01*
X168555Y1147853D01*
X169779Y1147035D01*
X170963Y1146158D01*
X172101Y1145223D01*
X173192Y1144234D01*
X174234Y1143192D01*
X175223Y1142101D01*
X176158Y1140963D01*
X177035Y1139779D01*
X177853Y1138555D01*
X178610Y1137291D01*
X179305Y1135992D01*
X179935Y1134661D01*
X180498Y1133300D01*
X180994Y1131913D01*
X181422Y1130504D01*
X181780Y1129075D01*
X182067Y1127630D01*
X182283Y1126173D01*
X182428Y1124708D01*
X182500Y1123236D01*
X182500Y1121764D01*
X82500Y991764D02*
X82428Y990292D01*
X82283Y988827D01*
X82067Y987370D01*
X81780Y985925D01*
X81422Y984496D01*
X80994Y983087D01*
X80498Y981700D01*
X79935Y980339D01*
X79305Y979008D01*
X78610Y977709D01*
X77853Y976445D01*
X77035Y975221D01*
X76158Y974038D01*
X75223Y972899D01*
X74234Y971808D01*
X73192Y970766D01*
X72101Y969777D01*
X70963Y968842D01*
X69779Y967965D01*
X68555Y967147D01*
X67291Y966390D01*
X65992Y965695D01*
X64661Y965065D01*
X63300Y964502D01*
X61913Y964006D01*
X60504Y963578D01*
X59075Y963220D01*
X57630Y962933D01*
X56173Y962717D01*
X54708Y962572D01*
X53236Y962500D01*
X51764Y962500D01*
X50292Y962572D01*
X48827Y962717D01*
X47370Y962933D01*
X45925Y963220D01*
X44496Y963578D01*
X43087Y964006D01*
X41700Y964502D01*
X40339Y965065D01*
X39008Y965695D01*
X37709Y966390D01*
X36445Y967147D01*
X35221Y967965D01*
X34038Y968842D01*
X32899Y969777D01*
X31808Y970766D01*
X30766Y971808D01*
X29777Y972899D01*
X28842Y974038D01*
X27965Y975221D01*
X27147Y976445D01*
X26390Y977709D01*
X25695Y979008D01*
X25065Y980339D01*
X24502Y981700D01*
X24006Y983087D01*
X23578Y984496D01*
X23220Y985925D01*
X22933Y987370D01*
X22717Y988827D01*
X22572Y990292D01*
X22500Y991764D01*
X22500Y993236D01*
X22572Y994708D01*
X22717Y996173D01*
X22933Y997630D01*
X23220Y999075D01*
X23578Y1000504D01*
X24006Y1001913D01*
X24502Y1003300D01*
X25065Y1004661D01*
X25695Y1005992D01*
X26390Y1007291D01*
X27147Y1008555D01*
X27965Y1009779D01*
X28842Y1010963D01*
X29777Y1012101D01*
X30766Y1013192D01*
X31808Y1014234D01*
X32899Y1015223D01*
X34038Y1016158D01*
X35221Y1017035D01*
X36445Y1017853D01*
X37709Y1018610D01*
X39008Y1019305D01*
X40339Y1019935D01*
X41700Y1020498D01*
X43087Y1020994D01*
X44496Y1021422D01*
X45925Y1021780D01*
X47370Y1022067D01*
X48827Y1022283D01*
X50292Y1022428D01*
X51764Y1022500D01*
X53236Y1022500D01*
X54708Y1022428D01*
X56173Y1022283D01*
X57630Y1022067D01*
X59075Y1021780D01*
X60504Y1021422D01*
X61913Y1020994D01*
X63300Y1020498D01*
X64661Y1019935D01*
X65992Y1019305D01*
X67291Y1018610D01*
X68555Y1017853D01*
X69779Y1017035D01*
X70963Y1016158D01*
X72101Y1015223D01*
X73192Y1014234D01*
X74234Y1013192D01*
X75223Y1012101D01*
X76158Y1010963D01*
X77035Y1009779D01*
X77853Y1008555D01*
X78610Y1007291D01*
X79305Y1005992D01*
X79935Y1004661D01*
X80498Y1003300D01*
X80994Y1001913D01*
X81422Y1000504D01*
X81780Y999075D01*
X82067Y997630D01*
X82283Y996173D01*
X82428Y994708D01*
X82500Y993236D01*
X82500Y991764D01*
X182500Y991764D02*
X182428Y990292D01*
X182283Y988827D01*
X182067Y987370D01*
X181780Y985925D01*
X181422Y984496D01*
X180994Y983087D01*
X180498Y981700D01*
X179935Y980339D01*
X179305Y979008D01*
X178610Y977709D01*
X177853Y976445D01*
X177035Y975221D01*
X176158Y974038D01*
X175223Y972899D01*
X174234Y971808D01*
X173192Y970766D01*
X172101Y969777D01*
X170963Y968842D01*
X169779Y967965D01*
X168555Y967147D01*
X167291Y966390D01*
X165992Y965695D01*
X164661Y965065D01*
X163300Y964502D01*
X161913Y964006D01*
X160504Y963578D01*
X159075Y963220D01*
X157630Y962933D01*
X156173Y962717D01*
X154708Y962572D01*
X153236Y962500D01*
X151764Y962500D01*
X150292Y962572D01*
X148827Y962717D01*
X147370Y962933D01*
X145925Y963220D01*
X144496Y963578D01*
X143087Y964006D01*
X141700Y964502D01*
X140339Y965065D01*
X139008Y965695D01*
X137709Y966390D01*
X136445Y967147D01*
X135221Y967965D01*
X134038Y968842D01*
X132899Y969777D01*
X131808Y970766D01*
X130766Y971808D01*
X129777Y972899D01*
X128842Y974038D01*
X127965Y975221D01*
X127147Y976445D01*
X126390Y977709D01*
X125695Y979008D01*
X125065Y980339D01*
X124502Y981700D01*
X124006Y983087D01*
X123578Y984496D01*
X123220Y985925D01*
X122933Y987370D01*
X122717Y988827D01*
X122572Y990292D01*
X122500Y991764D01*
X122500Y993236D01*
X122572Y994708D01*
X122717Y996173D01*
X122933Y997630D01*
X123220Y999075D01*
X123578Y1000504D01*
X124006Y1001913D01*
X124502Y1003300D01*
X125065Y1004661D01*
X125695Y1005992D01*
X126390Y1007291D01*
X127147Y1008555D01*
X127965Y1009779D01*
X128842Y1010963D01*
X129777Y1012101D01*
X130766Y1013192D01*
X131808Y1014234D01*
X132899Y1015223D01*
X134038Y1016158D01*
X135221Y1017035D01*
X136445Y1017853D01*
X137709Y1018610D01*
X139008Y1019305D01*
X140339Y1019935D01*
X141700Y1020498D01*
X143087Y1020994D01*
X144496Y1021422D01*
X145925Y1021780D01*
X147370Y1022067D01*
X148827Y1022283D01*
X150292Y1022428D01*
X151764Y1022500D01*
X153236Y1022500D01*
X154708Y1022428D01*
X156173Y1022283D01*
X157630Y1022067D01*
X159075Y1021780D01*
X160504Y1021422D01*
X161913Y1020994D01*
X163300Y1020498D01*
X164661Y1019935D01*
X165992Y1019305D01*
X167291Y1018610D01*
X168555Y1017853D01*
X169779Y1017035D01*
X170963Y1016158D01*
X172101Y1015223D01*
X173192Y1014234D01*
X174234Y1013192D01*
X175223Y1012101D01*
X176158Y1010963D01*
X177035Y1009779D01*
X177853Y1008555D01*
X178610Y1007291D01*
X179305Y1005992D01*
X179935Y1004661D01*
X180498Y1003300D01*
X180994Y1001913D01*
X181422Y1000504D01*
X181780Y999075D01*
X182067Y997630D01*
X182283Y996173D01*
X182428Y994708D01*
X182500Y993236D01*
X182500Y991764D01*
X283300Y1121964D02*
X283228Y1120492D01*
X283083Y1119027D01*
X282867Y1117570D01*
X282580Y1116125D01*
X282222Y1114696D01*
X281794Y1113287D01*
X281298Y1111900D01*
X280735Y1110539D01*
X280105Y1109208D01*
X279410Y1107909D01*
X278653Y1106645D01*
X277835Y1105421D01*
X276958Y1104238D01*
X276023Y1103099D01*
X275034Y1102008D01*
X273992Y1100966D01*
X272901Y1099977D01*
X271763Y1099042D01*
X270579Y1098165D01*
X269355Y1097347D01*
X268091Y1096590D01*
X266792Y1095895D01*
X265461Y1095265D01*
X264100Y1094702D01*
X262713Y1094206D01*
X261304Y1093778D01*
X259875Y1093420D01*
X258430Y1093133D01*
X256973Y1092917D01*
X255508Y1092772D01*
X254036Y1092700D01*
X252564Y1092700D01*
X251092Y1092772D01*
X249627Y1092917D01*
X248170Y1093133D01*
X246725Y1093420D01*
X245296Y1093778D01*
X243887Y1094206D01*
X242500Y1094702D01*
X241139Y1095265D01*
X239808Y1095895D01*
X238509Y1096590D01*
X237245Y1097347D01*
X236021Y1098165D01*
X234838Y1099042D01*
X233699Y1099977D01*
X232608Y1100966D01*
X231566Y1102008D01*
X230577Y1103099D01*
X229642Y1104238D01*
X228765Y1105421D01*
X227947Y1106645D01*
X227190Y1107909D01*
X226495Y1109208D01*
X225865Y1110539D01*
X225302Y1111900D01*
X224806Y1113287D01*
X224378Y1114696D01*
X224020Y1116125D01*
X223733Y1117570D01*
X223517Y1119027D01*
X223372Y1120492D01*
X223300Y1121964D01*
X223300Y1123436D01*
X223372Y1124908D01*
X223517Y1126373D01*
X223733Y1127830D01*
X224020Y1129275D01*
X224378Y1130704D01*
X224806Y1132113D01*
X225302Y1133500D01*
X225865Y1134861D01*
X226495Y1136192D01*
X227190Y1137491D01*
X227947Y1138755D01*
X228765Y1139979D01*
X229642Y1141163D01*
X230577Y1142301D01*
X231566Y1143392D01*
X232608Y1144434D01*
X233699Y1145423D01*
X234838Y1146358D01*
X236021Y1147235D01*
X237245Y1148053D01*
X238509Y1148810D01*
X239808Y1149505D01*
X241139Y1150135D01*
X242500Y1150698D01*
X243887Y1151194D01*
X245296Y1151622D01*
X246725Y1151980D01*
X248170Y1152267D01*
X249627Y1152483D01*
X251092Y1152628D01*
X252564Y1152700D01*
X254036Y1152700D01*
X255508Y1152628D01*
X256973Y1152483D01*
X258430Y1152267D01*
X259875Y1151980D01*
X261304Y1151622D01*
X262713Y1151194D01*
X264100Y1150698D01*
X265461Y1150135D01*
X266792Y1149505D01*
X268091Y1148810D01*
X269355Y1148053D01*
X270579Y1147235D01*
X271763Y1146358D01*
X272901Y1145423D01*
X273992Y1144434D01*
X275034Y1143392D01*
X276023Y1142301D01*
X276958Y1141163D01*
X277835Y1139979D01*
X278653Y1138755D01*
X279410Y1137491D01*
X280105Y1136192D01*
X280735Y1134861D01*
X281298Y1133500D01*
X281794Y1132113D01*
X282222Y1130704D01*
X282580Y1129275D01*
X282867Y1127830D01*
X283083Y1126373D01*
X283228Y1124908D01*
X283300Y1123436D01*
X283300Y1121964D01*
X283300Y991964D02*
X283228Y990492D01*
X283083Y989027D01*
X282867Y987570D01*
X282580Y986125D01*
X282222Y984696D01*
X281794Y983287D01*
X281298Y981900D01*
X280735Y980539D01*
X280105Y979208D01*
X279410Y977909D01*
X278653Y976645D01*
X277835Y975421D01*
X276958Y974238D01*
X276023Y973099D01*
X275034Y972008D01*
X273992Y970966D01*
X272901Y969977D01*
X271763Y969042D01*
X270579Y968165D01*
X269355Y967347D01*
X268091Y966590D01*
X266792Y965895D01*
X265461Y965265D01*
X264100Y964702D01*
X262713Y964206D01*
X261304Y963778D01*
X259875Y963420D01*
X258430Y963133D01*
X256973Y962917D01*
X255508Y962772D01*
X254036Y962700D01*
X252564Y962700D01*
X251092Y962772D01*
X249627Y962917D01*
X248170Y963133D01*
X246725Y963420D01*
X245296Y963778D01*
X243887Y964206D01*
X242500Y964702D01*
X241139Y965265D01*
X239808Y965895D01*
X238509Y966590D01*
X237245Y967347D01*
X236021Y968165D01*
X234838Y969042D01*
X233699Y969977D01*
X232608Y970966D01*
X231566Y972008D01*
X230577Y973099D01*
X229642Y974238D01*
X228765Y975421D01*
X227947Y976645D01*
X227190Y977909D01*
X226495Y979208D01*
X225865Y980539D01*
X225302Y981900D01*
X224806Y983287D01*
X224378Y984696D01*
X224020Y986125D01*
X223733Y987570D01*
X223517Y989027D01*
X223372Y990492D01*
X223300Y991964D01*
X223300Y993436D01*
X223372Y994908D01*
X223517Y996373D01*
X223733Y997830D01*
X224020Y999275D01*
X224378Y1000704D01*
X224806Y1002113D01*
X225302Y1003500D01*
X225865Y1004861D01*
X226495Y1006192D01*
X227190Y1007491D01*
X227947Y1008755D01*
X228765Y1009979D01*
X229642Y1011163D01*
X230577Y1012301D01*
X231566Y1013392D01*
X232608Y1014434D01*
X233699Y1015423D01*
X234838Y1016358D01*
X236021Y1017235D01*
X237245Y1018053D01*
X238509Y1018810D01*
X239808Y1019505D01*
X241139Y1020135D01*
X242500Y1020698D01*
X243887Y1021194D01*
X245296Y1021622D01*
X246725Y1021980D01*
X248170Y1022267D01*
X249627Y1022483D01*
X251092Y1022628D01*
X252564Y1022700D01*
X254036Y1022700D01*
X255508Y1022628D01*
X256973Y1022483D01*
X258430Y1022267D01*
X259875Y1021980D01*
X261304Y1021622D01*
X262713Y1021194D01*
X264100Y1020698D01*
X265461Y1020135D01*
X266792Y1019505D01*
X268091Y1018810D01*
X269355Y1018053D01*
X270579Y1017235D01*
X271763Y1016358D01*
X272901Y1015423D01*
X273992Y1014434D01*
X275034Y1013392D01*
X276023Y1012301D01*
X276958Y1011163D01*
X277835Y1009979D01*
X278653Y1008755D01*
X279410Y1007491D01*
X280105Y1006192D01*
X280735Y1004861D01*
X281298Y1003500D01*
X281794Y1002113D01*
X282222Y1000704D01*
X282580Y999275D01*
X282867Y997830D01*
X283083Y996373D01*
X283228Y994908D01*
X283300Y993436D01*
X283300Y991964D01*
X383300Y991964D02*
X383228Y990492D01*
X383083Y989027D01*
X382867Y987570D01*
X382580Y986125D01*
X382222Y984696D01*
X381794Y983287D01*
X381298Y981900D01*
X380735Y980539D01*
X380105Y979208D01*
X379410Y977909D01*
X378653Y976645D01*
X377835Y975421D01*
X376958Y974238D01*
X376023Y973099D01*
X375034Y972008D01*
X373992Y970966D01*
X372901Y969977D01*
X371763Y969042D01*
X370579Y968165D01*
X369355Y967347D01*
X368091Y966590D01*
X366792Y965895D01*
X365461Y965265D01*
X364100Y964702D01*
X362713Y964206D01*
X361304Y963778D01*
X359875Y963420D01*
X358430Y963133D01*
X356973Y962917D01*
X355508Y962772D01*
X354036Y962700D01*
X352564Y962700D01*
X351092Y962772D01*
X349627Y962917D01*
X348170Y963133D01*
X346725Y963420D01*
X345296Y963778D01*
X343887Y964206D01*
X342500Y964702D01*
X341139Y965265D01*
X339808Y965895D01*
X338509Y966590D01*
X337245Y967347D01*
X336021Y968165D01*
X334838Y969042D01*
X333699Y969977D01*
X332608Y970966D01*
X331566Y972008D01*
X330577Y973099D01*
X329642Y974238D01*
X328765Y975421D01*
X327947Y976645D01*
X327190Y977909D01*
X326495Y979208D01*
X325865Y980539D01*
X325302Y981900D01*
X324806Y983287D01*
X324378Y984696D01*
X324020Y986125D01*
X323733Y987570D01*
X323517Y989027D01*
X323372Y990492D01*
X323300Y991964D01*
X323300Y993436D01*
X323372Y994908D01*
X323517Y996373D01*
X323733Y997830D01*
X324020Y999275D01*
X324378Y1000704D01*
X324806Y1002113D01*
X325302Y1003500D01*
X325865Y1004861D01*
X326495Y1006192D01*
X327190Y1007491D01*
X327947Y1008755D01*
X328765Y1009979D01*
X329642Y1011163D01*
X330577Y1012301D01*
X331566Y1013392D01*
X332608Y1014434D01*
X333699Y1015423D01*
X334838Y1016358D01*
X336021Y1017235D01*
X337245Y1018053D01*
X338509Y1018810D01*
X339808Y1019505D01*
X341139Y1020135D01*
X342500Y1020698D01*
X343887Y1021194D01*
X345296Y1021622D01*
X346725Y1021980D01*
X348170Y1022267D01*
X349627Y1022483D01*
X351092Y1022628D01*
X352564Y1022700D01*
X354036Y1022700D01*
X355508Y1022628D01*
X356973Y1022483D01*
X358430Y1022267D01*
X359875Y1021980D01*
X361304Y1021622D01*
X362713Y1021194D01*
X364100Y1020698D01*
X365461Y1020135D01*
X366792Y1019505D01*
X368091Y1018810D01*
X369355Y1018053D01*
X370579Y1017235D01*
X371763Y1016358D01*
X372901Y1015423D01*
X373992Y1014434D01*
X375034Y1013392D01*
X376023Y1012301D01*
X376958Y1011163D01*
X377835Y1009979D01*
X378653Y1008755D01*
X379410Y1007491D01*
X380105Y1006192D01*
X380735Y1004861D01*
X381298Y1003500D01*
X381794Y1002113D01*
X382222Y1000704D01*
X382580Y999275D01*
X382867Y997830D01*
X383083Y996373D01*
X383228Y994908D01*
X383300Y993436D01*
X383300Y991964D01*
X383300Y1121964D02*
X383228Y1120492D01*
X383083Y1119027D01*
X382867Y1117570D01*
X382580Y1116125D01*
X382222Y1114696D01*
X381794Y1113287D01*
X381298Y1111900D01*
X380735Y1110539D01*
X380105Y1109208D01*
X379410Y1107909D01*
X378653Y1106645D01*
X377835Y1105421D01*
X376958Y1104238D01*
X376023Y1103099D01*
X375034Y1102008D01*
X373992Y1100966D01*
X372901Y1099977D01*
X371763Y1099042D01*
X370579Y1098165D01*
X369355Y1097347D01*
X368091Y1096590D01*
X366792Y1095895D01*
X365461Y1095265D01*
X364100Y1094702D01*
X362713Y1094206D01*
X361304Y1093778D01*
X359875Y1093420D01*
X358430Y1093133D01*
X356973Y1092917D01*
X355508Y1092772D01*
X354036Y1092700D01*
X352564Y1092700D01*
X351092Y1092772D01*
X349627Y1092917D01*
X348170Y1093133D01*
X346725Y1093420D01*
X345296Y1093778D01*
X343887Y1094206D01*
X342500Y1094702D01*
X341139Y1095265D01*
X339808Y1095895D01*
X338509Y1096590D01*
X337245Y1097347D01*
X336021Y1098165D01*
X334838Y1099042D01*
X333699Y1099977D01*
X332608Y1100966D01*
X331566Y1102008D01*
X330577Y1103099D01*
X329642Y1104238D01*
X328765Y1105421D01*
X327947Y1106645D01*
X327190Y1107909D01*
X326495Y1109208D01*
X325865Y1110539D01*
X325302Y1111900D01*
X324806Y1113287D01*
X324378Y1114696D01*
X324020Y1116125D01*
X323733Y1117570D01*
X323517Y1119027D01*
X323372Y1120492D01*
X323300Y1121964D01*
X323300Y1123436D01*
X323372Y1124908D01*
X323517Y1126373D01*
X323733Y1127830D01*
X324020Y1129275D01*
X324378Y1130704D01*
X324806Y1132113D01*
X325302Y1133500D01*
X325865Y1134861D01*
X326495Y1136192D01*
X327190Y1137491D01*
X327947Y1138755D01*
X328765Y1139979D01*
X329642Y1141163D01*
X330577Y1142301D01*
X331566Y1143392D01*
X332608Y1144434D01*
X333699Y1145423D01*
X334838Y1146358D01*
X336021Y1147235D01*
X337245Y1148053D01*
X338509Y1148810D01*
X339808Y1149505D01*
X341139Y1150135D01*
X342500Y1150698D01*
X343887Y1151194D01*
X345296Y1151622D01*
X346725Y1151980D01*
X348170Y1152267D01*
X349627Y1152483D01*
X351092Y1152628D01*
X352564Y1152700D01*
X354036Y1152700D01*
X355508Y1152628D01*
X356973Y1152483D01*
X358430Y1152267D01*
X359875Y1151980D01*
X361304Y1151622D01*
X362713Y1151194D01*
X364100Y1150698D01*
X365461Y1150135D01*
X366792Y1149505D01*
X368091Y1148810D01*
X369355Y1148053D01*
X370579Y1147235D01*
X371763Y1146358D01*
X372901Y1145423D01*
X373992Y1144434D01*
X375034Y1143392D01*
X376023Y1142301D01*
X376958Y1141163D01*
X377835Y1139979D01*
X378653Y1138755D01*
X379410Y1137491D01*
X380105Y1136192D01*
X380735Y1134861D01*
X381298Y1133500D01*
X381794Y1132113D01*
X382222Y1130704D01*
X382580Y1129275D01*
X382867Y1127830D01*
X383083Y1126373D01*
X383228Y1124908D01*
X383300Y1123436D01*
X383300Y1121964D01*
X483300Y1121964D02*
X483228Y1120492D01*
X483083Y1119027D01*
X482867Y1117570D01*
X482580Y1116125D01*
X482222Y1114696D01*
X481794Y1113287D01*
X481298Y1111900D01*
X480735Y1110539D01*
X480105Y1109208D01*
X479410Y1107909D01*
X478653Y1106645D01*
X477835Y1105421D01*
X476958Y1104238D01*
X476023Y1103099D01*
X475034Y1102008D01*
X473992Y1100966D01*
X472901Y1099977D01*
X471763Y1099042D01*
X470579Y1098165D01*
X469355Y1097347D01*
X468091Y1096590D01*
X466792Y1095895D01*
X465461Y1095265D01*
X464100Y1094702D01*
X462713Y1094206D01*
X461304Y1093778D01*
X459875Y1093420D01*
X458430Y1093133D01*
X456973Y1092917D01*
X455508Y1092772D01*
X454036Y1092700D01*
X452564Y1092700D01*
X451092Y1092772D01*
X449627Y1092917D01*
X448170Y1093133D01*
X446725Y1093420D01*
X445296Y1093778D01*
X443887Y1094206D01*
X442500Y1094702D01*
X441139Y1095265D01*
X439808Y1095895D01*
X438509Y1096590D01*
X437245Y1097347D01*
X436021Y1098165D01*
X434838Y1099042D01*
X433699Y1099977D01*
X432608Y1100966D01*
X431566Y1102008D01*
X430577Y1103099D01*
X429642Y1104238D01*
X428765Y1105421D01*
X427947Y1106645D01*
X427190Y1107909D01*
X426495Y1109208D01*
X425865Y1110539D01*
X425302Y1111900D01*
X424806Y1113287D01*
X424378Y1114696D01*
X424020Y1116125D01*
X423733Y1117570D01*
X423517Y1119027D01*
X423372Y1120492D01*
X423300Y1121964D01*
X423300Y1123436D01*
X423372Y1124908D01*
X423517Y1126373D01*
X423733Y1127830D01*
X424020Y1129275D01*
X424378Y1130704D01*
X424806Y1132113D01*
X425302Y1133500D01*
X425865Y1134861D01*
X426495Y1136192D01*
X427190Y1137491D01*
X427947Y1138755D01*
X428765Y1139979D01*
X429642Y1141163D01*
X430577Y1142301D01*
X431566Y1143392D01*
X432608Y1144434D01*
X433699Y1145423D01*
X434838Y1146358D01*
X436021Y1147235D01*
X437245Y1148053D01*
X438509Y1148810D01*
X439808Y1149505D01*
X441139Y1150135D01*
X442500Y1150698D01*
X443887Y1151194D01*
X445296Y1151622D01*
X446725Y1151980D01*
X448170Y1152267D01*
X449627Y1152483D01*
X451092Y1152628D01*
X452564Y1152700D01*
X454036Y1152700D01*
X455508Y1152628D01*
X456973Y1152483D01*
X458430Y1152267D01*
X459875Y1151980D01*
X461304Y1151622D01*
X462713Y1151194D01*
X464100Y1150698D01*
X465461Y1150135D01*
X466792Y1149505D01*
X468091Y1148810D01*
X469355Y1148053D01*
X470579Y1147235D01*
X471763Y1146358D01*
X472901Y1145423D01*
X473992Y1144434D01*
X475034Y1143392D01*
X476023Y1142301D01*
X476958Y1141163D01*
X477835Y1139979D01*
X478653Y1138755D01*
X479410Y1137491D01*
X480105Y1136192D01*
X480735Y1134861D01*
X481298Y1133500D01*
X481794Y1132113D01*
X482222Y1130704D01*
X482580Y1129275D01*
X482867Y1127830D01*
X483083Y1126373D01*
X483228Y1124908D01*
X483300Y1123436D01*
X483300Y1121964D01*
X483300Y991964D02*
X483228Y990492D01*
X483083Y989027D01*
X482867Y987570D01*
X482580Y986125D01*
X482222Y984696D01*
X481794Y983287D01*
X481298Y981900D01*
X480735Y980539D01*
X480105Y979208D01*
X479410Y977909D01*
X478653Y976645D01*
X477835Y975421D01*
X476958Y974238D01*
X476023Y973099D01*
X475034Y972008D01*
X473992Y970966D01*
X472901Y969977D01*
X471763Y969042D01*
X470579Y968165D01*
X469355Y967347D01*
X468091Y966590D01*
X466792Y965895D01*
X465461Y965265D01*
X464100Y964702D01*
X462713Y964206D01*
X461304Y963778D01*
X459875Y963420D01*
X458430Y963133D01*
X456973Y962917D01*
X455508Y962772D01*
X454036Y962700D01*
X452564Y962700D01*
X451092Y962772D01*
X449627Y962917D01*
X448170Y963133D01*
X446725Y963420D01*
X445296Y963778D01*
X443887Y964206D01*
X442500Y964702D01*
X441139Y965265D01*
X439808Y965895D01*
X438509Y966590D01*
X437245Y967347D01*
X436021Y968165D01*
X434838Y969042D01*
X433699Y969977D01*
X432608Y970966D01*
X431566Y972008D01*
X430577Y973099D01*
X429642Y974238D01*
X428765Y975421D01*
X427947Y976645D01*
X427190Y977909D01*
X426495Y979208D01*
X425865Y980539D01*
X425302Y981900D01*
X424806Y983287D01*
X424378Y984696D01*
X424020Y986125D01*
X423733Y987570D01*
X423517Y989027D01*
X423372Y990492D01*
X423300Y991964D01*
X423300Y993436D01*
X423372Y994908D01*
X423517Y996373D01*
X423733Y997830D01*
X424020Y999275D01*
X424378Y1000704D01*
X424806Y1002113D01*
X425302Y1003500D01*
X425865Y1004861D01*
X426495Y1006192D01*
X427190Y1007491D01*
X427947Y1008755D01*
X428765Y1009979D01*
X429642Y1011163D01*
X430577Y1012301D01*
X431566Y1013392D01*
X432608Y1014434D01*
X433699Y1015423D01*
X434838Y1016358D01*
X436021Y1017235D01*
X437245Y1018053D01*
X438509Y1018810D01*
X439808Y1019505D01*
X441139Y1020135D01*
X442500Y1020698D01*
X443887Y1021194D01*
X445296Y1021622D01*
X446725Y1021980D01*
X448170Y1022267D01*
X449627Y1022483D01*
X451092Y1022628D01*
X452564Y1022700D01*
X454036Y1022700D01*
X455508Y1022628D01*
X456973Y1022483D01*
X458430Y1022267D01*
X459875Y1021980D01*
X461304Y1021622D01*
X462713Y1021194D01*
X464100Y1020698D01*
X465461Y1020135D01*
X466792Y1019505D01*
X468091Y1018810D01*
X469355Y1018053D01*
X470579Y1017235D01*
X471763Y1016358D01*
X472901Y1015423D01*
X473992Y1014434D01*
X475034Y1013392D01*
X476023Y1012301D01*
X476958Y1011163D01*
X477835Y1009979D01*
X478653Y1008755D01*
X479410Y1007491D01*
X480105Y1006192D01*
X480735Y1004861D01*
X481298Y1003500D01*
X481794Y1002113D01*
X482222Y1000704D01*
X482580Y999275D01*
X482867Y997830D01*
X483083Y996373D01*
X483228Y994908D01*
X483300Y993436D01*
X483300Y991964D01*
X583300Y991964D02*
X583228Y990492D01*
X583083Y989027D01*
X582867Y987570D01*
X582580Y986125D01*
X582222Y984696D01*
X581794Y983287D01*
X581298Y981900D01*
X580735Y980539D01*
X580105Y979208D01*
X579410Y977909D01*
X578653Y976645D01*
X577835Y975421D01*
X576958Y974238D01*
X576023Y973099D01*
X575034Y972008D01*
X573992Y970966D01*
X572901Y969977D01*
X571763Y969042D01*
X570579Y968165D01*
X569355Y967347D01*
X568091Y966590D01*
X566792Y965895D01*
X565461Y965265D01*
X564100Y964702D01*
X562713Y964206D01*
X561304Y963778D01*
X559875Y963420D01*
X558430Y963133D01*
X556973Y962917D01*
X555508Y962772D01*
X554036Y962700D01*
X552564Y962700D01*
X551092Y962772D01*
X549627Y962917D01*
X548170Y963133D01*
X546725Y963420D01*
X545296Y963778D01*
X543887Y964206D01*
X542500Y964702D01*
X541139Y965265D01*
X539808Y965895D01*
X538509Y966590D01*
X537245Y967347D01*
X536021Y968165D01*
X534838Y969042D01*
X533699Y969977D01*
X532608Y970966D01*
X531566Y972008D01*
X530577Y973099D01*
X529642Y974238D01*
X528765Y975421D01*
X527947Y976645D01*
X527190Y977909D01*
X526495Y979208D01*
X525865Y980539D01*
X525302Y981900D01*
X524806Y983287D01*
X524378Y984696D01*
X524020Y986125D01*
X523733Y987570D01*
X523517Y989027D01*
X523372Y990492D01*
X523300Y991964D01*
X523300Y993436D01*
X523372Y994908D01*
X523517Y996373D01*
X523733Y997830D01*
X524020Y999275D01*
X524378Y1000704D01*
X524806Y1002113D01*
X525302Y1003500D01*
X525865Y1004861D01*
X526495Y1006192D01*
X527190Y1007491D01*
X527947Y1008755D01*
X528765Y1009979D01*
X529642Y1011163D01*
X530577Y1012301D01*
X531566Y1013392D01*
X532608Y1014434D01*
X533699Y1015423D01*
X534838Y1016358D01*
X536021Y1017235D01*
X537245Y1018053D01*
X538509Y1018810D01*
X539808Y1019505D01*
X541139Y1020135D01*
X542500Y1020698D01*
X543887Y1021194D01*
X545296Y1021622D01*
X546725Y1021980D01*
X548170Y1022267D01*
X549627Y1022483D01*
X551092Y1022628D01*
X552564Y1022700D01*
X554036Y1022700D01*
X555508Y1022628D01*
X556973Y1022483D01*
X558430Y1022267D01*
X559875Y1021980D01*
X561304Y1021622D01*
X562713Y1021194D01*
X564100Y1020698D01*
X565461Y1020135D01*
X566792Y1019505D01*
X568091Y1018810D01*
X569355Y1018053D01*
X570579Y1017235D01*
X571763Y1016358D01*
X572901Y1015423D01*
X573992Y1014434D01*
X575034Y1013392D01*
X576023Y1012301D01*
X576958Y1011163D01*
X577835Y1009979D01*
X578653Y1008755D01*
X579410Y1007491D01*
X580105Y1006192D01*
X580735Y1004861D01*
X581298Y1003500D01*
X581794Y1002113D01*
X582222Y1000704D01*
X582580Y999275D01*
X582867Y997830D01*
X583083Y996373D01*
X583228Y994908D01*
X583300Y993436D01*
X583300Y991964D01*
X583300Y1121964D02*
X583228Y1120492D01*
X583083Y1119027D01*
X582867Y1117570D01*
X582580Y1116125D01*
X582222Y1114696D01*
X581794Y1113287D01*
X581298Y1111900D01*
X580735Y1110539D01*
X580105Y1109208D01*
X579410Y1107909D01*
X578653Y1106645D01*
X577835Y1105421D01*
X576958Y1104238D01*
X576023Y1103099D01*
X575034Y1102008D01*
X573992Y1100966D01*
X572901Y1099977D01*
X571763Y1099042D01*
X570579Y1098165D01*
X569355Y1097347D01*
X568091Y1096590D01*
X566792Y1095895D01*
X565461Y1095265D01*
X564100Y1094702D01*
X562713Y1094206D01*
X561304Y1093778D01*
X559875Y1093420D01*
X558430Y1093133D01*
X556973Y1092917D01*
X555508Y1092772D01*
X554036Y1092700D01*
X552564Y1092700D01*
X551092Y1092772D01*
X549627Y1092917D01*
X548170Y1093133D01*
X546725Y1093420D01*
X545296Y1093778D01*
X543887Y1094206D01*
X542500Y1094702D01*
X541139Y1095265D01*
X539808Y1095895D01*
X538509Y1096590D01*
X537245Y1097347D01*
X536021Y1098165D01*
X534838Y1099042D01*
X533699Y1099977D01*
X532608Y1100966D01*
X531566Y1102008D01*
X530577Y1103099D01*
X529642Y1104238D01*
X528765Y1105421D01*
X527947Y1106645D01*
X527190Y1107909D01*
X526495Y1109208D01*
X525865Y1110539D01*
X525302Y1111900D01*
X524806Y1113287D01*
X524378Y1114696D01*
X524020Y1116125D01*
X523733Y1117570D01*
X523517Y1119027D01*
X523372Y1120492D01*
X523300Y1121964D01*
X523300Y1123436D01*
X523372Y1124908D01*
X523517Y1126373D01*
X523733Y1127830D01*
X524020Y1129275D01*
X524378Y1130704D01*
X524806Y1132113D01*
X525302Y1133500D01*
X525865Y1134861D01*
X526495Y1136192D01*
X527190Y1137491D01*
X527947Y1138755D01*
X528765Y1139979D01*
X529642Y1141163D01*
X530577Y1142301D01*
X531566Y1143392D01*
X532608Y1144434D01*
X533699Y1145423D01*
X534838Y1146358D01*
X536021Y1147235D01*
X537245Y1148053D01*
X538509Y1148810D01*
X539808Y1149505D01*
X541139Y1150135D01*
X542500Y1150698D01*
X543887Y1151194D01*
X545296Y1151622D01*
X546725Y1151980D01*
X548170Y1152267D01*
X549627Y1152483D01*
X551092Y1152628D01*
X552564Y1152700D01*
X554036Y1152700D01*
X555508Y1152628D01*
X556973Y1152483D01*
X558430Y1152267D01*
X559875Y1151980D01*
X561304Y1151622D01*
X562713Y1151194D01*
X564100Y1150698D01*
X565461Y1150135D01*
X566792Y1149505D01*
X568091Y1148810D01*
X569355Y1148053D01*
X570579Y1147235D01*
X571763Y1146358D01*
X572901Y1145423D01*
X573992Y1144434D01*
X575034Y1143392D01*
X576023Y1142301D01*
X576958Y1141163D01*
X577835Y1139979D01*
X578653Y1138755D01*
X579410Y1137491D01*
X580105Y1136192D01*
X580735Y1134861D01*
X581298Y1133500D01*
X581794Y1132113D01*
X582222Y1130704D01*
X582580Y1129275D01*
X582867Y1127830D01*
X583083Y1126373D01*
X583228Y1124908D01*
X583300Y1123436D01*
X583300Y1121964D01*
X194900Y912863D02*
X194824Y911994D01*
X194672Y911134D01*
X194446Y910290D01*
X194148Y909470D01*
X193779Y908678D01*
X193342Y907922D01*
X192841Y907207D01*
X192280Y906538D01*
X191662Y905920D01*
X190993Y905359D01*
X190278Y904858D01*
X189522Y904421D01*
X188730Y904052D01*
X187910Y903754D01*
X187066Y903528D01*
X186207Y903376D01*
X185337Y903300D01*
X184463Y903300D01*
X183594Y903376D01*
X182734Y903528D01*
X181890Y903754D01*
X181070Y904052D01*
X180278Y904421D01*
X179522Y904858D01*
X178807Y905359D01*
X178138Y905920D01*
X177520Y906538D01*
X176959Y907207D01*
X176458Y907922D01*
X176021Y908678D01*
X175652Y909470D01*
X175354Y910290D01*
X175128Y911134D01*
X174976Y911994D01*
X174900Y912863D01*
X174900Y913737D01*
X174976Y914607D01*
X175128Y915466D01*
X175354Y916310D01*
X175652Y917130D01*
X176021Y917922D01*
X176458Y918678D01*
X176959Y919393D01*
X177520Y920062D01*
X178138Y920680D01*
X178807Y921241D01*
X179522Y921742D01*
X180278Y922179D01*
X181070Y922548D01*
X181890Y922846D01*
X182734Y923072D01*
X183594Y923224D01*
X184463Y923300D01*
X185337Y923300D01*
X186207Y923224D01*
X187066Y923072D01*
X187910Y922846D01*
X188730Y922548D01*
X189522Y922179D01*
X190278Y921742D01*
X190993Y921241D01*
X191662Y920680D01*
X192280Y920062D01*
X192841Y919393D01*
X193342Y918678D01*
X193779Y917922D01*
X194148Y917130D01*
X194446Y916310D01*
X194672Y915466D01*
X194824Y914607D01*
X194900Y913737D01*
X194900Y912863D01*
X429600Y912863D02*
X429524Y911994D01*
X429372Y911134D01*
X429146Y910290D01*
X428848Y909470D01*
X428479Y908678D01*
X428042Y907922D01*
X427541Y907207D01*
X426980Y906538D01*
X426362Y905920D01*
X425693Y905359D01*
X424978Y904858D01*
X424222Y904421D01*
X423430Y904052D01*
X422610Y903754D01*
X421766Y903528D01*
X420907Y903376D01*
X420037Y903300D01*
X419163Y903300D01*
X418294Y903376D01*
X417434Y903528D01*
X416590Y903754D01*
X415770Y904052D01*
X414978Y904421D01*
X414222Y904858D01*
X413507Y905359D01*
X412838Y905920D01*
X412220Y906538D01*
X411659Y907207D01*
X411158Y907922D01*
X410721Y908678D01*
X410352Y909470D01*
X410054Y910290D01*
X409828Y911134D01*
X409676Y911994D01*
X409600Y912863D01*
X409600Y913737D01*
X409676Y914607D01*
X409828Y915466D01*
X410054Y916310D01*
X410352Y917130D01*
X410721Y917922D01*
X411158Y918678D01*
X411659Y919393D01*
X412220Y920062D01*
X412838Y920680D01*
X413507Y921241D01*
X414222Y921742D01*
X414978Y922179D01*
X415770Y922548D01*
X416590Y922846D01*
X417434Y923072D01*
X418294Y923224D01*
X419163Y923300D01*
X420037Y923300D01*
X420907Y923224D01*
X421766Y923072D01*
X422610Y922846D01*
X423430Y922548D01*
X424222Y922179D01*
X424978Y921742D01*
X425693Y921241D01*
X426362Y920680D01*
X426980Y920062D01*
X427541Y919393D01*
X428042Y918678D01*
X428479Y917922D01*
X428848Y917130D01*
X429146Y916310D01*
X429372Y915466D01*
X429524Y914607D01*
X429600Y913737D01*
X429600Y912863D01*
X120500Y848764D02*
X120428Y847292D01*
X120283Y845827D01*
X120067Y844370D01*
X119780Y842925D01*
X119422Y841496D01*
X118994Y840087D01*
X118498Y838700D01*
X117935Y837339D01*
X117305Y836008D01*
X116610Y834709D01*
X115853Y833445D01*
X115035Y832221D01*
X114158Y831038D01*
X113223Y829899D01*
X112234Y828808D01*
X111192Y827766D01*
X110101Y826777D01*
X108963Y825842D01*
X107779Y824965D01*
X106555Y824147D01*
X105291Y823390D01*
X103992Y822695D01*
X102661Y822065D01*
X101300Y821502D01*
X99913Y821006D01*
X98504Y820578D01*
X97075Y820220D01*
X95630Y819933D01*
X94173Y819717D01*
X92708Y819572D01*
X91236Y819500D01*
X89764Y819500D01*
X88292Y819572D01*
X86827Y819717D01*
X85370Y819933D01*
X83925Y820220D01*
X82496Y820578D01*
X81087Y821006D01*
X79700Y821502D01*
X78339Y822065D01*
X77008Y822695D01*
X75709Y823390D01*
X74445Y824147D01*
X73221Y824965D01*
X72038Y825842D01*
X70899Y826777D01*
X69808Y827766D01*
X68766Y828808D01*
X67777Y829899D01*
X66842Y831038D01*
X65965Y832221D01*
X65147Y833445D01*
X64390Y834709D01*
X63695Y836008D01*
X63065Y837339D01*
X62502Y838700D01*
X62006Y840087D01*
X61578Y841496D01*
X61220Y842925D01*
X60933Y844370D01*
X60717Y845827D01*
X60572Y847292D01*
X60500Y848764D01*
X60500Y850236D01*
X60572Y851708D01*
X60717Y853173D01*
X60933Y854630D01*
X61220Y856075D01*
X61578Y857504D01*
X62006Y858913D01*
X62502Y860300D01*
X63065Y861661D01*
X63695Y862992D01*
X64390Y864291D01*
X65147Y865555D01*
X65965Y866779D01*
X66842Y867963D01*
X67777Y869101D01*
X68766Y870192D01*
X69808Y871234D01*
X70899Y872223D01*
X72038Y873158D01*
X73221Y874035D01*
X74445Y874853D01*
X75709Y875610D01*
X77008Y876305D01*
X78339Y876935D01*
X79700Y877498D01*
X81087Y877994D01*
X82496Y878422D01*
X83925Y878780D01*
X85370Y879067D01*
X86827Y879283D01*
X88292Y879428D01*
X89764Y879500D01*
X91236Y879500D01*
X92708Y879428D01*
X94173Y879283D01*
X95630Y879067D01*
X97075Y878780D01*
X98504Y878422D01*
X99913Y877994D01*
X101300Y877498D01*
X102661Y876935D01*
X103992Y876305D01*
X105291Y875610D01*
X106555Y874853D01*
X107779Y874035D01*
X108963Y873158D01*
X110101Y872223D01*
X111192Y871234D01*
X112234Y870192D01*
X113223Y869101D01*
X114158Y867963D01*
X115035Y866779D01*
X115853Y865555D01*
X116610Y864291D01*
X117305Y862992D01*
X117935Y861661D01*
X118498Y860300D01*
X118994Y858913D01*
X119422Y857504D01*
X119780Y856075D01*
X120067Y854630D01*
X120283Y853173D01*
X120428Y851708D01*
X120500Y850236D01*
X120500Y848764D01*
X545500Y848764D02*
X545428Y847292D01*
X545283Y845827D01*
X545067Y844370D01*
X544780Y842925D01*
X544422Y841496D01*
X543994Y840087D01*
X543498Y838700D01*
X542935Y837339D01*
X542305Y836008D01*
X541610Y834709D01*
X540853Y833445D01*
X540035Y832221D01*
X539158Y831038D01*
X538223Y829899D01*
X537234Y828808D01*
X536192Y827766D01*
X535101Y826777D01*
X533963Y825842D01*
X532779Y824965D01*
X531555Y824147D01*
X530291Y823390D01*
X528992Y822695D01*
X527661Y822065D01*
X526300Y821502D01*
X524913Y821006D01*
X523504Y820578D01*
X522075Y820220D01*
X520630Y819933D01*
X519173Y819717D01*
X517708Y819572D01*
X516236Y819500D01*
X514764Y819500D01*
X513292Y819572D01*
X511827Y819717D01*
X510370Y819933D01*
X508925Y820220D01*
X507496Y820578D01*
X506087Y821006D01*
X504700Y821502D01*
X503339Y822065D01*
X502008Y822695D01*
X500709Y823390D01*
X499445Y824147D01*
X498221Y824965D01*
X497038Y825842D01*
X495899Y826777D01*
X494808Y827766D01*
X493766Y828808D01*
X492777Y829899D01*
X491842Y831038D01*
X490965Y832221D01*
X490147Y833445D01*
X489390Y834709D01*
X488695Y836008D01*
X488065Y837339D01*
X487502Y838700D01*
X487006Y840087D01*
X486578Y841496D01*
X486220Y842925D01*
X485933Y844370D01*
X485717Y845827D01*
X485572Y847292D01*
X485500Y848764D01*
X485500Y850236D01*
X485572Y851708D01*
X485717Y853173D01*
X485933Y854630D01*
X486220Y856075D01*
X486578Y857504D01*
X487006Y858913D01*
X487502Y860300D01*
X488065Y861661D01*
X488695Y862992D01*
X489390Y864291D01*
X490147Y865555D01*
X490965Y866779D01*
X491842Y867963D01*
X492777Y869101D01*
X493766Y870192D01*
X494808Y871234D01*
X495899Y872223D01*
X497038Y873158D01*
X498221Y874035D01*
X499445Y874853D01*
X500709Y875610D01*
X502008Y876305D01*
X503339Y876935D01*
X504700Y877498D01*
X506087Y877994D01*
X507496Y878422D01*
X508925Y878780D01*
X510370Y879067D01*
X511827Y879283D01*
X513292Y879428D01*
X514764Y879500D01*
X516236Y879500D01*
X517708Y879428D01*
X519173Y879283D01*
X520630Y879067D01*
X522075Y878780D01*
X523504Y878422D01*
X524913Y877994D01*
X526300Y877498D01*
X527661Y876935D01*
X528992Y876305D01*
X530291Y875610D01*
X531555Y874853D01*
X532779Y874035D01*
X533963Y873158D01*
X535101Y872223D01*
X536192Y871234D01*
X537234Y870192D01*
X538223Y869101D01*
X539158Y867963D01*
X540035Y866779D01*
X540853Y865555D01*
X541610Y864291D01*
X542305Y862992D01*
X542935Y861661D01*
X543498Y860300D01*
X543994Y858913D01*
X544422Y857504D01*
X544780Y856075D01*
X545067Y854630D01*
X545283Y853173D01*
X545428Y851708D01*
X545500Y850236D01*
X545500Y848764D01*
X533400Y728727D02*
X533325Y727584D01*
X533176Y726448D01*
X532952Y725324D01*
X532655Y724217D01*
X532287Y723132D01*
X531849Y722074D01*
X531342Y721046D01*
X530769Y720054D01*
X530132Y719101D01*
X529435Y718192D01*
X528679Y717331D01*
X527869Y716521D01*
X527008Y715765D01*
X526099Y715068D01*
X525146Y714431D01*
X524154Y713858D01*
X523126Y713351D01*
X522068Y712913D01*
X520983Y712545D01*
X519876Y712248D01*
X518752Y712025D01*
X517616Y711875D01*
X516473Y711800D01*
X515327Y711800D01*
X514184Y711875D01*
X513048Y712025D01*
X511924Y712248D01*
X510817Y712545D01*
X509732Y712913D01*
X508674Y713351D01*
X507646Y713858D01*
X506654Y714431D01*
X505701Y715068D01*
X504792Y715765D01*
X503931Y716521D01*
X503121Y717331D01*
X502365Y718192D01*
X501668Y719101D01*
X501031Y720054D01*
X500458Y721046D01*
X499951Y722074D01*
X499513Y723132D01*
X499145Y724217D01*
X498848Y725324D01*
X498625Y726448D01*
X498475Y727584D01*
X498400Y728727D01*
X498400Y729873D01*
X498475Y731016D01*
X498625Y732152D01*
X498848Y733276D01*
X499145Y734383D01*
X499513Y735468D01*
X499951Y736526D01*
X500458Y737554D01*
X501031Y738546D01*
X501668Y739499D01*
X502365Y740408D01*
X503121Y741269D01*
X503931Y742079D01*
X504792Y742835D01*
X505701Y743532D01*
X506654Y744169D01*
X507646Y744742D01*
X508674Y745249D01*
X509732Y745687D01*
X510817Y746055D01*
X511924Y746352D01*
X513048Y746576D01*
X514184Y746725D01*
X515327Y746800D01*
X516473Y746800D01*
X517616Y746725D01*
X518752Y746576D01*
X519876Y746352D01*
X520983Y746055D01*
X522068Y745687D01*
X523126Y745249D01*
X524154Y744742D01*
X525146Y744169D01*
X526099Y743532D01*
X527008Y742835D01*
X527869Y742079D01*
X528679Y741269D01*
X529435Y740408D01*
X530132Y739499D01*
X530769Y738546D01*
X531342Y737554D01*
X531849Y736526D01*
X532287Y735468D01*
X532655Y734383D01*
X532952Y733276D01*
X533176Y732152D01*
X533325Y731016D01*
X533400Y729873D01*
X533400Y728727D01*
X108400Y728727D02*
X108325Y727584D01*
X108176Y726448D01*
X107952Y725324D01*
X107655Y724217D01*
X107287Y723132D01*
X106849Y722074D01*
X106342Y721046D01*
X105769Y720054D01*
X105132Y719101D01*
X104435Y718192D01*
X103679Y717331D01*
X102869Y716521D01*
X102008Y715765D01*
X101099Y715068D01*
X100146Y714431D01*
X99154Y713858D01*
X98126Y713351D01*
X97068Y712913D01*
X95983Y712545D01*
X94876Y712248D01*
X93752Y712025D01*
X92616Y711875D01*
X91473Y711800D01*
X90327Y711800D01*
X89184Y711875D01*
X88048Y712025D01*
X86924Y712248D01*
X85817Y712545D01*
X84732Y712913D01*
X83674Y713351D01*
X82646Y713858D01*
X81654Y714431D01*
X80701Y715068D01*
X79792Y715765D01*
X78931Y716521D01*
X78121Y717331D01*
X77365Y718192D01*
X76668Y719101D01*
X76031Y720054D01*
X75458Y721046D01*
X74951Y722074D01*
X74513Y723132D01*
X74145Y724217D01*
X73848Y725324D01*
X73625Y726448D01*
X73475Y727584D01*
X73400Y728727D01*
X73400Y729873D01*
X73475Y731016D01*
X73625Y732152D01*
X73848Y733276D01*
X74145Y734383D01*
X74513Y735468D01*
X74951Y736526D01*
X75458Y737554D01*
X76031Y738546D01*
X76668Y739499D01*
X77365Y740408D01*
X78121Y741269D01*
X78931Y742079D01*
X79792Y742835D01*
X80701Y743532D01*
X81654Y744169D01*
X82646Y744742D01*
X83674Y745249D01*
X84732Y745687D01*
X85817Y746055D01*
X86924Y746352D01*
X88048Y746576D01*
X89184Y746725D01*
X90327Y746800D01*
X91473Y746800D01*
X92616Y746725D01*
X93752Y746576D01*
X94876Y746352D01*
X95983Y746055D01*
X97068Y745687D01*
X98126Y745249D01*
X99154Y744742D01*
X100146Y744169D01*
X101099Y743532D01*
X102008Y742835D01*
X102869Y742079D01*
X103679Y741269D01*
X104435Y740408D01*
X105132Y739499D01*
X105769Y738546D01*
X106342Y737554D01*
X106849Y736526D01*
X107287Y735468D01*
X107655Y734383D01*
X107952Y733276D01*
X108176Y732152D01*
X108325Y731016D01*
X108400Y729873D01*
X108400Y728727D01*
X163700Y541563D02*
X163624Y540694D01*
X163472Y539834D01*
X163246Y538990D01*
X162948Y538170D01*
X162579Y537378D01*
X162142Y536622D01*
X161641Y535907D01*
X161080Y535238D01*
X160462Y534620D01*
X159793Y534059D01*
X159078Y533558D01*
X158322Y533121D01*
X157530Y532752D01*
X156710Y532454D01*
X155866Y532228D01*
X155007Y532076D01*
X154137Y532000D01*
X153263Y532000D01*
X152394Y532076D01*
X151534Y532228D01*
X150690Y532454D01*
X149870Y532752D01*
X149078Y533121D01*
X148322Y533558D01*
X147607Y534059D01*
X146938Y534620D01*
X146320Y535238D01*
X145759Y535907D01*
X145258Y536622D01*
X144821Y537378D01*
X144452Y538170D01*
X144154Y538990D01*
X143928Y539834D01*
X143776Y540694D01*
X143700Y541563D01*
X143700Y542437D01*
X143776Y543307D01*
X143928Y544166D01*
X144154Y545010D01*
X144452Y545830D01*
X144821Y546622D01*
X145258Y547378D01*
X145759Y548093D01*
X146320Y548762D01*
X146938Y549380D01*
X147607Y549941D01*
X148322Y550442D01*
X149078Y550879D01*
X149870Y551248D01*
X150690Y551546D01*
X151534Y551772D01*
X152394Y551924D01*
X153263Y552000D01*
X154137Y552000D01*
X155007Y551924D01*
X155866Y551772D01*
X156710Y551546D01*
X157530Y551248D01*
X158322Y550879D01*
X159078Y550442D01*
X159793Y549941D01*
X160462Y549380D01*
X161080Y548762D01*
X161641Y548093D01*
X162142Y547378D01*
X162579Y546622D01*
X162948Y545830D01*
X163246Y545010D01*
X163472Y544166D01*
X163624Y543307D01*
X163700Y542437D01*
X163700Y541563D01*
X463700Y541563D02*
X463624Y540694D01*
X463472Y539834D01*
X463246Y538990D01*
X462948Y538170D01*
X462579Y537378D01*
X462142Y536622D01*
X461641Y535907D01*
X461080Y535238D01*
X460462Y534620D01*
X459793Y534059D01*
X459078Y533558D01*
X458322Y533121D01*
X457530Y532752D01*
X456710Y532454D01*
X455866Y532228D01*
X455007Y532076D01*
X454137Y532000D01*
X453263Y532000D01*
X452394Y532076D01*
X451534Y532228D01*
X450690Y532454D01*
X449870Y532752D01*
X449078Y533121D01*
X448322Y533558D01*
X447607Y534059D01*
X446938Y534620D01*
X446320Y535238D01*
X445759Y535907D01*
X445258Y536622D01*
X444821Y537378D01*
X444452Y538170D01*
X444154Y538990D01*
X443928Y539834D01*
X443776Y540694D01*
X443700Y541563D01*
X443700Y542437D01*
X443776Y543307D01*
X443928Y544166D01*
X444154Y545010D01*
X444452Y545830D01*
X444821Y546622D01*
X445258Y547378D01*
X445759Y548093D01*
X446320Y548762D01*
X446938Y549380D01*
X447607Y549941D01*
X448322Y550442D01*
X449078Y550879D01*
X449870Y551248D01*
X450690Y551546D01*
X451534Y551772D01*
X452394Y551924D01*
X453263Y552000D01*
X454137Y552000D01*
X455007Y551924D01*
X455866Y551772D01*
X456710Y551546D01*
X457530Y551248D01*
X458322Y550879D01*
X459078Y550442D01*
X459793Y549941D01*
X460462Y549380D01*
X461080Y548762D01*
X461641Y548093D01*
X462142Y547378D01*
X462579Y546622D01*
X462948Y545830D01*
X463246Y545010D01*
X463472Y544166D01*
X463624Y543307D01*
X463700Y542437D01*
X463700Y541563D01*
X463700Y241563D02*
X463624Y240694D01*
X463472Y239834D01*
X463246Y238990D01*
X462948Y238170D01*
X462579Y237378D01*
X462142Y236622D01*
X461641Y235907D01*
X461080Y235238D01*
X460462Y234620D01*
X459793Y234059D01*
X459078Y233558D01*
X458322Y233121D01*
X457530Y232752D01*
X456710Y232454D01*
X455866Y232228D01*
X455007Y232076D01*
X454137Y232000D01*
X453263Y232000D01*
X452394Y232076D01*
X451534Y232228D01*
X450690Y232454D01*
X449870Y232752D01*
X449078Y233121D01*
X448322Y233558D01*
X447607Y234059D01*
X446938Y234620D01*
X446320Y235238D01*
X445759Y235907D01*
X445258Y236622D01*
X444821Y237378D01*
X444452Y238170D01*
X444154Y238990D01*
X443928Y239834D01*
X443776Y240694D01*
X443700Y241563D01*
X443700Y242437D01*
X443776Y243307D01*
X443928Y244166D01*
X444154Y245010D01*
X444452Y245830D01*
X444821Y246622D01*
X445258Y247378D01*
X445759Y248093D01*
X446320Y248762D01*
X446938Y249380D01*
X447607Y249941D01*
X448322Y250442D01*
X449078Y250879D01*
X449870Y251248D01*
X450690Y251546D01*
X451534Y251772D01*
X452394Y251924D01*
X453263Y252000D01*
X454137Y252000D01*
X455007Y251924D01*
X455866Y251772D01*
X456710Y251546D01*
X457530Y251248D01*
X458322Y250879D01*
X459078Y250442D01*
X459793Y249941D01*
X460462Y249380D01*
X461080Y248762D01*
X461641Y248093D01*
X462142Y247378D01*
X462579Y246622D01*
X462948Y245830D01*
X463246Y245010D01*
X463472Y244166D01*
X463624Y243307D01*
X463700Y242437D01*
X463700Y241563D01*
X163700Y241563D02*
X163624Y240694D01*
X163472Y239834D01*
X163246Y238990D01*
X162948Y238170D01*
X162579Y237378D01*
X162142Y236622D01*
X161641Y235907D01*
X161080Y235238D01*
X160462Y234620D01*
X159793Y234059D01*
X159078Y233558D01*
X158322Y233121D01*
X157530Y232752D01*
X156710Y232454D01*
X155866Y232228D01*
X155007Y232076D01*
X154137Y232000D01*
X153263Y232000D01*
X152394Y232076D01*
X151534Y232228D01*
X150690Y232454D01*
X149870Y232752D01*
X149078Y233121D01*
X148322Y233558D01*
X147607Y234059D01*
X146938Y234620D01*
X146320Y235238D01*
X145759Y235907D01*
X145258Y236622D01*
X144821Y237378D01*
X144452Y238170D01*
X144154Y238990D01*
X143928Y239834D01*
X143776Y240694D01*
X143700Y241563D01*
X143700Y242437D01*
X143776Y243307D01*
X143928Y244166D01*
X144154Y245010D01*
X144452Y245830D01*
X144821Y246622D01*
X145258Y247378D01*
X145759Y248093D01*
X146320Y248762D01*
X146938Y249380D01*
X147607Y249941D01*
X148322Y250442D01*
X149078Y250879D01*
X149870Y251248D01*
X150690Y251546D01*
X151534Y251772D01*
X152394Y251924D01*
X153263Y252000D01*
X154137Y252000D01*
X155007Y251924D01*
X155866Y251772D01*
X156710Y251546D01*
X157530Y251248D01*
X158322Y250879D01*
X159078Y250442D01*
X159793Y249941D01*
X160462Y249380D01*
X161080Y248762D01*
X161641Y248093D01*
X162142Y247378D01*
X162579Y246622D01*
X162948Y245830D01*
X163246Y245010D01*
X163472Y244166D01*
X163624Y243307D01*
X163700Y242437D01*
X163700Y241563D01*
X21600Y104719D02*
X21537Y104161D01*
X21412Y103614D01*
X21227Y103084D01*
X20983Y102578D01*
X20684Y102102D01*
X20334Y101663D01*
X19937Y101266D01*
X19498Y100916D01*
X19022Y100617D01*
X18516Y100373D01*
X17986Y100188D01*
X17439Y100063D01*
X16881Y100000D01*
X16319Y100000D01*
X15761Y100063D01*
X15214Y100188D01*
X14684Y100373D01*
X14178Y100617D01*
X13702Y100916D01*
X13263Y101266D01*
X12866Y101663D01*
X12516Y102102D01*
X12217Y102578D01*
X11973Y103084D01*
X11788Y103614D01*
X11663Y104161D01*
X11600Y104719D01*
X11600Y105281D01*
X11663Y105839D01*
X11788Y106386D01*
X11973Y106916D01*
X12217Y107422D01*
X12516Y107898D01*
X12866Y108337D01*
X13263Y108734D01*
X13702Y109084D01*
X14178Y109383D01*
X14684Y109627D01*
X15214Y109812D01*
X15761Y109937D01*
X16319Y110000D01*
X16881Y110000D01*
X17439Y109937D01*
X17986Y109812D01*
X18516Y109627D01*
X19022Y109383D01*
X19498Y109084D01*
X19937Y108734D01*
X20334Y108337D01*
X20684Y107898D01*
X20983Y107422D01*
X21227Y106916D01*
X21412Y106386D01*
X21537Y105839D01*
X21600Y105281D01*
X21600Y104719D01*
X595700Y104719D02*
X595637Y104161D01*
X595512Y103614D01*
X595327Y103084D01*
X595083Y102578D01*
X594784Y102102D01*
X594434Y101663D01*
X594037Y101266D01*
X593598Y100916D01*
X593122Y100617D01*
X592616Y100373D01*
X592086Y100188D01*
X591539Y100063D01*
X590981Y100000D01*
X590419Y100000D01*
X589861Y100063D01*
X589314Y100188D01*
X588784Y100373D01*
X588278Y100617D01*
X587802Y100916D01*
X587363Y101266D01*
X586966Y101663D01*
X586616Y102102D01*
X586317Y102578D01*
X586073Y103084D01*
X585888Y103614D01*
X585763Y104161D01*
X585700Y104719D01*
X585700Y105281D01*
X585763Y105839D01*
X585888Y106386D01*
X586073Y106916D01*
X586317Y107422D01*
X586616Y107898D01*
X586966Y108337D01*
X587363Y108734D01*
X587802Y109084D01*
X588278Y109383D01*
X588784Y109627D01*
X589314Y109812D01*
X589861Y109937D01*
X590419Y110000D01*
X590981Y110000D01*
X591539Y109937D01*
X592086Y109812D01*
X592616Y109627D01*
X593122Y109383D01*
X593598Y109084D01*
X594037Y108734D01*
X594434Y108337D01*
X594784Y107898D01*
X595083Y107422D01*
X595327Y106916D01*
X595512Y106386D01*
X595637Y105839D01*
X595700Y105281D01*
X595700Y104719D01*
X595600Y678719D02*
X595537Y678161D01*
X595412Y677614D01*
X595227Y677084D01*
X594983Y676578D01*
X594684Y676102D01*
X594334Y675663D01*
X593937Y675266D01*
X593498Y674916D01*
X593022Y674617D01*
X592516Y674373D01*
X591986Y674188D01*
X591439Y674063D01*
X590881Y674000D01*
X590319Y674000D01*
X589761Y674063D01*
X589214Y674188D01*
X588684Y674373D01*
X588178Y674617D01*
X587702Y674916D01*
X587263Y675266D01*
X586866Y675663D01*
X586516Y676102D01*
X586217Y676578D01*
X585973Y677084D01*
X585788Y677614D01*
X585663Y678161D01*
X585600Y678719D01*
X585600Y679281D01*
X585663Y679839D01*
X585788Y680386D01*
X585973Y680916D01*
X586217Y681422D01*
X586516Y681898D01*
X586866Y682337D01*
X587263Y682734D01*
X587702Y683084D01*
X588178Y683383D01*
X588684Y683627D01*
X589214Y683812D01*
X589761Y683937D01*
X590319Y684000D01*
X590881Y684000D01*
X591439Y683937D01*
X591986Y683812D01*
X592516Y683627D01*
X593022Y683383D01*
X593498Y683084D01*
X593937Y682734D01*
X594334Y682337D01*
X594684Y681898D01*
X594983Y681422D01*
X595227Y680916D01*
X595412Y680386D01*
X595537Y679839D01*
X595600Y679281D01*
X595600Y678719D01*
X21700Y678719D02*
X21637Y678161D01*
X21512Y677614D01*
X21327Y677084D01*
X21083Y676578D01*
X20784Y676102D01*
X20434Y675663D01*
X20037Y675266D01*
X19598Y674916D01*
X19122Y674617D01*
X18616Y674373D01*
X18086Y674188D01*
X17539Y674063D01*
X16981Y674000D01*
X16419Y674000D01*
X15861Y674063D01*
X15314Y674188D01*
X14784Y674373D01*
X14278Y674617D01*
X13802Y674916D01*
X13363Y675266D01*
X12966Y675663D01*
X12616Y676102D01*
X12317Y676578D01*
X12073Y677084D01*
X11888Y677614D01*
X11763Y678161D01*
X11700Y678719D01*
X11700Y679281D01*
X11763Y679839D01*
X11888Y680386D01*
X12073Y680916D01*
X12317Y681422D01*
X12616Y681898D01*
X12966Y682337D01*
X13363Y682734D01*
X13802Y683084D01*
X14278Y683383D01*
X14784Y683627D01*
X15314Y683812D01*
X15861Y683937D01*
X16419Y684000D01*
X16981Y684000D01*
X17539Y683937D01*
X18086Y683812D01*
X18616Y683627D01*
X19122Y683383D01*
X19598Y683084D01*
X20037Y682734D01*
X20434Y682337D01*
X20784Y681898D01*
X21083Y681422D01*
X21327Y680916D01*
X21512Y680386D01*
X21637Y679839D01*
X21700Y679281D01*
X21700Y678719D01*
X91000Y29476D02*
X90932Y28431D01*
X90795Y27392D01*
X90590Y26365D01*
X90319Y25353D01*
X89983Y24361D01*
X89582Y23393D01*
X89118Y22454D01*
X88595Y21546D01*
X88013Y20675D01*
X87375Y19844D01*
X86684Y19057D01*
X85943Y18316D01*
X85156Y17625D01*
X84325Y16988D01*
X83454Y16406D01*
X82546Y15882D01*
X81607Y15418D01*
X80639Y15017D01*
X79647Y14681D01*
X78635Y14410D01*
X77608Y14205D01*
X76569Y14069D01*
X75524Y14000D01*
X74476Y14000D01*
X73431Y14069D01*
X72392Y14205D01*
X71365Y14410D01*
X70353Y14681D01*
X69361Y15017D01*
X68393Y15418D01*
X67454Y15882D01*
X66546Y16406D01*
X65675Y16988D01*
X64844Y17625D01*
X64057Y18316D01*
X63316Y19057D01*
X62625Y19844D01*
X61988Y20675D01*
X61406Y21546D01*
X60882Y22454D01*
X60418Y23393D01*
X60017Y24361D01*
X59681Y25353D01*
X59410Y26365D01*
X59205Y27392D01*
X59069Y28431D01*
X59000Y29476D01*
X59000Y30524D01*
X59069Y31569D01*
X59205Y32608D01*
X59410Y33635D01*
X59681Y34647D01*
X60017Y35639D01*
X60418Y36607D01*
X60882Y37546D01*
X61406Y38454D01*
X61988Y39325D01*
X62625Y40156D01*
X63316Y40943D01*
X64057Y41684D01*
X64844Y42375D01*
X65675Y43013D01*
X66546Y43595D01*
X67454Y44118D01*
X68393Y44582D01*
X69361Y44983D01*
X70353Y45319D01*
X71365Y45590D01*
X72392Y45795D01*
X73431Y45932D01*
X74476Y46000D01*
X75524Y46000D01*
X76569Y45932D01*
X77608Y45795D01*
X78635Y45590D01*
X79647Y45319D01*
X80639Y44983D01*
X81607Y44582D01*
X82546Y44118D01*
X83454Y43595D01*
X84325Y43013D01*
X85156Y42375D01*
X85943Y41684D01*
X86684Y40943D01*
X87375Y40156D01*
X88013Y39325D01*
X88595Y38454D01*
X89118Y37546D01*
X89582Y36607D01*
X89983Y35639D01*
X90319Y34647D01*
X90590Y33635D01*
X90795Y32608D01*
X90932Y31569D01*
X91000Y30524D01*
X91000Y29476D01*
X91000Y1254476D02*
X90932Y1253431D01*
X90795Y1252392D01*
X90590Y1251365D01*
X90319Y1250353D01*
X89983Y1249361D01*
X89582Y1248393D01*
X89118Y1247454D01*
X88595Y1246546D01*
X88013Y1245675D01*
X87375Y1244844D01*
X86684Y1244057D01*
X85943Y1243316D01*
X85156Y1242625D01*
X84325Y1241988D01*
X83454Y1241406D01*
X82546Y1240882D01*
X81607Y1240418D01*
X80639Y1240017D01*
X79647Y1239681D01*
X78635Y1239410D01*
X77608Y1239205D01*
X76569Y1239069D01*
X75524Y1239000D01*
X74476Y1239000D01*
X73431Y1239069D01*
X72392Y1239205D01*
X71365Y1239410D01*
X70353Y1239681D01*
X69361Y1240017D01*
X68393Y1240418D01*
X67454Y1240882D01*
X66546Y1241406D01*
X65675Y1241988D01*
X64844Y1242625D01*
X64057Y1243316D01*
X63316Y1244057D01*
X62625Y1244844D01*
X61988Y1245675D01*
X61406Y1246546D01*
X60882Y1247454D01*
X60418Y1248393D01*
X60017Y1249361D01*
X59681Y1250353D01*
X59410Y1251365D01*
X59205Y1252392D01*
X59069Y1253431D01*
X59000Y1254476D01*
X59000Y1255524D01*
X59069Y1256569D01*
X59205Y1257608D01*
X59410Y1258635D01*
X59681Y1259647D01*
X60017Y1260639D01*
X60418Y1261607D01*
X60882Y1262546D01*
X61406Y1263454D01*
X61988Y1264325D01*
X62625Y1265156D01*
X63316Y1265943D01*
X64057Y1266684D01*
X64844Y1267375D01*
X65675Y1268013D01*
X66546Y1268595D01*
X67454Y1269118D01*
X68393Y1269582D01*
X69361Y1269983D01*
X70353Y1270319D01*
X71365Y1270590D01*
X72392Y1270795D01*
X73431Y1270932D01*
X74476Y1271000D01*
X75524Y1271000D01*
X76569Y1270932D01*
X77608Y1270795D01*
X78635Y1270590D01*
X79647Y1270319D01*
X80639Y1269983D01*
X81607Y1269582D01*
X82546Y1269118D01*
X83454Y1268595D01*
X84325Y1268013D01*
X85156Y1267375D01*
X85943Y1266684D01*
X86684Y1265943D01*
X87375Y1265156D01*
X88013Y1264325D01*
X88595Y1263454D01*
X89118Y1262546D01*
X89582Y1261607D01*
X89983Y1260639D01*
X90319Y1259647D01*
X90590Y1258635D01*
X90795Y1257608D01*
X90932Y1256569D01*
X91000Y1255524D01*
X91000Y1254476D01*
X548500Y1254476D02*
X548432Y1253431D01*
X548295Y1252392D01*
X548090Y1251365D01*
X547819Y1250353D01*
X547483Y1249361D01*
X547082Y1248393D01*
X546618Y1247454D01*
X546095Y1246546D01*
X545513Y1245675D01*
X544875Y1244844D01*
X544184Y1244057D01*
X543443Y1243316D01*
X542656Y1242625D01*
X541825Y1241988D01*
X540954Y1241406D01*
X540046Y1240882D01*
X539107Y1240418D01*
X538139Y1240017D01*
X537147Y1239681D01*
X536135Y1239410D01*
X535108Y1239205D01*
X534069Y1239069D01*
X533024Y1239000D01*
X531976Y1239000D01*
X530931Y1239069D01*
X529892Y1239205D01*
X528865Y1239410D01*
X527853Y1239681D01*
X526861Y1240017D01*
X525893Y1240418D01*
X524954Y1240882D01*
X524046Y1241406D01*
X523175Y1241988D01*
X522344Y1242625D01*
X521557Y1243316D01*
X520816Y1244057D01*
X520125Y1244844D01*
X519488Y1245675D01*
X518906Y1246546D01*
X518382Y1247454D01*
X517918Y1248393D01*
X517517Y1249361D01*
X517181Y1250353D01*
X516910Y1251365D01*
X516705Y1252392D01*
X516569Y1253431D01*
X516500Y1254476D01*
X516500Y1255524D01*
X516569Y1256569D01*
X516705Y1257608D01*
X516910Y1258635D01*
X517181Y1259647D01*
X517517Y1260639D01*
X517918Y1261607D01*
X518382Y1262546D01*
X518906Y1263454D01*
X519488Y1264325D01*
X520125Y1265156D01*
X520816Y1265943D01*
X521557Y1266684D01*
X522344Y1267375D01*
X523175Y1268013D01*
X524046Y1268595D01*
X524954Y1269118D01*
X525893Y1269582D01*
X526861Y1269983D01*
X527853Y1270319D01*
X528865Y1270590D01*
X529892Y1270795D01*
X530931Y1270932D01*
X531976Y1271000D01*
X533024Y1271000D01*
X534069Y1270932D01*
X535108Y1270795D01*
X536135Y1270590D01*
X537147Y1270319D01*
X538139Y1269983D01*
X539107Y1269582D01*
X540046Y1269118D01*
X540954Y1268595D01*
X541825Y1268013D01*
X542656Y1267375D01*
X543443Y1266684D01*
X544184Y1265943D01*
X544875Y1265156D01*
X545513Y1264325D01*
X546095Y1263454D01*
X546618Y1262546D01*
X547082Y1261607D01*
X547483Y1260639D01*
X547819Y1259647D01*
X548090Y1258635D01*
X548295Y1257608D01*
X548432Y1256569D01*
X548500Y1255524D01*
X548500Y1254476D01*
X81000Y1254476D02*
X80932Y1253431D01*
X80795Y1252392D01*
X80590Y1251365D01*
X80319Y1250353D01*
X79983Y1249361D01*
X79582Y1248393D01*
X79118Y1247454D01*
X78595Y1246546D01*
X78013Y1245675D01*
X77375Y1244844D01*
X76684Y1244057D01*
X75943Y1243316D01*
X75156Y1242625D01*
X74325Y1241988D01*
X73454Y1241406D01*
X72546Y1240882D01*
X71607Y1240418D01*
X70639Y1240017D01*
X69647Y1239681D01*
X68635Y1239410D01*
X67608Y1239205D01*
X66569Y1239069D01*
X65524Y1239000D01*
X64476Y1239000D01*
X63431Y1239069D01*
X62392Y1239205D01*
X61365Y1239410D01*
X60353Y1239681D01*
X59361Y1240017D01*
X58393Y1240418D01*
X57454Y1240882D01*
X56546Y1241406D01*
X55675Y1241988D01*
X54844Y1242625D01*
X54057Y1243316D01*
X53316Y1244057D01*
X52625Y1244844D01*
X51988Y1245675D01*
X51406Y1246546D01*
X50882Y1247454D01*
X50418Y1248393D01*
X50017Y1249361D01*
X49681Y1250353D01*
X49410Y1251365D01*
X49205Y1252392D01*
X49069Y1253431D01*
X49000Y1254476D01*
X49000Y1255524D01*
X49069Y1256569D01*
X49205Y1257608D01*
X49410Y1258635D01*
X49681Y1259647D01*
X50017Y1260639D01*
X50418Y1261607D01*
X50882Y1262546D01*
X51406Y1263454D01*
X51988Y1264325D01*
X52625Y1265156D01*
X53316Y1265943D01*
X54057Y1266684D01*
X54844Y1267375D01*
X55675Y1268013D01*
X56546Y1268595D01*
X57454Y1269118D01*
X58393Y1269582D01*
X59361Y1269983D01*
X60353Y1270319D01*
X61365Y1270590D01*
X62392Y1270795D01*
X63431Y1270932D01*
X64476Y1271000D01*
X65524Y1271000D01*
X66569Y1270932D01*
X67608Y1270795D01*
X68635Y1270590D01*
X69647Y1270319D01*
X70639Y1269983D01*
X71607Y1269582D01*
X72546Y1269118D01*
X73454Y1268595D01*
X74325Y1268013D01*
X75156Y1267375D01*
X75943Y1266684D01*
X76684Y1265943D01*
X77375Y1265156D01*
X78013Y1264325D01*
X78595Y1263454D01*
X79118Y1262546D01*
X79582Y1261607D01*
X79983Y1260639D01*
X80319Y1259647D01*
X80590Y1258635D01*
X80795Y1257608D01*
X80932Y1256569D01*
X81000Y1255524D01*
X81000Y1254476D01*
X71000Y1254476D02*
X70932Y1253431D01*
X70795Y1252392D01*
X70590Y1251365D01*
X70319Y1250353D01*
X69983Y1249361D01*
X69582Y1248393D01*
X69118Y1247454D01*
X68595Y1246546D01*
X68013Y1245675D01*
X67375Y1244844D01*
X66684Y1244057D01*
X65943Y1243316D01*
X65156Y1242625D01*
X64325Y1241988D01*
X63454Y1241406D01*
X62546Y1240882D01*
X61607Y1240418D01*
X60639Y1240017D01*
X59647Y1239681D01*
X58635Y1239410D01*
X57608Y1239205D01*
X56569Y1239069D01*
X55524Y1239000D01*
X54476Y1239000D01*
X53431Y1239069D01*
X52392Y1239205D01*
X51365Y1239410D01*
X50353Y1239681D01*
X49361Y1240017D01*
X48393Y1240418D01*
X47454Y1240882D01*
X46546Y1241406D01*
X45675Y1241988D01*
X44844Y1242625D01*
X44057Y1243316D01*
X43316Y1244057D01*
X42625Y1244844D01*
X41988Y1245675D01*
X41406Y1246546D01*
X40882Y1247454D01*
X40418Y1248393D01*
X40017Y1249361D01*
X39681Y1250353D01*
X39410Y1251365D01*
X39205Y1252392D01*
X39069Y1253431D01*
X39000Y1254476D01*
X39000Y1255524D01*
X39069Y1256569D01*
X39205Y1257608D01*
X39410Y1258635D01*
X39681Y1259647D01*
X40017Y1260639D01*
X40418Y1261607D01*
X40882Y1262546D01*
X41406Y1263454D01*
X41988Y1264325D01*
X42625Y1265156D01*
X43316Y1265943D01*
X44057Y1266684D01*
X44844Y1267375D01*
X45675Y1268013D01*
X46546Y1268595D01*
X47454Y1269118D01*
X48393Y1269582D01*
X49361Y1269983D01*
X50353Y1270319D01*
X51365Y1270590D01*
X52392Y1270795D01*
X53431Y1270932D01*
X54476Y1271000D01*
X55524Y1271000D01*
X56569Y1270932D01*
X57608Y1270795D01*
X58635Y1270590D01*
X59647Y1270319D01*
X60639Y1269983D01*
X61607Y1269582D01*
X62546Y1269118D01*
X63454Y1268595D01*
X64325Y1268013D01*
X65156Y1267375D01*
X65943Y1266684D01*
X66684Y1265943D01*
X67375Y1265156D01*
X68013Y1264325D01*
X68595Y1263454D01*
X69118Y1262546D01*
X69582Y1261607D01*
X69983Y1260639D01*
X70319Y1259647D01*
X70590Y1258635D01*
X70795Y1257608D01*
X70932Y1256569D01*
X71000Y1255524D01*
X71000Y1254476D01*
X101000Y1254476D02*
X100932Y1253431D01*
X100795Y1252392D01*
X100590Y1251365D01*
X100319Y1250353D01*
X99983Y1249361D01*
X99582Y1248393D01*
X99118Y1247454D01*
X98595Y1246546D01*
X98013Y1245675D01*
X97375Y1244844D01*
X96684Y1244057D01*
X95943Y1243316D01*
X95156Y1242625D01*
X94325Y1241988D01*
X93454Y1241406D01*
X92546Y1240882D01*
X91607Y1240418D01*
X90639Y1240017D01*
X89647Y1239681D01*
X88635Y1239410D01*
X87608Y1239205D01*
X86569Y1239069D01*
X85524Y1239000D01*
X84476Y1239000D01*
X83431Y1239069D01*
X82392Y1239205D01*
X81365Y1239410D01*
X80353Y1239681D01*
X79361Y1240017D01*
X78393Y1240418D01*
X77454Y1240882D01*
X76546Y1241406D01*
X75675Y1241988D01*
X74844Y1242625D01*
X74057Y1243316D01*
X73316Y1244057D01*
X72625Y1244844D01*
X71988Y1245675D01*
X71406Y1246546D01*
X70882Y1247454D01*
X70418Y1248393D01*
X70017Y1249361D01*
X69681Y1250353D01*
X69410Y1251365D01*
X69205Y1252392D01*
X69069Y1253431D01*
X69000Y1254476D01*
X69000Y1255524D01*
X69069Y1256569D01*
X69205Y1257608D01*
X69410Y1258635D01*
X69681Y1259647D01*
X70017Y1260639D01*
X70418Y1261607D01*
X70882Y1262546D01*
X71406Y1263454D01*
X71988Y1264325D01*
X72625Y1265156D01*
X73316Y1265943D01*
X74057Y1266684D01*
X74844Y1267375D01*
X75675Y1268013D01*
X76546Y1268595D01*
X77454Y1269118D01*
X78393Y1269582D01*
X79361Y1269983D01*
X80353Y1270319D01*
X81365Y1270590D01*
X82392Y1270795D01*
X83431Y1270932D01*
X84476Y1271000D01*
X85524Y1271000D01*
X86569Y1270932D01*
X87608Y1270795D01*
X88635Y1270590D01*
X89647Y1270319D01*
X90639Y1269983D01*
X91607Y1269582D01*
X92546Y1269118D01*
X93454Y1268595D01*
X94325Y1268013D01*
X95156Y1267375D01*
X95943Y1266684D01*
X96684Y1265943D01*
X97375Y1265156D01*
X98013Y1264325D01*
X98595Y1263454D01*
X99118Y1262546D01*
X99582Y1261607D01*
X99983Y1260639D01*
X100319Y1259647D01*
X100590Y1258635D01*
X100795Y1257608D01*
X100932Y1256569D01*
X101000Y1255524D01*
X101000Y1254476D01*
X111000Y1254476D02*
X110932Y1253431D01*
X110795Y1252392D01*
X110590Y1251365D01*
X110319Y1250353D01*
X109983Y1249361D01*
X109582Y1248393D01*
X109118Y1247454D01*
X108595Y1246546D01*
X108013Y1245675D01*
X107375Y1244844D01*
X106684Y1244057D01*
X105943Y1243316D01*
X105156Y1242625D01*
X104325Y1241988D01*
X103454Y1241406D01*
X102546Y1240882D01*
X101607Y1240418D01*
X100639Y1240017D01*
X99647Y1239681D01*
X98635Y1239410D01*
X97608Y1239205D01*
X96569Y1239069D01*
X95524Y1239000D01*
X94476Y1239000D01*
X93431Y1239069D01*
X92392Y1239205D01*
X91365Y1239410D01*
X90353Y1239681D01*
X89361Y1240017D01*
X88393Y1240418D01*
X87454Y1240882D01*
X86546Y1241406D01*
X85675Y1241988D01*
X84844Y1242625D01*
X84057Y1243316D01*
X83316Y1244057D01*
X82625Y1244844D01*
X81988Y1245675D01*
X81406Y1246546D01*
X80882Y1247454D01*
X80418Y1248393D01*
X80017Y1249361D01*
X79681Y1250353D01*
X79410Y1251365D01*
X79205Y1252392D01*
X79069Y1253431D01*
X79000Y1254476D01*
X79000Y1255524D01*
X79069Y1256569D01*
X79205Y1257608D01*
X79410Y1258635D01*
X79681Y1259647D01*
X80017Y1260639D01*
X80418Y1261607D01*
X80882Y1262546D01*
X81406Y1263454D01*
X81988Y1264325D01*
X82625Y1265156D01*
X83316Y1265943D01*
X84057Y1266684D01*
X84844Y1267375D01*
X85675Y1268013D01*
X86546Y1268595D01*
X87454Y1269118D01*
X88393Y1269582D01*
X89361Y1269983D01*
X90353Y1270319D01*
X91365Y1270590D01*
X92392Y1270795D01*
X93431Y1270932D01*
X94476Y1271000D01*
X95524Y1271000D01*
X96569Y1270932D01*
X97608Y1270795D01*
X98635Y1270590D01*
X99647Y1270319D01*
X100639Y1269983D01*
X101607Y1269582D01*
X102546Y1269118D01*
X103454Y1268595D01*
X104325Y1268013D01*
X105156Y1267375D01*
X105943Y1266684D01*
X106684Y1265943D01*
X107375Y1265156D01*
X108013Y1264325D01*
X108595Y1263454D01*
X109118Y1262546D01*
X109582Y1261607D01*
X109983Y1260639D01*
X110319Y1259647D01*
X110590Y1258635D01*
X110795Y1257608D01*
X110932Y1256569D01*
X111000Y1255524D01*
X111000Y1254476D01*
X81000Y29476D02*
X80932Y28431D01*
X80795Y27392D01*
X80590Y26365D01*
X80319Y25353D01*
X79983Y24361D01*
X79582Y23393D01*
X79118Y22454D01*
X78595Y21546D01*
X78013Y20675D01*
X77375Y19844D01*
X76684Y19057D01*
X75943Y18316D01*
X75156Y17625D01*
X74325Y16988D01*
X73454Y16406D01*
X72546Y15882D01*
X71607Y15418D01*
X70639Y15017D01*
X69647Y14681D01*
X68635Y14410D01*
X67608Y14205D01*
X66569Y14069D01*
X65524Y14000D01*
X64476Y14000D01*
X63431Y14069D01*
X62392Y14205D01*
X61365Y14410D01*
X60353Y14681D01*
X59361Y15017D01*
X58393Y15418D01*
X57454Y15882D01*
X56546Y16406D01*
X55675Y16988D01*
X54844Y17625D01*
X54057Y18316D01*
X53316Y19057D01*
X52625Y19844D01*
X51988Y20675D01*
X51406Y21546D01*
X50882Y22454D01*
X50418Y23393D01*
X50017Y24361D01*
X49681Y25353D01*
X49410Y26365D01*
X49205Y27392D01*
X49069Y28431D01*
X49000Y29476D01*
X49000Y30524D01*
X49069Y31569D01*
X49205Y32608D01*
X49410Y33635D01*
X49681Y34647D01*
X50017Y35639D01*
X50418Y36607D01*
X50882Y37546D01*
X51406Y38454D01*
X51988Y39325D01*
X52625Y40156D01*
X53316Y40943D01*
X54057Y41684D01*
X54844Y42375D01*
X55675Y43013D01*
X56546Y43595D01*
X57454Y44118D01*
X58393Y44582D01*
X59361Y44983D01*
X60353Y45319D01*
X61365Y45590D01*
X62392Y45795D01*
X63431Y45932D01*
X64476Y46000D01*
X65524Y46000D01*
X66569Y45932D01*
X67608Y45795D01*
X68635Y45590D01*
X69647Y45319D01*
X70639Y44983D01*
X71607Y44582D01*
X72546Y44118D01*
X73454Y43595D01*
X74325Y43013D01*
X75156Y42375D01*
X75943Y41684D01*
X76684Y40943D01*
X77375Y40156D01*
X78013Y39325D01*
X78595Y38454D01*
X79118Y37546D01*
X79582Y36607D01*
X79983Y35639D01*
X80319Y34647D01*
X80590Y33635D01*
X80795Y32608D01*
X80932Y31569D01*
X81000Y30524D01*
X81000Y29476D01*
X71000Y29476D02*
X70932Y28431D01*
X70795Y27392D01*
X70590Y26365D01*
X70319Y25353D01*
X69983Y24361D01*
X69582Y23393D01*
X69118Y22454D01*
X68595Y21546D01*
X68013Y20675D01*
X67375Y19844D01*
X66684Y19057D01*
X65943Y18316D01*
X65156Y17625D01*
X64325Y16988D01*
X63454Y16406D01*
X62546Y15882D01*
X61607Y15418D01*
X60639Y15017D01*
X59647Y14681D01*
X58635Y14410D01*
X57608Y14205D01*
X56569Y14069D01*
X55524Y14000D01*
X54476Y14000D01*
X53431Y14069D01*
X52392Y14205D01*
X51365Y14410D01*
X50353Y14681D01*
X49361Y15017D01*
X48393Y15418D01*
X47454Y15882D01*
X46546Y16406D01*
X45675Y16988D01*
X44844Y17625D01*
X44057Y18316D01*
X43316Y19057D01*
X42625Y19844D01*
X41988Y20675D01*
X41406Y21546D01*
X40882Y22454D01*
X40418Y23393D01*
X40017Y24361D01*
X39681Y25353D01*
X39410Y26365D01*
X39205Y27392D01*
X39069Y28431D01*
X39000Y29476D01*
X39000Y30524D01*
X39069Y31569D01*
X39205Y32608D01*
X39410Y33635D01*
X39681Y34647D01*
X40017Y35639D01*
X40418Y36607D01*
X40882Y37546D01*
X41406Y38454D01*
X41988Y39325D01*
X42625Y40156D01*
X43316Y40943D01*
X44057Y41684D01*
X44844Y42375D01*
X45675Y43013D01*
X46546Y43595D01*
X47454Y44118D01*
X48393Y44582D01*
X49361Y44983D01*
X50353Y45319D01*
X51365Y45590D01*
X52392Y45795D01*
X53431Y45932D01*
X54476Y46000D01*
X55524Y46000D01*
X56569Y45932D01*
X57608Y45795D01*
X58635Y45590D01*
X59647Y45319D01*
X60639Y44983D01*
X61607Y44582D01*
X62546Y44118D01*
X63454Y43595D01*
X64325Y43013D01*
X65156Y42375D01*
X65943Y41684D01*
X66684Y40943D01*
X67375Y40156D01*
X68013Y39325D01*
X68595Y38454D01*
X69118Y37546D01*
X69582Y36607D01*
X69983Y35639D01*
X70319Y34647D01*
X70590Y33635D01*
X70795Y32608D01*
X70932Y31569D01*
X71000Y30524D01*
X71000Y29476D01*
X101000Y29476D02*
X100932Y28431D01*
X100795Y27392D01*
X100590Y26365D01*
X100319Y25353D01*
X99983Y24361D01*
X99582Y23393D01*
X99118Y22454D01*
X98595Y21546D01*
X98013Y20675D01*
X97375Y19844D01*
X96684Y19057D01*
X95943Y18316D01*
X95156Y17625D01*
X94325Y16988D01*
X93454Y16406D01*
X92546Y15882D01*
X91607Y15418D01*
X90639Y15017D01*
X89647Y14681D01*
X88635Y14410D01*
X87608Y14205D01*
X86569Y14069D01*
X85524Y14000D01*
X84476Y14000D01*
X83431Y14069D01*
X82392Y14205D01*
X81365Y14410D01*
X80353Y14681D01*
X79361Y15017D01*
X78393Y15418D01*
X77454Y15882D01*
X76546Y16406D01*
X75675Y16988D01*
X74844Y17625D01*
X74057Y18316D01*
X73316Y19057D01*
X72625Y19844D01*
X71988Y20675D01*
X71406Y21546D01*
X70882Y22454D01*
X70418Y23393D01*
X70017Y24361D01*
X69681Y25353D01*
X69410Y26365D01*
X69205Y27392D01*
X69069Y28431D01*
X69000Y29476D01*
X69000Y30524D01*
X69069Y31569D01*
X69205Y32608D01*
X69410Y33635D01*
X69681Y34647D01*
X70017Y35639D01*
X70418Y36607D01*
X70882Y37546D01*
X71406Y38454D01*
X71988Y39325D01*
X72625Y40156D01*
X73316Y40943D01*
X74057Y41684D01*
X74844Y42375D01*
X75675Y43013D01*
X76546Y43595D01*
X77454Y44118D01*
X78393Y44582D01*
X79361Y44983D01*
X80353Y45319D01*
X81365Y45590D01*
X82392Y45795D01*
X83431Y45932D01*
X84476Y46000D01*
X85524Y46000D01*
X86569Y45932D01*
X87608Y45795D01*
X88635Y45590D01*
X89647Y45319D01*
X90639Y44983D01*
X91607Y44582D01*
X92546Y44118D01*
X93454Y43595D01*
X94325Y43013D01*
X95156Y42375D01*
X95943Y41684D01*
X96684Y40943D01*
X97375Y40156D01*
X98013Y39325D01*
X98595Y38454D01*
X99118Y37546D01*
X99582Y36607D01*
X99983Y35639D01*
X100319Y34647D01*
X100590Y33635D01*
X100795Y32608D01*
X100932Y31569D01*
X101000Y30524D01*
X101000Y29476D01*
X111000Y29476D02*
X110932Y28431D01*
X110795Y27392D01*
X110590Y26365D01*
X110319Y25353D01*
X109983Y24361D01*
X109582Y23393D01*
X109118Y22454D01*
X108595Y21546D01*
X108013Y20675D01*
X107375Y19844D01*
X106684Y19057D01*
X105943Y18316D01*
X105156Y17625D01*
X104325Y16988D01*
X103454Y16406D01*
X102546Y15882D01*
X101607Y15418D01*
X100639Y15017D01*
X99647Y14681D01*
X98635Y14410D01*
X97608Y14205D01*
X96569Y14069D01*
X95524Y14000D01*
X94476Y14000D01*
X93431Y14069D01*
X92392Y14205D01*
X91365Y14410D01*
X90353Y14681D01*
X89361Y15017D01*
X88393Y15418D01*
X87454Y15882D01*
X86546Y16406D01*
X85675Y16988D01*
X84844Y17625D01*
X84057Y18316D01*
X83316Y19057D01*
X82625Y19844D01*
X81988Y20675D01*
X81406Y21546D01*
X80882Y22454D01*
X80418Y23393D01*
X80017Y24361D01*
X79681Y25353D01*
X79410Y26365D01*
X79205Y27392D01*
X79069Y28431D01*
X79000Y29476D01*
X79000Y30524D01*
X79069Y31569D01*
X79205Y32608D01*
X79410Y33635D01*
X79681Y34647D01*
X80017Y35639D01*
X80418Y36607D01*
X80882Y37546D01*
X81406Y38454D01*
X81988Y39325D01*
X82625Y40156D01*
X83316Y40943D01*
X84057Y41684D01*
X84844Y42375D01*
X85675Y43013D01*
X86546Y43595D01*
X87454Y44118D01*
X88393Y44582D01*
X89361Y44983D01*
X90353Y45319D01*
X91365Y45590D01*
X92392Y45795D01*
X93431Y45932D01*
X94476Y46000D01*
X95524Y46000D01*
X96569Y45932D01*
X97608Y45795D01*
X98635Y45590D01*
X99647Y45319D01*
X100639Y44983D01*
X101607Y44582D01*
X102546Y44118D01*
X103454Y43595D01*
X104325Y43013D01*
X105156Y42375D01*
X105943Y41684D01*
X106684Y40943D01*
X107375Y40156D01*
X108013Y39325D01*
X108595Y38454D01*
X109118Y37546D01*
X109582Y36607D01*
X109983Y35639D01*
X110319Y34647D01*
X110590Y33635D01*
X110795Y32608D01*
X110932Y31569D01*
X111000Y30524D01*
X111000Y29476D01*
X558500Y1254476D02*
X558432Y1253431D01*
X558295Y1252392D01*
X558090Y1251365D01*
X557819Y1250353D01*
X557483Y1249361D01*
X557082Y1248393D01*
X556618Y1247454D01*
X556095Y1246546D01*
X555513Y1245675D01*
X554875Y1244844D01*
X554184Y1244057D01*
X553443Y1243316D01*
X552656Y1242625D01*
X551825Y1241988D01*
X550954Y1241406D01*
X550046Y1240882D01*
X549107Y1240418D01*
X548139Y1240017D01*
X547147Y1239681D01*
X546135Y1239410D01*
X545108Y1239205D01*
X544069Y1239069D01*
X543024Y1239000D01*
X541976Y1239000D01*
X540931Y1239069D01*
X539892Y1239205D01*
X538865Y1239410D01*
X537853Y1239681D01*
X536861Y1240017D01*
X535893Y1240418D01*
X534954Y1240882D01*
X534046Y1241406D01*
X533175Y1241988D01*
X532344Y1242625D01*
X531557Y1243316D01*
X530816Y1244057D01*
X530125Y1244844D01*
X529488Y1245675D01*
X528906Y1246546D01*
X528382Y1247454D01*
X527918Y1248393D01*
X527517Y1249361D01*
X527181Y1250353D01*
X526910Y1251365D01*
X526705Y1252392D01*
X526569Y1253431D01*
X526500Y1254476D01*
X526500Y1255524D01*
X526569Y1256569D01*
X526705Y1257608D01*
X526910Y1258635D01*
X527181Y1259647D01*
X527517Y1260639D01*
X527918Y1261607D01*
X528382Y1262546D01*
X528906Y1263454D01*
X529488Y1264325D01*
X530125Y1265156D01*
X530816Y1265943D01*
X531557Y1266684D01*
X532344Y1267375D01*
X533175Y1268013D01*
X534046Y1268595D01*
X534954Y1269118D01*
X535893Y1269582D01*
X536861Y1269983D01*
X537853Y1270319D01*
X538865Y1270590D01*
X539892Y1270795D01*
X540931Y1270932D01*
X541976Y1271000D01*
X543024Y1271000D01*
X544069Y1270932D01*
X545108Y1270795D01*
X546135Y1270590D01*
X547147Y1270319D01*
X548139Y1269983D01*
X549107Y1269582D01*
X550046Y1269118D01*
X550954Y1268595D01*
X551825Y1268013D01*
X552656Y1267375D01*
X553443Y1266684D01*
X554184Y1265943D01*
X554875Y1265156D01*
X555513Y1264325D01*
X556095Y1263454D01*
X556618Y1262546D01*
X557082Y1261607D01*
X557483Y1260639D01*
X557819Y1259647D01*
X558090Y1258635D01*
X558295Y1257608D01*
X558432Y1256569D01*
X558500Y1255524D01*
X558500Y1254476D01*
X568500Y1254476D02*
X568432Y1253431D01*
X568295Y1252392D01*
X568090Y1251365D01*
X567819Y1250353D01*
X567483Y1249361D01*
X567082Y1248393D01*
X566618Y1247454D01*
X566095Y1246546D01*
X565513Y1245675D01*
X564875Y1244844D01*
X564184Y1244057D01*
X563443Y1243316D01*
X562656Y1242625D01*
X561825Y1241988D01*
X560954Y1241406D01*
X560046Y1240882D01*
X559107Y1240418D01*
X558139Y1240017D01*
X557147Y1239681D01*
X556135Y1239410D01*
X555108Y1239205D01*
X554069Y1239069D01*
X553024Y1239000D01*
X551976Y1239000D01*
X550931Y1239069D01*
X549892Y1239205D01*
X548865Y1239410D01*
X547853Y1239681D01*
X546861Y1240017D01*
X545893Y1240418D01*
X544954Y1240882D01*
X544046Y1241406D01*
X543175Y1241988D01*
X542344Y1242625D01*
X541557Y1243316D01*
X540816Y1244057D01*
X540125Y1244844D01*
X539488Y1245675D01*
X538906Y1246546D01*
X538382Y1247454D01*
X537918Y1248393D01*
X537517Y1249361D01*
X537181Y1250353D01*
X536910Y1251365D01*
X536705Y1252392D01*
X536569Y1253431D01*
X536500Y1254476D01*
X536500Y1255524D01*
X536569Y1256569D01*
X536705Y1257608D01*
X536910Y1258635D01*
X537181Y1259647D01*
X537517Y1260639D01*
X537918Y1261607D01*
X538382Y1262546D01*
X538906Y1263454D01*
X539488Y1264325D01*
X540125Y1265156D01*
X540816Y1265943D01*
X541557Y1266684D01*
X542344Y1267375D01*
X543175Y1268013D01*
X544046Y1268595D01*
X544954Y1269118D01*
X545893Y1269582D01*
X546861Y1269983D01*
X547853Y1270319D01*
X548865Y1270590D01*
X549892Y1270795D01*
X550931Y1270932D01*
X551976Y1271000D01*
X553024Y1271000D01*
X554069Y1270932D01*
X555108Y1270795D01*
X556135Y1270590D01*
X557147Y1270319D01*
X558139Y1269983D01*
X559107Y1269582D01*
X560046Y1269118D01*
X560954Y1268595D01*
X561825Y1268013D01*
X562656Y1267375D01*
X563443Y1266684D01*
X564184Y1265943D01*
X564875Y1265156D01*
X565513Y1264325D01*
X566095Y1263454D01*
X566618Y1262546D01*
X567082Y1261607D01*
X567483Y1260639D01*
X567819Y1259647D01*
X568090Y1258635D01*
X568295Y1257608D01*
X568432Y1256569D01*
X568500Y1255524D01*
X568500Y1254476D01*
X538500Y1254476D02*
X538432Y1253431D01*
X538295Y1252392D01*
X538090Y1251365D01*
X537819Y1250353D01*
X537483Y1249361D01*
X537082Y1248393D01*
X536618Y1247454D01*
X536095Y1246546D01*
X535513Y1245675D01*
X534875Y1244844D01*
X534184Y1244057D01*
X533443Y1243316D01*
X532656Y1242625D01*
X531825Y1241988D01*
X530954Y1241406D01*
X530046Y1240882D01*
X529107Y1240418D01*
X528139Y1240017D01*
X527147Y1239681D01*
X526135Y1239410D01*
X525108Y1239205D01*
X524069Y1239069D01*
X523024Y1239000D01*
X521976Y1239000D01*
X520931Y1239069D01*
X519892Y1239205D01*
X518865Y1239410D01*
X517853Y1239681D01*
X516861Y1240017D01*
X515893Y1240418D01*
X514954Y1240882D01*
X514046Y1241406D01*
X513175Y1241988D01*
X512344Y1242625D01*
X511557Y1243316D01*
X510816Y1244057D01*
X510125Y1244844D01*
X509488Y1245675D01*
X508906Y1246546D01*
X508382Y1247454D01*
X507918Y1248393D01*
X507517Y1249361D01*
X507181Y1250353D01*
X506910Y1251365D01*
X506705Y1252392D01*
X506569Y1253431D01*
X506500Y1254476D01*
X506500Y1255524D01*
X506569Y1256569D01*
X506705Y1257608D01*
X506910Y1258635D01*
X507181Y1259647D01*
X507517Y1260639D01*
X507918Y1261607D01*
X508382Y1262546D01*
X508906Y1263454D01*
X509488Y1264325D01*
X510125Y1265156D01*
X510816Y1265943D01*
X511557Y1266684D01*
X512344Y1267375D01*
X513175Y1268013D01*
X514046Y1268595D01*
X514954Y1269118D01*
X515893Y1269582D01*
X516861Y1269983D01*
X517853Y1270319D01*
X518865Y1270590D01*
X519892Y1270795D01*
X520931Y1270932D01*
X521976Y1271000D01*
X523024Y1271000D01*
X524069Y1270932D01*
X525108Y1270795D01*
X526135Y1270590D01*
X527147Y1270319D01*
X528139Y1269983D01*
X529107Y1269582D01*
X530046Y1269118D01*
X530954Y1268595D01*
X531825Y1268013D01*
X532656Y1267375D01*
X533443Y1266684D01*
X534184Y1265943D01*
X534875Y1265156D01*
X535513Y1264325D01*
X536095Y1263454D01*
X536618Y1262546D01*
X537082Y1261607D01*
X537483Y1260639D01*
X537819Y1259647D01*
X538090Y1258635D01*
X538295Y1257608D01*
X538432Y1256569D01*
X538500Y1255524D01*
X538500Y1254476D01*
X528500Y1254476D02*
X528432Y1253431D01*
X528295Y1252392D01*
X528090Y1251365D01*
X527819Y1250353D01*
X527483Y1249361D01*
X527082Y1248393D01*
X526618Y1247454D01*
X526095Y1246546D01*
X525513Y1245675D01*
X524875Y1244844D01*
X524184Y1244057D01*
X523443Y1243316D01*
X522656Y1242625D01*
X521825Y1241988D01*
X520954Y1241406D01*
X520046Y1240882D01*
X519107Y1240418D01*
X518139Y1240017D01*
X517147Y1239681D01*
X516135Y1239410D01*
X515108Y1239205D01*
X514069Y1239069D01*
X513024Y1239000D01*
X511976Y1239000D01*
X510931Y1239069D01*
X509892Y1239205D01*
X508865Y1239410D01*
X507853Y1239681D01*
X506861Y1240017D01*
X505893Y1240418D01*
X504954Y1240882D01*
X504046Y1241406D01*
X503175Y1241988D01*
X502344Y1242625D01*
X501557Y1243316D01*
X500816Y1244057D01*
X500125Y1244844D01*
X499488Y1245675D01*
X498906Y1246546D01*
X498382Y1247454D01*
X497918Y1248393D01*
X497517Y1249361D01*
X497181Y1250353D01*
X496910Y1251365D01*
X496705Y1252392D01*
X496569Y1253431D01*
X496500Y1254476D01*
X496500Y1255524D01*
X496569Y1256569D01*
X496705Y1257608D01*
X496910Y1258635D01*
X497181Y1259647D01*
X497517Y1260639D01*
X497918Y1261607D01*
X498382Y1262546D01*
X498906Y1263454D01*
X499488Y1264325D01*
X500125Y1265156D01*
X500816Y1265943D01*
X501557Y1266684D01*
X502344Y1267375D01*
X503175Y1268013D01*
X504046Y1268595D01*
X504954Y1269118D01*
X505893Y1269582D01*
X506861Y1269983D01*
X507853Y1270319D01*
X508865Y1270590D01*
X509892Y1270795D01*
X510931Y1270932D01*
X511976Y1271000D01*
X513024Y1271000D01*
X514069Y1270932D01*
X515108Y1270795D01*
X516135Y1270590D01*
X517147Y1270319D01*
X518139Y1269983D01*
X519107Y1269582D01*
X520046Y1269118D01*
X520954Y1268595D01*
X521825Y1268013D01*
X522656Y1267375D01*
X523443Y1266684D01*
X524184Y1265943D01*
X524875Y1265156D01*
X525513Y1264325D01*
X526095Y1263454D01*
X526618Y1262546D01*
X527082Y1261607D01*
X527483Y1260639D01*
X527819Y1259647D01*
X528090Y1258635D01*
X528295Y1257608D01*
X528432Y1256569D01*
X528500Y1255524D01*
X528500Y1254476D01*
X548500Y29476D02*
X548432Y28431D01*
X548295Y27392D01*
X548090Y26365D01*
X547819Y25353D01*
X547483Y24361D01*
X547082Y23393D01*
X546618Y22454D01*
X546095Y21546D01*
X545513Y20675D01*
X544875Y19844D01*
X544184Y19057D01*
X543443Y18316D01*
X542656Y17625D01*
X541825Y16988D01*
X540954Y16406D01*
X540046Y15882D01*
X539107Y15418D01*
X538139Y15017D01*
X537147Y14681D01*
X536135Y14410D01*
X535108Y14205D01*
X534069Y14069D01*
X533024Y14000D01*
X531976Y14000D01*
X530931Y14069D01*
X529892Y14205D01*
X528865Y14410D01*
X527853Y14681D01*
X526861Y15017D01*
X525893Y15418D01*
X524954Y15882D01*
X524046Y16406D01*
X523175Y16988D01*
X522344Y17625D01*
X521557Y18316D01*
X520816Y19057D01*
X520125Y19844D01*
X519488Y20675D01*
X518906Y21546D01*
X518382Y22454D01*
X517918Y23393D01*
X517517Y24361D01*
X517181Y25353D01*
X516910Y26365D01*
X516705Y27392D01*
X516569Y28431D01*
X516500Y29476D01*
X516500Y30524D01*
X516569Y31569D01*
X516705Y32608D01*
X516910Y33635D01*
X517181Y34647D01*
X517517Y35639D01*
X517918Y36607D01*
X518382Y37546D01*
X518906Y38454D01*
X519488Y39325D01*
X520125Y40156D01*
X520816Y40943D01*
X521557Y41684D01*
X522344Y42375D01*
X523175Y43013D01*
X524046Y43595D01*
X524954Y44118D01*
X525893Y44582D01*
X526861Y44983D01*
X527853Y45319D01*
X528865Y45590D01*
X529892Y45795D01*
X530931Y45932D01*
X531976Y46000D01*
X533024Y46000D01*
X534069Y45932D01*
X535108Y45795D01*
X536135Y45590D01*
X537147Y45319D01*
X538139Y44983D01*
X539107Y44582D01*
X540046Y44118D01*
X540954Y43595D01*
X541825Y43013D01*
X542656Y42375D01*
X543443Y41684D01*
X544184Y40943D01*
X544875Y40156D01*
X545513Y39325D01*
X546095Y38454D01*
X546618Y37546D01*
X547082Y36607D01*
X547483Y35639D01*
X547819Y34647D01*
X548090Y33635D01*
X548295Y32608D01*
X548432Y31569D01*
X548500Y30524D01*
X548500Y29476D01*
X558500Y29476D02*
X558432Y28431D01*
X558295Y27392D01*
X558090Y26365D01*
X557819Y25353D01*
X557483Y24361D01*
X557082Y23393D01*
X556618Y22454D01*
X556095Y21546D01*
X555513Y20675D01*
X554875Y19844D01*
X554184Y19057D01*
X553443Y18316D01*
X552656Y17625D01*
X551825Y16988D01*
X550954Y16406D01*
X550046Y15882D01*
X549107Y15418D01*
X548139Y15017D01*
X547147Y14681D01*
X546135Y14410D01*
X545108Y14205D01*
X544069Y14069D01*
X543024Y14000D01*
X541976Y14000D01*
X540931Y14069D01*
X539892Y14205D01*
X538865Y14410D01*
X537853Y14681D01*
X536861Y15017D01*
X535893Y15418D01*
X534954Y15882D01*
X534046Y16406D01*
X533175Y16988D01*
X532344Y17625D01*
X531557Y18316D01*
X530816Y19057D01*
X530125Y19844D01*
X529488Y20675D01*
X528906Y21546D01*
X528382Y22454D01*
X527918Y23393D01*
X527517Y24361D01*
X527181Y25353D01*
X526910Y26365D01*
X526705Y27392D01*
X526569Y28431D01*
X526500Y29476D01*
X526500Y30524D01*
X526569Y31569D01*
X526705Y32608D01*
X526910Y33635D01*
X527181Y34647D01*
X527517Y35639D01*
X527918Y36607D01*
X528382Y37546D01*
X528906Y38454D01*
X529488Y39325D01*
X530125Y40156D01*
X530816Y40943D01*
X531557Y41684D01*
X532344Y42375D01*
X533175Y43013D01*
X534046Y43595D01*
X534954Y44118D01*
X535893Y44582D01*
X536861Y44983D01*
X537853Y45319D01*
X538865Y45590D01*
X539892Y45795D01*
X540931Y45932D01*
X541976Y46000D01*
X543024Y46000D01*
X544069Y45932D01*
X545108Y45795D01*
X546135Y45590D01*
X547147Y45319D01*
X548139Y44983D01*
X549107Y44582D01*
X550046Y44118D01*
X550954Y43595D01*
X551825Y43013D01*
X552656Y42375D01*
X553443Y41684D01*
X554184Y40943D01*
X554875Y40156D01*
X555513Y39325D01*
X556095Y38454D01*
X556618Y37546D01*
X557082Y36607D01*
X557483Y35639D01*
X557819Y34647D01*
X558090Y33635D01*
X558295Y32608D01*
X558432Y31569D01*
X558500Y30524D01*
X558500Y29476D01*
X568500Y29476D02*
X568432Y28431D01*
X568295Y27392D01*
X568090Y26365D01*
X567819Y25353D01*
X567483Y24361D01*
X567082Y23393D01*
X566618Y22454D01*
X566095Y21546D01*
X565513Y20675D01*
X564875Y19844D01*
X564184Y19057D01*
X563443Y18316D01*
X562656Y17625D01*
X561825Y16988D01*
X560954Y16406D01*
X560046Y15882D01*
X559107Y15418D01*
X558139Y15017D01*
X557147Y14681D01*
X556135Y14410D01*
X555108Y14205D01*
X554069Y14069D01*
X553024Y14000D01*
X551976Y14000D01*
X550931Y14069D01*
X549892Y14205D01*
X548865Y14410D01*
X547853Y14681D01*
X546861Y15017D01*
X545893Y15418D01*
X544954Y15882D01*
X544046Y16406D01*
X543175Y16988D01*
X542344Y17625D01*
X541557Y18316D01*
X540816Y19057D01*
X540125Y19844D01*
X539488Y20675D01*
X538906Y21546D01*
X538382Y22454D01*
X537918Y23393D01*
X537517Y24361D01*
X537181Y25353D01*
X536910Y26365D01*
X536705Y27392D01*
X536569Y28431D01*
X536500Y29476D01*
X536500Y30524D01*
X536569Y31569D01*
X536705Y32608D01*
X536910Y33635D01*
X537181Y34647D01*
X537517Y35639D01*
X537918Y36607D01*
X538382Y37546D01*
X538906Y38454D01*
X539488Y39325D01*
X540125Y40156D01*
X540816Y40943D01*
X541557Y41684D01*
X542344Y42375D01*
X543175Y43013D01*
X544046Y43595D01*
X544954Y44118D01*
X545893Y44582D01*
X546861Y44983D01*
X547853Y45319D01*
X548865Y45590D01*
X549892Y45795D01*
X550931Y45932D01*
X551976Y46000D01*
X553024Y46000D01*
X554069Y45932D01*
X555108Y45795D01*
X556135Y45590D01*
X557147Y45319D01*
X558139Y44983D01*
X559107Y44582D01*
X560046Y44118D01*
X560954Y43595D01*
X561825Y43013D01*
X562656Y42375D01*
X563443Y41684D01*
X564184Y40943D01*
X564875Y40156D01*
X565513Y39325D01*
X566095Y38454D01*
X566618Y37546D01*
X567082Y36607D01*
X567483Y35639D01*
X567819Y34647D01*
X568090Y33635D01*
X568295Y32608D01*
X568432Y31569D01*
X568500Y30524D01*
X568500Y29476D01*
X538500Y29476D02*
X538432Y28431D01*
X538295Y27392D01*
X538090Y26365D01*
X537819Y25353D01*
X537483Y24361D01*
X537082Y23393D01*
X536618Y22454D01*
X536095Y21546D01*
X535513Y20675D01*
X534875Y19844D01*
X534184Y19057D01*
X533443Y18316D01*
X532656Y17625D01*
X531825Y16988D01*
X530954Y16406D01*
X530046Y15882D01*
X529107Y15418D01*
X528139Y15017D01*
X527147Y14681D01*
X526135Y14410D01*
X525108Y14205D01*
X524069Y14069D01*
X523024Y14000D01*
X521976Y14000D01*
X520931Y14069D01*
X519892Y14205D01*
X518865Y14410D01*
X517853Y14681D01*
X516861Y15017D01*
X515893Y15418D01*
X514954Y15882D01*
X514046Y16406D01*
X513175Y16988D01*
X512344Y17625D01*
X511557Y18316D01*
X510816Y19057D01*
X510125Y19844D01*
X509488Y20675D01*
X508906Y21546D01*
X508382Y22454D01*
X507918Y23393D01*
X507517Y24361D01*
X507181Y25353D01*
X506910Y26365D01*
X506705Y27392D01*
X506569Y28431D01*
X506500Y29476D01*
X506500Y30524D01*
X506569Y31569D01*
X506705Y32608D01*
X506910Y33635D01*
X507181Y34647D01*
X507517Y35639D01*
X507918Y36607D01*
X508382Y37546D01*
X508906Y38454D01*
X509488Y39325D01*
X510125Y40156D01*
X510816Y40943D01*
X511557Y41684D01*
X512344Y42375D01*
X513175Y43013D01*
X514046Y43595D01*
X514954Y44118D01*
X515893Y44582D01*
X516861Y44983D01*
X517853Y45319D01*
X518865Y45590D01*
X519892Y45795D01*
X520931Y45932D01*
X521976Y46000D01*
X523024Y46000D01*
X524069Y45932D01*
X525108Y45795D01*
X526135Y45590D01*
X527147Y45319D01*
X528139Y44983D01*
X529107Y44582D01*
X530046Y44118D01*
X530954Y43595D01*
X531825Y43013D01*
X532656Y42375D01*
X533443Y41684D01*
X534184Y40943D01*
X534875Y40156D01*
X535513Y39325D01*
X536095Y38454D01*
X536618Y37546D01*
X537082Y36607D01*
X537483Y35639D01*
X537819Y34647D01*
X538090Y33635D01*
X538295Y32608D01*
X538432Y31569D01*
X538500Y30524D01*
X538500Y29476D01*
X528500Y29476D02*
X528432Y28431D01*
X528295Y27392D01*
X528090Y26365D01*
X527819Y25353D01*
X527483Y24361D01*
X527082Y23393D01*
X526618Y22454D01*
X526095Y21546D01*
X525513Y20675D01*
X524875Y19844D01*
X524184Y19057D01*
X523443Y18316D01*
X522656Y17625D01*
X521825Y16988D01*
X520954Y16406D01*
X520046Y15882D01*
X519107Y15418D01*
X518139Y15017D01*
X517147Y14681D01*
X516135Y14410D01*
X515108Y14205D01*
X514069Y14069D01*
X513024Y14000D01*
X511976Y14000D01*
X510931Y14069D01*
X509892Y14205D01*
X508865Y14410D01*
X507853Y14681D01*
X506861Y15017D01*
X505893Y15418D01*
X504954Y15882D01*
X504046Y16406D01*
X503175Y16988D01*
X502344Y17625D01*
X501557Y18316D01*
X500816Y19057D01*
X500125Y19844D01*
X499488Y20675D01*
X498906Y21546D01*
X498382Y22454D01*
X497918Y23393D01*
X497517Y24361D01*
X497181Y25353D01*
X496910Y26365D01*
X496705Y27392D01*
X496569Y28431D01*
X496500Y29476D01*
X496500Y30524D01*
X496569Y31569D01*
X496705Y32608D01*
X496910Y33635D01*
X497181Y34647D01*
X497517Y35639D01*
X497918Y36607D01*
X498382Y37546D01*
X498906Y38454D01*
X499488Y39325D01*
X500125Y40156D01*
X500816Y40943D01*
X501557Y41684D01*
X502344Y42375D01*
X503175Y43013D01*
X504046Y43595D01*
X504954Y44118D01*
X505893Y44582D01*
X506861Y44983D01*
X507853Y45319D01*
X508865Y45590D01*
X509892Y45795D01*
X510931Y45932D01*
X511976Y46000D01*
X513024Y46000D01*
X514069Y45932D01*
X515108Y45795D01*
X516135Y45590D01*
X517147Y45319D01*
X518139Y44983D01*
X519107Y44582D01*
X520046Y44118D01*
X520954Y43595D01*
X521825Y43013D01*
X522656Y42375D01*
X523443Y41684D01*
X524184Y40943D01*
X524875Y40156D01*
X525513Y39325D01*
X526095Y38454D01*
X526618Y37546D01*
X527082Y36607D01*
X527483Y35639D01*
X527819Y34647D01*
X528090Y33635D01*
X528295Y32608D01*
X528432Y31569D01*
X528500Y30524D01*
X528500Y29476D01*
X317000Y542000D02*
X316929Y541003D01*
X316786Y540013D01*
X316574Y539036D01*
X316292Y538076D01*
X315943Y537139D01*
X315527Y536229D01*
X315048Y535352D01*
X314507Y534510D01*
X313908Y533710D01*
X313253Y532954D01*
X312546Y532247D01*
X311790Y531592D01*
X310990Y530993D01*
X310148Y530452D01*
X309271Y529973D01*
X308361Y529557D01*
X307424Y529208D01*
X306465Y528926D01*
X305487Y528714D01*
X304498Y528571D01*
X303500Y528500D01*
X302500Y528500D01*
X301503Y528571D01*
X300513Y528714D01*
X299536Y528926D01*
X298576Y529208D01*
X297639Y529557D01*
X296729Y529973D01*
X295852Y530452D01*
X295010Y530993D01*
X294210Y531592D01*
X293454Y532247D01*
X292747Y532954D01*
X292092Y533710D01*
X291493Y534510D01*
X290952Y535352D01*
X290473Y536229D01*
X290057Y537139D01*
X289708Y538076D01*
X289426Y539036D01*
X289214Y540013D01*
X289071Y541003D01*
X289000Y542000D01*
X289000Y543000D01*
X289071Y543998D01*
X289214Y544987D01*
X289426Y545965D01*
X289708Y546924D01*
X290057Y547861D01*
X290473Y548771D01*
X290952Y549648D01*
X291493Y550490D01*
X292092Y551290D01*
X292747Y552046D01*
X293454Y552753D01*
X294210Y553408D01*
X295010Y554007D01*
X295852Y554548D01*
X296729Y555027D01*
X297639Y555443D01*
X298576Y555792D01*
X299536Y556074D01*
X300513Y556286D01*
X301503Y556429D01*
X302500Y556500D01*
X303500Y556500D01*
X304498Y556429D01*
X305487Y556286D01*
X306465Y556074D01*
X307424Y555792D01*
X308361Y555443D01*
X309271Y555027D01*
X310148Y554548D01*
X310990Y554007D01*
X311790Y553408D01*
X312546Y552753D01*
X313253Y552046D01*
X313908Y551290D01*
X314507Y550490D01*
X315048Y549648D01*
X315527Y548771D01*
X315943Y547861D01*
X316292Y546924D01*
X316574Y545965D01*
X316786Y544987D01*
X316929Y543998D01*
X317000Y543000D01*
X317000Y542000D01*
X317000Y242000D02*
X316929Y241003D01*
X316786Y240013D01*
X316574Y239036D01*
X316292Y238076D01*
X315943Y237139D01*
X315527Y236229D01*
X315048Y235352D01*
X314507Y234510D01*
X313908Y233710D01*
X313253Y232954D01*
X312546Y232247D01*
X311790Y231592D01*
X310990Y230993D01*
X310148Y230452D01*
X309271Y229973D01*
X308361Y229557D01*
X307424Y229208D01*
X306465Y228926D01*
X305487Y228714D01*
X304498Y228571D01*
X303500Y228500D01*
X302500Y228500D01*
X301503Y228571D01*
X300513Y228714D01*
X299536Y228926D01*
X298576Y229208D01*
X297639Y229557D01*
X296729Y229973D01*
X295852Y230452D01*
X295010Y230993D01*
X294210Y231592D01*
X293454Y232247D01*
X292747Y232954D01*
X292092Y233710D01*
X291493Y234510D01*
X290952Y235352D01*
X290473Y236229D01*
X290057Y237139D01*
X289708Y238076D01*
X289426Y239036D01*
X289214Y240013D01*
X289071Y241003D01*
X289000Y242000D01*
X289000Y243000D01*
X289071Y243998D01*
X289214Y244987D01*
X289426Y245965D01*
X289708Y246924D01*
X290057Y247861D01*
X290473Y248771D01*
X290952Y249648D01*
X291493Y250490D01*
X292092Y251290D01*
X292747Y252046D01*
X293454Y252753D01*
X294210Y253408D01*
X295010Y254007D01*
X295852Y254548D01*
X296729Y255027D01*
X297639Y255443D01*
X298576Y255792D01*
X299536Y256074D01*
X300513Y256286D01*
X301503Y256429D01*
X302500Y256500D01*
X303500Y256500D01*
X304498Y256429D01*
X305487Y256286D01*
X306465Y256074D01*
X307424Y255792D01*
X308361Y255443D01*
X309271Y255027D01*
X310148Y254548D01*
X310990Y254007D01*
X311790Y253408D01*
X312546Y252753D01*
X313253Y252046D01*
X313908Y251290D01*
X314507Y250490D01*
X315048Y249648D01*
X315527Y248771D01*
X315943Y247861D01*
X316292Y246924D01*
X316574Y245965D01*
X316786Y244987D01*
X316929Y243998D01*
X317000Y243000D01*
X317000Y242000D01*
M02*
