G04 EAGLE Gerber RS-274X export*
G75*
%MOMM*%
%FSLAX34Y34*%
%LPD*%
%INSilkscreen Top*%
%IPPOS*%
%AMOC8*
5,1,8,0,0,1.08239X$1,22.5*%
G01*
%ADD10C,0.152400*%


D10*
X37568Y1194518D02*
X37568Y1178262D01*
X35762Y1178262D02*
X39374Y1178262D01*
X39374Y1194518D02*
X35762Y1194518D01*
X46079Y1194518D02*
X46079Y1178262D01*
X55110Y1178262D02*
X46079Y1194518D01*
X55110Y1194518D02*
X55110Y1178262D01*
X62231Y1190906D02*
X66747Y1194518D01*
X66747Y1178262D01*
X71262Y1178262D02*
X62231Y1178262D01*
X132568Y1178262D02*
X132568Y1194518D01*
X130762Y1178262D02*
X134374Y1178262D01*
X134374Y1194518D02*
X130762Y1194518D01*
X141079Y1194518D02*
X141079Y1178262D01*
X150110Y1178262D02*
X141079Y1194518D01*
X150110Y1194518D02*
X150110Y1178262D01*
X166262Y1190454D02*
X166260Y1190579D01*
X166254Y1190704D01*
X166245Y1190829D01*
X166231Y1190953D01*
X166214Y1191077D01*
X166193Y1191201D01*
X166168Y1191323D01*
X166139Y1191445D01*
X166107Y1191566D01*
X166071Y1191686D01*
X166031Y1191805D01*
X165988Y1191922D01*
X165941Y1192038D01*
X165890Y1192153D01*
X165836Y1192265D01*
X165778Y1192377D01*
X165718Y1192486D01*
X165653Y1192593D01*
X165586Y1192699D01*
X165515Y1192802D01*
X165441Y1192903D01*
X165364Y1193002D01*
X165284Y1193098D01*
X165201Y1193192D01*
X165116Y1193283D01*
X165027Y1193372D01*
X164936Y1193457D01*
X164842Y1193540D01*
X164746Y1193620D01*
X164647Y1193697D01*
X164546Y1193771D01*
X164443Y1193842D01*
X164337Y1193909D01*
X164230Y1193974D01*
X164121Y1194034D01*
X164009Y1194092D01*
X163897Y1194146D01*
X163782Y1194197D01*
X163666Y1194244D01*
X163549Y1194287D01*
X163430Y1194327D01*
X163310Y1194363D01*
X163189Y1194395D01*
X163067Y1194424D01*
X162945Y1194449D01*
X162821Y1194470D01*
X162697Y1194487D01*
X162573Y1194501D01*
X162448Y1194510D01*
X162323Y1194516D01*
X162198Y1194518D01*
X162055Y1194516D01*
X161913Y1194510D01*
X161770Y1194500D01*
X161628Y1194487D01*
X161487Y1194469D01*
X161345Y1194448D01*
X161205Y1194423D01*
X161065Y1194394D01*
X160926Y1194361D01*
X160788Y1194324D01*
X160651Y1194284D01*
X160516Y1194240D01*
X160381Y1194192D01*
X160248Y1194140D01*
X160116Y1194085D01*
X159986Y1194026D01*
X159858Y1193964D01*
X159731Y1193898D01*
X159606Y1193829D01*
X159483Y1193757D01*
X159363Y1193681D01*
X159244Y1193602D01*
X159127Y1193519D01*
X159013Y1193434D01*
X158901Y1193345D01*
X158792Y1193254D01*
X158685Y1193159D01*
X158580Y1193062D01*
X158479Y1192961D01*
X158380Y1192858D01*
X158284Y1192753D01*
X158191Y1192644D01*
X158101Y1192533D01*
X158014Y1192420D01*
X157930Y1192305D01*
X157850Y1192187D01*
X157772Y1192067D01*
X157698Y1191945D01*
X157628Y1191821D01*
X157560Y1191695D01*
X157497Y1191567D01*
X157436Y1191438D01*
X157379Y1191307D01*
X157326Y1191175D01*
X157277Y1191041D01*
X157231Y1190906D01*
X164907Y1187293D02*
X165001Y1187385D01*
X165091Y1187479D01*
X165179Y1187576D01*
X165264Y1187676D01*
X165346Y1187778D01*
X165425Y1187883D01*
X165500Y1187990D01*
X165572Y1188099D01*
X165641Y1188210D01*
X165707Y1188324D01*
X165769Y1188439D01*
X165828Y1188556D01*
X165883Y1188675D01*
X165934Y1188795D01*
X165982Y1188917D01*
X166027Y1189040D01*
X166067Y1189164D01*
X166104Y1189290D01*
X166137Y1189417D01*
X166166Y1189544D01*
X166192Y1189673D01*
X166213Y1189802D01*
X166231Y1189932D01*
X166244Y1190062D01*
X166254Y1190192D01*
X166260Y1190323D01*
X166262Y1190454D01*
X164907Y1187293D02*
X157231Y1178262D01*
X166262Y1178262D01*
X240762Y1178262D02*
X240762Y1194518D01*
X245278Y1194518D01*
X245409Y1194516D01*
X245541Y1194510D01*
X245672Y1194501D01*
X245802Y1194487D01*
X245933Y1194470D01*
X246062Y1194449D01*
X246191Y1194425D01*
X246319Y1194396D01*
X246447Y1194364D01*
X246573Y1194328D01*
X246698Y1194289D01*
X246823Y1194246D01*
X246945Y1194199D01*
X247067Y1194149D01*
X247187Y1194095D01*
X247305Y1194038D01*
X247421Y1193977D01*
X247536Y1193913D01*
X247649Y1193846D01*
X247760Y1193775D01*
X247868Y1193701D01*
X247975Y1193624D01*
X248079Y1193544D01*
X248181Y1193461D01*
X248280Y1193376D01*
X248377Y1193287D01*
X248471Y1193195D01*
X248563Y1193101D01*
X248652Y1193004D01*
X248737Y1192905D01*
X248820Y1192803D01*
X248900Y1192699D01*
X248977Y1192592D01*
X249051Y1192484D01*
X249122Y1192373D01*
X249189Y1192260D01*
X249253Y1192145D01*
X249314Y1192029D01*
X249371Y1191911D01*
X249425Y1191791D01*
X249475Y1191669D01*
X249522Y1191547D01*
X249565Y1191422D01*
X249604Y1191297D01*
X249640Y1191171D01*
X249672Y1191043D01*
X249701Y1190915D01*
X249725Y1190786D01*
X249746Y1190657D01*
X249763Y1190526D01*
X249777Y1190396D01*
X249786Y1190265D01*
X249792Y1190133D01*
X249794Y1190002D01*
X249793Y1190002D02*
X249793Y1182778D01*
X249794Y1182778D02*
X249792Y1182647D01*
X249786Y1182515D01*
X249777Y1182384D01*
X249763Y1182254D01*
X249746Y1182123D01*
X249725Y1181994D01*
X249701Y1181865D01*
X249672Y1181737D01*
X249640Y1181609D01*
X249604Y1181483D01*
X249565Y1181358D01*
X249522Y1181233D01*
X249475Y1181111D01*
X249425Y1180989D01*
X249371Y1180869D01*
X249314Y1180751D01*
X249253Y1180635D01*
X249189Y1180520D01*
X249122Y1180407D01*
X249051Y1180296D01*
X248977Y1180188D01*
X248900Y1180081D01*
X248820Y1179977D01*
X248737Y1179875D01*
X248652Y1179776D01*
X248563Y1179679D01*
X248471Y1179585D01*
X248377Y1179493D01*
X248280Y1179404D01*
X248181Y1179319D01*
X248079Y1179236D01*
X247975Y1179156D01*
X247868Y1179079D01*
X247760Y1179005D01*
X247649Y1178934D01*
X247536Y1178867D01*
X247421Y1178803D01*
X247305Y1178742D01*
X247187Y1178685D01*
X247067Y1178631D01*
X246945Y1178581D01*
X246823Y1178534D01*
X246698Y1178491D01*
X246573Y1178452D01*
X246447Y1178416D01*
X246319Y1178384D01*
X246191Y1178355D01*
X246062Y1178331D01*
X245932Y1178310D01*
X245802Y1178293D01*
X245672Y1178279D01*
X245541Y1178270D01*
X245409Y1178264D01*
X245278Y1178262D01*
X240762Y1178262D01*
X256914Y1190906D02*
X261430Y1194518D01*
X261430Y1178262D01*
X265945Y1178262D02*
X256914Y1178262D01*
X340762Y1178262D02*
X340762Y1194518D01*
X345278Y1194518D01*
X345409Y1194516D01*
X345541Y1194510D01*
X345672Y1194501D01*
X345802Y1194487D01*
X345933Y1194470D01*
X346062Y1194449D01*
X346191Y1194425D01*
X346319Y1194396D01*
X346447Y1194364D01*
X346573Y1194328D01*
X346698Y1194289D01*
X346823Y1194246D01*
X346945Y1194199D01*
X347067Y1194149D01*
X347187Y1194095D01*
X347305Y1194038D01*
X347421Y1193977D01*
X347536Y1193913D01*
X347649Y1193846D01*
X347760Y1193775D01*
X347868Y1193701D01*
X347975Y1193624D01*
X348079Y1193544D01*
X348181Y1193461D01*
X348280Y1193376D01*
X348377Y1193287D01*
X348471Y1193195D01*
X348563Y1193101D01*
X348652Y1193004D01*
X348737Y1192905D01*
X348820Y1192803D01*
X348900Y1192699D01*
X348977Y1192592D01*
X349051Y1192484D01*
X349122Y1192373D01*
X349189Y1192260D01*
X349253Y1192145D01*
X349314Y1192029D01*
X349371Y1191911D01*
X349425Y1191791D01*
X349475Y1191669D01*
X349522Y1191547D01*
X349565Y1191422D01*
X349604Y1191297D01*
X349640Y1191171D01*
X349672Y1191043D01*
X349701Y1190915D01*
X349725Y1190786D01*
X349746Y1190657D01*
X349763Y1190526D01*
X349777Y1190396D01*
X349786Y1190265D01*
X349792Y1190133D01*
X349794Y1190002D01*
X349793Y1190002D02*
X349793Y1182778D01*
X349794Y1182778D02*
X349792Y1182647D01*
X349786Y1182515D01*
X349777Y1182384D01*
X349763Y1182254D01*
X349746Y1182123D01*
X349725Y1181994D01*
X349701Y1181865D01*
X349672Y1181737D01*
X349640Y1181609D01*
X349604Y1181483D01*
X349565Y1181358D01*
X349522Y1181233D01*
X349475Y1181111D01*
X349425Y1180989D01*
X349371Y1180869D01*
X349314Y1180751D01*
X349253Y1180635D01*
X349189Y1180520D01*
X349122Y1180407D01*
X349051Y1180296D01*
X348977Y1180188D01*
X348900Y1180081D01*
X348820Y1179977D01*
X348737Y1179875D01*
X348652Y1179776D01*
X348563Y1179679D01*
X348471Y1179585D01*
X348377Y1179493D01*
X348280Y1179404D01*
X348181Y1179319D01*
X348079Y1179236D01*
X347975Y1179156D01*
X347868Y1179079D01*
X347760Y1179005D01*
X347649Y1178934D01*
X347536Y1178867D01*
X347421Y1178803D01*
X347305Y1178742D01*
X347187Y1178685D01*
X347067Y1178631D01*
X346945Y1178581D01*
X346823Y1178534D01*
X346698Y1178491D01*
X346573Y1178452D01*
X346447Y1178416D01*
X346319Y1178384D01*
X346191Y1178355D01*
X346062Y1178331D01*
X345932Y1178310D01*
X345802Y1178293D01*
X345672Y1178279D01*
X345541Y1178270D01*
X345409Y1178264D01*
X345278Y1178262D01*
X340762Y1178262D01*
X361881Y1194518D02*
X362006Y1194516D01*
X362131Y1194510D01*
X362256Y1194501D01*
X362380Y1194487D01*
X362504Y1194470D01*
X362628Y1194449D01*
X362750Y1194424D01*
X362872Y1194395D01*
X362993Y1194363D01*
X363113Y1194327D01*
X363232Y1194287D01*
X363349Y1194244D01*
X363465Y1194197D01*
X363580Y1194146D01*
X363692Y1194092D01*
X363804Y1194034D01*
X363913Y1193974D01*
X364020Y1193909D01*
X364126Y1193842D01*
X364229Y1193771D01*
X364330Y1193697D01*
X364429Y1193620D01*
X364525Y1193540D01*
X364619Y1193457D01*
X364710Y1193372D01*
X364799Y1193283D01*
X364884Y1193192D01*
X364967Y1193098D01*
X365047Y1193002D01*
X365124Y1192903D01*
X365198Y1192802D01*
X365269Y1192699D01*
X365336Y1192593D01*
X365401Y1192486D01*
X365461Y1192377D01*
X365519Y1192265D01*
X365573Y1192153D01*
X365624Y1192038D01*
X365671Y1191922D01*
X365714Y1191805D01*
X365754Y1191686D01*
X365790Y1191566D01*
X365822Y1191445D01*
X365851Y1191323D01*
X365876Y1191201D01*
X365897Y1191077D01*
X365914Y1190953D01*
X365928Y1190829D01*
X365937Y1190704D01*
X365943Y1190579D01*
X365945Y1190454D01*
X361881Y1194518D02*
X361738Y1194516D01*
X361596Y1194510D01*
X361453Y1194500D01*
X361311Y1194487D01*
X361170Y1194469D01*
X361028Y1194448D01*
X360888Y1194423D01*
X360748Y1194394D01*
X360609Y1194361D01*
X360471Y1194324D01*
X360334Y1194284D01*
X360199Y1194240D01*
X360064Y1194192D01*
X359931Y1194140D01*
X359799Y1194085D01*
X359669Y1194026D01*
X359541Y1193964D01*
X359414Y1193898D01*
X359289Y1193829D01*
X359166Y1193757D01*
X359046Y1193681D01*
X358927Y1193602D01*
X358810Y1193519D01*
X358696Y1193434D01*
X358584Y1193345D01*
X358475Y1193254D01*
X358368Y1193159D01*
X358263Y1193062D01*
X358162Y1192961D01*
X358063Y1192858D01*
X357967Y1192753D01*
X357874Y1192644D01*
X357784Y1192533D01*
X357697Y1192420D01*
X357613Y1192305D01*
X357533Y1192187D01*
X357455Y1192067D01*
X357381Y1191945D01*
X357311Y1191821D01*
X357243Y1191695D01*
X357180Y1191567D01*
X357119Y1191438D01*
X357062Y1191307D01*
X357009Y1191175D01*
X356960Y1191041D01*
X356914Y1190906D01*
X364590Y1187293D02*
X364684Y1187385D01*
X364774Y1187479D01*
X364862Y1187576D01*
X364947Y1187676D01*
X365029Y1187778D01*
X365108Y1187883D01*
X365183Y1187990D01*
X365255Y1188099D01*
X365324Y1188210D01*
X365390Y1188324D01*
X365452Y1188439D01*
X365511Y1188556D01*
X365566Y1188675D01*
X365617Y1188795D01*
X365665Y1188917D01*
X365710Y1189040D01*
X365750Y1189164D01*
X365787Y1189290D01*
X365820Y1189417D01*
X365849Y1189544D01*
X365875Y1189673D01*
X365896Y1189802D01*
X365914Y1189932D01*
X365927Y1190062D01*
X365937Y1190192D01*
X365943Y1190323D01*
X365945Y1190454D01*
X364591Y1187293D02*
X356914Y1178262D01*
X365945Y1178262D01*
X440762Y1178262D02*
X440762Y1194518D01*
X445278Y1194518D01*
X445409Y1194516D01*
X445541Y1194510D01*
X445672Y1194501D01*
X445802Y1194487D01*
X445933Y1194470D01*
X446062Y1194449D01*
X446191Y1194425D01*
X446319Y1194396D01*
X446447Y1194364D01*
X446573Y1194328D01*
X446698Y1194289D01*
X446823Y1194246D01*
X446945Y1194199D01*
X447067Y1194149D01*
X447187Y1194095D01*
X447305Y1194038D01*
X447421Y1193977D01*
X447536Y1193913D01*
X447649Y1193846D01*
X447760Y1193775D01*
X447868Y1193701D01*
X447975Y1193624D01*
X448079Y1193544D01*
X448181Y1193461D01*
X448280Y1193376D01*
X448377Y1193287D01*
X448471Y1193195D01*
X448563Y1193101D01*
X448652Y1193004D01*
X448737Y1192905D01*
X448820Y1192803D01*
X448900Y1192699D01*
X448977Y1192592D01*
X449051Y1192484D01*
X449122Y1192373D01*
X449189Y1192260D01*
X449253Y1192145D01*
X449314Y1192029D01*
X449371Y1191911D01*
X449425Y1191791D01*
X449475Y1191669D01*
X449522Y1191547D01*
X449565Y1191422D01*
X449604Y1191297D01*
X449640Y1191171D01*
X449672Y1191043D01*
X449701Y1190915D01*
X449725Y1190786D01*
X449746Y1190657D01*
X449763Y1190526D01*
X449777Y1190396D01*
X449786Y1190265D01*
X449792Y1190133D01*
X449794Y1190002D01*
X449793Y1190002D02*
X449793Y1182778D01*
X449794Y1182778D02*
X449792Y1182647D01*
X449786Y1182515D01*
X449777Y1182384D01*
X449763Y1182254D01*
X449746Y1182123D01*
X449725Y1181994D01*
X449701Y1181865D01*
X449672Y1181737D01*
X449640Y1181609D01*
X449604Y1181483D01*
X449565Y1181358D01*
X449522Y1181233D01*
X449475Y1181111D01*
X449425Y1180989D01*
X449371Y1180869D01*
X449314Y1180751D01*
X449253Y1180635D01*
X449189Y1180520D01*
X449122Y1180407D01*
X449051Y1180296D01*
X448977Y1180188D01*
X448900Y1180081D01*
X448820Y1179977D01*
X448737Y1179875D01*
X448652Y1179776D01*
X448563Y1179679D01*
X448471Y1179585D01*
X448377Y1179493D01*
X448280Y1179404D01*
X448181Y1179319D01*
X448079Y1179236D01*
X447975Y1179156D01*
X447868Y1179079D01*
X447760Y1179005D01*
X447649Y1178934D01*
X447536Y1178867D01*
X447421Y1178803D01*
X447305Y1178742D01*
X447187Y1178685D01*
X447067Y1178631D01*
X446945Y1178581D01*
X446823Y1178534D01*
X446698Y1178491D01*
X446573Y1178452D01*
X446447Y1178416D01*
X446319Y1178384D01*
X446191Y1178355D01*
X446062Y1178331D01*
X445932Y1178310D01*
X445802Y1178293D01*
X445672Y1178279D01*
X445541Y1178270D01*
X445409Y1178264D01*
X445278Y1178262D01*
X440762Y1178262D01*
X456914Y1178262D02*
X461430Y1178262D01*
X461563Y1178264D01*
X461695Y1178270D01*
X461827Y1178280D01*
X461959Y1178293D01*
X462091Y1178311D01*
X462221Y1178332D01*
X462352Y1178357D01*
X462481Y1178386D01*
X462609Y1178419D01*
X462737Y1178455D01*
X462863Y1178495D01*
X462988Y1178539D01*
X463112Y1178587D01*
X463234Y1178638D01*
X463355Y1178693D01*
X463474Y1178751D01*
X463592Y1178813D01*
X463707Y1178878D01*
X463821Y1178947D01*
X463932Y1179018D01*
X464041Y1179094D01*
X464148Y1179172D01*
X464253Y1179253D01*
X464355Y1179338D01*
X464455Y1179425D01*
X464552Y1179515D01*
X464647Y1179608D01*
X464738Y1179704D01*
X464827Y1179802D01*
X464913Y1179903D01*
X464996Y1180007D01*
X465076Y1180113D01*
X465152Y1180221D01*
X465226Y1180331D01*
X465296Y1180444D01*
X465363Y1180558D01*
X465426Y1180675D01*
X465486Y1180793D01*
X465543Y1180913D01*
X465596Y1181035D01*
X465645Y1181158D01*
X465691Y1181282D01*
X465733Y1181408D01*
X465771Y1181535D01*
X465806Y1181663D01*
X465837Y1181792D01*
X465864Y1181921D01*
X465887Y1182052D01*
X465907Y1182183D01*
X465922Y1182315D01*
X465934Y1182447D01*
X465942Y1182579D01*
X465946Y1182712D01*
X465946Y1182844D01*
X465942Y1182977D01*
X465934Y1183109D01*
X465922Y1183241D01*
X465907Y1183373D01*
X465887Y1183504D01*
X465864Y1183635D01*
X465837Y1183764D01*
X465806Y1183893D01*
X465771Y1184021D01*
X465733Y1184148D01*
X465691Y1184274D01*
X465645Y1184398D01*
X465596Y1184521D01*
X465543Y1184643D01*
X465486Y1184763D01*
X465426Y1184881D01*
X465363Y1184998D01*
X465296Y1185112D01*
X465226Y1185225D01*
X465152Y1185335D01*
X465076Y1185443D01*
X464996Y1185549D01*
X464913Y1185653D01*
X464827Y1185754D01*
X464738Y1185852D01*
X464647Y1185948D01*
X464552Y1186041D01*
X464455Y1186131D01*
X464355Y1186218D01*
X464253Y1186303D01*
X464148Y1186384D01*
X464041Y1186462D01*
X463932Y1186538D01*
X463821Y1186609D01*
X463707Y1186678D01*
X463592Y1186743D01*
X463474Y1186805D01*
X463355Y1186863D01*
X463234Y1186918D01*
X463112Y1186969D01*
X462988Y1187017D01*
X462863Y1187061D01*
X462737Y1187101D01*
X462609Y1187137D01*
X462481Y1187170D01*
X462352Y1187199D01*
X462221Y1187224D01*
X462091Y1187245D01*
X461959Y1187263D01*
X461827Y1187276D01*
X461695Y1187286D01*
X461563Y1187292D01*
X461430Y1187294D01*
X462333Y1194518D02*
X456914Y1194518D01*
X462333Y1194518D02*
X462452Y1194516D01*
X462572Y1194510D01*
X462691Y1194500D01*
X462809Y1194486D01*
X462928Y1194469D01*
X463045Y1194447D01*
X463162Y1194422D01*
X463277Y1194392D01*
X463392Y1194359D01*
X463506Y1194322D01*
X463618Y1194282D01*
X463729Y1194237D01*
X463838Y1194189D01*
X463946Y1194138D01*
X464052Y1194083D01*
X464156Y1194024D01*
X464258Y1193962D01*
X464358Y1193897D01*
X464456Y1193828D01*
X464552Y1193756D01*
X464645Y1193681D01*
X464735Y1193604D01*
X464823Y1193523D01*
X464908Y1193439D01*
X464990Y1193352D01*
X465070Y1193263D01*
X465146Y1193171D01*
X465220Y1193077D01*
X465290Y1192980D01*
X465357Y1192882D01*
X465421Y1192781D01*
X465481Y1192677D01*
X465538Y1192572D01*
X465591Y1192465D01*
X465641Y1192357D01*
X465687Y1192247D01*
X465729Y1192135D01*
X465768Y1192022D01*
X465803Y1191908D01*
X465834Y1191793D01*
X465862Y1191676D01*
X465885Y1191559D01*
X465905Y1191442D01*
X465921Y1191323D01*
X465933Y1191204D01*
X465941Y1191085D01*
X465945Y1190966D01*
X465945Y1190846D01*
X465941Y1190727D01*
X465933Y1190608D01*
X465921Y1190489D01*
X465905Y1190370D01*
X465885Y1190253D01*
X465862Y1190136D01*
X465834Y1190019D01*
X465803Y1189904D01*
X465768Y1189790D01*
X465729Y1189677D01*
X465687Y1189565D01*
X465641Y1189455D01*
X465591Y1189347D01*
X465538Y1189240D01*
X465481Y1189135D01*
X465421Y1189031D01*
X465357Y1188930D01*
X465290Y1188832D01*
X465220Y1188735D01*
X465146Y1188641D01*
X465070Y1188549D01*
X464990Y1188460D01*
X464908Y1188373D01*
X464823Y1188289D01*
X464735Y1188208D01*
X464645Y1188131D01*
X464552Y1188056D01*
X464456Y1187984D01*
X464358Y1187915D01*
X464258Y1187850D01*
X464156Y1187788D01*
X464052Y1187729D01*
X463946Y1187674D01*
X463838Y1187623D01*
X463729Y1187575D01*
X463618Y1187530D01*
X463506Y1187490D01*
X463392Y1187453D01*
X463277Y1187420D01*
X463162Y1187390D01*
X463045Y1187365D01*
X462928Y1187343D01*
X462809Y1187326D01*
X462691Y1187312D01*
X462572Y1187302D01*
X462452Y1187296D01*
X462333Y1187294D01*
X462333Y1187293D02*
X458721Y1187293D01*
X540762Y1194518D02*
X540762Y1178262D01*
X540762Y1194518D02*
X545278Y1194518D01*
X545409Y1194516D01*
X545541Y1194510D01*
X545672Y1194501D01*
X545802Y1194487D01*
X545933Y1194470D01*
X546062Y1194449D01*
X546191Y1194425D01*
X546319Y1194396D01*
X546447Y1194364D01*
X546573Y1194328D01*
X546698Y1194289D01*
X546823Y1194246D01*
X546945Y1194199D01*
X547067Y1194149D01*
X547187Y1194095D01*
X547305Y1194038D01*
X547421Y1193977D01*
X547536Y1193913D01*
X547649Y1193846D01*
X547760Y1193775D01*
X547868Y1193701D01*
X547975Y1193624D01*
X548079Y1193544D01*
X548181Y1193461D01*
X548280Y1193376D01*
X548377Y1193287D01*
X548471Y1193195D01*
X548563Y1193101D01*
X548652Y1193004D01*
X548737Y1192905D01*
X548820Y1192803D01*
X548900Y1192699D01*
X548977Y1192592D01*
X549051Y1192484D01*
X549122Y1192373D01*
X549189Y1192260D01*
X549253Y1192145D01*
X549314Y1192029D01*
X549371Y1191911D01*
X549425Y1191791D01*
X549475Y1191669D01*
X549522Y1191547D01*
X549565Y1191422D01*
X549604Y1191297D01*
X549640Y1191171D01*
X549672Y1191043D01*
X549701Y1190915D01*
X549725Y1190786D01*
X549746Y1190657D01*
X549763Y1190526D01*
X549777Y1190396D01*
X549786Y1190265D01*
X549792Y1190133D01*
X549794Y1190002D01*
X549793Y1190002D02*
X549793Y1182778D01*
X549794Y1182778D02*
X549792Y1182647D01*
X549786Y1182515D01*
X549777Y1182384D01*
X549763Y1182254D01*
X549746Y1182123D01*
X549725Y1181994D01*
X549701Y1181865D01*
X549672Y1181737D01*
X549640Y1181609D01*
X549604Y1181483D01*
X549565Y1181358D01*
X549522Y1181233D01*
X549475Y1181111D01*
X549425Y1180989D01*
X549371Y1180869D01*
X549314Y1180751D01*
X549253Y1180635D01*
X549189Y1180520D01*
X549122Y1180407D01*
X549051Y1180296D01*
X548977Y1180188D01*
X548900Y1180081D01*
X548820Y1179977D01*
X548737Y1179875D01*
X548652Y1179776D01*
X548563Y1179679D01*
X548471Y1179585D01*
X548377Y1179493D01*
X548280Y1179404D01*
X548181Y1179319D01*
X548079Y1179236D01*
X547975Y1179156D01*
X547868Y1179079D01*
X547760Y1179005D01*
X547649Y1178934D01*
X547536Y1178867D01*
X547421Y1178803D01*
X547305Y1178742D01*
X547187Y1178685D01*
X547067Y1178631D01*
X546945Y1178581D01*
X546823Y1178534D01*
X546698Y1178491D01*
X546573Y1178452D01*
X546447Y1178416D01*
X546319Y1178384D01*
X546191Y1178355D01*
X546062Y1178331D01*
X545932Y1178310D01*
X545802Y1178293D01*
X545672Y1178279D01*
X545541Y1178270D01*
X545409Y1178264D01*
X545278Y1178262D01*
X540762Y1178262D01*
X556914Y1181874D02*
X560527Y1194518D01*
X556914Y1181874D02*
X565945Y1181874D01*
X563236Y1185487D02*
X563236Y1178262D01*
X37568Y1069518D02*
X37568Y1053262D01*
X35762Y1053262D02*
X39374Y1053262D01*
X39374Y1069518D02*
X35762Y1069518D01*
X46079Y1069518D02*
X46079Y1053262D01*
X55110Y1053262D02*
X46079Y1069518D01*
X55110Y1069518D02*
X55110Y1053262D01*
X62231Y1053262D02*
X66747Y1053262D01*
X66880Y1053264D01*
X67012Y1053270D01*
X67144Y1053280D01*
X67276Y1053293D01*
X67408Y1053311D01*
X67538Y1053332D01*
X67669Y1053357D01*
X67798Y1053386D01*
X67926Y1053419D01*
X68054Y1053455D01*
X68180Y1053495D01*
X68305Y1053539D01*
X68429Y1053587D01*
X68551Y1053638D01*
X68672Y1053693D01*
X68791Y1053751D01*
X68909Y1053813D01*
X69024Y1053878D01*
X69138Y1053947D01*
X69249Y1054018D01*
X69358Y1054094D01*
X69465Y1054172D01*
X69570Y1054253D01*
X69672Y1054338D01*
X69772Y1054425D01*
X69869Y1054515D01*
X69964Y1054608D01*
X70055Y1054704D01*
X70144Y1054802D01*
X70230Y1054903D01*
X70313Y1055007D01*
X70393Y1055113D01*
X70469Y1055221D01*
X70543Y1055331D01*
X70613Y1055444D01*
X70680Y1055558D01*
X70743Y1055675D01*
X70803Y1055793D01*
X70860Y1055913D01*
X70913Y1056035D01*
X70962Y1056158D01*
X71008Y1056282D01*
X71050Y1056408D01*
X71088Y1056535D01*
X71123Y1056663D01*
X71154Y1056792D01*
X71181Y1056921D01*
X71204Y1057052D01*
X71224Y1057183D01*
X71239Y1057315D01*
X71251Y1057447D01*
X71259Y1057579D01*
X71263Y1057712D01*
X71263Y1057844D01*
X71259Y1057977D01*
X71251Y1058109D01*
X71239Y1058241D01*
X71224Y1058373D01*
X71204Y1058504D01*
X71181Y1058635D01*
X71154Y1058764D01*
X71123Y1058893D01*
X71088Y1059021D01*
X71050Y1059148D01*
X71008Y1059274D01*
X70962Y1059398D01*
X70913Y1059521D01*
X70860Y1059643D01*
X70803Y1059763D01*
X70743Y1059881D01*
X70680Y1059998D01*
X70613Y1060112D01*
X70543Y1060225D01*
X70469Y1060335D01*
X70393Y1060443D01*
X70313Y1060549D01*
X70230Y1060653D01*
X70144Y1060754D01*
X70055Y1060852D01*
X69964Y1060948D01*
X69869Y1061041D01*
X69772Y1061131D01*
X69672Y1061218D01*
X69570Y1061303D01*
X69465Y1061384D01*
X69358Y1061462D01*
X69249Y1061538D01*
X69138Y1061609D01*
X69024Y1061678D01*
X68909Y1061743D01*
X68791Y1061805D01*
X68672Y1061863D01*
X68551Y1061918D01*
X68429Y1061969D01*
X68305Y1062017D01*
X68180Y1062061D01*
X68054Y1062101D01*
X67926Y1062137D01*
X67798Y1062170D01*
X67669Y1062199D01*
X67538Y1062224D01*
X67408Y1062245D01*
X67276Y1062263D01*
X67144Y1062276D01*
X67012Y1062286D01*
X66880Y1062292D01*
X66747Y1062294D01*
X67650Y1069518D02*
X62231Y1069518D01*
X67650Y1069518D02*
X67769Y1069516D01*
X67889Y1069510D01*
X68008Y1069500D01*
X68126Y1069486D01*
X68245Y1069469D01*
X68362Y1069447D01*
X68479Y1069422D01*
X68594Y1069392D01*
X68709Y1069359D01*
X68823Y1069322D01*
X68935Y1069282D01*
X69046Y1069237D01*
X69155Y1069189D01*
X69263Y1069138D01*
X69369Y1069083D01*
X69473Y1069024D01*
X69575Y1068962D01*
X69675Y1068897D01*
X69773Y1068828D01*
X69869Y1068756D01*
X69962Y1068681D01*
X70052Y1068604D01*
X70140Y1068523D01*
X70225Y1068439D01*
X70307Y1068352D01*
X70387Y1068263D01*
X70463Y1068171D01*
X70537Y1068077D01*
X70607Y1067980D01*
X70674Y1067882D01*
X70738Y1067781D01*
X70798Y1067677D01*
X70855Y1067572D01*
X70908Y1067465D01*
X70958Y1067357D01*
X71004Y1067247D01*
X71046Y1067135D01*
X71085Y1067022D01*
X71120Y1066908D01*
X71151Y1066793D01*
X71179Y1066676D01*
X71202Y1066559D01*
X71222Y1066442D01*
X71238Y1066323D01*
X71250Y1066204D01*
X71258Y1066085D01*
X71262Y1065966D01*
X71262Y1065846D01*
X71258Y1065727D01*
X71250Y1065608D01*
X71238Y1065489D01*
X71222Y1065370D01*
X71202Y1065253D01*
X71179Y1065136D01*
X71151Y1065019D01*
X71120Y1064904D01*
X71085Y1064790D01*
X71046Y1064677D01*
X71004Y1064565D01*
X70958Y1064455D01*
X70908Y1064347D01*
X70855Y1064240D01*
X70798Y1064135D01*
X70738Y1064031D01*
X70674Y1063930D01*
X70607Y1063832D01*
X70537Y1063735D01*
X70463Y1063641D01*
X70387Y1063549D01*
X70307Y1063460D01*
X70225Y1063373D01*
X70140Y1063289D01*
X70052Y1063208D01*
X69962Y1063131D01*
X69869Y1063056D01*
X69773Y1062984D01*
X69675Y1062915D01*
X69575Y1062850D01*
X69473Y1062788D01*
X69369Y1062729D01*
X69263Y1062674D01*
X69155Y1062623D01*
X69046Y1062575D01*
X68935Y1062530D01*
X68823Y1062490D01*
X68709Y1062453D01*
X68594Y1062420D01*
X68479Y1062390D01*
X68362Y1062365D01*
X68245Y1062343D01*
X68126Y1062326D01*
X68008Y1062312D01*
X67889Y1062302D01*
X67769Y1062296D01*
X67650Y1062294D01*
X67650Y1062293D02*
X64037Y1062293D01*
X132568Y1069518D02*
X132568Y1053262D01*
X130762Y1053262D02*
X134374Y1053262D01*
X134374Y1069518D02*
X130762Y1069518D01*
X141079Y1069518D02*
X141079Y1053262D01*
X150110Y1053262D02*
X141079Y1069518D01*
X150110Y1069518D02*
X150110Y1053262D01*
X157231Y1056874D02*
X160843Y1069518D01*
X157231Y1056874D02*
X166262Y1056874D01*
X163553Y1060487D02*
X163553Y1053262D01*
X240762Y1053262D02*
X246181Y1069518D01*
X251599Y1053262D01*
X250245Y1057326D02*
X242117Y1057326D01*
X257296Y1065906D02*
X261812Y1069518D01*
X261812Y1053262D01*
X266327Y1053262D02*
X257296Y1053262D01*
X340762Y1053262D02*
X346181Y1069518D01*
X351599Y1053262D01*
X350245Y1057326D02*
X342117Y1057326D01*
X362263Y1069518D02*
X362388Y1069516D01*
X362513Y1069510D01*
X362638Y1069501D01*
X362762Y1069487D01*
X362886Y1069470D01*
X363010Y1069449D01*
X363132Y1069424D01*
X363254Y1069395D01*
X363375Y1069363D01*
X363495Y1069327D01*
X363614Y1069287D01*
X363731Y1069244D01*
X363847Y1069197D01*
X363962Y1069146D01*
X364074Y1069092D01*
X364186Y1069034D01*
X364295Y1068974D01*
X364402Y1068909D01*
X364508Y1068842D01*
X364611Y1068771D01*
X364712Y1068697D01*
X364811Y1068620D01*
X364907Y1068540D01*
X365001Y1068457D01*
X365092Y1068372D01*
X365181Y1068283D01*
X365266Y1068192D01*
X365349Y1068098D01*
X365429Y1068002D01*
X365506Y1067903D01*
X365580Y1067802D01*
X365651Y1067699D01*
X365718Y1067593D01*
X365783Y1067486D01*
X365843Y1067377D01*
X365901Y1067265D01*
X365955Y1067153D01*
X366006Y1067038D01*
X366053Y1066922D01*
X366096Y1066805D01*
X366136Y1066686D01*
X366172Y1066566D01*
X366204Y1066445D01*
X366233Y1066323D01*
X366258Y1066201D01*
X366279Y1066077D01*
X366296Y1065953D01*
X366310Y1065829D01*
X366319Y1065704D01*
X366325Y1065579D01*
X366327Y1065454D01*
X362263Y1069518D02*
X362120Y1069516D01*
X361978Y1069510D01*
X361835Y1069500D01*
X361693Y1069487D01*
X361552Y1069469D01*
X361410Y1069448D01*
X361270Y1069423D01*
X361130Y1069394D01*
X360991Y1069361D01*
X360853Y1069324D01*
X360716Y1069284D01*
X360581Y1069240D01*
X360446Y1069192D01*
X360313Y1069140D01*
X360181Y1069085D01*
X360051Y1069026D01*
X359923Y1068964D01*
X359796Y1068898D01*
X359671Y1068829D01*
X359548Y1068757D01*
X359428Y1068681D01*
X359309Y1068602D01*
X359192Y1068519D01*
X359078Y1068434D01*
X358966Y1068345D01*
X358857Y1068254D01*
X358750Y1068159D01*
X358645Y1068062D01*
X358544Y1067961D01*
X358445Y1067858D01*
X358349Y1067753D01*
X358256Y1067644D01*
X358166Y1067533D01*
X358079Y1067420D01*
X357995Y1067305D01*
X357915Y1067187D01*
X357837Y1067067D01*
X357763Y1066945D01*
X357693Y1066821D01*
X357625Y1066695D01*
X357562Y1066567D01*
X357501Y1066438D01*
X357444Y1066307D01*
X357391Y1066175D01*
X357342Y1066041D01*
X357296Y1065906D01*
X364972Y1062293D02*
X365066Y1062385D01*
X365156Y1062479D01*
X365244Y1062576D01*
X365329Y1062676D01*
X365411Y1062778D01*
X365490Y1062883D01*
X365565Y1062990D01*
X365637Y1063099D01*
X365706Y1063210D01*
X365772Y1063324D01*
X365834Y1063439D01*
X365893Y1063556D01*
X365948Y1063675D01*
X365999Y1063795D01*
X366047Y1063917D01*
X366092Y1064040D01*
X366132Y1064164D01*
X366169Y1064290D01*
X366202Y1064417D01*
X366231Y1064544D01*
X366257Y1064673D01*
X366278Y1064802D01*
X366296Y1064932D01*
X366309Y1065062D01*
X366319Y1065192D01*
X366325Y1065323D01*
X366327Y1065454D01*
X364973Y1062293D02*
X357296Y1053262D01*
X366327Y1053262D01*
X440762Y1053262D02*
X446181Y1069518D01*
X451599Y1053262D01*
X450245Y1057326D02*
X442117Y1057326D01*
X457296Y1053262D02*
X461812Y1053262D01*
X461945Y1053264D01*
X462077Y1053270D01*
X462209Y1053280D01*
X462341Y1053293D01*
X462473Y1053311D01*
X462603Y1053332D01*
X462734Y1053357D01*
X462863Y1053386D01*
X462991Y1053419D01*
X463119Y1053455D01*
X463245Y1053495D01*
X463370Y1053539D01*
X463494Y1053587D01*
X463616Y1053638D01*
X463737Y1053693D01*
X463856Y1053751D01*
X463974Y1053813D01*
X464089Y1053878D01*
X464203Y1053947D01*
X464314Y1054018D01*
X464423Y1054094D01*
X464530Y1054172D01*
X464635Y1054253D01*
X464737Y1054338D01*
X464837Y1054425D01*
X464934Y1054515D01*
X465029Y1054608D01*
X465120Y1054704D01*
X465209Y1054802D01*
X465295Y1054903D01*
X465378Y1055007D01*
X465458Y1055113D01*
X465534Y1055221D01*
X465608Y1055331D01*
X465678Y1055444D01*
X465745Y1055558D01*
X465808Y1055675D01*
X465868Y1055793D01*
X465925Y1055913D01*
X465978Y1056035D01*
X466027Y1056158D01*
X466073Y1056282D01*
X466115Y1056408D01*
X466153Y1056535D01*
X466188Y1056663D01*
X466219Y1056792D01*
X466246Y1056921D01*
X466269Y1057052D01*
X466289Y1057183D01*
X466304Y1057315D01*
X466316Y1057447D01*
X466324Y1057579D01*
X466328Y1057712D01*
X466328Y1057844D01*
X466324Y1057977D01*
X466316Y1058109D01*
X466304Y1058241D01*
X466289Y1058373D01*
X466269Y1058504D01*
X466246Y1058635D01*
X466219Y1058764D01*
X466188Y1058893D01*
X466153Y1059021D01*
X466115Y1059148D01*
X466073Y1059274D01*
X466027Y1059398D01*
X465978Y1059521D01*
X465925Y1059643D01*
X465868Y1059763D01*
X465808Y1059881D01*
X465745Y1059998D01*
X465678Y1060112D01*
X465608Y1060225D01*
X465534Y1060335D01*
X465458Y1060443D01*
X465378Y1060549D01*
X465295Y1060653D01*
X465209Y1060754D01*
X465120Y1060852D01*
X465029Y1060948D01*
X464934Y1061041D01*
X464837Y1061131D01*
X464737Y1061218D01*
X464635Y1061303D01*
X464530Y1061384D01*
X464423Y1061462D01*
X464314Y1061538D01*
X464203Y1061609D01*
X464089Y1061678D01*
X463974Y1061743D01*
X463856Y1061805D01*
X463737Y1061863D01*
X463616Y1061918D01*
X463494Y1061969D01*
X463370Y1062017D01*
X463245Y1062061D01*
X463119Y1062101D01*
X462991Y1062137D01*
X462863Y1062170D01*
X462734Y1062199D01*
X462603Y1062224D01*
X462473Y1062245D01*
X462341Y1062263D01*
X462209Y1062276D01*
X462077Y1062286D01*
X461945Y1062292D01*
X461812Y1062294D01*
X462715Y1069518D02*
X457296Y1069518D01*
X462715Y1069518D02*
X462834Y1069516D01*
X462954Y1069510D01*
X463073Y1069500D01*
X463191Y1069486D01*
X463310Y1069469D01*
X463427Y1069447D01*
X463544Y1069422D01*
X463659Y1069392D01*
X463774Y1069359D01*
X463888Y1069322D01*
X464000Y1069282D01*
X464111Y1069237D01*
X464220Y1069189D01*
X464328Y1069138D01*
X464434Y1069083D01*
X464538Y1069024D01*
X464640Y1068962D01*
X464740Y1068897D01*
X464838Y1068828D01*
X464934Y1068756D01*
X465027Y1068681D01*
X465117Y1068604D01*
X465205Y1068523D01*
X465290Y1068439D01*
X465372Y1068352D01*
X465452Y1068263D01*
X465528Y1068171D01*
X465602Y1068077D01*
X465672Y1067980D01*
X465739Y1067882D01*
X465803Y1067781D01*
X465863Y1067677D01*
X465920Y1067572D01*
X465973Y1067465D01*
X466023Y1067357D01*
X466069Y1067247D01*
X466111Y1067135D01*
X466150Y1067022D01*
X466185Y1066908D01*
X466216Y1066793D01*
X466244Y1066676D01*
X466267Y1066559D01*
X466287Y1066442D01*
X466303Y1066323D01*
X466315Y1066204D01*
X466323Y1066085D01*
X466327Y1065966D01*
X466327Y1065846D01*
X466323Y1065727D01*
X466315Y1065608D01*
X466303Y1065489D01*
X466287Y1065370D01*
X466267Y1065253D01*
X466244Y1065136D01*
X466216Y1065019D01*
X466185Y1064904D01*
X466150Y1064790D01*
X466111Y1064677D01*
X466069Y1064565D01*
X466023Y1064455D01*
X465973Y1064347D01*
X465920Y1064240D01*
X465863Y1064135D01*
X465803Y1064031D01*
X465739Y1063930D01*
X465672Y1063832D01*
X465602Y1063735D01*
X465528Y1063641D01*
X465452Y1063549D01*
X465372Y1063460D01*
X465290Y1063373D01*
X465205Y1063289D01*
X465117Y1063208D01*
X465027Y1063131D01*
X464934Y1063056D01*
X464838Y1062984D01*
X464740Y1062915D01*
X464640Y1062850D01*
X464538Y1062788D01*
X464434Y1062729D01*
X464328Y1062674D01*
X464220Y1062623D01*
X464111Y1062575D01*
X464000Y1062530D01*
X463888Y1062490D01*
X463774Y1062453D01*
X463659Y1062420D01*
X463544Y1062390D01*
X463427Y1062365D01*
X463310Y1062343D01*
X463191Y1062326D01*
X463073Y1062312D01*
X462954Y1062302D01*
X462834Y1062296D01*
X462715Y1062294D01*
X462715Y1062293D02*
X459103Y1062293D01*
X540762Y1053262D02*
X546181Y1069518D01*
X551599Y1053262D01*
X550245Y1057326D02*
X542117Y1057326D01*
X557296Y1056874D02*
X560909Y1069518D01*
X557296Y1056874D02*
X566327Y1056874D01*
X563618Y1060487D02*
X563618Y1053262D01*
X67987Y898262D02*
X60762Y898262D01*
X60762Y914518D01*
X67987Y914518D01*
X66181Y907293D02*
X60762Y907293D01*
X74279Y914518D02*
X74279Y898262D01*
X83310Y898262D02*
X74279Y914518D01*
X83310Y914518D02*
X83310Y898262D01*
X94005Y898262D02*
X97617Y898262D01*
X94005Y898262D02*
X93887Y898264D01*
X93769Y898270D01*
X93651Y898279D01*
X93534Y898293D01*
X93417Y898310D01*
X93300Y898331D01*
X93185Y898356D01*
X93070Y898385D01*
X92956Y898418D01*
X92844Y898454D01*
X92733Y898494D01*
X92623Y898537D01*
X92514Y898584D01*
X92407Y898634D01*
X92302Y898689D01*
X92199Y898746D01*
X92098Y898807D01*
X91998Y898871D01*
X91901Y898938D01*
X91806Y899008D01*
X91714Y899082D01*
X91623Y899158D01*
X91536Y899238D01*
X91451Y899320D01*
X91369Y899405D01*
X91289Y899492D01*
X91213Y899583D01*
X91139Y899675D01*
X91069Y899770D01*
X91002Y899867D01*
X90938Y899967D01*
X90877Y900068D01*
X90820Y900171D01*
X90765Y900276D01*
X90715Y900383D01*
X90668Y900492D01*
X90625Y900602D01*
X90585Y900713D01*
X90549Y900825D01*
X90516Y900939D01*
X90487Y901054D01*
X90462Y901169D01*
X90441Y901286D01*
X90424Y901403D01*
X90410Y901520D01*
X90401Y901638D01*
X90395Y901756D01*
X90393Y901874D01*
X90392Y901874D02*
X90392Y910906D01*
X90393Y910906D02*
X90395Y911024D01*
X90401Y911142D01*
X90410Y911260D01*
X90424Y911377D01*
X90441Y911494D01*
X90462Y911611D01*
X90487Y911726D01*
X90516Y911841D01*
X90549Y911955D01*
X90585Y912067D01*
X90625Y912178D01*
X90668Y912288D01*
X90715Y912397D01*
X90765Y912504D01*
X90819Y912609D01*
X90877Y912712D01*
X90938Y912813D01*
X91002Y912913D01*
X91069Y913010D01*
X91139Y913105D01*
X91213Y913197D01*
X91289Y913288D01*
X91369Y913375D01*
X91451Y913460D01*
X91536Y913542D01*
X91623Y913622D01*
X91714Y913698D01*
X91806Y913772D01*
X91901Y913842D01*
X91998Y913909D01*
X92098Y913973D01*
X92199Y914034D01*
X92302Y914091D01*
X92407Y914145D01*
X92514Y914196D01*
X92623Y914243D01*
X92733Y914286D01*
X92844Y914326D01*
X92956Y914362D01*
X93070Y914395D01*
X93185Y914424D01*
X93300Y914449D01*
X93417Y914470D01*
X93534Y914487D01*
X93651Y914501D01*
X93769Y914510D01*
X93887Y914516D01*
X94005Y914518D01*
X97617Y914518D01*
X103458Y910906D02*
X107973Y914518D01*
X107973Y898262D01*
X103458Y898262D02*
X112489Y898262D01*
X80278Y772293D02*
X75762Y772293D01*
X80278Y772294D02*
X80411Y772292D01*
X80543Y772286D01*
X80675Y772276D01*
X80807Y772263D01*
X80939Y772245D01*
X81069Y772224D01*
X81200Y772199D01*
X81329Y772170D01*
X81457Y772137D01*
X81585Y772101D01*
X81711Y772061D01*
X81836Y772017D01*
X81960Y771969D01*
X82082Y771918D01*
X82203Y771863D01*
X82322Y771805D01*
X82440Y771743D01*
X82555Y771678D01*
X82669Y771609D01*
X82780Y771538D01*
X82889Y771462D01*
X82996Y771384D01*
X83101Y771303D01*
X83203Y771218D01*
X83303Y771131D01*
X83400Y771041D01*
X83495Y770948D01*
X83586Y770852D01*
X83675Y770754D01*
X83761Y770653D01*
X83844Y770549D01*
X83924Y770443D01*
X84000Y770335D01*
X84074Y770225D01*
X84144Y770112D01*
X84211Y769998D01*
X84274Y769881D01*
X84334Y769763D01*
X84391Y769643D01*
X84444Y769521D01*
X84493Y769398D01*
X84539Y769274D01*
X84581Y769148D01*
X84619Y769021D01*
X84654Y768893D01*
X84685Y768764D01*
X84712Y768635D01*
X84735Y768504D01*
X84755Y768373D01*
X84770Y768241D01*
X84782Y768109D01*
X84790Y767977D01*
X84794Y767844D01*
X84794Y767712D01*
X84790Y767579D01*
X84782Y767447D01*
X84770Y767315D01*
X84755Y767183D01*
X84735Y767052D01*
X84712Y766921D01*
X84685Y766792D01*
X84654Y766663D01*
X84619Y766535D01*
X84581Y766408D01*
X84539Y766282D01*
X84493Y766158D01*
X84444Y766035D01*
X84391Y765913D01*
X84334Y765793D01*
X84274Y765675D01*
X84211Y765558D01*
X84144Y765444D01*
X84074Y765331D01*
X84000Y765221D01*
X83924Y765113D01*
X83844Y765007D01*
X83761Y764903D01*
X83675Y764802D01*
X83586Y764704D01*
X83495Y764608D01*
X83400Y764515D01*
X83303Y764425D01*
X83203Y764338D01*
X83101Y764253D01*
X82996Y764172D01*
X82889Y764094D01*
X82780Y764018D01*
X82669Y763947D01*
X82555Y763878D01*
X82440Y763813D01*
X82322Y763751D01*
X82203Y763693D01*
X82082Y763638D01*
X81960Y763587D01*
X81836Y763539D01*
X81711Y763495D01*
X81585Y763455D01*
X81457Y763419D01*
X81329Y763386D01*
X81200Y763357D01*
X81069Y763332D01*
X80939Y763311D01*
X80807Y763293D01*
X80675Y763280D01*
X80543Y763270D01*
X80411Y763264D01*
X80278Y763262D01*
X75762Y763262D01*
X75762Y779518D01*
X80278Y779518D01*
X80397Y779516D01*
X80517Y779510D01*
X80636Y779500D01*
X80754Y779486D01*
X80873Y779469D01*
X80990Y779447D01*
X81107Y779422D01*
X81222Y779392D01*
X81337Y779359D01*
X81451Y779322D01*
X81563Y779282D01*
X81674Y779237D01*
X81783Y779189D01*
X81891Y779138D01*
X81997Y779083D01*
X82101Y779024D01*
X82203Y778962D01*
X82303Y778897D01*
X82401Y778828D01*
X82497Y778756D01*
X82590Y778681D01*
X82680Y778604D01*
X82768Y778523D01*
X82853Y778439D01*
X82935Y778352D01*
X83015Y778263D01*
X83091Y778171D01*
X83165Y778077D01*
X83235Y777980D01*
X83302Y777882D01*
X83366Y777781D01*
X83426Y777677D01*
X83483Y777572D01*
X83536Y777465D01*
X83586Y777357D01*
X83632Y777247D01*
X83674Y777135D01*
X83713Y777022D01*
X83748Y776908D01*
X83779Y776793D01*
X83807Y776676D01*
X83830Y776559D01*
X83850Y776442D01*
X83866Y776323D01*
X83878Y776204D01*
X83886Y776085D01*
X83890Y775966D01*
X83890Y775846D01*
X83886Y775727D01*
X83878Y775608D01*
X83866Y775489D01*
X83850Y775370D01*
X83830Y775253D01*
X83807Y775136D01*
X83779Y775019D01*
X83748Y774904D01*
X83713Y774790D01*
X83674Y774677D01*
X83632Y774565D01*
X83586Y774455D01*
X83536Y774347D01*
X83483Y774240D01*
X83426Y774135D01*
X83366Y774031D01*
X83302Y773930D01*
X83235Y773832D01*
X83165Y773735D01*
X83091Y773641D01*
X83015Y773549D01*
X82935Y773460D01*
X82853Y773373D01*
X82768Y773289D01*
X82680Y773208D01*
X82590Y773131D01*
X82497Y773056D01*
X82401Y772984D01*
X82303Y772915D01*
X82203Y772850D01*
X82101Y772788D01*
X81997Y772729D01*
X81891Y772674D01*
X81783Y772623D01*
X81674Y772575D01*
X81563Y772530D01*
X81451Y772490D01*
X81337Y772453D01*
X81222Y772420D01*
X81107Y772390D01*
X80990Y772365D01*
X80873Y772343D01*
X80754Y772326D01*
X80636Y772312D01*
X80517Y772302D01*
X80397Y772296D01*
X80278Y772294D01*
X90661Y775906D02*
X95177Y779518D01*
X95177Y763262D01*
X99692Y763262D02*
X90661Y763262D01*
X500762Y772293D02*
X505278Y772293D01*
X505278Y772294D02*
X505411Y772292D01*
X505543Y772286D01*
X505675Y772276D01*
X505807Y772263D01*
X505939Y772245D01*
X506069Y772224D01*
X506200Y772199D01*
X506329Y772170D01*
X506457Y772137D01*
X506585Y772101D01*
X506711Y772061D01*
X506836Y772017D01*
X506960Y771969D01*
X507082Y771918D01*
X507203Y771863D01*
X507322Y771805D01*
X507440Y771743D01*
X507555Y771678D01*
X507669Y771609D01*
X507780Y771538D01*
X507889Y771462D01*
X507996Y771384D01*
X508101Y771303D01*
X508203Y771218D01*
X508303Y771131D01*
X508400Y771041D01*
X508495Y770948D01*
X508586Y770852D01*
X508675Y770754D01*
X508761Y770653D01*
X508844Y770549D01*
X508924Y770443D01*
X509000Y770335D01*
X509074Y770225D01*
X509144Y770112D01*
X509211Y769998D01*
X509274Y769881D01*
X509334Y769763D01*
X509391Y769643D01*
X509444Y769521D01*
X509493Y769398D01*
X509539Y769274D01*
X509581Y769148D01*
X509619Y769021D01*
X509654Y768893D01*
X509685Y768764D01*
X509712Y768635D01*
X509735Y768504D01*
X509755Y768373D01*
X509770Y768241D01*
X509782Y768109D01*
X509790Y767977D01*
X509794Y767844D01*
X509794Y767712D01*
X509790Y767579D01*
X509782Y767447D01*
X509770Y767315D01*
X509755Y767183D01*
X509735Y767052D01*
X509712Y766921D01*
X509685Y766792D01*
X509654Y766663D01*
X509619Y766535D01*
X509581Y766408D01*
X509539Y766282D01*
X509493Y766158D01*
X509444Y766035D01*
X509391Y765913D01*
X509334Y765793D01*
X509274Y765675D01*
X509211Y765558D01*
X509144Y765444D01*
X509074Y765331D01*
X509000Y765221D01*
X508924Y765113D01*
X508844Y765007D01*
X508761Y764903D01*
X508675Y764802D01*
X508586Y764704D01*
X508495Y764608D01*
X508400Y764515D01*
X508303Y764425D01*
X508203Y764338D01*
X508101Y764253D01*
X507996Y764172D01*
X507889Y764094D01*
X507780Y764018D01*
X507669Y763947D01*
X507555Y763878D01*
X507440Y763813D01*
X507322Y763751D01*
X507203Y763693D01*
X507082Y763638D01*
X506960Y763587D01*
X506836Y763539D01*
X506711Y763495D01*
X506585Y763455D01*
X506457Y763419D01*
X506329Y763386D01*
X506200Y763357D01*
X506069Y763332D01*
X505939Y763311D01*
X505807Y763293D01*
X505675Y763280D01*
X505543Y763270D01*
X505411Y763264D01*
X505278Y763262D01*
X500762Y763262D01*
X500762Y779518D01*
X505278Y779518D01*
X505397Y779516D01*
X505517Y779510D01*
X505636Y779500D01*
X505754Y779486D01*
X505873Y779469D01*
X505990Y779447D01*
X506107Y779422D01*
X506222Y779392D01*
X506337Y779359D01*
X506451Y779322D01*
X506563Y779282D01*
X506674Y779237D01*
X506783Y779189D01*
X506891Y779138D01*
X506997Y779083D01*
X507101Y779024D01*
X507203Y778962D01*
X507303Y778897D01*
X507401Y778828D01*
X507497Y778756D01*
X507590Y778681D01*
X507680Y778604D01*
X507768Y778523D01*
X507853Y778439D01*
X507935Y778352D01*
X508015Y778263D01*
X508091Y778171D01*
X508165Y778077D01*
X508235Y777980D01*
X508302Y777882D01*
X508366Y777781D01*
X508426Y777677D01*
X508483Y777572D01*
X508536Y777465D01*
X508586Y777357D01*
X508632Y777247D01*
X508674Y777135D01*
X508713Y777022D01*
X508748Y776908D01*
X508779Y776793D01*
X508807Y776676D01*
X508830Y776559D01*
X508850Y776442D01*
X508866Y776323D01*
X508878Y776204D01*
X508886Y776085D01*
X508890Y775966D01*
X508890Y775846D01*
X508886Y775727D01*
X508878Y775608D01*
X508866Y775489D01*
X508850Y775370D01*
X508830Y775253D01*
X508807Y775136D01*
X508779Y775019D01*
X508748Y774904D01*
X508713Y774790D01*
X508674Y774677D01*
X508632Y774565D01*
X508586Y774455D01*
X508536Y774347D01*
X508483Y774240D01*
X508426Y774135D01*
X508366Y774031D01*
X508302Y773930D01*
X508235Y773832D01*
X508165Y773735D01*
X508091Y773641D01*
X508015Y773549D01*
X507935Y773460D01*
X507853Y773373D01*
X507768Y773289D01*
X507680Y773208D01*
X507590Y773131D01*
X507497Y773056D01*
X507401Y772984D01*
X507303Y772915D01*
X507203Y772850D01*
X507101Y772788D01*
X506997Y772729D01*
X506891Y772674D01*
X506783Y772623D01*
X506674Y772575D01*
X506563Y772530D01*
X506451Y772490D01*
X506337Y772453D01*
X506222Y772420D01*
X506107Y772390D01*
X505990Y772365D01*
X505873Y772343D01*
X505754Y772326D01*
X505636Y772312D01*
X505517Y772302D01*
X505397Y772296D01*
X505278Y772294D01*
X520628Y779518D02*
X520753Y779516D01*
X520878Y779510D01*
X521003Y779501D01*
X521127Y779487D01*
X521251Y779470D01*
X521375Y779449D01*
X521497Y779424D01*
X521619Y779395D01*
X521740Y779363D01*
X521860Y779327D01*
X521979Y779287D01*
X522096Y779244D01*
X522212Y779197D01*
X522327Y779146D01*
X522439Y779092D01*
X522551Y779034D01*
X522660Y778974D01*
X522767Y778909D01*
X522873Y778842D01*
X522976Y778771D01*
X523077Y778697D01*
X523176Y778620D01*
X523272Y778540D01*
X523366Y778457D01*
X523457Y778372D01*
X523546Y778283D01*
X523631Y778192D01*
X523714Y778098D01*
X523794Y778002D01*
X523871Y777903D01*
X523945Y777802D01*
X524016Y777699D01*
X524083Y777593D01*
X524148Y777486D01*
X524208Y777377D01*
X524266Y777265D01*
X524320Y777153D01*
X524371Y777038D01*
X524418Y776922D01*
X524461Y776805D01*
X524501Y776686D01*
X524537Y776566D01*
X524569Y776445D01*
X524598Y776323D01*
X524623Y776201D01*
X524644Y776077D01*
X524661Y775953D01*
X524675Y775829D01*
X524684Y775704D01*
X524690Y775579D01*
X524692Y775454D01*
X520628Y779518D02*
X520485Y779516D01*
X520343Y779510D01*
X520200Y779500D01*
X520058Y779487D01*
X519917Y779469D01*
X519775Y779448D01*
X519635Y779423D01*
X519495Y779394D01*
X519356Y779361D01*
X519218Y779324D01*
X519081Y779284D01*
X518946Y779240D01*
X518811Y779192D01*
X518678Y779140D01*
X518546Y779085D01*
X518416Y779026D01*
X518288Y778964D01*
X518161Y778898D01*
X518036Y778829D01*
X517913Y778757D01*
X517793Y778681D01*
X517674Y778602D01*
X517557Y778519D01*
X517443Y778434D01*
X517331Y778345D01*
X517222Y778254D01*
X517115Y778159D01*
X517010Y778062D01*
X516909Y777961D01*
X516810Y777858D01*
X516714Y777753D01*
X516621Y777644D01*
X516531Y777533D01*
X516444Y777420D01*
X516360Y777305D01*
X516280Y777187D01*
X516202Y777067D01*
X516128Y776945D01*
X516058Y776821D01*
X515990Y776695D01*
X515927Y776567D01*
X515866Y776438D01*
X515809Y776307D01*
X515756Y776175D01*
X515707Y776041D01*
X515661Y775906D01*
X523337Y772293D02*
X523431Y772385D01*
X523521Y772479D01*
X523609Y772576D01*
X523694Y772676D01*
X523776Y772778D01*
X523855Y772883D01*
X523930Y772990D01*
X524002Y773099D01*
X524071Y773210D01*
X524137Y773324D01*
X524199Y773439D01*
X524258Y773556D01*
X524313Y773675D01*
X524364Y773795D01*
X524412Y773917D01*
X524457Y774040D01*
X524497Y774164D01*
X524534Y774290D01*
X524567Y774417D01*
X524596Y774544D01*
X524622Y774673D01*
X524643Y774802D01*
X524661Y774932D01*
X524674Y775062D01*
X524684Y775192D01*
X524690Y775323D01*
X524692Y775454D01*
X523338Y772293D02*
X515661Y763262D01*
X524692Y763262D01*
X492987Y898262D02*
X485762Y898262D01*
X485762Y914518D01*
X492987Y914518D01*
X491181Y907293D02*
X485762Y907293D01*
X499279Y914518D02*
X499279Y898262D01*
X508310Y898262D02*
X499279Y914518D01*
X508310Y914518D02*
X508310Y898262D01*
X519005Y898262D02*
X522617Y898262D01*
X519005Y898262D02*
X518887Y898264D01*
X518769Y898270D01*
X518651Y898279D01*
X518534Y898293D01*
X518417Y898310D01*
X518300Y898331D01*
X518185Y898356D01*
X518070Y898385D01*
X517956Y898418D01*
X517844Y898454D01*
X517733Y898494D01*
X517623Y898537D01*
X517514Y898584D01*
X517407Y898634D01*
X517302Y898689D01*
X517199Y898746D01*
X517098Y898807D01*
X516998Y898871D01*
X516901Y898938D01*
X516806Y899008D01*
X516714Y899082D01*
X516623Y899158D01*
X516536Y899238D01*
X516451Y899320D01*
X516369Y899405D01*
X516289Y899492D01*
X516213Y899583D01*
X516139Y899675D01*
X516069Y899770D01*
X516002Y899867D01*
X515938Y899967D01*
X515877Y900068D01*
X515820Y900171D01*
X515765Y900276D01*
X515715Y900383D01*
X515668Y900492D01*
X515625Y900602D01*
X515585Y900713D01*
X515549Y900825D01*
X515516Y900939D01*
X515487Y901054D01*
X515462Y901169D01*
X515441Y901286D01*
X515424Y901403D01*
X515410Y901520D01*
X515401Y901638D01*
X515395Y901756D01*
X515393Y901874D01*
X515392Y901874D02*
X515392Y910906D01*
X515393Y910906D02*
X515395Y911024D01*
X515401Y911142D01*
X515410Y911260D01*
X515424Y911377D01*
X515441Y911494D01*
X515462Y911611D01*
X515487Y911726D01*
X515516Y911841D01*
X515549Y911955D01*
X515585Y912067D01*
X515625Y912178D01*
X515668Y912288D01*
X515715Y912397D01*
X515765Y912504D01*
X515819Y912609D01*
X515877Y912712D01*
X515938Y912813D01*
X516002Y912913D01*
X516069Y913010D01*
X516139Y913105D01*
X516213Y913197D01*
X516289Y913288D01*
X516369Y913375D01*
X516451Y913460D01*
X516536Y913542D01*
X516623Y913622D01*
X516714Y913698D01*
X516806Y913772D01*
X516901Y913842D01*
X516998Y913909D01*
X517098Y913973D01*
X517199Y914034D01*
X517302Y914091D01*
X517407Y914145D01*
X517514Y914196D01*
X517623Y914243D01*
X517733Y914286D01*
X517844Y914326D01*
X517956Y914362D01*
X518070Y914395D01*
X518185Y914424D01*
X518300Y914449D01*
X518417Y914470D01*
X518534Y914487D01*
X518651Y914501D01*
X518769Y914510D01*
X518887Y914516D01*
X519005Y914518D01*
X522617Y914518D01*
X533425Y914518D02*
X533550Y914516D01*
X533675Y914510D01*
X533800Y914501D01*
X533924Y914487D01*
X534048Y914470D01*
X534172Y914449D01*
X534294Y914424D01*
X534416Y914395D01*
X534537Y914363D01*
X534657Y914327D01*
X534776Y914287D01*
X534893Y914244D01*
X535009Y914197D01*
X535124Y914146D01*
X535236Y914092D01*
X535348Y914034D01*
X535457Y913974D01*
X535564Y913909D01*
X535670Y913842D01*
X535773Y913771D01*
X535874Y913697D01*
X535973Y913620D01*
X536069Y913540D01*
X536163Y913457D01*
X536254Y913372D01*
X536343Y913283D01*
X536428Y913192D01*
X536511Y913098D01*
X536591Y913002D01*
X536668Y912903D01*
X536742Y912802D01*
X536813Y912699D01*
X536880Y912593D01*
X536945Y912486D01*
X537005Y912377D01*
X537063Y912265D01*
X537117Y912153D01*
X537168Y912038D01*
X537215Y911922D01*
X537258Y911805D01*
X537298Y911686D01*
X537334Y911566D01*
X537366Y911445D01*
X537395Y911323D01*
X537420Y911201D01*
X537441Y911077D01*
X537458Y910953D01*
X537472Y910829D01*
X537481Y910704D01*
X537487Y910579D01*
X537489Y910454D01*
X533425Y914518D02*
X533282Y914516D01*
X533140Y914510D01*
X532997Y914500D01*
X532855Y914487D01*
X532714Y914469D01*
X532572Y914448D01*
X532432Y914423D01*
X532292Y914394D01*
X532153Y914361D01*
X532015Y914324D01*
X531878Y914284D01*
X531743Y914240D01*
X531608Y914192D01*
X531475Y914140D01*
X531343Y914085D01*
X531213Y914026D01*
X531085Y913964D01*
X530958Y913898D01*
X530833Y913829D01*
X530710Y913757D01*
X530590Y913681D01*
X530471Y913602D01*
X530354Y913519D01*
X530240Y913434D01*
X530128Y913345D01*
X530019Y913254D01*
X529912Y913159D01*
X529807Y913062D01*
X529706Y912961D01*
X529607Y912858D01*
X529511Y912753D01*
X529418Y912644D01*
X529328Y912533D01*
X529241Y912420D01*
X529157Y912305D01*
X529077Y912187D01*
X528999Y912067D01*
X528925Y911945D01*
X528855Y911821D01*
X528787Y911695D01*
X528724Y911567D01*
X528663Y911438D01*
X528606Y911307D01*
X528553Y911175D01*
X528504Y911041D01*
X528458Y910906D01*
X536134Y907293D02*
X536228Y907385D01*
X536318Y907479D01*
X536406Y907576D01*
X536491Y907676D01*
X536573Y907778D01*
X536652Y907883D01*
X536727Y907990D01*
X536799Y908099D01*
X536868Y908210D01*
X536934Y908324D01*
X536996Y908439D01*
X537055Y908556D01*
X537110Y908675D01*
X537161Y908795D01*
X537209Y908917D01*
X537254Y909040D01*
X537294Y909164D01*
X537331Y909290D01*
X537364Y909417D01*
X537393Y909544D01*
X537419Y909673D01*
X537440Y909802D01*
X537458Y909932D01*
X537471Y910062D01*
X537481Y910192D01*
X537487Y910323D01*
X537489Y910454D01*
X536134Y907293D02*
X528458Y898262D01*
X537489Y898262D01*
X35278Y554518D02*
X30762Y550906D01*
X35278Y554518D02*
X35278Y538262D01*
X39793Y538262D02*
X30762Y538262D01*
X185729Y554518D02*
X185854Y554516D01*
X185979Y554510D01*
X186104Y554501D01*
X186228Y554487D01*
X186352Y554470D01*
X186476Y554449D01*
X186598Y554424D01*
X186720Y554395D01*
X186841Y554363D01*
X186961Y554327D01*
X187080Y554287D01*
X187197Y554244D01*
X187313Y554197D01*
X187428Y554146D01*
X187540Y554092D01*
X187652Y554034D01*
X187761Y553974D01*
X187868Y553909D01*
X187974Y553842D01*
X188077Y553771D01*
X188178Y553697D01*
X188277Y553620D01*
X188373Y553540D01*
X188467Y553457D01*
X188558Y553372D01*
X188647Y553283D01*
X188732Y553192D01*
X188815Y553098D01*
X188895Y553002D01*
X188972Y552903D01*
X189046Y552802D01*
X189117Y552699D01*
X189184Y552593D01*
X189249Y552486D01*
X189309Y552377D01*
X189367Y552265D01*
X189421Y552153D01*
X189472Y552038D01*
X189519Y551922D01*
X189562Y551805D01*
X189602Y551686D01*
X189638Y551566D01*
X189670Y551445D01*
X189699Y551323D01*
X189724Y551201D01*
X189745Y551077D01*
X189762Y550953D01*
X189776Y550829D01*
X189785Y550704D01*
X189791Y550579D01*
X189793Y550454D01*
X185729Y554518D02*
X185586Y554516D01*
X185444Y554510D01*
X185301Y554500D01*
X185159Y554487D01*
X185018Y554469D01*
X184876Y554448D01*
X184736Y554423D01*
X184596Y554394D01*
X184457Y554361D01*
X184319Y554324D01*
X184182Y554284D01*
X184047Y554240D01*
X183912Y554192D01*
X183779Y554140D01*
X183647Y554085D01*
X183517Y554026D01*
X183389Y553964D01*
X183262Y553898D01*
X183137Y553829D01*
X183014Y553757D01*
X182894Y553681D01*
X182775Y553602D01*
X182658Y553519D01*
X182544Y553434D01*
X182432Y553345D01*
X182323Y553254D01*
X182216Y553159D01*
X182111Y553062D01*
X182010Y552961D01*
X181911Y552858D01*
X181815Y552753D01*
X181722Y552644D01*
X181632Y552533D01*
X181545Y552420D01*
X181461Y552305D01*
X181381Y552187D01*
X181303Y552067D01*
X181229Y551945D01*
X181159Y551821D01*
X181091Y551695D01*
X181028Y551567D01*
X180967Y551438D01*
X180910Y551307D01*
X180857Y551175D01*
X180808Y551041D01*
X180762Y550906D01*
X188438Y547293D02*
X188532Y547385D01*
X188622Y547479D01*
X188710Y547576D01*
X188795Y547676D01*
X188877Y547778D01*
X188956Y547883D01*
X189031Y547990D01*
X189103Y548099D01*
X189172Y548210D01*
X189238Y548324D01*
X189300Y548439D01*
X189359Y548556D01*
X189414Y548675D01*
X189465Y548795D01*
X189513Y548917D01*
X189558Y549040D01*
X189598Y549164D01*
X189635Y549290D01*
X189668Y549417D01*
X189697Y549544D01*
X189723Y549673D01*
X189744Y549802D01*
X189762Y549932D01*
X189775Y550062D01*
X189785Y550192D01*
X189791Y550323D01*
X189793Y550454D01*
X188438Y547293D02*
X180762Y538262D01*
X189793Y538262D01*
X330762Y538262D02*
X335278Y538262D01*
X335411Y538264D01*
X335543Y538270D01*
X335675Y538280D01*
X335807Y538293D01*
X335939Y538311D01*
X336069Y538332D01*
X336200Y538357D01*
X336329Y538386D01*
X336457Y538419D01*
X336585Y538455D01*
X336711Y538495D01*
X336836Y538539D01*
X336960Y538587D01*
X337082Y538638D01*
X337203Y538693D01*
X337322Y538751D01*
X337440Y538813D01*
X337555Y538878D01*
X337669Y538947D01*
X337780Y539018D01*
X337889Y539094D01*
X337996Y539172D01*
X338101Y539253D01*
X338203Y539338D01*
X338303Y539425D01*
X338400Y539515D01*
X338495Y539608D01*
X338586Y539704D01*
X338675Y539802D01*
X338761Y539903D01*
X338844Y540007D01*
X338924Y540113D01*
X339000Y540221D01*
X339074Y540331D01*
X339144Y540444D01*
X339211Y540558D01*
X339274Y540675D01*
X339334Y540793D01*
X339391Y540913D01*
X339444Y541035D01*
X339493Y541158D01*
X339539Y541282D01*
X339581Y541408D01*
X339619Y541535D01*
X339654Y541663D01*
X339685Y541792D01*
X339712Y541921D01*
X339735Y542052D01*
X339755Y542183D01*
X339770Y542315D01*
X339782Y542447D01*
X339790Y542579D01*
X339794Y542712D01*
X339794Y542844D01*
X339790Y542977D01*
X339782Y543109D01*
X339770Y543241D01*
X339755Y543373D01*
X339735Y543504D01*
X339712Y543635D01*
X339685Y543764D01*
X339654Y543893D01*
X339619Y544021D01*
X339581Y544148D01*
X339539Y544274D01*
X339493Y544398D01*
X339444Y544521D01*
X339391Y544643D01*
X339334Y544763D01*
X339274Y544881D01*
X339211Y544998D01*
X339144Y545112D01*
X339074Y545225D01*
X339000Y545335D01*
X338924Y545443D01*
X338844Y545549D01*
X338761Y545653D01*
X338675Y545754D01*
X338586Y545852D01*
X338495Y545948D01*
X338400Y546041D01*
X338303Y546131D01*
X338203Y546218D01*
X338101Y546303D01*
X337996Y546384D01*
X337889Y546462D01*
X337780Y546538D01*
X337669Y546609D01*
X337555Y546678D01*
X337440Y546743D01*
X337322Y546805D01*
X337203Y546863D01*
X337082Y546918D01*
X336960Y546969D01*
X336836Y547017D01*
X336711Y547061D01*
X336585Y547101D01*
X336457Y547137D01*
X336329Y547170D01*
X336200Y547199D01*
X336069Y547224D01*
X335939Y547245D01*
X335807Y547263D01*
X335675Y547276D01*
X335543Y547286D01*
X335411Y547292D01*
X335278Y547294D01*
X336181Y554518D02*
X330762Y554518D01*
X336181Y554518D02*
X336300Y554516D01*
X336420Y554510D01*
X336539Y554500D01*
X336657Y554486D01*
X336776Y554469D01*
X336893Y554447D01*
X337010Y554422D01*
X337125Y554392D01*
X337240Y554359D01*
X337354Y554322D01*
X337466Y554282D01*
X337577Y554237D01*
X337686Y554189D01*
X337794Y554138D01*
X337900Y554083D01*
X338004Y554024D01*
X338106Y553962D01*
X338206Y553897D01*
X338304Y553828D01*
X338400Y553756D01*
X338493Y553681D01*
X338583Y553604D01*
X338671Y553523D01*
X338756Y553439D01*
X338838Y553352D01*
X338918Y553263D01*
X338994Y553171D01*
X339068Y553077D01*
X339138Y552980D01*
X339205Y552882D01*
X339269Y552781D01*
X339329Y552677D01*
X339386Y552572D01*
X339439Y552465D01*
X339489Y552357D01*
X339535Y552247D01*
X339577Y552135D01*
X339616Y552022D01*
X339651Y551908D01*
X339682Y551793D01*
X339710Y551676D01*
X339733Y551559D01*
X339753Y551442D01*
X339769Y551323D01*
X339781Y551204D01*
X339789Y551085D01*
X339793Y550966D01*
X339793Y550846D01*
X339789Y550727D01*
X339781Y550608D01*
X339769Y550489D01*
X339753Y550370D01*
X339733Y550253D01*
X339710Y550136D01*
X339682Y550019D01*
X339651Y549904D01*
X339616Y549790D01*
X339577Y549677D01*
X339535Y549565D01*
X339489Y549455D01*
X339439Y549347D01*
X339386Y549240D01*
X339329Y549135D01*
X339269Y549031D01*
X339205Y548930D01*
X339138Y548832D01*
X339068Y548735D01*
X338994Y548641D01*
X338918Y548549D01*
X338838Y548460D01*
X338756Y548373D01*
X338671Y548289D01*
X338583Y548208D01*
X338493Y548131D01*
X338400Y548056D01*
X338304Y547984D01*
X338206Y547915D01*
X338106Y547850D01*
X338004Y547788D01*
X337900Y547729D01*
X337794Y547674D01*
X337686Y547623D01*
X337577Y547575D01*
X337466Y547530D01*
X337354Y547490D01*
X337240Y547453D01*
X337125Y547420D01*
X337010Y547390D01*
X336893Y547365D01*
X336776Y547343D01*
X336657Y547326D01*
X336539Y547312D01*
X336420Y547302D01*
X336300Y547296D01*
X336181Y547294D01*
X336181Y547293D02*
X332568Y547293D01*
X480762Y541874D02*
X484374Y554518D01*
X480762Y541874D02*
X489793Y541874D01*
X487084Y545487D02*
X487084Y538262D01*
X36181Y388262D02*
X30762Y388262D01*
X36181Y388262D02*
X36299Y388264D01*
X36417Y388270D01*
X36535Y388279D01*
X36652Y388293D01*
X36769Y388310D01*
X36886Y388331D01*
X37001Y388356D01*
X37116Y388385D01*
X37230Y388418D01*
X37342Y388454D01*
X37453Y388494D01*
X37563Y388537D01*
X37672Y388584D01*
X37779Y388634D01*
X37884Y388689D01*
X37987Y388746D01*
X38088Y388807D01*
X38188Y388871D01*
X38285Y388938D01*
X38380Y389008D01*
X38472Y389082D01*
X38563Y389158D01*
X38650Y389238D01*
X38735Y389320D01*
X38817Y389405D01*
X38897Y389492D01*
X38973Y389583D01*
X39047Y389675D01*
X39117Y389770D01*
X39184Y389867D01*
X39248Y389967D01*
X39309Y390068D01*
X39366Y390171D01*
X39421Y390276D01*
X39471Y390383D01*
X39518Y390492D01*
X39561Y390602D01*
X39601Y390713D01*
X39637Y390825D01*
X39670Y390939D01*
X39699Y391054D01*
X39724Y391169D01*
X39745Y391286D01*
X39762Y391403D01*
X39776Y391520D01*
X39785Y391638D01*
X39791Y391756D01*
X39793Y391874D01*
X39793Y393681D01*
X39791Y393799D01*
X39785Y393917D01*
X39776Y394035D01*
X39762Y394152D01*
X39745Y394269D01*
X39724Y394386D01*
X39699Y394501D01*
X39670Y394616D01*
X39637Y394730D01*
X39601Y394842D01*
X39561Y394953D01*
X39518Y395063D01*
X39471Y395172D01*
X39421Y395279D01*
X39366Y395384D01*
X39309Y395487D01*
X39248Y395588D01*
X39184Y395688D01*
X39117Y395785D01*
X39047Y395880D01*
X38973Y395972D01*
X38897Y396063D01*
X38817Y396150D01*
X38735Y396235D01*
X38650Y396317D01*
X38563Y396397D01*
X38472Y396473D01*
X38380Y396547D01*
X38285Y396617D01*
X38188Y396684D01*
X38088Y396748D01*
X37987Y396809D01*
X37884Y396866D01*
X37779Y396921D01*
X37672Y396971D01*
X37563Y397018D01*
X37453Y397061D01*
X37342Y397101D01*
X37230Y397137D01*
X37116Y397170D01*
X37001Y397199D01*
X36886Y397224D01*
X36769Y397245D01*
X36652Y397262D01*
X36535Y397276D01*
X36417Y397285D01*
X36299Y397291D01*
X36181Y397293D01*
X30762Y397293D01*
X30762Y404518D01*
X39793Y404518D01*
X180762Y397293D02*
X186181Y397293D01*
X186299Y397291D01*
X186417Y397285D01*
X186535Y397276D01*
X186652Y397262D01*
X186769Y397245D01*
X186886Y397224D01*
X187001Y397199D01*
X187116Y397170D01*
X187230Y397137D01*
X187342Y397101D01*
X187453Y397061D01*
X187563Y397018D01*
X187672Y396971D01*
X187779Y396921D01*
X187884Y396866D01*
X187987Y396809D01*
X188088Y396748D01*
X188188Y396684D01*
X188285Y396617D01*
X188380Y396547D01*
X188472Y396473D01*
X188563Y396397D01*
X188650Y396317D01*
X188735Y396235D01*
X188817Y396150D01*
X188897Y396063D01*
X188973Y395972D01*
X189047Y395880D01*
X189117Y395785D01*
X189184Y395688D01*
X189248Y395588D01*
X189309Y395487D01*
X189366Y395384D01*
X189421Y395279D01*
X189471Y395172D01*
X189518Y395063D01*
X189561Y394953D01*
X189601Y394842D01*
X189637Y394730D01*
X189670Y394616D01*
X189699Y394501D01*
X189724Y394386D01*
X189745Y394269D01*
X189762Y394152D01*
X189776Y394035D01*
X189785Y393917D01*
X189791Y393799D01*
X189793Y393681D01*
X189793Y392778D01*
X189794Y392778D02*
X189792Y392645D01*
X189786Y392513D01*
X189776Y392381D01*
X189763Y392249D01*
X189745Y392117D01*
X189724Y391987D01*
X189699Y391856D01*
X189670Y391727D01*
X189637Y391599D01*
X189601Y391471D01*
X189561Y391345D01*
X189517Y391220D01*
X189469Y391096D01*
X189418Y390974D01*
X189363Y390853D01*
X189305Y390734D01*
X189243Y390616D01*
X189178Y390501D01*
X189109Y390387D01*
X189038Y390276D01*
X188962Y390167D01*
X188884Y390060D01*
X188803Y389955D01*
X188718Y389853D01*
X188631Y389753D01*
X188541Y389656D01*
X188448Y389561D01*
X188352Y389470D01*
X188254Y389381D01*
X188153Y389295D01*
X188049Y389212D01*
X187943Y389132D01*
X187835Y389056D01*
X187725Y388982D01*
X187612Y388912D01*
X187498Y388845D01*
X187381Y388782D01*
X187263Y388722D01*
X187143Y388665D01*
X187021Y388612D01*
X186898Y388563D01*
X186774Y388517D01*
X186648Y388475D01*
X186521Y388437D01*
X186393Y388402D01*
X186264Y388371D01*
X186135Y388344D01*
X186004Y388321D01*
X185873Y388301D01*
X185741Y388286D01*
X185609Y388274D01*
X185477Y388266D01*
X185344Y388262D01*
X185212Y388262D01*
X185079Y388266D01*
X184947Y388274D01*
X184815Y388286D01*
X184683Y388301D01*
X184552Y388321D01*
X184421Y388344D01*
X184292Y388371D01*
X184163Y388402D01*
X184035Y388437D01*
X183908Y388475D01*
X183782Y388517D01*
X183658Y388563D01*
X183535Y388612D01*
X183413Y388665D01*
X183293Y388722D01*
X183175Y388782D01*
X183058Y388845D01*
X182944Y388912D01*
X182831Y388982D01*
X182721Y389056D01*
X182613Y389132D01*
X182507Y389212D01*
X182403Y389295D01*
X182302Y389381D01*
X182204Y389470D01*
X182108Y389561D01*
X182015Y389656D01*
X181925Y389753D01*
X181838Y389853D01*
X181753Y389955D01*
X181672Y390060D01*
X181594Y390167D01*
X181518Y390276D01*
X181447Y390387D01*
X181378Y390501D01*
X181313Y390616D01*
X181251Y390734D01*
X181193Y390853D01*
X181138Y390974D01*
X181087Y391096D01*
X181039Y391220D01*
X180995Y391345D01*
X180955Y391471D01*
X180919Y391599D01*
X180886Y391727D01*
X180857Y391856D01*
X180832Y391987D01*
X180811Y392117D01*
X180793Y392249D01*
X180780Y392381D01*
X180770Y392513D01*
X180764Y392645D01*
X180762Y392778D01*
X180762Y397293D01*
X180764Y397470D01*
X180771Y397648D01*
X180782Y397825D01*
X180797Y398001D01*
X180816Y398177D01*
X180840Y398353D01*
X180868Y398528D01*
X180901Y398703D01*
X180938Y398876D01*
X180979Y399049D01*
X181024Y399220D01*
X181073Y399390D01*
X181127Y399559D01*
X181184Y399727D01*
X181246Y399893D01*
X181312Y400058D01*
X181382Y400221D01*
X181456Y400382D01*
X181533Y400541D01*
X181615Y400699D01*
X181701Y400854D01*
X181790Y401007D01*
X181883Y401158D01*
X181980Y401307D01*
X182080Y401453D01*
X182184Y401597D01*
X182291Y401738D01*
X182402Y401876D01*
X182516Y402012D01*
X182634Y402145D01*
X182754Y402275D01*
X182878Y402402D01*
X183005Y402526D01*
X183135Y402646D01*
X183268Y402764D01*
X183403Y402878D01*
X183542Y402989D01*
X183683Y403096D01*
X183827Y403200D01*
X183973Y403300D01*
X184122Y403397D01*
X184273Y403490D01*
X184426Y403579D01*
X184581Y403665D01*
X184739Y403747D01*
X184898Y403824D01*
X185059Y403898D01*
X185222Y403968D01*
X185387Y404034D01*
X185553Y404096D01*
X185721Y404153D01*
X185890Y404207D01*
X186060Y404256D01*
X186231Y404301D01*
X186404Y404342D01*
X186577Y404379D01*
X186752Y404412D01*
X186927Y404440D01*
X187103Y404464D01*
X187279Y404483D01*
X187455Y404498D01*
X187632Y404509D01*
X187810Y404516D01*
X187987Y404518D01*
X330762Y404518D02*
X330762Y402712D01*
X330762Y404518D02*
X339793Y404518D01*
X335278Y388262D01*
X480762Y392778D02*
X480764Y392911D01*
X480770Y393043D01*
X480780Y393175D01*
X480793Y393307D01*
X480811Y393439D01*
X480832Y393569D01*
X480857Y393700D01*
X480886Y393829D01*
X480919Y393957D01*
X480955Y394085D01*
X480995Y394211D01*
X481039Y394336D01*
X481087Y394460D01*
X481138Y394582D01*
X481193Y394703D01*
X481251Y394822D01*
X481313Y394940D01*
X481378Y395055D01*
X481447Y395169D01*
X481518Y395280D01*
X481594Y395389D01*
X481672Y395496D01*
X481753Y395601D01*
X481838Y395703D01*
X481925Y395803D01*
X482015Y395900D01*
X482108Y395995D01*
X482204Y396086D01*
X482302Y396175D01*
X482403Y396261D01*
X482507Y396344D01*
X482613Y396424D01*
X482721Y396500D01*
X482831Y396574D01*
X482944Y396644D01*
X483058Y396711D01*
X483175Y396774D01*
X483293Y396834D01*
X483413Y396891D01*
X483535Y396944D01*
X483658Y396993D01*
X483782Y397039D01*
X483908Y397081D01*
X484035Y397119D01*
X484163Y397154D01*
X484292Y397185D01*
X484421Y397212D01*
X484552Y397235D01*
X484683Y397255D01*
X484815Y397270D01*
X484947Y397282D01*
X485079Y397290D01*
X485212Y397294D01*
X485344Y397294D01*
X485477Y397290D01*
X485609Y397282D01*
X485741Y397270D01*
X485873Y397255D01*
X486004Y397235D01*
X486135Y397212D01*
X486264Y397185D01*
X486393Y397154D01*
X486521Y397119D01*
X486648Y397081D01*
X486774Y397039D01*
X486898Y396993D01*
X487021Y396944D01*
X487143Y396891D01*
X487263Y396834D01*
X487381Y396774D01*
X487498Y396711D01*
X487612Y396644D01*
X487725Y396574D01*
X487835Y396500D01*
X487943Y396424D01*
X488049Y396344D01*
X488153Y396261D01*
X488254Y396175D01*
X488352Y396086D01*
X488448Y395995D01*
X488541Y395900D01*
X488631Y395803D01*
X488718Y395703D01*
X488803Y395601D01*
X488884Y395496D01*
X488962Y395389D01*
X489038Y395280D01*
X489109Y395169D01*
X489178Y395055D01*
X489243Y394940D01*
X489305Y394822D01*
X489363Y394703D01*
X489418Y394582D01*
X489469Y394460D01*
X489517Y394336D01*
X489561Y394211D01*
X489601Y394085D01*
X489637Y393957D01*
X489670Y393829D01*
X489699Y393700D01*
X489724Y393569D01*
X489745Y393439D01*
X489763Y393307D01*
X489776Y393175D01*
X489786Y393043D01*
X489792Y392911D01*
X489794Y392778D01*
X489792Y392645D01*
X489786Y392513D01*
X489776Y392381D01*
X489763Y392249D01*
X489745Y392117D01*
X489724Y391987D01*
X489699Y391856D01*
X489670Y391727D01*
X489637Y391599D01*
X489601Y391471D01*
X489561Y391345D01*
X489517Y391220D01*
X489469Y391096D01*
X489418Y390974D01*
X489363Y390853D01*
X489305Y390734D01*
X489243Y390616D01*
X489178Y390501D01*
X489109Y390387D01*
X489038Y390276D01*
X488962Y390167D01*
X488884Y390060D01*
X488803Y389955D01*
X488718Y389853D01*
X488631Y389753D01*
X488541Y389656D01*
X488448Y389561D01*
X488352Y389470D01*
X488254Y389381D01*
X488153Y389295D01*
X488049Y389212D01*
X487943Y389132D01*
X487835Y389056D01*
X487725Y388982D01*
X487612Y388912D01*
X487498Y388845D01*
X487381Y388782D01*
X487263Y388722D01*
X487143Y388665D01*
X487021Y388612D01*
X486898Y388563D01*
X486774Y388517D01*
X486648Y388475D01*
X486521Y388437D01*
X486393Y388402D01*
X486264Y388371D01*
X486135Y388344D01*
X486004Y388321D01*
X485873Y388301D01*
X485741Y388286D01*
X485609Y388274D01*
X485477Y388266D01*
X485344Y388262D01*
X485212Y388262D01*
X485079Y388266D01*
X484947Y388274D01*
X484815Y388286D01*
X484683Y388301D01*
X484552Y388321D01*
X484421Y388344D01*
X484292Y388371D01*
X484163Y388402D01*
X484035Y388437D01*
X483908Y388475D01*
X483782Y388517D01*
X483658Y388563D01*
X483535Y388612D01*
X483413Y388665D01*
X483293Y388722D01*
X483175Y388782D01*
X483058Y388845D01*
X482944Y388912D01*
X482831Y388982D01*
X482721Y389056D01*
X482613Y389132D01*
X482507Y389212D01*
X482403Y389295D01*
X482302Y389381D01*
X482204Y389470D01*
X482108Y389561D01*
X482015Y389656D01*
X481925Y389753D01*
X481838Y389853D01*
X481753Y389955D01*
X481672Y390060D01*
X481594Y390167D01*
X481518Y390276D01*
X481447Y390387D01*
X481378Y390501D01*
X481313Y390616D01*
X481251Y390734D01*
X481193Y390853D01*
X481138Y390974D01*
X481087Y391096D01*
X481039Y391220D01*
X480995Y391345D01*
X480955Y391471D01*
X480919Y391599D01*
X480886Y391727D01*
X480857Y391856D01*
X480832Y391987D01*
X480811Y392117D01*
X480793Y392249D01*
X480780Y392381D01*
X480770Y392513D01*
X480764Y392645D01*
X480762Y392778D01*
X481666Y400906D02*
X481668Y401025D01*
X481674Y401145D01*
X481684Y401264D01*
X481698Y401382D01*
X481715Y401501D01*
X481737Y401618D01*
X481762Y401735D01*
X481792Y401850D01*
X481825Y401965D01*
X481862Y402079D01*
X481902Y402191D01*
X481947Y402302D01*
X481995Y402411D01*
X482046Y402519D01*
X482101Y402625D01*
X482160Y402729D01*
X482222Y402831D01*
X482287Y402931D01*
X482356Y403029D01*
X482428Y403125D01*
X482503Y403218D01*
X482580Y403308D01*
X482661Y403396D01*
X482745Y403481D01*
X482832Y403563D01*
X482921Y403643D01*
X483013Y403719D01*
X483107Y403793D01*
X483204Y403863D01*
X483302Y403930D01*
X483403Y403994D01*
X483507Y404054D01*
X483612Y404111D01*
X483719Y404164D01*
X483827Y404214D01*
X483937Y404260D01*
X484049Y404302D01*
X484162Y404341D01*
X484276Y404376D01*
X484391Y404407D01*
X484508Y404435D01*
X484625Y404458D01*
X484742Y404478D01*
X484861Y404494D01*
X484980Y404506D01*
X485099Y404514D01*
X485218Y404518D01*
X485338Y404518D01*
X485457Y404514D01*
X485576Y404506D01*
X485695Y404494D01*
X485814Y404478D01*
X485931Y404458D01*
X486048Y404435D01*
X486165Y404407D01*
X486280Y404376D01*
X486394Y404341D01*
X486507Y404302D01*
X486619Y404260D01*
X486729Y404214D01*
X486837Y404164D01*
X486944Y404111D01*
X487049Y404054D01*
X487153Y403994D01*
X487254Y403930D01*
X487352Y403863D01*
X487449Y403793D01*
X487543Y403719D01*
X487635Y403643D01*
X487724Y403563D01*
X487811Y403481D01*
X487895Y403396D01*
X487976Y403308D01*
X488053Y403218D01*
X488128Y403125D01*
X488200Y403029D01*
X488269Y402931D01*
X488334Y402831D01*
X488396Y402729D01*
X488455Y402625D01*
X488510Y402519D01*
X488561Y402411D01*
X488609Y402302D01*
X488654Y402191D01*
X488694Y402079D01*
X488731Y401965D01*
X488764Y401850D01*
X488794Y401735D01*
X488819Y401618D01*
X488841Y401501D01*
X488858Y401382D01*
X488872Y401264D01*
X488882Y401145D01*
X488888Y401025D01*
X488890Y400906D01*
X488888Y400787D01*
X488882Y400667D01*
X488872Y400548D01*
X488858Y400430D01*
X488841Y400311D01*
X488819Y400194D01*
X488794Y400077D01*
X488764Y399962D01*
X488731Y399847D01*
X488694Y399733D01*
X488654Y399621D01*
X488609Y399510D01*
X488561Y399401D01*
X488510Y399293D01*
X488455Y399187D01*
X488396Y399083D01*
X488334Y398981D01*
X488269Y398881D01*
X488200Y398783D01*
X488128Y398687D01*
X488053Y398594D01*
X487976Y398504D01*
X487895Y398416D01*
X487811Y398331D01*
X487724Y398249D01*
X487635Y398169D01*
X487543Y398093D01*
X487449Y398019D01*
X487352Y397949D01*
X487254Y397882D01*
X487153Y397818D01*
X487049Y397758D01*
X486944Y397701D01*
X486837Y397648D01*
X486729Y397598D01*
X486619Y397552D01*
X486507Y397510D01*
X486394Y397471D01*
X486280Y397436D01*
X486165Y397405D01*
X486048Y397377D01*
X485931Y397354D01*
X485814Y397334D01*
X485695Y397318D01*
X485576Y397306D01*
X485457Y397298D01*
X485338Y397294D01*
X485218Y397294D01*
X485099Y397298D01*
X484980Y397306D01*
X484861Y397318D01*
X484742Y397334D01*
X484625Y397354D01*
X484508Y397377D01*
X484391Y397405D01*
X484276Y397436D01*
X484162Y397471D01*
X484049Y397510D01*
X483937Y397552D01*
X483827Y397598D01*
X483719Y397648D01*
X483612Y397701D01*
X483507Y397758D01*
X483403Y397818D01*
X483302Y397882D01*
X483204Y397949D01*
X483107Y398019D01*
X483013Y398093D01*
X482921Y398169D01*
X482832Y398249D01*
X482745Y398331D01*
X482661Y398416D01*
X482580Y398504D01*
X482503Y398594D01*
X482428Y398687D01*
X482356Y398783D01*
X482287Y398881D01*
X482222Y398981D01*
X482160Y399083D01*
X482101Y399187D01*
X482046Y399293D01*
X481995Y399401D01*
X481947Y399510D01*
X481902Y399621D01*
X481862Y399733D01*
X481825Y399847D01*
X481792Y399962D01*
X481762Y400077D01*
X481737Y400194D01*
X481715Y400311D01*
X481698Y400430D01*
X481684Y400548D01*
X481674Y400667D01*
X481668Y400787D01*
X481666Y400906D01*
X39793Y245487D02*
X34374Y245487D01*
X34256Y245489D01*
X34138Y245495D01*
X34020Y245504D01*
X33903Y245518D01*
X33786Y245535D01*
X33669Y245556D01*
X33554Y245581D01*
X33439Y245610D01*
X33325Y245643D01*
X33213Y245679D01*
X33102Y245719D01*
X32992Y245762D01*
X32883Y245809D01*
X32776Y245859D01*
X32671Y245914D01*
X32568Y245971D01*
X32467Y246032D01*
X32367Y246096D01*
X32270Y246163D01*
X32175Y246233D01*
X32083Y246307D01*
X31992Y246383D01*
X31905Y246463D01*
X31820Y246545D01*
X31738Y246630D01*
X31658Y246717D01*
X31582Y246808D01*
X31508Y246900D01*
X31438Y246995D01*
X31371Y247092D01*
X31307Y247192D01*
X31246Y247293D01*
X31189Y247396D01*
X31134Y247501D01*
X31084Y247608D01*
X31037Y247717D01*
X30994Y247827D01*
X30954Y247938D01*
X30918Y248050D01*
X30885Y248164D01*
X30856Y248279D01*
X30831Y248394D01*
X30810Y248511D01*
X30793Y248628D01*
X30779Y248745D01*
X30770Y248863D01*
X30764Y248981D01*
X30762Y249099D01*
X30762Y250002D01*
X30764Y250135D01*
X30770Y250267D01*
X30780Y250399D01*
X30793Y250531D01*
X30811Y250663D01*
X30832Y250793D01*
X30857Y250924D01*
X30886Y251053D01*
X30919Y251181D01*
X30955Y251309D01*
X30995Y251435D01*
X31039Y251560D01*
X31087Y251684D01*
X31138Y251806D01*
X31193Y251927D01*
X31251Y252046D01*
X31313Y252164D01*
X31378Y252279D01*
X31447Y252393D01*
X31518Y252504D01*
X31594Y252613D01*
X31672Y252720D01*
X31753Y252825D01*
X31838Y252927D01*
X31925Y253027D01*
X32015Y253124D01*
X32108Y253219D01*
X32204Y253310D01*
X32302Y253399D01*
X32403Y253485D01*
X32507Y253568D01*
X32613Y253648D01*
X32721Y253724D01*
X32831Y253798D01*
X32944Y253868D01*
X33058Y253935D01*
X33175Y253998D01*
X33293Y254058D01*
X33413Y254115D01*
X33535Y254168D01*
X33658Y254217D01*
X33782Y254263D01*
X33908Y254305D01*
X34035Y254343D01*
X34163Y254378D01*
X34292Y254409D01*
X34421Y254436D01*
X34552Y254459D01*
X34683Y254479D01*
X34815Y254494D01*
X34947Y254506D01*
X35079Y254514D01*
X35212Y254518D01*
X35344Y254518D01*
X35477Y254514D01*
X35609Y254506D01*
X35741Y254494D01*
X35873Y254479D01*
X36004Y254459D01*
X36135Y254436D01*
X36264Y254409D01*
X36393Y254378D01*
X36521Y254343D01*
X36648Y254305D01*
X36774Y254263D01*
X36898Y254217D01*
X37021Y254168D01*
X37143Y254115D01*
X37263Y254058D01*
X37381Y253998D01*
X37498Y253935D01*
X37612Y253868D01*
X37725Y253798D01*
X37835Y253724D01*
X37943Y253648D01*
X38049Y253568D01*
X38153Y253485D01*
X38254Y253399D01*
X38352Y253310D01*
X38448Y253219D01*
X38541Y253124D01*
X38631Y253027D01*
X38718Y252927D01*
X38803Y252825D01*
X38884Y252720D01*
X38962Y252613D01*
X39038Y252504D01*
X39109Y252393D01*
X39178Y252279D01*
X39243Y252164D01*
X39305Y252046D01*
X39363Y251927D01*
X39418Y251806D01*
X39469Y251684D01*
X39517Y251560D01*
X39561Y251435D01*
X39601Y251309D01*
X39637Y251181D01*
X39670Y251053D01*
X39699Y250924D01*
X39724Y250793D01*
X39745Y250663D01*
X39763Y250531D01*
X39776Y250399D01*
X39786Y250267D01*
X39792Y250135D01*
X39794Y250002D01*
X39793Y250002D02*
X39793Y245487D01*
X39791Y245312D01*
X39785Y245138D01*
X39774Y244964D01*
X39759Y244790D01*
X39740Y244616D01*
X39717Y244443D01*
X39690Y244271D01*
X39658Y244099D01*
X39623Y243928D01*
X39583Y243758D01*
X39539Y243589D01*
X39491Y243421D01*
X39439Y243254D01*
X39383Y243089D01*
X39323Y242925D01*
X39260Y242762D01*
X39192Y242602D01*
X39120Y242442D01*
X39045Y242285D01*
X38965Y242129D01*
X38882Y241976D01*
X38796Y241824D01*
X38705Y241675D01*
X38611Y241528D01*
X38514Y241383D01*
X38413Y241240D01*
X38309Y241100D01*
X38201Y240963D01*
X38090Y240828D01*
X37976Y240696D01*
X37859Y240567D01*
X37738Y240440D01*
X37615Y240317D01*
X37488Y240196D01*
X37359Y240079D01*
X37227Y239965D01*
X37092Y239854D01*
X36955Y239746D01*
X36815Y239642D01*
X36672Y239541D01*
X36527Y239444D01*
X36380Y239350D01*
X36231Y239259D01*
X36079Y239173D01*
X35926Y239090D01*
X35770Y239010D01*
X35613Y238935D01*
X35453Y238863D01*
X35293Y238795D01*
X35130Y238732D01*
X34966Y238672D01*
X34801Y238616D01*
X34634Y238564D01*
X34466Y238516D01*
X34297Y238472D01*
X34127Y238432D01*
X33956Y238397D01*
X33784Y238365D01*
X33612Y238338D01*
X33439Y238315D01*
X33265Y238296D01*
X33091Y238281D01*
X32917Y238270D01*
X32743Y238264D01*
X32568Y238262D01*
X180762Y250906D02*
X185278Y254518D01*
X185278Y238262D01*
X189793Y238262D02*
X180762Y238262D01*
X196393Y246390D02*
X196397Y246710D01*
X196408Y247029D01*
X196427Y247349D01*
X196454Y247667D01*
X196488Y247985D01*
X196530Y248302D01*
X196580Y248618D01*
X196637Y248933D01*
X196701Y249246D01*
X196773Y249558D01*
X196852Y249868D01*
X196939Y250175D01*
X197033Y250481D01*
X197134Y250784D01*
X197243Y251085D01*
X197358Y251383D01*
X197481Y251679D01*
X197611Y251971D01*
X197748Y252260D01*
X197748Y252261D02*
X197787Y252369D01*
X197830Y252476D01*
X197876Y252581D01*
X197927Y252685D01*
X197980Y252787D01*
X198037Y252887D01*
X198098Y252985D01*
X198162Y253080D01*
X198229Y253174D01*
X198300Y253265D01*
X198373Y253354D01*
X198450Y253440D01*
X198529Y253523D01*
X198611Y253604D01*
X198696Y253682D01*
X198784Y253756D01*
X198874Y253828D01*
X198966Y253896D01*
X199061Y253962D01*
X199158Y254024D01*
X199257Y254082D01*
X199359Y254138D01*
X199461Y254189D01*
X199566Y254237D01*
X199672Y254282D01*
X199780Y254323D01*
X199889Y254360D01*
X199999Y254393D01*
X200111Y254422D01*
X200223Y254448D01*
X200336Y254470D01*
X200450Y254487D01*
X200564Y254501D01*
X200679Y254511D01*
X200794Y254517D01*
X200909Y254519D01*
X200909Y254518D02*
X201024Y254516D01*
X201139Y254510D01*
X201254Y254500D01*
X201368Y254486D01*
X201482Y254469D01*
X201595Y254447D01*
X201707Y254421D01*
X201819Y254392D01*
X201929Y254359D01*
X202038Y254322D01*
X202146Y254281D01*
X202252Y254236D01*
X202357Y254188D01*
X202459Y254137D01*
X202560Y254081D01*
X202660Y254023D01*
X202757Y253961D01*
X202851Y253896D01*
X202944Y253827D01*
X203034Y253755D01*
X203122Y253681D01*
X203207Y253603D01*
X203289Y253522D01*
X203368Y253439D01*
X203445Y253353D01*
X203518Y253264D01*
X203589Y253173D01*
X203656Y253079D01*
X203720Y252984D01*
X203781Y252886D01*
X203838Y252786D01*
X203891Y252684D01*
X203942Y252580D01*
X203988Y252475D01*
X204031Y252368D01*
X204070Y252260D01*
X204069Y252260D02*
X204206Y251971D01*
X204336Y251679D01*
X204459Y251383D01*
X204574Y251085D01*
X204683Y250784D01*
X204784Y250481D01*
X204878Y250175D01*
X204965Y249868D01*
X205044Y249558D01*
X205116Y249246D01*
X205180Y248933D01*
X205237Y248618D01*
X205287Y248302D01*
X205329Y247985D01*
X205363Y247667D01*
X205390Y247349D01*
X205409Y247029D01*
X205420Y246710D01*
X205424Y246390D01*
X196394Y246390D02*
X196398Y246070D01*
X196409Y245751D01*
X196428Y245431D01*
X196455Y245113D01*
X196489Y244795D01*
X196531Y244478D01*
X196581Y244162D01*
X196638Y243847D01*
X196702Y243534D01*
X196774Y243222D01*
X196853Y242912D01*
X196940Y242605D01*
X197034Y242299D01*
X197135Y241996D01*
X197244Y241695D01*
X197359Y241397D01*
X197482Y241101D01*
X197612Y240809D01*
X197749Y240520D01*
X197748Y240520D02*
X197787Y240412D01*
X197830Y240305D01*
X197876Y240200D01*
X197927Y240096D01*
X197980Y239994D01*
X198037Y239894D01*
X198098Y239796D01*
X198162Y239701D01*
X198229Y239607D01*
X198300Y239516D01*
X198373Y239427D01*
X198450Y239341D01*
X198529Y239258D01*
X198611Y239177D01*
X198696Y239099D01*
X198784Y239025D01*
X198874Y238953D01*
X198967Y238884D01*
X199061Y238819D01*
X199158Y238757D01*
X199258Y238699D01*
X199359Y238643D01*
X199461Y238592D01*
X199566Y238544D01*
X199672Y238499D01*
X199780Y238458D01*
X199889Y238421D01*
X199999Y238388D01*
X200111Y238359D01*
X200223Y238333D01*
X200336Y238311D01*
X200450Y238294D01*
X200564Y238280D01*
X200679Y238270D01*
X200794Y238264D01*
X200909Y238262D01*
X204069Y240520D02*
X204206Y240809D01*
X204336Y241101D01*
X204459Y241397D01*
X204574Y241695D01*
X204683Y241996D01*
X204784Y242299D01*
X204878Y242605D01*
X204965Y242912D01*
X205044Y243222D01*
X205116Y243534D01*
X205180Y243847D01*
X205237Y244162D01*
X205287Y244478D01*
X205329Y244795D01*
X205363Y245113D01*
X205390Y245431D01*
X205409Y245751D01*
X205420Y246070D01*
X205424Y246390D01*
X204070Y240520D02*
X204031Y240412D01*
X203988Y240305D01*
X203942Y240200D01*
X203891Y240096D01*
X203838Y239994D01*
X203781Y239894D01*
X203720Y239796D01*
X203656Y239701D01*
X203589Y239607D01*
X203518Y239516D01*
X203445Y239427D01*
X203368Y239341D01*
X203289Y239258D01*
X203207Y239177D01*
X203122Y239099D01*
X203034Y239025D01*
X202944Y238953D01*
X202851Y238884D01*
X202757Y238819D01*
X202660Y238757D01*
X202560Y238699D01*
X202459Y238643D01*
X202356Y238592D01*
X202252Y238544D01*
X202146Y238499D01*
X202038Y238458D01*
X201929Y238421D01*
X201819Y238388D01*
X201707Y238359D01*
X201595Y238333D01*
X201482Y238311D01*
X201368Y238294D01*
X201254Y238280D01*
X201139Y238270D01*
X201024Y238264D01*
X200909Y238262D01*
X197296Y241874D02*
X204521Y250906D01*
X330762Y250906D02*
X335278Y254518D01*
X335278Y238262D01*
X339793Y238262D02*
X330762Y238262D01*
X346393Y250906D02*
X350909Y254518D01*
X350909Y238262D01*
X355424Y238262D02*
X346393Y238262D01*
X480762Y250906D02*
X485278Y254518D01*
X485278Y238262D01*
X489793Y238262D02*
X480762Y238262D01*
X501360Y254518D02*
X501485Y254516D01*
X501610Y254510D01*
X501735Y254501D01*
X501859Y254487D01*
X501983Y254470D01*
X502107Y254449D01*
X502229Y254424D01*
X502351Y254395D01*
X502472Y254363D01*
X502592Y254327D01*
X502711Y254287D01*
X502828Y254244D01*
X502944Y254197D01*
X503059Y254146D01*
X503171Y254092D01*
X503283Y254034D01*
X503392Y253974D01*
X503499Y253909D01*
X503605Y253842D01*
X503708Y253771D01*
X503809Y253697D01*
X503908Y253620D01*
X504004Y253540D01*
X504098Y253457D01*
X504189Y253372D01*
X504278Y253283D01*
X504363Y253192D01*
X504446Y253098D01*
X504526Y253002D01*
X504603Y252903D01*
X504677Y252802D01*
X504748Y252699D01*
X504815Y252593D01*
X504880Y252486D01*
X504940Y252377D01*
X504998Y252265D01*
X505052Y252153D01*
X505103Y252038D01*
X505150Y251922D01*
X505193Y251805D01*
X505233Y251686D01*
X505269Y251566D01*
X505301Y251445D01*
X505330Y251323D01*
X505355Y251201D01*
X505376Y251077D01*
X505393Y250953D01*
X505407Y250829D01*
X505416Y250704D01*
X505422Y250579D01*
X505424Y250454D01*
X501360Y254518D02*
X501217Y254516D01*
X501075Y254510D01*
X500932Y254500D01*
X500790Y254487D01*
X500649Y254469D01*
X500507Y254448D01*
X500367Y254423D01*
X500227Y254394D01*
X500088Y254361D01*
X499950Y254324D01*
X499813Y254284D01*
X499678Y254240D01*
X499543Y254192D01*
X499410Y254140D01*
X499278Y254085D01*
X499148Y254026D01*
X499020Y253964D01*
X498893Y253898D01*
X498768Y253829D01*
X498645Y253757D01*
X498525Y253681D01*
X498406Y253602D01*
X498289Y253519D01*
X498175Y253434D01*
X498063Y253345D01*
X497954Y253254D01*
X497847Y253159D01*
X497742Y253062D01*
X497641Y252961D01*
X497542Y252858D01*
X497446Y252753D01*
X497353Y252644D01*
X497263Y252533D01*
X497176Y252420D01*
X497092Y252305D01*
X497012Y252187D01*
X496934Y252067D01*
X496860Y251945D01*
X496790Y251821D01*
X496722Y251695D01*
X496659Y251567D01*
X496598Y251438D01*
X496541Y251307D01*
X496488Y251175D01*
X496439Y251041D01*
X496393Y250906D01*
X504069Y247293D02*
X504163Y247385D01*
X504253Y247479D01*
X504341Y247576D01*
X504426Y247676D01*
X504508Y247778D01*
X504587Y247883D01*
X504662Y247990D01*
X504734Y248099D01*
X504803Y248210D01*
X504869Y248324D01*
X504931Y248439D01*
X504990Y248556D01*
X505045Y248675D01*
X505096Y248795D01*
X505144Y248917D01*
X505189Y249040D01*
X505229Y249164D01*
X505266Y249290D01*
X505299Y249417D01*
X505328Y249544D01*
X505354Y249673D01*
X505375Y249802D01*
X505393Y249932D01*
X505406Y250062D01*
X505416Y250192D01*
X505422Y250323D01*
X505424Y250454D01*
X504070Y247293D02*
X496393Y238262D01*
X505424Y238262D01*
X35278Y107018D02*
X30762Y103406D01*
X35278Y107018D02*
X35278Y90762D01*
X39793Y90762D02*
X30762Y90762D01*
X46393Y90762D02*
X50909Y90762D01*
X51042Y90764D01*
X51174Y90770D01*
X51306Y90780D01*
X51438Y90793D01*
X51570Y90811D01*
X51700Y90832D01*
X51831Y90857D01*
X51960Y90886D01*
X52088Y90919D01*
X52216Y90955D01*
X52342Y90995D01*
X52467Y91039D01*
X52591Y91087D01*
X52713Y91138D01*
X52834Y91193D01*
X52953Y91251D01*
X53071Y91313D01*
X53186Y91378D01*
X53300Y91447D01*
X53411Y91518D01*
X53520Y91594D01*
X53627Y91672D01*
X53732Y91753D01*
X53834Y91838D01*
X53934Y91925D01*
X54031Y92015D01*
X54126Y92108D01*
X54217Y92204D01*
X54306Y92302D01*
X54392Y92403D01*
X54475Y92507D01*
X54555Y92613D01*
X54631Y92721D01*
X54705Y92831D01*
X54775Y92944D01*
X54842Y93058D01*
X54905Y93175D01*
X54965Y93293D01*
X55022Y93413D01*
X55075Y93535D01*
X55124Y93658D01*
X55170Y93782D01*
X55212Y93908D01*
X55250Y94035D01*
X55285Y94163D01*
X55316Y94292D01*
X55343Y94421D01*
X55366Y94552D01*
X55386Y94683D01*
X55401Y94815D01*
X55413Y94947D01*
X55421Y95079D01*
X55425Y95212D01*
X55425Y95344D01*
X55421Y95477D01*
X55413Y95609D01*
X55401Y95741D01*
X55386Y95873D01*
X55366Y96004D01*
X55343Y96135D01*
X55316Y96264D01*
X55285Y96393D01*
X55250Y96521D01*
X55212Y96648D01*
X55170Y96774D01*
X55124Y96898D01*
X55075Y97021D01*
X55022Y97143D01*
X54965Y97263D01*
X54905Y97381D01*
X54842Y97498D01*
X54775Y97612D01*
X54705Y97725D01*
X54631Y97835D01*
X54555Y97943D01*
X54475Y98049D01*
X54392Y98153D01*
X54306Y98254D01*
X54217Y98352D01*
X54126Y98448D01*
X54031Y98541D01*
X53934Y98631D01*
X53834Y98718D01*
X53732Y98803D01*
X53627Y98884D01*
X53520Y98962D01*
X53411Y99038D01*
X53300Y99109D01*
X53186Y99178D01*
X53071Y99243D01*
X52953Y99305D01*
X52834Y99363D01*
X52713Y99418D01*
X52591Y99469D01*
X52467Y99517D01*
X52342Y99561D01*
X52216Y99601D01*
X52088Y99637D01*
X51960Y99670D01*
X51831Y99699D01*
X51700Y99724D01*
X51570Y99745D01*
X51438Y99763D01*
X51306Y99776D01*
X51174Y99786D01*
X51042Y99792D01*
X50909Y99794D01*
X51812Y107018D02*
X46393Y107018D01*
X51812Y107018D02*
X51931Y107016D01*
X52051Y107010D01*
X52170Y107000D01*
X52288Y106986D01*
X52407Y106969D01*
X52524Y106947D01*
X52641Y106922D01*
X52756Y106892D01*
X52871Y106859D01*
X52985Y106822D01*
X53097Y106782D01*
X53208Y106737D01*
X53317Y106689D01*
X53425Y106638D01*
X53531Y106583D01*
X53635Y106524D01*
X53737Y106462D01*
X53837Y106397D01*
X53935Y106328D01*
X54031Y106256D01*
X54124Y106181D01*
X54214Y106104D01*
X54302Y106023D01*
X54387Y105939D01*
X54469Y105852D01*
X54549Y105763D01*
X54625Y105671D01*
X54699Y105577D01*
X54769Y105480D01*
X54836Y105382D01*
X54900Y105281D01*
X54960Y105177D01*
X55017Y105072D01*
X55070Y104965D01*
X55120Y104857D01*
X55166Y104747D01*
X55208Y104635D01*
X55247Y104522D01*
X55282Y104408D01*
X55313Y104293D01*
X55341Y104176D01*
X55364Y104059D01*
X55384Y103942D01*
X55400Y103823D01*
X55412Y103704D01*
X55420Y103585D01*
X55424Y103466D01*
X55424Y103346D01*
X55420Y103227D01*
X55412Y103108D01*
X55400Y102989D01*
X55384Y102870D01*
X55364Y102753D01*
X55341Y102636D01*
X55313Y102519D01*
X55282Y102404D01*
X55247Y102290D01*
X55208Y102177D01*
X55166Y102065D01*
X55120Y101955D01*
X55070Y101847D01*
X55017Y101740D01*
X54960Y101635D01*
X54900Y101531D01*
X54836Y101430D01*
X54769Y101332D01*
X54699Y101235D01*
X54625Y101141D01*
X54549Y101049D01*
X54469Y100960D01*
X54387Y100873D01*
X54302Y100789D01*
X54214Y100708D01*
X54124Y100631D01*
X54031Y100556D01*
X53935Y100484D01*
X53837Y100415D01*
X53737Y100350D01*
X53635Y100288D01*
X53531Y100229D01*
X53425Y100174D01*
X53317Y100123D01*
X53208Y100075D01*
X53097Y100030D01*
X52985Y99990D01*
X52871Y99953D01*
X52756Y99920D01*
X52641Y99890D01*
X52524Y99865D01*
X52407Y99843D01*
X52288Y99826D01*
X52170Y99812D01*
X52051Y99802D01*
X51931Y99796D01*
X51812Y99794D01*
X51812Y99793D02*
X48199Y99793D01*
X180762Y103406D02*
X185278Y107018D01*
X185278Y90762D01*
X189793Y90762D02*
X180762Y90762D01*
X196393Y94374D02*
X200006Y107018D01*
X196393Y94374D02*
X205424Y94374D01*
X202715Y97987D02*
X202715Y90762D01*
X330762Y103406D02*
X335278Y107018D01*
X335278Y90762D01*
X339793Y90762D02*
X330762Y90762D01*
X346393Y90762D02*
X351812Y90762D01*
X351930Y90764D01*
X352048Y90770D01*
X352166Y90779D01*
X352283Y90793D01*
X352400Y90810D01*
X352517Y90831D01*
X352632Y90856D01*
X352747Y90885D01*
X352861Y90918D01*
X352973Y90954D01*
X353084Y90994D01*
X353194Y91037D01*
X353303Y91084D01*
X353410Y91134D01*
X353515Y91189D01*
X353618Y91246D01*
X353719Y91307D01*
X353819Y91371D01*
X353916Y91438D01*
X354011Y91508D01*
X354103Y91582D01*
X354194Y91658D01*
X354281Y91738D01*
X354366Y91820D01*
X354448Y91905D01*
X354528Y91992D01*
X354604Y92083D01*
X354678Y92175D01*
X354748Y92270D01*
X354815Y92367D01*
X354879Y92467D01*
X354940Y92568D01*
X354997Y92671D01*
X355052Y92776D01*
X355102Y92883D01*
X355149Y92992D01*
X355192Y93102D01*
X355232Y93213D01*
X355268Y93325D01*
X355301Y93439D01*
X355330Y93554D01*
X355355Y93669D01*
X355376Y93786D01*
X355393Y93903D01*
X355407Y94020D01*
X355416Y94138D01*
X355422Y94256D01*
X355424Y94374D01*
X355424Y96181D01*
X355422Y96299D01*
X355416Y96417D01*
X355407Y96535D01*
X355393Y96652D01*
X355376Y96769D01*
X355355Y96886D01*
X355330Y97001D01*
X355301Y97116D01*
X355268Y97230D01*
X355232Y97342D01*
X355192Y97453D01*
X355149Y97563D01*
X355102Y97672D01*
X355052Y97779D01*
X354997Y97884D01*
X354940Y97987D01*
X354879Y98088D01*
X354815Y98188D01*
X354748Y98285D01*
X354678Y98380D01*
X354604Y98472D01*
X354528Y98563D01*
X354448Y98650D01*
X354366Y98735D01*
X354281Y98817D01*
X354194Y98897D01*
X354103Y98973D01*
X354011Y99047D01*
X353916Y99117D01*
X353819Y99184D01*
X353719Y99248D01*
X353618Y99309D01*
X353515Y99366D01*
X353410Y99421D01*
X353303Y99471D01*
X353194Y99518D01*
X353084Y99561D01*
X352973Y99601D01*
X352861Y99637D01*
X352747Y99670D01*
X352632Y99699D01*
X352517Y99724D01*
X352400Y99745D01*
X352283Y99762D01*
X352166Y99776D01*
X352048Y99785D01*
X351930Y99791D01*
X351812Y99793D01*
X346393Y99793D01*
X346393Y107018D01*
X355424Y107018D01*
X480762Y103406D02*
X485278Y107018D01*
X485278Y90762D01*
X489793Y90762D02*
X480762Y90762D01*
X496393Y99793D02*
X501812Y99793D01*
X501930Y99791D01*
X502048Y99785D01*
X502166Y99776D01*
X502283Y99762D01*
X502400Y99745D01*
X502517Y99724D01*
X502632Y99699D01*
X502747Y99670D01*
X502861Y99637D01*
X502973Y99601D01*
X503084Y99561D01*
X503194Y99518D01*
X503303Y99471D01*
X503410Y99421D01*
X503515Y99366D01*
X503618Y99309D01*
X503719Y99248D01*
X503819Y99184D01*
X503916Y99117D01*
X504011Y99047D01*
X504103Y98973D01*
X504194Y98897D01*
X504281Y98817D01*
X504366Y98735D01*
X504448Y98650D01*
X504528Y98563D01*
X504604Y98472D01*
X504678Y98380D01*
X504748Y98285D01*
X504815Y98188D01*
X504879Y98088D01*
X504940Y97987D01*
X504997Y97884D01*
X505052Y97779D01*
X505102Y97672D01*
X505149Y97563D01*
X505192Y97453D01*
X505232Y97342D01*
X505268Y97230D01*
X505301Y97116D01*
X505330Y97001D01*
X505355Y96886D01*
X505376Y96769D01*
X505393Y96652D01*
X505407Y96535D01*
X505416Y96417D01*
X505422Y96299D01*
X505424Y96181D01*
X505424Y95278D01*
X505425Y95278D02*
X505423Y95145D01*
X505417Y95013D01*
X505407Y94881D01*
X505394Y94749D01*
X505376Y94617D01*
X505355Y94487D01*
X505330Y94356D01*
X505301Y94227D01*
X505268Y94099D01*
X505232Y93971D01*
X505192Y93845D01*
X505148Y93720D01*
X505100Y93596D01*
X505049Y93474D01*
X504994Y93353D01*
X504936Y93234D01*
X504874Y93116D01*
X504809Y93001D01*
X504740Y92887D01*
X504669Y92776D01*
X504593Y92667D01*
X504515Y92560D01*
X504434Y92455D01*
X504349Y92353D01*
X504262Y92253D01*
X504172Y92156D01*
X504079Y92061D01*
X503983Y91970D01*
X503885Y91881D01*
X503784Y91795D01*
X503680Y91712D01*
X503574Y91632D01*
X503466Y91556D01*
X503356Y91482D01*
X503243Y91412D01*
X503129Y91345D01*
X503012Y91282D01*
X502894Y91222D01*
X502774Y91165D01*
X502652Y91112D01*
X502529Y91063D01*
X502405Y91017D01*
X502279Y90975D01*
X502152Y90937D01*
X502024Y90902D01*
X501895Y90871D01*
X501766Y90844D01*
X501635Y90821D01*
X501504Y90801D01*
X501372Y90786D01*
X501240Y90774D01*
X501108Y90766D01*
X500975Y90762D01*
X500843Y90762D01*
X500710Y90766D01*
X500578Y90774D01*
X500446Y90786D01*
X500314Y90801D01*
X500183Y90821D01*
X500052Y90844D01*
X499923Y90871D01*
X499794Y90902D01*
X499666Y90937D01*
X499539Y90975D01*
X499413Y91017D01*
X499289Y91063D01*
X499166Y91112D01*
X499044Y91165D01*
X498924Y91222D01*
X498806Y91282D01*
X498689Y91345D01*
X498575Y91412D01*
X498462Y91482D01*
X498352Y91556D01*
X498244Y91632D01*
X498138Y91712D01*
X498034Y91795D01*
X497933Y91881D01*
X497835Y91970D01*
X497739Y92061D01*
X497646Y92156D01*
X497556Y92253D01*
X497469Y92353D01*
X497384Y92455D01*
X497303Y92560D01*
X497225Y92667D01*
X497149Y92776D01*
X497078Y92887D01*
X497009Y93001D01*
X496944Y93116D01*
X496882Y93234D01*
X496824Y93353D01*
X496769Y93474D01*
X496718Y93596D01*
X496670Y93720D01*
X496626Y93845D01*
X496586Y93971D01*
X496550Y94099D01*
X496517Y94227D01*
X496488Y94356D01*
X496463Y94487D01*
X496442Y94617D01*
X496424Y94749D01*
X496411Y94881D01*
X496401Y95013D01*
X496395Y95145D01*
X496393Y95278D01*
X496393Y99793D01*
X496395Y99970D01*
X496402Y100148D01*
X496413Y100325D01*
X496428Y100501D01*
X496447Y100677D01*
X496471Y100853D01*
X496499Y101028D01*
X496532Y101203D01*
X496569Y101376D01*
X496610Y101549D01*
X496655Y101720D01*
X496704Y101890D01*
X496758Y102059D01*
X496815Y102227D01*
X496877Y102393D01*
X496943Y102558D01*
X497013Y102721D01*
X497087Y102882D01*
X497164Y103041D01*
X497246Y103199D01*
X497332Y103354D01*
X497421Y103507D01*
X497514Y103658D01*
X497611Y103807D01*
X497711Y103953D01*
X497815Y104097D01*
X497922Y104238D01*
X498033Y104376D01*
X498147Y104512D01*
X498265Y104645D01*
X498385Y104775D01*
X498509Y104902D01*
X498636Y105026D01*
X498766Y105146D01*
X498899Y105264D01*
X499034Y105378D01*
X499173Y105489D01*
X499314Y105596D01*
X499458Y105700D01*
X499604Y105800D01*
X499753Y105897D01*
X499904Y105990D01*
X500057Y106079D01*
X500212Y106165D01*
X500370Y106247D01*
X500529Y106324D01*
X500690Y106398D01*
X500853Y106468D01*
X501018Y106534D01*
X501184Y106596D01*
X501352Y106653D01*
X501521Y106707D01*
X501691Y106756D01*
X501862Y106801D01*
X502035Y106842D01*
X502208Y106879D01*
X502383Y106912D01*
X502558Y106940D01*
X502734Y106964D01*
X502910Y106983D01*
X503086Y106998D01*
X503263Y107009D01*
X503441Y107016D01*
X503618Y107018D01*
X231181Y1245762D02*
X231299Y1245764D01*
X231417Y1245770D01*
X231535Y1245779D01*
X231652Y1245793D01*
X231769Y1245810D01*
X231886Y1245831D01*
X232001Y1245856D01*
X232116Y1245885D01*
X232230Y1245918D01*
X232342Y1245954D01*
X232453Y1245994D01*
X232563Y1246037D01*
X232672Y1246084D01*
X232779Y1246134D01*
X232884Y1246189D01*
X232987Y1246246D01*
X233088Y1246307D01*
X233188Y1246371D01*
X233285Y1246438D01*
X233380Y1246508D01*
X233472Y1246582D01*
X233563Y1246658D01*
X233650Y1246738D01*
X233735Y1246820D01*
X233817Y1246905D01*
X233897Y1246992D01*
X233973Y1247083D01*
X234047Y1247175D01*
X234117Y1247270D01*
X234184Y1247367D01*
X234248Y1247467D01*
X234309Y1247568D01*
X234366Y1247671D01*
X234421Y1247776D01*
X234471Y1247883D01*
X234518Y1247992D01*
X234561Y1248102D01*
X234601Y1248213D01*
X234637Y1248325D01*
X234670Y1248439D01*
X234699Y1248554D01*
X234724Y1248669D01*
X234745Y1248786D01*
X234762Y1248903D01*
X234776Y1249020D01*
X234785Y1249138D01*
X234791Y1249256D01*
X234793Y1249374D01*
X231181Y1245762D02*
X230998Y1245764D01*
X230816Y1245771D01*
X230634Y1245782D01*
X230452Y1245797D01*
X230270Y1245817D01*
X230089Y1245840D01*
X229909Y1245869D01*
X229729Y1245901D01*
X229550Y1245938D01*
X229373Y1245979D01*
X229196Y1246025D01*
X229020Y1246074D01*
X228846Y1246128D01*
X228672Y1246186D01*
X228501Y1246248D01*
X228331Y1246314D01*
X228162Y1246385D01*
X227995Y1246459D01*
X227830Y1246537D01*
X227667Y1246619D01*
X227506Y1246705D01*
X227347Y1246795D01*
X227190Y1246889D01*
X227036Y1246986D01*
X226884Y1247087D01*
X226734Y1247192D01*
X226587Y1247300D01*
X226443Y1247411D01*
X226301Y1247526D01*
X226162Y1247645D01*
X226026Y1247767D01*
X225893Y1247892D01*
X225763Y1248020D01*
X226214Y1258406D02*
X226216Y1258524D01*
X226222Y1258642D01*
X226231Y1258760D01*
X226245Y1258877D01*
X226262Y1258994D01*
X226283Y1259111D01*
X226308Y1259226D01*
X226337Y1259341D01*
X226370Y1259455D01*
X226406Y1259567D01*
X226446Y1259678D01*
X226489Y1259788D01*
X226536Y1259897D01*
X226586Y1260004D01*
X226641Y1260109D01*
X226698Y1260212D01*
X226759Y1260313D01*
X226823Y1260413D01*
X226890Y1260510D01*
X226960Y1260605D01*
X227034Y1260697D01*
X227110Y1260788D01*
X227190Y1260875D01*
X227272Y1260960D01*
X227357Y1261042D01*
X227444Y1261122D01*
X227535Y1261198D01*
X227627Y1261272D01*
X227722Y1261342D01*
X227819Y1261409D01*
X227919Y1261473D01*
X228020Y1261534D01*
X228123Y1261592D01*
X228228Y1261646D01*
X228335Y1261696D01*
X228444Y1261743D01*
X228554Y1261787D01*
X228665Y1261826D01*
X228778Y1261862D01*
X228891Y1261895D01*
X229006Y1261924D01*
X229121Y1261949D01*
X229238Y1261970D01*
X229355Y1261987D01*
X229472Y1262001D01*
X229590Y1262010D01*
X229708Y1262016D01*
X229826Y1262018D01*
X229987Y1262016D01*
X230149Y1262010D01*
X230310Y1262001D01*
X230471Y1261987D01*
X230631Y1261970D01*
X230791Y1261949D01*
X230951Y1261924D01*
X231110Y1261895D01*
X231268Y1261863D01*
X231425Y1261827D01*
X231581Y1261787D01*
X231737Y1261743D01*
X231891Y1261695D01*
X232044Y1261644D01*
X232196Y1261590D01*
X232347Y1261531D01*
X232496Y1261470D01*
X232643Y1261404D01*
X232789Y1261335D01*
X232934Y1261263D01*
X233076Y1261187D01*
X233217Y1261108D01*
X233356Y1261026D01*
X233492Y1260940D01*
X233627Y1260851D01*
X233760Y1260759D01*
X233890Y1260663D01*
X228019Y1255245D02*
X227918Y1255307D01*
X227818Y1255372D01*
X227721Y1255441D01*
X227626Y1255513D01*
X227533Y1255587D01*
X227443Y1255665D01*
X227355Y1255746D01*
X227270Y1255829D01*
X227188Y1255915D01*
X227109Y1256004D01*
X227032Y1256095D01*
X226959Y1256189D01*
X226888Y1256285D01*
X226821Y1256383D01*
X226757Y1256483D01*
X226696Y1256586D01*
X226639Y1256690D01*
X226585Y1256796D01*
X226535Y1256904D01*
X226488Y1257013D01*
X226444Y1257124D01*
X226404Y1257236D01*
X226368Y1257350D01*
X226336Y1257464D01*
X226307Y1257580D01*
X226282Y1257696D01*
X226261Y1257813D01*
X226244Y1257931D01*
X226230Y1258049D01*
X226221Y1258168D01*
X226215Y1258287D01*
X226213Y1258406D01*
X232987Y1252535D02*
X233088Y1252473D01*
X233188Y1252408D01*
X233285Y1252339D01*
X233380Y1252267D01*
X233473Y1252193D01*
X233563Y1252115D01*
X233651Y1252034D01*
X233736Y1251951D01*
X233818Y1251865D01*
X233897Y1251776D01*
X233974Y1251685D01*
X234047Y1251591D01*
X234118Y1251495D01*
X234185Y1251397D01*
X234249Y1251297D01*
X234310Y1251194D01*
X234367Y1251090D01*
X234421Y1250984D01*
X234471Y1250876D01*
X234518Y1250767D01*
X234562Y1250656D01*
X234602Y1250544D01*
X234638Y1250430D01*
X234670Y1250316D01*
X234699Y1250200D01*
X234724Y1250084D01*
X234745Y1249967D01*
X234762Y1249849D01*
X234776Y1249731D01*
X234785Y1249612D01*
X234791Y1249493D01*
X234793Y1249374D01*
X232987Y1252535D02*
X228020Y1255245D01*
X241254Y1256599D02*
X241254Y1248471D01*
X241255Y1248471D02*
X241257Y1248370D01*
X241263Y1248269D01*
X241272Y1248168D01*
X241285Y1248067D01*
X241302Y1247967D01*
X241323Y1247868D01*
X241347Y1247770D01*
X241375Y1247673D01*
X241407Y1247576D01*
X241442Y1247481D01*
X241481Y1247388D01*
X241523Y1247296D01*
X241569Y1247205D01*
X241618Y1247117D01*
X241670Y1247030D01*
X241726Y1246945D01*
X241784Y1246862D01*
X241846Y1246782D01*
X241911Y1246704D01*
X241978Y1246628D01*
X242048Y1246555D01*
X242121Y1246485D01*
X242197Y1246418D01*
X242275Y1246353D01*
X242355Y1246291D01*
X242438Y1246233D01*
X242523Y1246177D01*
X242610Y1246125D01*
X242698Y1246076D01*
X242789Y1246030D01*
X242881Y1245988D01*
X242974Y1245949D01*
X243069Y1245914D01*
X243166Y1245882D01*
X243263Y1245854D01*
X243361Y1245830D01*
X243460Y1245809D01*
X243560Y1245792D01*
X243661Y1245779D01*
X243762Y1245770D01*
X243863Y1245764D01*
X243964Y1245762D01*
X248479Y1245762D01*
X248479Y1256599D01*
X255917Y1256599D02*
X255917Y1240343D01*
X255917Y1256599D02*
X260432Y1256599D01*
X260536Y1256597D01*
X260639Y1256591D01*
X260743Y1256581D01*
X260846Y1256567D01*
X260948Y1256549D01*
X261049Y1256528D01*
X261150Y1256502D01*
X261249Y1256473D01*
X261348Y1256440D01*
X261445Y1256403D01*
X261540Y1256362D01*
X261634Y1256318D01*
X261726Y1256270D01*
X261816Y1256219D01*
X261905Y1256164D01*
X261991Y1256106D01*
X262074Y1256044D01*
X262156Y1255980D01*
X262234Y1255912D01*
X262310Y1255842D01*
X262384Y1255769D01*
X262454Y1255692D01*
X262522Y1255614D01*
X262586Y1255532D01*
X262648Y1255449D01*
X262706Y1255363D01*
X262761Y1255274D01*
X262812Y1255184D01*
X262860Y1255092D01*
X262904Y1254998D01*
X262945Y1254903D01*
X262982Y1254806D01*
X263015Y1254707D01*
X263044Y1254608D01*
X263070Y1254507D01*
X263091Y1254406D01*
X263109Y1254304D01*
X263123Y1254201D01*
X263133Y1254097D01*
X263139Y1253994D01*
X263141Y1253890D01*
X263142Y1253890D02*
X263142Y1248471D01*
X263141Y1248471D02*
X263139Y1248370D01*
X263133Y1248269D01*
X263124Y1248168D01*
X263111Y1248067D01*
X263094Y1247967D01*
X263073Y1247868D01*
X263049Y1247770D01*
X263021Y1247673D01*
X262989Y1247576D01*
X262954Y1247481D01*
X262915Y1247388D01*
X262873Y1247296D01*
X262827Y1247205D01*
X262778Y1247117D01*
X262726Y1247030D01*
X262670Y1246945D01*
X262612Y1246862D01*
X262550Y1246782D01*
X262485Y1246704D01*
X262418Y1246628D01*
X262348Y1246555D01*
X262275Y1246485D01*
X262199Y1246418D01*
X262121Y1246353D01*
X262041Y1246291D01*
X261958Y1246233D01*
X261873Y1246177D01*
X261787Y1246125D01*
X261698Y1246076D01*
X261607Y1246030D01*
X261515Y1245988D01*
X261422Y1245949D01*
X261327Y1245914D01*
X261230Y1245882D01*
X261133Y1245854D01*
X261035Y1245830D01*
X260936Y1245809D01*
X260836Y1245792D01*
X260735Y1245779D01*
X260634Y1245770D01*
X260533Y1245764D01*
X260432Y1245762D01*
X255917Y1245762D01*
X272100Y1245762D02*
X276615Y1245762D01*
X272100Y1245762D02*
X271999Y1245764D01*
X271898Y1245770D01*
X271797Y1245779D01*
X271696Y1245792D01*
X271596Y1245809D01*
X271497Y1245830D01*
X271399Y1245854D01*
X271302Y1245882D01*
X271205Y1245914D01*
X271110Y1245949D01*
X271017Y1245988D01*
X270925Y1246030D01*
X270834Y1246076D01*
X270746Y1246125D01*
X270659Y1246177D01*
X270574Y1246233D01*
X270491Y1246291D01*
X270411Y1246353D01*
X270333Y1246418D01*
X270257Y1246485D01*
X270184Y1246555D01*
X270114Y1246628D01*
X270047Y1246704D01*
X269982Y1246782D01*
X269920Y1246862D01*
X269862Y1246945D01*
X269806Y1247030D01*
X269754Y1247117D01*
X269705Y1247205D01*
X269659Y1247296D01*
X269617Y1247388D01*
X269578Y1247481D01*
X269543Y1247576D01*
X269511Y1247673D01*
X269483Y1247770D01*
X269459Y1247868D01*
X269438Y1247967D01*
X269421Y1248067D01*
X269408Y1248168D01*
X269399Y1248269D01*
X269393Y1248370D01*
X269391Y1248471D01*
X269390Y1248471D02*
X269390Y1252987D01*
X269391Y1252987D02*
X269393Y1253106D01*
X269399Y1253226D01*
X269409Y1253345D01*
X269423Y1253463D01*
X269440Y1253582D01*
X269462Y1253699D01*
X269487Y1253816D01*
X269517Y1253931D01*
X269550Y1254046D01*
X269587Y1254160D01*
X269627Y1254272D01*
X269672Y1254383D01*
X269720Y1254492D01*
X269771Y1254600D01*
X269826Y1254706D01*
X269885Y1254810D01*
X269947Y1254912D01*
X270012Y1255012D01*
X270081Y1255110D01*
X270153Y1255206D01*
X270228Y1255299D01*
X270305Y1255389D01*
X270386Y1255477D01*
X270470Y1255562D01*
X270557Y1255644D01*
X270646Y1255724D01*
X270738Y1255800D01*
X270832Y1255874D01*
X270929Y1255944D01*
X271027Y1256011D01*
X271128Y1256075D01*
X271232Y1256135D01*
X271337Y1256192D01*
X271444Y1256245D01*
X271552Y1256295D01*
X271662Y1256341D01*
X271774Y1256383D01*
X271887Y1256422D01*
X272001Y1256457D01*
X272116Y1256488D01*
X272233Y1256516D01*
X272350Y1256539D01*
X272467Y1256559D01*
X272586Y1256575D01*
X272705Y1256587D01*
X272824Y1256595D01*
X272943Y1256599D01*
X273063Y1256599D01*
X273182Y1256595D01*
X273301Y1256587D01*
X273420Y1256575D01*
X273539Y1256559D01*
X273656Y1256539D01*
X273773Y1256516D01*
X273890Y1256488D01*
X274005Y1256457D01*
X274119Y1256422D01*
X274232Y1256383D01*
X274344Y1256341D01*
X274454Y1256295D01*
X274562Y1256245D01*
X274669Y1256192D01*
X274774Y1256135D01*
X274878Y1256075D01*
X274979Y1256011D01*
X275077Y1255944D01*
X275174Y1255874D01*
X275268Y1255800D01*
X275360Y1255724D01*
X275449Y1255644D01*
X275536Y1255562D01*
X275620Y1255477D01*
X275701Y1255389D01*
X275778Y1255299D01*
X275853Y1255206D01*
X275925Y1255110D01*
X275994Y1255012D01*
X276059Y1254912D01*
X276121Y1254810D01*
X276180Y1254706D01*
X276235Y1254600D01*
X276286Y1254492D01*
X276334Y1254383D01*
X276379Y1254272D01*
X276419Y1254160D01*
X276456Y1254046D01*
X276489Y1253931D01*
X276519Y1253816D01*
X276544Y1253699D01*
X276566Y1253582D01*
X276583Y1253463D01*
X276597Y1253345D01*
X276607Y1253226D01*
X276613Y1253106D01*
X276615Y1252987D01*
X276615Y1251181D01*
X269390Y1251181D01*
X283543Y1245762D02*
X283543Y1256599D01*
X288962Y1256599D01*
X288962Y1254793D01*
X294750Y1262018D02*
X294750Y1245762D01*
X294750Y1262018D02*
X299266Y1262018D01*
X299399Y1262016D01*
X299531Y1262010D01*
X299663Y1262000D01*
X299795Y1261987D01*
X299927Y1261969D01*
X300057Y1261948D01*
X300188Y1261923D01*
X300317Y1261894D01*
X300445Y1261861D01*
X300573Y1261825D01*
X300699Y1261785D01*
X300824Y1261741D01*
X300948Y1261693D01*
X301070Y1261642D01*
X301191Y1261587D01*
X301310Y1261529D01*
X301428Y1261467D01*
X301543Y1261402D01*
X301657Y1261333D01*
X301768Y1261262D01*
X301877Y1261186D01*
X301984Y1261108D01*
X302089Y1261027D01*
X302191Y1260942D01*
X302291Y1260855D01*
X302388Y1260765D01*
X302483Y1260672D01*
X302574Y1260576D01*
X302663Y1260478D01*
X302749Y1260377D01*
X302832Y1260273D01*
X302912Y1260167D01*
X302988Y1260059D01*
X303062Y1259949D01*
X303132Y1259836D01*
X303199Y1259722D01*
X303262Y1259605D01*
X303322Y1259487D01*
X303379Y1259367D01*
X303432Y1259245D01*
X303481Y1259122D01*
X303527Y1258998D01*
X303569Y1258872D01*
X303607Y1258745D01*
X303642Y1258617D01*
X303673Y1258488D01*
X303700Y1258359D01*
X303723Y1258228D01*
X303743Y1258097D01*
X303758Y1257965D01*
X303770Y1257833D01*
X303778Y1257701D01*
X303782Y1257568D01*
X303782Y1257436D01*
X303778Y1257303D01*
X303770Y1257171D01*
X303758Y1257039D01*
X303743Y1256907D01*
X303723Y1256776D01*
X303700Y1256645D01*
X303673Y1256516D01*
X303642Y1256387D01*
X303607Y1256259D01*
X303569Y1256132D01*
X303527Y1256006D01*
X303481Y1255882D01*
X303432Y1255759D01*
X303379Y1255637D01*
X303322Y1255517D01*
X303262Y1255399D01*
X303199Y1255282D01*
X303132Y1255168D01*
X303062Y1255055D01*
X302988Y1254945D01*
X302912Y1254837D01*
X302832Y1254731D01*
X302749Y1254627D01*
X302663Y1254526D01*
X302574Y1254428D01*
X302483Y1254332D01*
X302388Y1254239D01*
X302291Y1254149D01*
X302191Y1254062D01*
X302089Y1253977D01*
X301984Y1253896D01*
X301877Y1253818D01*
X301768Y1253742D01*
X301657Y1253671D01*
X301543Y1253602D01*
X301428Y1253537D01*
X301310Y1253475D01*
X301191Y1253417D01*
X301070Y1253362D01*
X300948Y1253311D01*
X300824Y1253263D01*
X300699Y1253219D01*
X300573Y1253179D01*
X300445Y1253143D01*
X300317Y1253110D01*
X300188Y1253081D01*
X300057Y1253056D01*
X299927Y1253035D01*
X299795Y1253017D01*
X299663Y1253004D01*
X299531Y1252994D01*
X299399Y1252988D01*
X299266Y1252986D01*
X299266Y1252987D02*
X294750Y1252987D01*
X309511Y1252987D02*
X309511Y1249374D01*
X309511Y1252987D02*
X309513Y1253106D01*
X309519Y1253226D01*
X309529Y1253345D01*
X309543Y1253463D01*
X309560Y1253582D01*
X309582Y1253699D01*
X309607Y1253816D01*
X309637Y1253931D01*
X309670Y1254046D01*
X309707Y1254160D01*
X309747Y1254272D01*
X309792Y1254383D01*
X309840Y1254492D01*
X309891Y1254600D01*
X309946Y1254706D01*
X310005Y1254810D01*
X310067Y1254912D01*
X310132Y1255012D01*
X310201Y1255110D01*
X310273Y1255206D01*
X310348Y1255299D01*
X310425Y1255389D01*
X310506Y1255477D01*
X310590Y1255562D01*
X310677Y1255644D01*
X310766Y1255724D01*
X310858Y1255800D01*
X310952Y1255874D01*
X311049Y1255944D01*
X311147Y1256011D01*
X311248Y1256075D01*
X311352Y1256135D01*
X311457Y1256192D01*
X311564Y1256245D01*
X311672Y1256295D01*
X311782Y1256341D01*
X311894Y1256383D01*
X312007Y1256422D01*
X312121Y1256457D01*
X312236Y1256488D01*
X312353Y1256516D01*
X312470Y1256539D01*
X312587Y1256559D01*
X312706Y1256575D01*
X312825Y1256587D01*
X312944Y1256595D01*
X313063Y1256599D01*
X313183Y1256599D01*
X313302Y1256595D01*
X313421Y1256587D01*
X313540Y1256575D01*
X313659Y1256559D01*
X313776Y1256539D01*
X313893Y1256516D01*
X314010Y1256488D01*
X314125Y1256457D01*
X314239Y1256422D01*
X314352Y1256383D01*
X314464Y1256341D01*
X314574Y1256295D01*
X314682Y1256245D01*
X314789Y1256192D01*
X314894Y1256135D01*
X314998Y1256075D01*
X315099Y1256011D01*
X315197Y1255944D01*
X315294Y1255874D01*
X315388Y1255800D01*
X315480Y1255724D01*
X315569Y1255644D01*
X315656Y1255562D01*
X315740Y1255477D01*
X315821Y1255389D01*
X315898Y1255299D01*
X315973Y1255206D01*
X316045Y1255110D01*
X316114Y1255012D01*
X316179Y1254912D01*
X316241Y1254810D01*
X316300Y1254706D01*
X316355Y1254600D01*
X316406Y1254492D01*
X316454Y1254383D01*
X316499Y1254272D01*
X316539Y1254160D01*
X316576Y1254046D01*
X316609Y1253931D01*
X316639Y1253816D01*
X316664Y1253699D01*
X316686Y1253582D01*
X316703Y1253463D01*
X316717Y1253345D01*
X316727Y1253226D01*
X316733Y1253106D01*
X316735Y1252987D01*
X316735Y1249374D01*
X316733Y1249255D01*
X316727Y1249135D01*
X316717Y1249016D01*
X316703Y1248898D01*
X316686Y1248779D01*
X316664Y1248662D01*
X316639Y1248545D01*
X316609Y1248430D01*
X316576Y1248315D01*
X316539Y1248201D01*
X316499Y1248089D01*
X316454Y1247978D01*
X316406Y1247869D01*
X316355Y1247761D01*
X316300Y1247655D01*
X316241Y1247551D01*
X316179Y1247449D01*
X316114Y1247349D01*
X316045Y1247251D01*
X315973Y1247155D01*
X315898Y1247062D01*
X315821Y1246972D01*
X315740Y1246884D01*
X315656Y1246799D01*
X315569Y1246717D01*
X315480Y1246637D01*
X315388Y1246561D01*
X315294Y1246487D01*
X315197Y1246417D01*
X315099Y1246350D01*
X314998Y1246286D01*
X314894Y1246226D01*
X314789Y1246169D01*
X314682Y1246116D01*
X314574Y1246066D01*
X314464Y1246020D01*
X314352Y1245978D01*
X314239Y1245939D01*
X314125Y1245904D01*
X314010Y1245873D01*
X313893Y1245845D01*
X313776Y1245822D01*
X313659Y1245802D01*
X313540Y1245786D01*
X313421Y1245774D01*
X313302Y1245766D01*
X313183Y1245762D01*
X313063Y1245762D01*
X312944Y1245766D01*
X312825Y1245774D01*
X312706Y1245786D01*
X312587Y1245802D01*
X312470Y1245822D01*
X312353Y1245845D01*
X312236Y1245873D01*
X312121Y1245904D01*
X312007Y1245939D01*
X311894Y1245978D01*
X311782Y1246020D01*
X311672Y1246066D01*
X311564Y1246116D01*
X311457Y1246169D01*
X311352Y1246226D01*
X311248Y1246286D01*
X311147Y1246350D01*
X311049Y1246417D01*
X310952Y1246487D01*
X310858Y1246561D01*
X310766Y1246637D01*
X310677Y1246717D01*
X310590Y1246799D01*
X310506Y1246884D01*
X310425Y1246972D01*
X310348Y1247062D01*
X310273Y1247155D01*
X310201Y1247251D01*
X310132Y1247349D01*
X310067Y1247449D01*
X310005Y1247551D01*
X309946Y1247655D01*
X309891Y1247761D01*
X309840Y1247869D01*
X309792Y1247978D01*
X309747Y1248089D01*
X309707Y1248201D01*
X309670Y1248315D01*
X309637Y1248430D01*
X309607Y1248545D01*
X309582Y1248662D01*
X309560Y1248779D01*
X309543Y1248898D01*
X309529Y1249016D01*
X309519Y1249135D01*
X309513Y1249255D01*
X309511Y1249374D01*
X324412Y1252084D02*
X328928Y1250278D01*
X324412Y1252084D02*
X324324Y1252121D01*
X324238Y1252162D01*
X324153Y1252206D01*
X324070Y1252254D01*
X323990Y1252305D01*
X323911Y1252359D01*
X323835Y1252417D01*
X323761Y1252477D01*
X323689Y1252541D01*
X323621Y1252607D01*
X323555Y1252677D01*
X323492Y1252748D01*
X323431Y1252823D01*
X323374Y1252899D01*
X323321Y1252978D01*
X323270Y1253059D01*
X323223Y1253142D01*
X323179Y1253227D01*
X323139Y1253314D01*
X323102Y1253402D01*
X323069Y1253492D01*
X323039Y1253583D01*
X323014Y1253675D01*
X322992Y1253768D01*
X322974Y1253862D01*
X322959Y1253956D01*
X322949Y1254051D01*
X322943Y1254147D01*
X322940Y1254242D01*
X322941Y1254338D01*
X322947Y1254433D01*
X322956Y1254529D01*
X322969Y1254623D01*
X322985Y1254717D01*
X323006Y1254811D01*
X323031Y1254903D01*
X323059Y1254994D01*
X323091Y1255084D01*
X323126Y1255173D01*
X323165Y1255260D01*
X323208Y1255346D01*
X323254Y1255430D01*
X323304Y1255511D01*
X323356Y1255591D01*
X323412Y1255669D01*
X323472Y1255744D01*
X323534Y1255816D01*
X323599Y1255886D01*
X323667Y1255954D01*
X323737Y1256018D01*
X323810Y1256080D01*
X323886Y1256138D01*
X323964Y1256194D01*
X324044Y1256246D01*
X324126Y1256295D01*
X324210Y1256340D01*
X324296Y1256382D01*
X324383Y1256421D01*
X324472Y1256456D01*
X324563Y1256487D01*
X324654Y1256514D01*
X324747Y1256538D01*
X324840Y1256558D01*
X324934Y1256574D01*
X325029Y1256586D01*
X325124Y1256595D01*
X325220Y1256599D01*
X325315Y1256600D01*
X325562Y1256593D01*
X325808Y1256581D01*
X326054Y1256563D01*
X326300Y1256538D01*
X326544Y1256508D01*
X326788Y1256472D01*
X327031Y1256431D01*
X327273Y1256383D01*
X327514Y1256329D01*
X327753Y1256270D01*
X327991Y1256205D01*
X328227Y1256134D01*
X328462Y1256058D01*
X328695Y1255976D01*
X328925Y1255888D01*
X329153Y1255795D01*
X329380Y1255697D01*
X328928Y1250277D02*
X329016Y1250240D01*
X329102Y1250199D01*
X329187Y1250155D01*
X329270Y1250107D01*
X329350Y1250056D01*
X329429Y1250002D01*
X329505Y1249944D01*
X329579Y1249884D01*
X329651Y1249820D01*
X329719Y1249754D01*
X329785Y1249684D01*
X329848Y1249613D01*
X329909Y1249538D01*
X329966Y1249462D01*
X330019Y1249383D01*
X330070Y1249302D01*
X330117Y1249219D01*
X330161Y1249134D01*
X330201Y1249047D01*
X330238Y1248959D01*
X330271Y1248869D01*
X330301Y1248778D01*
X330326Y1248686D01*
X330348Y1248593D01*
X330366Y1248499D01*
X330381Y1248405D01*
X330391Y1248310D01*
X330397Y1248214D01*
X330400Y1248119D01*
X330399Y1248023D01*
X330393Y1247928D01*
X330384Y1247832D01*
X330371Y1247738D01*
X330355Y1247644D01*
X330334Y1247550D01*
X330309Y1247458D01*
X330281Y1247367D01*
X330249Y1247277D01*
X330214Y1247188D01*
X330175Y1247101D01*
X330132Y1247015D01*
X330086Y1246931D01*
X330036Y1246850D01*
X329984Y1246770D01*
X329928Y1246692D01*
X329868Y1246617D01*
X329806Y1246545D01*
X329741Y1246475D01*
X329673Y1246407D01*
X329603Y1246343D01*
X329530Y1246281D01*
X329454Y1246223D01*
X329376Y1246167D01*
X329296Y1246115D01*
X329214Y1246066D01*
X329130Y1246021D01*
X329044Y1245979D01*
X328957Y1245940D01*
X328868Y1245905D01*
X328777Y1245874D01*
X328686Y1245847D01*
X328593Y1245823D01*
X328500Y1245803D01*
X328406Y1245787D01*
X328311Y1245775D01*
X328216Y1245766D01*
X328120Y1245762D01*
X328025Y1245761D01*
X328024Y1245762D02*
X327662Y1245771D01*
X327300Y1245789D01*
X326939Y1245816D01*
X326579Y1245851D01*
X326219Y1245894D01*
X325860Y1245946D01*
X325503Y1246007D01*
X325148Y1246076D01*
X324794Y1246153D01*
X324442Y1246239D01*
X324092Y1246333D01*
X323744Y1246436D01*
X323399Y1246546D01*
X323057Y1246665D01*
X336570Y1245762D02*
X336570Y1256599D01*
X336118Y1261115D02*
X336118Y1262018D01*
X337021Y1262018D01*
X337021Y1261115D01*
X336118Y1261115D01*
X341560Y1256599D02*
X346979Y1256599D01*
X343366Y1262018D02*
X343366Y1248471D01*
X343368Y1248370D01*
X343374Y1248269D01*
X343383Y1248168D01*
X343396Y1248067D01*
X343413Y1247967D01*
X343434Y1247868D01*
X343458Y1247770D01*
X343486Y1247673D01*
X343518Y1247576D01*
X343553Y1247481D01*
X343592Y1247388D01*
X343634Y1247296D01*
X343680Y1247205D01*
X343729Y1247117D01*
X343781Y1247030D01*
X343837Y1246945D01*
X343895Y1246862D01*
X343957Y1246782D01*
X344022Y1246704D01*
X344089Y1246628D01*
X344159Y1246555D01*
X344232Y1246485D01*
X344308Y1246418D01*
X344386Y1246353D01*
X344466Y1246291D01*
X344549Y1246233D01*
X344634Y1246177D01*
X344721Y1246125D01*
X344809Y1246076D01*
X344900Y1246030D01*
X344992Y1245988D01*
X345085Y1245949D01*
X345180Y1245914D01*
X345277Y1245882D01*
X345374Y1245854D01*
X345472Y1245830D01*
X345571Y1245809D01*
X345671Y1245792D01*
X345772Y1245779D01*
X345873Y1245770D01*
X345974Y1245764D01*
X346075Y1245762D01*
X346979Y1245762D01*
X352722Y1245762D02*
X352722Y1256599D01*
X352271Y1261115D02*
X352271Y1262018D01*
X353174Y1262018D01*
X353174Y1261115D01*
X352271Y1261115D01*
X359009Y1252987D02*
X359009Y1249374D01*
X359010Y1252987D02*
X359012Y1253106D01*
X359018Y1253226D01*
X359028Y1253345D01*
X359042Y1253463D01*
X359059Y1253582D01*
X359081Y1253699D01*
X359106Y1253816D01*
X359136Y1253931D01*
X359169Y1254046D01*
X359206Y1254160D01*
X359246Y1254272D01*
X359291Y1254383D01*
X359339Y1254492D01*
X359390Y1254600D01*
X359445Y1254706D01*
X359504Y1254810D01*
X359566Y1254912D01*
X359631Y1255012D01*
X359700Y1255110D01*
X359772Y1255206D01*
X359847Y1255299D01*
X359924Y1255389D01*
X360005Y1255477D01*
X360089Y1255562D01*
X360176Y1255644D01*
X360265Y1255724D01*
X360357Y1255800D01*
X360451Y1255874D01*
X360548Y1255944D01*
X360646Y1256011D01*
X360747Y1256075D01*
X360851Y1256135D01*
X360956Y1256192D01*
X361063Y1256245D01*
X361171Y1256295D01*
X361281Y1256341D01*
X361393Y1256383D01*
X361506Y1256422D01*
X361620Y1256457D01*
X361735Y1256488D01*
X361852Y1256516D01*
X361969Y1256539D01*
X362086Y1256559D01*
X362205Y1256575D01*
X362324Y1256587D01*
X362443Y1256595D01*
X362562Y1256599D01*
X362682Y1256599D01*
X362801Y1256595D01*
X362920Y1256587D01*
X363039Y1256575D01*
X363158Y1256559D01*
X363275Y1256539D01*
X363392Y1256516D01*
X363509Y1256488D01*
X363624Y1256457D01*
X363738Y1256422D01*
X363851Y1256383D01*
X363963Y1256341D01*
X364073Y1256295D01*
X364181Y1256245D01*
X364288Y1256192D01*
X364393Y1256135D01*
X364497Y1256075D01*
X364598Y1256011D01*
X364696Y1255944D01*
X364793Y1255874D01*
X364887Y1255800D01*
X364979Y1255724D01*
X365068Y1255644D01*
X365155Y1255562D01*
X365239Y1255477D01*
X365320Y1255389D01*
X365397Y1255299D01*
X365472Y1255206D01*
X365544Y1255110D01*
X365613Y1255012D01*
X365678Y1254912D01*
X365740Y1254810D01*
X365799Y1254706D01*
X365854Y1254600D01*
X365905Y1254492D01*
X365953Y1254383D01*
X365998Y1254272D01*
X366038Y1254160D01*
X366075Y1254046D01*
X366108Y1253931D01*
X366138Y1253816D01*
X366163Y1253699D01*
X366185Y1253582D01*
X366202Y1253463D01*
X366216Y1253345D01*
X366226Y1253226D01*
X366232Y1253106D01*
X366234Y1252987D01*
X366234Y1249374D01*
X366232Y1249255D01*
X366226Y1249135D01*
X366216Y1249016D01*
X366202Y1248898D01*
X366185Y1248779D01*
X366163Y1248662D01*
X366138Y1248545D01*
X366108Y1248430D01*
X366075Y1248315D01*
X366038Y1248201D01*
X365998Y1248089D01*
X365953Y1247978D01*
X365905Y1247869D01*
X365854Y1247761D01*
X365799Y1247655D01*
X365740Y1247551D01*
X365678Y1247449D01*
X365613Y1247349D01*
X365544Y1247251D01*
X365472Y1247155D01*
X365397Y1247062D01*
X365320Y1246972D01*
X365239Y1246884D01*
X365155Y1246799D01*
X365068Y1246717D01*
X364979Y1246637D01*
X364887Y1246561D01*
X364793Y1246487D01*
X364696Y1246417D01*
X364598Y1246350D01*
X364497Y1246286D01*
X364393Y1246226D01*
X364288Y1246169D01*
X364181Y1246116D01*
X364073Y1246066D01*
X363963Y1246020D01*
X363851Y1245978D01*
X363738Y1245939D01*
X363624Y1245904D01*
X363509Y1245873D01*
X363392Y1245845D01*
X363275Y1245822D01*
X363158Y1245802D01*
X363039Y1245786D01*
X362920Y1245774D01*
X362801Y1245766D01*
X362682Y1245762D01*
X362562Y1245762D01*
X362443Y1245766D01*
X362324Y1245774D01*
X362205Y1245786D01*
X362086Y1245802D01*
X361969Y1245822D01*
X361852Y1245845D01*
X361735Y1245873D01*
X361620Y1245904D01*
X361506Y1245939D01*
X361393Y1245978D01*
X361281Y1246020D01*
X361171Y1246066D01*
X361063Y1246116D01*
X360956Y1246169D01*
X360851Y1246226D01*
X360747Y1246286D01*
X360646Y1246350D01*
X360548Y1246417D01*
X360451Y1246487D01*
X360357Y1246561D01*
X360265Y1246637D01*
X360176Y1246717D01*
X360089Y1246799D01*
X360005Y1246884D01*
X359924Y1246972D01*
X359847Y1247062D01*
X359772Y1247155D01*
X359700Y1247251D01*
X359631Y1247349D01*
X359566Y1247449D01*
X359504Y1247551D01*
X359445Y1247655D01*
X359390Y1247761D01*
X359339Y1247869D01*
X359291Y1247978D01*
X359246Y1248089D01*
X359206Y1248201D01*
X359169Y1248315D01*
X359136Y1248430D01*
X359106Y1248545D01*
X359081Y1248662D01*
X359059Y1248779D01*
X359042Y1248898D01*
X359028Y1249016D01*
X359018Y1249135D01*
X359012Y1249255D01*
X359010Y1249374D01*
X373078Y1245762D02*
X373078Y1256599D01*
X377593Y1256599D01*
X377697Y1256597D01*
X377800Y1256591D01*
X377904Y1256581D01*
X378007Y1256567D01*
X378109Y1256549D01*
X378210Y1256528D01*
X378311Y1256502D01*
X378410Y1256473D01*
X378509Y1256440D01*
X378606Y1256403D01*
X378701Y1256362D01*
X378795Y1256318D01*
X378887Y1256270D01*
X378977Y1256219D01*
X379066Y1256164D01*
X379152Y1256106D01*
X379235Y1256044D01*
X379317Y1255980D01*
X379395Y1255912D01*
X379471Y1255842D01*
X379545Y1255769D01*
X379615Y1255692D01*
X379683Y1255614D01*
X379747Y1255532D01*
X379809Y1255449D01*
X379867Y1255363D01*
X379922Y1255274D01*
X379973Y1255184D01*
X380021Y1255092D01*
X380065Y1254998D01*
X380106Y1254903D01*
X380143Y1254806D01*
X380176Y1254707D01*
X380205Y1254608D01*
X380231Y1254507D01*
X380252Y1254406D01*
X380270Y1254304D01*
X380284Y1254201D01*
X380294Y1254097D01*
X380300Y1253994D01*
X380302Y1253890D01*
X380302Y1245762D01*
M02*
