G04 EAGLE Gerber RS-274X export*
G75*
%MOMM*%
%FSLAX34Y34*%
%LPD*%
%INBottom Copper*%
%IPPOS*%
%AMOC8*
5,1,8,0,0,1.08239X$1,22.5*%
G01*
%ADD10C,1.676400*%
%ADD11R,1.508000X1.508000*%
%ADD12R,3.216000X3.216000*%
%ADD13P,1.649562X8X112.500000*%
%ADD14C,1.473200*%
%ADD15R,1.930400X1.930400*%
%ADD16C,1.930400*%
%ADD17C,1.650000*%
%ADD18C,1.524000*%
%ADD19C,1.508000*%
%ADD20R,1.267000X1.267000*%
%ADD21C,1.267000*%
%ADD22R,0.900000X0.350000*%
%ADD23R,1.238000X1.238000*%
%ADD24C,1.238000*%
%ADD25R,1.500000X1.300000*%
%ADD26R,1.300000X1.500000*%
%ADD27C,0.152400*%
%ADD28C,0.756400*%


D10*
X26120Y222750D03*
X127720Y222750D03*
D11*
X62350Y681920D03*
X87350Y681920D03*
X112350Y681920D03*
X62350Y826920D03*
X112350Y826920D03*
D12*
X26350Y756920D03*
X148350Y756920D03*
D13*
X63310Y40450D03*
X63310Y65850D03*
X63310Y91250D03*
X63310Y116650D03*
X63310Y142050D03*
X88710Y40450D03*
X88710Y65850D03*
X88710Y91250D03*
X88710Y116650D03*
X88710Y142050D03*
D14*
X356160Y556610D03*
X356160Y531210D03*
X356160Y505810D03*
X356160Y480410D03*
X356160Y455010D03*
X356160Y429610D03*
X356160Y404210D03*
X356160Y378810D03*
X356160Y353410D03*
X356160Y328010D03*
X356160Y302610D03*
X356160Y277210D03*
X203760Y277210D03*
X203760Y302610D03*
X203760Y328010D03*
X203760Y353410D03*
X203760Y378810D03*
X203760Y404210D03*
X203760Y429610D03*
X203760Y455010D03*
X203760Y480410D03*
X203760Y505810D03*
X203760Y531210D03*
X356160Y582010D03*
X203760Y556610D03*
X203760Y582010D03*
X356160Y607410D03*
X203760Y607410D03*
X356160Y251810D03*
X203760Y251810D03*
X356160Y226410D03*
X356160Y201010D03*
X356160Y175610D03*
X356160Y150210D03*
X356160Y124810D03*
X356160Y99410D03*
X356160Y74010D03*
X356160Y48610D03*
X356160Y23210D03*
X203760Y23210D03*
X203760Y48610D03*
X203760Y74010D03*
X203760Y99410D03*
X203760Y124810D03*
X203760Y150210D03*
X203760Y175610D03*
X203760Y201010D03*
X203760Y226410D03*
X229160Y582010D03*
X229160Y531210D03*
X229160Y505810D03*
X229160Y480410D03*
D15*
X127660Y197744D03*
D16*
X150520Y197744D03*
D15*
X173380Y197744D03*
D17*
X551180Y855002D03*
X551180Y940002D03*
X551180Y970002D03*
X250190Y1085050D03*
X250190Y1000050D03*
X250190Y970050D03*
X149860Y1085050D03*
X149860Y1000050D03*
X149860Y970050D03*
X49530Y1085050D03*
X49530Y1000050D03*
X49530Y970050D03*
X450850Y855002D03*
X450850Y940002D03*
X450850Y970002D03*
X350520Y855002D03*
X350520Y940002D03*
X350520Y970002D03*
X250190Y855002D03*
X250190Y940002D03*
X250190Y970002D03*
X149860Y855002D03*
X149860Y940002D03*
X149860Y970002D03*
X49530Y855002D03*
X49530Y940002D03*
X49530Y970002D03*
X551180Y1085050D03*
X551180Y1000050D03*
X551180Y970050D03*
X450850Y1085050D03*
X450850Y1000050D03*
X450850Y970050D03*
X350520Y1085050D03*
X350520Y1000050D03*
X350520Y970050D03*
D18*
X127582Y614364D02*
X112342Y614364D01*
X112342Y659576D02*
X127582Y659576D01*
X62558Y614364D02*
X47318Y614364D01*
X47318Y659576D02*
X62558Y659576D01*
X537772Y614164D02*
X553012Y614164D01*
X553012Y659376D02*
X537772Y659376D01*
X487988Y614164D02*
X472748Y614164D01*
X472748Y659376D02*
X487988Y659376D01*
D11*
X487780Y681820D03*
X512780Y681820D03*
X537780Y681820D03*
X487780Y826820D03*
X537780Y826820D03*
D12*
X451780Y756820D03*
X573780Y756820D03*
D11*
X223250Y821600D03*
D19*
X248650Y821600D03*
X274050Y821600D03*
X299450Y821600D03*
X324850Y821600D03*
X350250Y821600D03*
X375650Y821600D03*
D20*
X60950Y571200D03*
D21*
X60950Y545800D03*
X60950Y520400D03*
X60950Y495000D03*
X60950Y469600D03*
X60950Y444200D03*
X60950Y418800D03*
X139050Y418800D03*
X139050Y444200D03*
X139050Y469600D03*
X139050Y495000D03*
X139050Y520400D03*
X139050Y545800D03*
X139050Y571200D03*
D11*
X25400Y351080D03*
X25400Y325680D03*
X25400Y300280D03*
X25400Y274880D03*
X25400Y249480D03*
D22*
X431250Y97250D03*
X431250Y103750D03*
X431250Y110250D03*
X431250Y116750D03*
X431250Y123250D03*
X431250Y129750D03*
X431250Y136250D03*
X431250Y142750D03*
X488750Y142750D03*
X488750Y136250D03*
X488750Y129750D03*
X488750Y123250D03*
X488750Y116750D03*
X488750Y110250D03*
X488750Y103750D03*
X488750Y97250D03*
D23*
X479200Y341200D03*
D24*
X479200Y315800D03*
X479200Y290400D03*
X479200Y265000D03*
X479200Y239600D03*
X479200Y214200D03*
X479200Y188800D03*
X558600Y188800D03*
X558600Y214200D03*
X558600Y239600D03*
X558600Y265000D03*
X558600Y290400D03*
X558600Y315800D03*
X558600Y341200D03*
D23*
X455300Y541200D03*
D24*
X455300Y515800D03*
X455300Y490400D03*
X455300Y465000D03*
X455300Y439600D03*
X455300Y414200D03*
X455300Y388800D03*
X534700Y388800D03*
X534700Y414200D03*
X534700Y439600D03*
X534700Y465000D03*
X534700Y490400D03*
X534700Y515800D03*
X534700Y541200D03*
D10*
X550000Y120800D03*
X550000Y19200D03*
D25*
X100000Y1031500D03*
X100000Y1048500D03*
X200000Y1048500D03*
X200000Y1031500D03*
X100000Y903500D03*
X100000Y886500D03*
X200000Y886500D03*
X200000Y903500D03*
X300000Y1031500D03*
X300000Y1048500D03*
X400000Y1031500D03*
X400000Y1048500D03*
X580000Y1031500D03*
X580000Y1048500D03*
X500000Y1031500D03*
X500000Y1048500D03*
X300000Y886500D03*
X300000Y903500D03*
X400000Y886500D03*
X400000Y903500D03*
X500000Y886500D03*
X500000Y903500D03*
X580000Y886500D03*
X580000Y903500D03*
X480000Y521500D03*
X480000Y538500D03*
X465000Y588500D03*
X465000Y571500D03*
X495000Y588500D03*
X495000Y571500D03*
X480000Y408500D03*
X480000Y391500D03*
X510000Y391500D03*
X510000Y408500D03*
X560000Y571500D03*
X560000Y588500D03*
D26*
X103500Y570000D03*
X86500Y570000D03*
D25*
X85000Y438500D03*
X85000Y421500D03*
X165000Y461500D03*
X165000Y478500D03*
X115000Y438500D03*
X115000Y421500D03*
D26*
X38500Y560000D03*
X21500Y560000D03*
X21500Y535000D03*
X38500Y535000D03*
X21500Y510000D03*
X38500Y510000D03*
X38500Y485000D03*
X21500Y485000D03*
X411500Y185000D03*
X428500Y185000D03*
X411500Y265000D03*
X428500Y265000D03*
X428500Y360000D03*
X411500Y360000D03*
X428500Y415000D03*
X411500Y415000D03*
D25*
X505000Y326500D03*
X505000Y343500D03*
X500000Y208500D03*
X500000Y191500D03*
X535000Y191500D03*
X535000Y208500D03*
X535000Y343500D03*
X535000Y326500D03*
X525000Y571500D03*
X525000Y588500D03*
X510000Y538500D03*
X510000Y521500D03*
D27*
X88710Y116650D02*
X88710Y115000D01*
X88710Y90000D01*
X88710Y85000D01*
X88710Y65850D02*
X63310Y65850D01*
X63310Y116650D01*
X64960Y115000D01*
X88710Y115000D01*
X63310Y116650D02*
X45277Y116650D01*
X10922Y194323D02*
X10922Y300000D01*
X10922Y194323D02*
X45277Y159968D01*
X25120Y300000D02*
X10922Y300000D01*
X25120Y300000D02*
X25400Y300280D01*
X45277Y439322D02*
X45277Y459968D01*
X30678Y474567D01*
X10922Y404967D02*
X10922Y300000D01*
X20433Y474567D02*
X30678Y474567D01*
X20433Y474567D02*
X20000Y475000D01*
X45277Y439322D02*
X10922Y404967D01*
X21500Y572273D02*
X29277Y580050D01*
X49716Y739893D02*
X49716Y773947D01*
X43377Y780286D01*
X49716Y739893D02*
X29277Y719454D01*
X20636Y780286D02*
X43377Y780286D01*
X20636Y780286D02*
X15922Y785000D01*
X29277Y600000D02*
X29277Y580050D01*
X29277Y600000D02*
X29277Y660000D01*
X29277Y705000D01*
X29277Y719454D01*
X15922Y785000D02*
X15922Y841727D01*
X15922Y970000D01*
X55000Y970000D01*
X54950Y970050D01*
X49530Y970050D01*
X49530Y1000050D01*
X49530Y970050D02*
X49530Y940002D01*
X49530Y970050D02*
X149860Y970050D01*
X150000Y970050D02*
X355000Y970050D01*
X450850Y970050D01*
X455000Y970050D01*
X527780Y970050D01*
X530000Y970050D02*
X551132Y970050D01*
X551180Y970002D01*
X149860Y970002D02*
X149860Y1000050D01*
X150000Y940142D02*
X149860Y940002D01*
X150000Y940142D02*
X150000Y970050D01*
X54938Y659576D02*
X29701Y659576D01*
X29277Y660000D01*
X54938Y659576D02*
X119962Y659576D01*
X119962Y654576D01*
X150520Y197744D02*
X150000Y197224D01*
X150000Y115000D01*
X90360Y115000D02*
X88710Y116650D01*
X88710Y115000D02*
X90360Y115000D01*
X150000Y115000D01*
X527780Y836820D02*
X527780Y970050D01*
X527780Y836820D02*
X537780Y826820D01*
X512780Y681820D02*
X512780Y662220D01*
X515624Y659376D02*
X545392Y659376D01*
X515624Y659376D02*
X512780Y662220D01*
X510000Y659376D02*
X515624Y659376D01*
X510000Y659376D02*
X480368Y659376D01*
X512780Y662156D02*
X512780Y681820D01*
X512780Y662156D02*
X510000Y659376D01*
X223250Y821600D02*
X223250Y841727D01*
X97543Y841727D01*
X15922Y841727D01*
X97543Y841727D02*
X112350Y826920D01*
X64270Y705000D02*
X87350Y681920D01*
X64270Y705000D02*
X29277Y705000D01*
X230000Y610000D02*
X230000Y608250D01*
X203760Y582010D01*
D28*
X230000Y610000D03*
D27*
X150000Y115000D02*
X150000Y85000D01*
D28*
X255000Y85000D03*
D27*
X150000Y85000D02*
X88710Y85000D01*
X150000Y85000D02*
X255000Y85000D01*
D28*
X315000Y85000D03*
D27*
X488750Y110250D02*
X489000Y110000D01*
X500000Y80000D02*
X320000Y80000D01*
X315000Y85000D01*
X500000Y80000D02*
X500000Y110000D01*
X488750Y110250D02*
X488500Y110000D01*
X489000Y110000D02*
X500000Y110000D01*
D28*
X380000Y510000D03*
D27*
X380000Y495000D02*
X411500Y463500D01*
X380000Y495000D02*
X380000Y510000D01*
X411500Y463500D02*
X411500Y415000D01*
X411500Y360000D01*
X411500Y265000D01*
X411500Y185000D01*
X170000Y600000D02*
X29277Y600000D01*
X170000Y600000D02*
X185770Y600000D01*
X203760Y582010D01*
X120386Y660000D02*
X119962Y659576D01*
D28*
X170000Y600000D03*
D27*
X21500Y485000D02*
X20433Y483933D01*
X20433Y474567D01*
X21500Y485000D02*
X21500Y510000D01*
X21500Y535000D01*
X21500Y560000D01*
X21500Y572273D01*
X380000Y510000D02*
X458500Y588500D01*
X465000Y588500D01*
X495000Y588500D01*
X525000Y588500D01*
X560000Y588500D01*
X150000Y970050D02*
X149860Y970050D01*
X250190Y970002D02*
X354952Y970002D01*
X355000Y970050D01*
X350520Y970002D02*
X454952Y970002D01*
X455000Y970050D01*
X584198Y701009D02*
X584198Y610000D01*
X584198Y701009D02*
X540414Y744793D01*
X540414Y824186D02*
X537780Y826820D01*
X540414Y824186D02*
X540414Y745000D01*
X540414Y744793D01*
X584198Y610000D02*
X571433Y597235D01*
X562698Y588500D01*
X560000Y588500D01*
X575000Y80000D02*
X500000Y80000D01*
X575000Y80000D02*
X575000Y119723D01*
X575032Y119723D01*
X555433Y139322D01*
X555433Y160658D01*
X587246Y192471D01*
X587246Y417754D01*
X570032Y424723D02*
X555433Y439322D01*
X555433Y459968D01*
X570032Y424723D02*
X580277Y424723D01*
X585000Y489535D02*
X585000Y570000D01*
X585000Y489535D02*
X555433Y459968D01*
X585000Y570000D02*
X584277Y570723D01*
X580760Y570723D01*
X571433Y580050D01*
X580277Y424723D02*
X587246Y417754D01*
X571433Y580050D02*
X571433Y597235D01*
X87460Y91250D02*
X63310Y91250D01*
X87460Y91250D02*
X88710Y90000D01*
X88710Y91250D02*
X88710Y65850D01*
X89560Y65000D01*
X150000Y65000D01*
X150000Y85000D01*
X63310Y65850D02*
X45850Y65850D01*
X45277Y65277D01*
X45000Y65000D01*
X45277Y65277D02*
X45277Y90000D01*
X45277Y116650D01*
X63310Y91250D02*
X62060Y90000D01*
X45277Y90000D01*
X45277Y116650D02*
X45277Y159968D01*
X512780Y681820D02*
X512780Y717366D01*
X510207Y714793D01*
X512780Y717366D02*
X540414Y745000D01*
X551180Y970050D02*
X527780Y970050D01*
X416110Y714793D02*
X356160Y654843D01*
X356160Y607410D01*
X416110Y714793D02*
X510207Y714793D01*
X88710Y142050D02*
X63310Y142050D01*
X90000Y143340D02*
X90000Y155000D01*
X90000Y143340D02*
X88710Y142050D01*
X90000Y155000D02*
X65000Y180000D01*
X26120Y218880D01*
X26120Y222750D01*
X65000Y143740D02*
X63310Y142050D01*
X65000Y143740D02*
X65000Y180000D01*
X127720Y197804D02*
X127720Y222750D01*
X127720Y197804D02*
X127660Y197744D01*
X190000Y215000D02*
X290000Y215000D01*
X290000Y60000D02*
X500000Y60000D01*
X290000Y60000D02*
X290000Y215000D01*
D28*
X500000Y60000D03*
X520000Y265000D03*
X515000Y430000D03*
D27*
X485000Y430000D01*
X455300Y459700D01*
X455300Y465000D01*
X479200Y265000D02*
X520000Y265000D01*
X182250Y222750D02*
X127720Y222750D01*
X182250Y222750D02*
X190000Y215000D01*
X173380Y197744D02*
X173380Y165000D01*
X255000Y165000D01*
D28*
X255000Y165000D03*
X315000Y165000D03*
D27*
X315000Y110000D01*
X320000Y110000D02*
X320250Y110250D01*
X320000Y110000D02*
X315000Y110000D01*
X320000Y110000D02*
X370000Y110000D01*
X370000Y90000D01*
X445000Y90000D02*
X445000Y110250D01*
X431250Y110250D01*
X445000Y90000D02*
X370000Y90000D01*
X84191Y274880D02*
X25400Y274880D01*
X203760Y549860D02*
X203760Y556610D01*
X203760Y549860D02*
X218412Y535208D01*
X218412Y389558D02*
X198869Y389558D01*
X84191Y274880D01*
X218412Y389558D02*
X218412Y535208D01*
X275000Y353850D02*
X223760Y302610D01*
X203760Y302610D01*
X275000Y353850D02*
X275000Y725000D01*
X65000Y725000D02*
X62350Y727650D01*
X62350Y826920D01*
X65000Y725000D02*
X275000Y725000D01*
X203760Y331240D02*
X203760Y328010D01*
X203760Y331240D02*
X190000Y345000D01*
X190000Y365000D01*
X255000Y365000D01*
X255000Y680000D02*
X176557Y680000D01*
X167251Y670694D01*
X63576Y670694D01*
X62350Y671920D01*
X62350Y681920D01*
X255000Y680000D02*
X255000Y365000D01*
X265000Y360000D02*
X258410Y353410D01*
X203760Y353410D01*
X265000Y360000D02*
X265000Y690000D01*
X120430Y690000D02*
X112350Y681920D01*
X120430Y690000D02*
X265000Y690000D01*
X436146Y775186D02*
X487780Y826820D01*
X436146Y775186D02*
X434753Y775186D01*
X340000Y680433D01*
X340000Y580000D01*
X354150Y580000D01*
X356160Y582010D01*
X445000Y681820D02*
X487780Y681820D01*
X445000Y645450D02*
X356160Y556610D01*
X445000Y645450D02*
X445000Y681820D01*
X568180Y681820D02*
X570000Y680000D01*
X568180Y681820D02*
X537780Y681820D01*
X570000Y680000D02*
X570000Y635000D01*
X450000Y635000D01*
X371210Y556210D01*
X371210Y546260D01*
X356160Y531210D01*
X119962Y614364D02*
X54938Y614364D01*
X119962Y614364D02*
X179364Y614364D01*
X190000Y625000D01*
X245000Y625000D01*
X245000Y390000D01*
X233810Y378810D01*
X203760Y378810D01*
X549164Y614164D02*
X550000Y615000D01*
X549164Y614164D02*
X545392Y614164D01*
X480368Y614164D01*
X459164Y614164D01*
X365000Y520000D01*
X340000Y520000D01*
D28*
X340000Y520000D03*
D27*
X284050Y811600D02*
X274050Y821600D01*
X284050Y811600D02*
X284050Y337500D01*
X223760Y277210D01*
X203760Y277210D01*
X299450Y359320D02*
X299450Y821600D01*
X299450Y359320D02*
X356160Y302610D01*
X375650Y820650D02*
X375650Y821600D01*
X375650Y820650D02*
X330000Y775000D01*
X330000Y414558D01*
X375000Y414558D01*
X358150Y330000D02*
X356160Y328010D01*
X358150Y330000D02*
X375000Y330000D01*
X375000Y414558D01*
X320250Y791600D02*
X350250Y821600D01*
X320250Y791600D02*
X320250Y630250D01*
X320000Y630000D01*
X320000Y390000D02*
X370000Y390000D01*
X370000Y355000D01*
X357750Y355000D01*
X356160Y353410D01*
X320000Y390000D02*
X320000Y630000D01*
X309850Y806600D02*
X324850Y821600D01*
X309850Y806600D02*
X309850Y373810D01*
X351160Y373810D02*
X356160Y378810D01*
X351160Y373810D02*
X309850Y373810D01*
D28*
X410000Y165000D03*
D27*
X472250Y142750D02*
X488750Y142750D01*
X472250Y142750D02*
X450000Y165000D01*
X410000Y165000D01*
X380000Y425770D02*
X376160Y429610D01*
X356160Y429610D01*
X380000Y425770D02*
X380000Y100000D01*
X382750Y97250D01*
X431250Y97250D01*
X379990Y455010D02*
X356160Y455010D01*
X379990Y455010D02*
X385000Y450000D01*
X385000Y105000D01*
X386250Y103750D02*
X431250Y103750D01*
X386250Y103750D02*
X385000Y105000D01*
X369590Y480410D02*
X356160Y480410D01*
X369590Y480410D02*
X390000Y460000D01*
X390000Y150000D01*
X445000Y150000D01*
X470000Y125000D01*
X470000Y97100D01*
X488600Y97100D01*
X488750Y97250D01*
X395000Y466970D02*
X356160Y505810D01*
X395000Y466970D02*
X395000Y155000D01*
X450000Y155000D01*
X475000Y130000D01*
X475000Y103500D01*
X488500Y103500D02*
X488750Y103750D01*
X488500Y103500D02*
X475000Y103500D01*
X38500Y555000D02*
X38500Y560000D01*
X202550Y530000D02*
X203760Y531210D01*
X203760Y536210D01*
X154970Y585000D01*
X40000Y561500D02*
X38500Y560000D01*
X40000Y561500D02*
X40000Y585000D01*
X105000Y585000D01*
X154970Y585000D01*
X105000Y585000D02*
X105000Y570000D01*
X103500Y570000D01*
X39189Y535000D02*
X38500Y535000D01*
X39189Y535000D02*
X42237Y531952D01*
X95000Y533250D02*
X95000Y448500D01*
X178760Y505810D02*
X178760Y535810D01*
X178760Y505810D02*
X203760Y505810D01*
X178760Y535810D02*
X158225Y556345D01*
X95000Y535000D02*
X38500Y535000D01*
X95000Y535000D02*
X95000Y533250D01*
X95000Y448500D02*
X85000Y438500D01*
X95000Y533250D02*
X118095Y556345D01*
X158225Y556345D01*
X165000Y478500D02*
X163250Y476750D01*
X160750Y479250D02*
X161910Y480410D01*
X203760Y480410D01*
X40000Y509800D02*
X38700Y509800D01*
X38500Y510000D02*
X39800Y510000D01*
X40000Y509800D01*
X38500Y510000D02*
X85000Y510000D01*
D28*
X85000Y510000D03*
X115000Y480000D03*
D27*
X160000Y480000D01*
X160750Y479250D01*
X163250Y476750D01*
X50000Y473500D02*
X38500Y485000D01*
X50000Y473500D02*
X50000Y400000D01*
X115000Y391500D02*
X115000Y421500D01*
X70000Y380000D02*
X50000Y400000D01*
X70000Y380000D02*
X115000Y380000D01*
X115000Y421500D01*
X115000Y380000D02*
X128750Y380000D01*
X203760Y455010D01*
X109830Y330680D02*
X30400Y330680D01*
X25400Y325680D01*
X203760Y424610D02*
X203760Y429610D01*
X203760Y424610D02*
X109830Y330680D01*
X198760Y404210D02*
X203760Y404210D01*
D28*
X90000Y310000D03*
D27*
X104550Y310000D01*
X198760Y404210D01*
X60950Y418800D02*
X60950Y444200D01*
X81500Y421500D02*
X85000Y421500D01*
X81500Y421500D02*
X78800Y418800D01*
X60950Y418800D01*
X105000Y448500D02*
X105000Y530000D01*
X105000Y448500D02*
X115000Y438500D01*
X120800Y545800D02*
X139050Y545800D01*
X120800Y545800D02*
X105000Y530000D01*
X139050Y444200D02*
X139050Y418800D01*
X165000Y444750D02*
X165000Y461500D01*
X165000Y444750D02*
X139050Y418800D01*
X100000Y1000000D02*
X100000Y1031500D01*
D28*
X100000Y1000000D03*
D27*
X60950Y571200D02*
X60950Y545800D01*
X62150Y570000D02*
X60950Y571200D01*
X62150Y570000D02*
X86500Y570000D01*
X99950Y1085050D02*
X49530Y1085050D01*
X99950Y1085050D02*
X100000Y1085000D01*
X100000Y1048500D01*
X149860Y1085050D02*
X149910Y1085000D01*
X200000Y1085000D01*
X200000Y1048500D01*
X200000Y1031500D02*
X200000Y1000000D01*
D28*
X200000Y1000000D03*
D27*
X100000Y886500D02*
X100000Y865000D01*
D28*
X100000Y865000D03*
D27*
X50000Y855472D02*
X49530Y855002D01*
X50000Y855472D02*
X50000Y905000D01*
X98500Y905000D01*
X100000Y903500D01*
X149860Y855002D02*
X150000Y855142D01*
X150000Y905000D01*
X198500Y905000D01*
X200000Y903500D01*
X200000Y886500D02*
X200000Y865000D01*
D28*
X200000Y865000D03*
D27*
X395000Y116750D02*
X431250Y116750D01*
X395000Y116750D02*
X395000Y140000D01*
D28*
X395000Y140000D03*
X425000Y205000D03*
D27*
X425000Y236200D01*
X479200Y290400D01*
X441250Y129750D02*
X450000Y121000D01*
X441250Y129750D02*
X431250Y129750D01*
X450000Y121000D02*
X450000Y120000D01*
D28*
X450000Y120000D03*
D27*
X488750Y116750D02*
X508250Y116750D01*
X515000Y110000D01*
D28*
X515000Y110000D03*
X395000Y500000D03*
D27*
X395400Y500400D02*
X445300Y500400D01*
X395400Y500400D02*
X395000Y500000D01*
X445300Y500400D02*
X455300Y490400D01*
D28*
X510000Y150000D03*
D27*
X509948Y149948D01*
X509948Y136887D01*
X502811Y129750D01*
X488750Y129750D01*
X431250Y123250D02*
X410000Y123250D01*
X410000Y140000D01*
D28*
X410000Y140000D03*
X440000Y225000D03*
D27*
X445000Y230000D01*
X469600Y230000D02*
X479200Y239600D01*
X469600Y230000D02*
X445000Y230000D01*
X448750Y136250D02*
X431250Y136250D01*
X448750Y136250D02*
X450000Y135000D01*
D28*
X450000Y135000D03*
D27*
X488750Y123250D02*
X513250Y123250D01*
X515000Y125000D01*
D28*
X515000Y125000D03*
X410000Y485000D03*
D27*
X410000Y484900D01*
X455300Y439600D01*
X488750Y136250D02*
X500000Y136250D01*
X500000Y160000D01*
D28*
X500000Y160000D03*
D27*
X500000Y191500D02*
X481900Y191500D01*
X479200Y188800D01*
X400000Y860000D02*
X400000Y886500D01*
D28*
X400000Y860000D03*
D27*
X479200Y214200D02*
X494300Y214200D01*
X500000Y208500D01*
X479200Y214200D02*
X450000Y185000D01*
X428500Y185000D01*
X350520Y855002D02*
X350520Y904480D01*
X350000Y905000D01*
X398500Y905000D01*
X400000Y903500D01*
X540700Y214200D02*
X535000Y208500D01*
X540700Y214200D02*
X558600Y214200D01*
X520000Y360000D02*
X428500Y360000D01*
X520000Y360000D02*
X520000Y310000D01*
X530000Y225000D02*
X558600Y225000D01*
X558600Y214200D01*
X530000Y310000D02*
X520000Y310000D01*
X530000Y310000D02*
X530000Y225000D01*
X450000Y855852D02*
X450000Y905000D01*
X450000Y855852D02*
X450850Y855002D01*
X450000Y905000D02*
X498500Y905000D01*
X500000Y903500D01*
X555900Y191500D02*
X558600Y188800D01*
X555900Y191500D02*
X535000Y191500D01*
X500000Y860000D02*
X500000Y886500D01*
D28*
X500000Y860000D03*
D27*
X423500Y325800D02*
X423500Y280000D01*
X428500Y275000D02*
X428500Y265000D01*
X428500Y275000D02*
X423500Y280000D01*
X469200Y325800D02*
X479200Y315800D01*
X469200Y325800D02*
X423500Y325800D01*
X479200Y315800D02*
X494300Y315800D01*
X505000Y326500D01*
X502700Y341200D02*
X479200Y341200D01*
X502700Y341200D02*
X505000Y343500D01*
X300000Y860000D02*
X300000Y886500D01*
D28*
X300000Y860000D03*
D27*
X535000Y326500D02*
X547900Y326500D01*
X558600Y315800D01*
X453500Y370000D02*
X428500Y395000D01*
X428500Y415000D01*
X453500Y370000D02*
X570000Y370000D01*
X570000Y315000D01*
X559400Y315000D01*
X558600Y315800D01*
X556300Y343500D02*
X535000Y343500D01*
X556300Y343500D02*
X558600Y341200D01*
X585000Y881500D02*
X580000Y886500D01*
X585000Y881500D02*
X585000Y855000D01*
D28*
X585000Y855000D03*
D27*
X250190Y855002D02*
X250190Y904810D01*
X250000Y905000D01*
X298500Y905000D01*
X300000Y903500D01*
X550000Y905000D02*
X550000Y856182D01*
X551180Y855002D01*
X550000Y905000D02*
X578500Y905000D01*
X580000Y903500D01*
X579198Y193733D02*
X545433Y159968D01*
X545433Y121233D01*
X545866Y120800D02*
X550000Y120800D01*
X545866Y120800D02*
X545433Y121233D01*
X579198Y193733D02*
X579198Y265000D01*
X558600Y265000D01*
X579198Y265000D02*
X579198Y405802D01*
X545000Y440000D02*
X545000Y464700D01*
X545000Y440000D02*
X579198Y405802D01*
X545000Y464700D02*
X544700Y465000D01*
X534700Y465000D01*
X88710Y40450D02*
X63310Y40450D01*
X541722Y10922D02*
X550000Y19200D01*
X88710Y10922D02*
X88710Y40450D01*
X90000Y10922D02*
X541722Y10922D01*
X90000Y10922D02*
X88710Y10922D01*
X90000Y10922D02*
X63310Y37612D01*
X63310Y40450D01*
X455300Y515800D02*
X474300Y515800D01*
X480000Y521500D01*
X465000Y571500D02*
X460000Y571500D01*
X440000Y551500D01*
X440000Y515000D01*
X454500Y515000D01*
X455300Y515800D01*
X455300Y541200D02*
X477300Y541200D01*
X480000Y538500D01*
X300000Y1000000D02*
X300000Y1031500D01*
D28*
X300000Y1000000D03*
D27*
X250240Y1085000D02*
X250190Y1085050D01*
X250240Y1085000D02*
X300000Y1085000D01*
X300000Y1048500D01*
X455300Y388800D02*
X477300Y388800D01*
X480000Y391500D01*
X400000Y1000000D02*
X400000Y1031500D01*
D28*
X400000Y1000000D03*
D27*
X455300Y414200D02*
X474300Y414200D01*
X480000Y408500D01*
X495000Y500000D02*
X495000Y571500D01*
X495000Y500000D02*
X475000Y500000D01*
X475000Y460000D01*
X475000Y458900D01*
D28*
X475000Y460000D03*
D27*
X399950Y1085050D02*
X350520Y1085050D01*
X399950Y1085050D02*
X400000Y1085000D01*
X400000Y1048500D01*
X525000Y414200D02*
X534700Y414200D01*
X525000Y414200D02*
X515700Y414200D01*
X510000Y408500D01*
X560000Y480000D02*
X560000Y571500D01*
X534700Y414700D02*
X534700Y414200D01*
X525000Y480000D02*
X560000Y480000D01*
X525000Y480000D02*
X525000Y414200D01*
X534700Y388800D02*
X512700Y388800D01*
X510000Y391500D01*
X500000Y1000000D02*
X500000Y1031500D01*
D28*
X500000Y1000000D03*
D27*
X499950Y1085050D02*
X450850Y1085050D01*
X499950Y1085050D02*
X500000Y1085000D01*
X500000Y1048500D01*
X515700Y515800D02*
X534700Y515800D01*
X515700Y515800D02*
X510000Y521500D01*
X545000Y551500D02*
X525000Y571500D01*
X545000Y551500D02*
X545000Y515000D01*
X535500Y515000D01*
X534700Y515800D01*
X534700Y541200D02*
X512700Y541200D01*
X510000Y538500D01*
X585000Y1026500D02*
X580000Y1031500D01*
X585000Y1026500D02*
X585000Y1000000D01*
D28*
X585000Y1000000D03*
D27*
X551230Y1085000D02*
X551180Y1085050D01*
X551230Y1085000D02*
X580000Y1085000D01*
X580000Y1048500D01*
M02*
