G04 EAGLE Gerber RS-274X export*
G75*
%MOMM*%
%FSLAX34Y34*%
%LPD*%
%INTop Copper*%
%IPPOS*%
%AMOC8*
5,1,8,0,0,1.08239X$1,22.5*%
G01*
%ADD10C,1.676400*%
%ADD11R,1.508000X1.508000*%
%ADD12R,3.216000X3.216000*%
%ADD13P,1.649562X8X112.500000*%
%ADD14C,1.473200*%
%ADD15R,1.930400X1.930400*%
%ADD16C,1.930400*%
%ADD17C,1.650000*%
%ADD18C,1.524000*%
%ADD19C,1.508000*%
%ADD20R,1.267000X1.267000*%
%ADD21C,1.267000*%
%ADD22R,1.238000X1.238000*%
%ADD23C,1.238000*%
%ADD24C,0.756400*%
%ADD25C,0.152400*%


D10*
X26120Y222750D03*
X127720Y222750D03*
D11*
X62350Y681920D03*
X87350Y681920D03*
X112350Y681920D03*
X62350Y826920D03*
X112350Y826920D03*
D12*
X26350Y756920D03*
X148350Y756920D03*
D13*
X63310Y40450D03*
X63310Y65850D03*
X63310Y91250D03*
X63310Y116650D03*
X63310Y142050D03*
X88710Y40450D03*
X88710Y65850D03*
X88710Y91250D03*
X88710Y116650D03*
X88710Y142050D03*
D14*
X356160Y556610D03*
X356160Y531210D03*
X356160Y505810D03*
X356160Y480410D03*
X356160Y455010D03*
X356160Y429610D03*
X356160Y404210D03*
X356160Y378810D03*
X356160Y353410D03*
X356160Y328010D03*
X356160Y302610D03*
X356160Y277210D03*
X203760Y277210D03*
X203760Y302610D03*
X203760Y328010D03*
X203760Y353410D03*
X203760Y378810D03*
X203760Y404210D03*
X203760Y429610D03*
X203760Y455010D03*
X203760Y480410D03*
X203760Y505810D03*
X203760Y531210D03*
X356160Y582010D03*
X203760Y556610D03*
X203760Y582010D03*
X356160Y607410D03*
X203760Y607410D03*
X356160Y251810D03*
X203760Y251810D03*
X356160Y226410D03*
X356160Y201010D03*
X356160Y175610D03*
X356160Y150210D03*
X356160Y124810D03*
X356160Y99410D03*
X356160Y74010D03*
X356160Y48610D03*
X356160Y23210D03*
X203760Y23210D03*
X203760Y48610D03*
X203760Y74010D03*
X203760Y99410D03*
X203760Y124810D03*
X203760Y150210D03*
X203760Y175610D03*
X203760Y201010D03*
X203760Y226410D03*
X229160Y582010D03*
X229160Y531210D03*
X229160Y505810D03*
X229160Y480410D03*
D15*
X127660Y197744D03*
D16*
X150520Y197744D03*
D15*
X173380Y197744D03*
D17*
X551180Y855002D03*
X551180Y940002D03*
X551180Y970002D03*
X250190Y1085050D03*
X250190Y1000050D03*
X250190Y970050D03*
X149860Y1085050D03*
X149860Y1000050D03*
X149860Y970050D03*
X49530Y1085050D03*
X49530Y1000050D03*
X49530Y970050D03*
X450850Y855002D03*
X450850Y940002D03*
X450850Y970002D03*
X350520Y855002D03*
X350520Y940002D03*
X350520Y970002D03*
X250190Y855002D03*
X250190Y940002D03*
X250190Y970002D03*
X149860Y855002D03*
X149860Y940002D03*
X149860Y970002D03*
X49530Y855002D03*
X49530Y940002D03*
X49530Y970002D03*
X551180Y1085050D03*
X551180Y1000050D03*
X551180Y970050D03*
X450850Y1085050D03*
X450850Y1000050D03*
X450850Y970050D03*
X350520Y1085050D03*
X350520Y1000050D03*
X350520Y970050D03*
D18*
X127582Y614364D02*
X112342Y614364D01*
X112342Y659576D02*
X127582Y659576D01*
X62558Y614364D02*
X47318Y614364D01*
X47318Y659576D02*
X62558Y659576D01*
X537772Y614164D02*
X553012Y614164D01*
X553012Y659376D02*
X537772Y659376D01*
X487988Y614164D02*
X472748Y614164D01*
X472748Y659376D02*
X487988Y659376D01*
D11*
X487780Y681820D03*
X512780Y681820D03*
X537780Y681820D03*
X487780Y826820D03*
X537780Y826820D03*
D12*
X451780Y756820D03*
X573780Y756820D03*
D11*
X223250Y821600D03*
D19*
X248650Y821600D03*
X274050Y821600D03*
X299450Y821600D03*
X324850Y821600D03*
X350250Y821600D03*
X375650Y821600D03*
D20*
X60950Y571200D03*
D21*
X60950Y545800D03*
X60950Y520400D03*
X60950Y495000D03*
X60950Y469600D03*
X60950Y444200D03*
X60950Y418800D03*
X139050Y418800D03*
X139050Y444200D03*
X139050Y469600D03*
X139050Y495000D03*
X139050Y520400D03*
X139050Y545800D03*
X139050Y571200D03*
D11*
X25400Y351080D03*
X25400Y325680D03*
X25400Y300280D03*
X25400Y274880D03*
X25400Y249480D03*
D22*
X479200Y341200D03*
D23*
X479200Y315800D03*
X479200Y290400D03*
X479200Y265000D03*
X479200Y239600D03*
X479200Y214200D03*
X479200Y188800D03*
X558600Y188800D03*
X558600Y214200D03*
X558600Y239600D03*
X558600Y265000D03*
X558600Y290400D03*
X558600Y315800D03*
X558600Y341200D03*
D22*
X455300Y541200D03*
D23*
X455300Y515800D03*
X455300Y490400D03*
X455300Y465000D03*
X455300Y439600D03*
X455300Y414200D03*
X455300Y388800D03*
X534700Y388800D03*
X534700Y414200D03*
X534700Y439600D03*
X534700Y465000D03*
X534700Y490400D03*
X534700Y515800D03*
X534700Y541200D03*
D10*
X550000Y120800D03*
X550000Y19200D03*
D24*
X230000Y610000D03*
D25*
X353570Y610000D02*
X356160Y607410D01*
X353570Y610000D02*
X230000Y610000D01*
D24*
X255000Y85000D03*
D25*
X315000Y85000D01*
D24*
X315000Y85000D03*
D25*
X380000Y583570D02*
X356160Y607410D01*
X380000Y583570D02*
X380000Y510000D01*
D24*
X380000Y510000D03*
D25*
X170000Y525950D02*
X139050Y495000D01*
X170000Y525950D02*
X170000Y600000D01*
D24*
X170000Y600000D03*
X500000Y60000D03*
D25*
X525000Y60000D01*
X525000Y260000D01*
X515000Y270000D02*
X515000Y430000D01*
D24*
X520000Y265000D03*
X515000Y430000D03*
D25*
X515000Y270000D02*
X525000Y260000D01*
X178380Y375000D02*
X178380Y582030D01*
X178380Y375000D02*
X178380Y202744D01*
X173380Y197744D01*
X178380Y582030D02*
X203760Y607410D01*
D24*
X255000Y165000D03*
D25*
X315000Y165000D01*
D24*
X315000Y165000D03*
D25*
X178380Y375000D02*
X85000Y375000D01*
X85000Y495000D01*
X60950Y495000D01*
X203760Y561610D02*
X215000Y572850D01*
X203760Y561610D02*
X203760Y556610D01*
X215000Y572850D02*
X215000Y775000D01*
X248650Y808650D02*
X248650Y821600D01*
X248650Y808650D02*
X215000Y775000D01*
D24*
X340000Y520000D03*
D25*
X340000Y293370D01*
X356160Y277210D01*
X375000Y385370D02*
X356160Y404210D01*
X375000Y385370D02*
X375000Y180000D01*
X390000Y165000D02*
X410000Y165000D01*
X390000Y165000D02*
X375000Y180000D01*
D24*
X410000Y165000D03*
X85000Y510000D03*
D25*
X115000Y480000D01*
D24*
X115000Y480000D03*
D25*
X25400Y351080D02*
X26480Y350000D01*
X90000Y350000D02*
X90000Y310000D01*
X90000Y350000D02*
X26480Y350000D01*
D24*
X90000Y310000D03*
D25*
X139050Y545800D02*
X139050Y571200D01*
D24*
X100000Y1000000D03*
D25*
X100000Y950000D01*
X85000Y935000D01*
X85000Y745000D01*
X45000Y595000D02*
X45000Y520000D01*
X60550Y520000D01*
X60950Y520400D01*
X45000Y595000D02*
X25000Y615000D01*
X25000Y685000D01*
X85000Y745000D01*
D24*
X200000Y1000000D03*
D25*
X185000Y1000000D01*
X185000Y1070000D01*
X10922Y1070000D01*
X10922Y824078D01*
X55000Y780000D01*
X55000Y735000D01*
X10922Y690922D01*
X10922Y611595D01*
X31952Y590565D01*
X31952Y473293D01*
X35645Y469600D02*
X60950Y469600D01*
X35645Y469600D02*
X31952Y473293D01*
D24*
X100000Y865000D03*
D25*
X125000Y865000D01*
X129050Y590000D02*
X129050Y479600D01*
X139050Y469600D01*
X129050Y590000D02*
X139050Y600000D01*
X140000Y600000D01*
X139050Y600000D02*
X139050Y720827D01*
X124984Y734893D01*
X124984Y864984D01*
X125000Y865000D01*
D24*
X200000Y865000D03*
D25*
X200000Y832243D01*
X202772Y829471D01*
X202772Y752039D02*
X175516Y724783D01*
X155000Y724783D01*
X202772Y790000D02*
X202772Y829471D01*
X202772Y790000D02*
X202772Y752039D01*
X155000Y724783D02*
X155000Y525000D01*
X150400Y520400D01*
X139050Y520400D01*
D24*
X395000Y140000D03*
D25*
X425000Y170000D01*
X425000Y205000D01*
D24*
X425000Y205000D03*
X450000Y120000D03*
D25*
X450000Y25000D01*
X535000Y25000D01*
X535000Y240000D01*
X558200Y240000D01*
X558600Y239600D01*
D24*
X515000Y110000D03*
D25*
X450000Y175000D01*
X395000Y293875D02*
X395000Y500000D01*
X395000Y293875D02*
X450000Y238875D01*
X450000Y175000D01*
D24*
X395000Y500000D03*
X510000Y150000D03*
D25*
X510000Y265000D01*
X535000Y439900D02*
X535000Y445000D01*
X535000Y439900D02*
X534700Y439600D01*
X505000Y270000D02*
X510000Y265000D01*
X505000Y270000D02*
X505000Y445000D01*
X535000Y445000D01*
D24*
X410000Y140000D03*
D25*
X440000Y170000D01*
X440000Y225000D01*
D24*
X440000Y225000D03*
X450000Y135000D03*
D25*
X460000Y125000D01*
X460000Y35000D01*
X530000Y35000D01*
X530000Y290400D01*
X558600Y290400D01*
D24*
X515000Y125000D03*
D25*
X460000Y180000D01*
X460000Y250000D01*
X409693Y300307D02*
X409693Y414693D01*
X409693Y300307D02*
X460000Y250000D01*
X409693Y414693D02*
X410000Y415000D01*
X410000Y485000D01*
D24*
X410000Y485000D03*
X500000Y160000D03*
D25*
X500000Y490400D01*
X495400Y490000D02*
X495000Y490400D01*
X500000Y490400D01*
X534700Y490400D01*
D24*
X400000Y860000D03*
D25*
X413273Y846727D01*
X425276Y846727D01*
X490000Y545000D02*
X490000Y189000D01*
X479400Y189000D01*
X479200Y188800D01*
X490000Y545000D02*
X435000Y600000D01*
X435000Y644507D01*
X437532Y647039D01*
X437532Y812139D02*
X437532Y834471D01*
X437532Y725675D02*
X437532Y647039D01*
X437532Y725675D02*
X428414Y734793D01*
X428414Y803021D01*
X437532Y812139D01*
X437532Y834471D02*
X425276Y846727D01*
D24*
X500000Y860000D03*
D25*
X512954Y847046D01*
X550000Y592143D02*
X550000Y360000D01*
X550000Y592143D02*
X566429Y608571D01*
X512954Y753443D02*
X512954Y847046D01*
X550000Y360000D02*
X540000Y350000D01*
X540000Y305000D01*
X580000Y305000D01*
X580000Y190000D01*
X559800Y190000D01*
X558600Y188800D01*
X566429Y608571D02*
X566429Y699969D01*
X512954Y753443D01*
D24*
X300000Y860000D03*
D25*
X300000Y846046D01*
X286624Y832670D01*
X286624Y698376D02*
X425000Y560000D01*
X286624Y698376D02*
X286624Y832670D01*
X425000Y560000D02*
X425000Y341200D01*
X479200Y341200D01*
D24*
X585000Y855000D03*
D25*
X550414Y778847D02*
X550414Y729793D01*
X585000Y813433D02*
X585000Y855000D01*
X585000Y813433D02*
X550414Y778847D01*
X550414Y729793D02*
X571433Y708774D01*
X571433Y480968D02*
X555232Y464768D01*
X571433Y480968D02*
X571433Y708774D01*
X555232Y464768D02*
X555232Y434768D01*
X560000Y430000D01*
X560000Y342600D01*
X558600Y341200D01*
D24*
X300000Y1000000D03*
D25*
X455300Y546200D02*
X455300Y541200D01*
X455300Y546200D02*
X315000Y686500D01*
X315000Y995000D01*
X310000Y1000000D02*
X300000Y1000000D01*
X310000Y1000000D02*
X315000Y995000D01*
D24*
X400000Y1000000D03*
D25*
X386068Y986068D01*
X395688Y845000D02*
X395688Y624312D01*
X485000Y535000D02*
X485000Y390000D01*
X456500Y390000D01*
X455300Y388800D01*
X485000Y535000D02*
X395688Y624312D01*
X395688Y845000D02*
X386068Y854620D01*
X386068Y986068D01*
D24*
X475000Y460000D03*
D25*
X475000Y433900D01*
X455300Y414200D01*
D24*
X500000Y1000000D03*
D25*
X485000Y985000D01*
X485000Y845000D01*
X455000Y815000D01*
X475146Y773847D02*
X475146Y739793D01*
X455000Y793993D02*
X455000Y815000D01*
X455000Y719647D02*
X455000Y595000D01*
X475146Y773847D02*
X455000Y793993D01*
X475146Y739793D02*
X455000Y719647D01*
X534700Y388800D02*
X544376Y388800D01*
X544376Y500624D02*
X540000Y505000D01*
X510000Y505000D01*
X510000Y540000D01*
X544376Y500624D02*
X544376Y388800D01*
X510000Y540000D02*
X455000Y595000D01*
D24*
X585000Y1000000D03*
D25*
X570000Y985000D01*
X500000Y985000D01*
X490000Y975000D01*
X490000Y845000D01*
X500000Y845000D01*
X500000Y575900D01*
X534700Y541200D01*
M02*
