G04 EAGLE Gerber RS-274X export*
G75*
%MOMM*%
%FSLAX34Y34*%
%LPD*%
%INSoldermask Top*%
%IPPOS*%
%AMOC8*
5,1,8,0,0,1.08239X$1,22.5*%
G01*
%ADD10C,1.879600*%
%ADD11R,1.711200X1.711200*%
%ADD12R,3.419200X3.419200*%
%ADD13P,1.869504X8X112.500000*%
%ADD14C,1.676400*%
%ADD15R,2.133600X2.133600*%
%ADD16C,2.133600*%
%ADD17C,3.003200*%
%ADD18C,1.853200*%
%ADD19C,1.727200*%
%ADD20C,2.203200*%
%ADD21C,1.711200*%
%ADD22R,1.470200X1.470200*%
%ADD23C,1.470200*%
%ADD24C,1.203200*%
%ADD25R,1.441200X1.441200*%
%ADD26C,1.441200*%
%ADD27C,0.959600*%


D10*
X26120Y222750D03*
X127720Y222750D03*
D11*
X62350Y681920D03*
X87350Y681920D03*
X112350Y681920D03*
X62350Y826920D03*
X112350Y826920D03*
D12*
X26350Y756920D03*
X148350Y756920D03*
D13*
X63310Y40450D03*
X63310Y65850D03*
X63310Y91250D03*
X63310Y116650D03*
X63310Y142050D03*
X88710Y40450D03*
X88710Y65850D03*
X88710Y91250D03*
X88710Y116650D03*
X88710Y142050D03*
D14*
X356160Y556610D03*
X356160Y531210D03*
X356160Y505810D03*
X356160Y480410D03*
X356160Y455010D03*
X356160Y429610D03*
X356160Y404210D03*
X356160Y378810D03*
X356160Y353410D03*
X356160Y328010D03*
X356160Y302610D03*
X356160Y277210D03*
X203760Y277210D03*
X203760Y302610D03*
X203760Y328010D03*
X203760Y353410D03*
X203760Y378810D03*
X203760Y404210D03*
X203760Y429610D03*
X203760Y455010D03*
X203760Y480410D03*
X203760Y505810D03*
X203760Y531210D03*
X356160Y582010D03*
X203760Y556610D03*
X203760Y582010D03*
X356160Y607410D03*
X203760Y607410D03*
X356160Y251810D03*
X203760Y251810D03*
X356160Y226410D03*
X356160Y201010D03*
X356160Y175610D03*
X356160Y150210D03*
X356160Y124810D03*
X356160Y99410D03*
X356160Y74010D03*
X356160Y48610D03*
X356160Y23210D03*
X203760Y23210D03*
X203760Y48610D03*
X203760Y74010D03*
X203760Y99410D03*
X203760Y124810D03*
X203760Y150210D03*
X203760Y175610D03*
X203760Y201010D03*
X203760Y226410D03*
X229160Y582010D03*
X229160Y531210D03*
X229160Y505810D03*
X229160Y480410D03*
D15*
X127660Y197744D03*
D16*
X150520Y197744D03*
D15*
X173380Y197744D03*
D17*
X151790Y37724D03*
D18*
X551180Y855002D03*
X551180Y940002D03*
X551180Y970002D03*
X250190Y1085050D03*
X250190Y1000050D03*
X250190Y970050D03*
X149860Y1085050D03*
X149860Y1000050D03*
X149860Y970050D03*
X49530Y1085050D03*
X49530Y1000050D03*
X49530Y970050D03*
X450850Y855002D03*
X450850Y940002D03*
X450850Y970002D03*
X350520Y855002D03*
X350520Y940002D03*
X350520Y970002D03*
X250190Y855002D03*
X250190Y940002D03*
X250190Y970002D03*
X149860Y855002D03*
X149860Y940002D03*
X149860Y970002D03*
X49530Y855002D03*
X49530Y940002D03*
X49530Y970002D03*
X551180Y1085050D03*
X551180Y1000050D03*
X551180Y970050D03*
X450850Y1085050D03*
X450850Y1000050D03*
X450850Y970050D03*
X350520Y1085050D03*
X350520Y1000050D03*
X350520Y970050D03*
D19*
X127582Y614364D02*
X112342Y614364D01*
X112342Y659576D02*
X127582Y659576D01*
X62558Y614364D02*
X47318Y614364D01*
X47318Y659576D02*
X62558Y659576D01*
X537772Y614164D02*
X553012Y614164D01*
X553012Y659376D02*
X537772Y659376D01*
X487988Y614164D02*
X472748Y614164D01*
X472748Y659376D02*
X487988Y659376D01*
D11*
X487780Y681820D03*
X512780Y681820D03*
X537780Y681820D03*
X487780Y826820D03*
X537780Y826820D03*
D12*
X451780Y756820D03*
X573780Y756820D03*
D20*
X181850Y820805D03*
X416610Y820805D03*
D11*
X223250Y821600D03*
D21*
X248650Y821600D03*
X274050Y821600D03*
X299450Y821600D03*
X324850Y821600D03*
X350250Y821600D03*
X375650Y821600D03*
D20*
X416610Y655705D03*
X181850Y655705D03*
D22*
X60950Y571200D03*
D23*
X60950Y545800D03*
X60950Y520400D03*
X60950Y495000D03*
X60950Y469600D03*
X60950Y444200D03*
X60950Y418800D03*
X139050Y418800D03*
X139050Y444200D03*
X139050Y469600D03*
X139050Y495000D03*
X139050Y520400D03*
X139050Y545800D03*
X139050Y571200D03*
D17*
X20355Y449645D03*
X580355Y449645D03*
X20355Y149645D03*
X580355Y149645D03*
D24*
X13355Y586645D03*
X587355Y586645D03*
X13355Y12645D03*
X587355Y12645D03*
D17*
X149895Y299505D03*
X449615Y299505D03*
D11*
X25400Y351080D03*
X25400Y325680D03*
X25400Y300280D03*
X25400Y274880D03*
X25400Y249480D03*
D25*
X479200Y341200D03*
D26*
X479200Y315800D03*
X479200Y290400D03*
X479200Y265000D03*
X479200Y239600D03*
X479200Y214200D03*
X479200Y188800D03*
X558600Y188800D03*
X558600Y214200D03*
X558600Y239600D03*
X558600Y265000D03*
X558600Y290400D03*
X558600Y315800D03*
X558600Y341200D03*
D25*
X455300Y541200D03*
D26*
X455300Y515800D03*
X455300Y490400D03*
X455300Y465000D03*
X455300Y439600D03*
X455300Y414200D03*
X455300Y388800D03*
X534700Y388800D03*
X534700Y414200D03*
X534700Y439600D03*
X534700Y465000D03*
X534700Y490400D03*
X534700Y515800D03*
X534700Y541200D03*
D10*
X550000Y120800D03*
X550000Y19200D03*
D27*
X230000Y610000D03*
X255000Y85000D03*
X315000Y85000D03*
X380000Y510000D03*
X170000Y600000D03*
X500000Y60000D03*
X520000Y265000D03*
X515000Y430000D03*
X255000Y165000D03*
X315000Y165000D03*
X340000Y520000D03*
X410000Y165000D03*
X85000Y510000D03*
X115000Y480000D03*
X90000Y310000D03*
X100000Y1000000D03*
X200000Y1000000D03*
X100000Y865000D03*
X200000Y865000D03*
X395000Y140000D03*
X425000Y205000D03*
X450000Y120000D03*
X515000Y110000D03*
X395000Y500000D03*
X510000Y150000D03*
X410000Y140000D03*
X440000Y225000D03*
X450000Y135000D03*
X515000Y125000D03*
X410000Y485000D03*
X500000Y160000D03*
X400000Y860000D03*
X500000Y860000D03*
X300000Y860000D03*
X585000Y855000D03*
X300000Y1000000D03*
X400000Y1000000D03*
X475000Y460000D03*
X500000Y1000000D03*
X585000Y1000000D03*
M02*
