G04 EAGLE Gerber RS-274X export*
G75*
%MOMM*%
%FSLAX34Y34*%
%LPD*%
%INSolderpaste Bottom*%
%IPPOS*%
%AMOC8*
5,1,8,0,0,1.08239X$1,22.5*%
G01*
%ADD10R,0.900000X0.350000*%
%ADD11R,1.500000X1.300000*%
%ADD12R,1.300000X1.500000*%


D10*
X431250Y97250D03*
X431250Y103750D03*
X431250Y110250D03*
X431250Y116750D03*
X431250Y123250D03*
X431250Y129750D03*
X431250Y136250D03*
X431250Y142750D03*
X488750Y142750D03*
X488750Y136250D03*
X488750Y129750D03*
X488750Y123250D03*
X488750Y116750D03*
X488750Y110250D03*
X488750Y103750D03*
X488750Y97250D03*
D11*
X100000Y1031500D03*
X100000Y1048500D03*
X200000Y1048500D03*
X200000Y1031500D03*
X100000Y903500D03*
X100000Y886500D03*
X200000Y886500D03*
X200000Y903500D03*
X300000Y1031500D03*
X300000Y1048500D03*
X400000Y1031500D03*
X400000Y1048500D03*
X580000Y1031500D03*
X580000Y1048500D03*
X500000Y1031500D03*
X500000Y1048500D03*
X300000Y886500D03*
X300000Y903500D03*
X400000Y886500D03*
X400000Y903500D03*
X500000Y886500D03*
X500000Y903500D03*
X580000Y886500D03*
X580000Y903500D03*
X480000Y521500D03*
X480000Y538500D03*
X465000Y588500D03*
X465000Y571500D03*
X495000Y588500D03*
X495000Y571500D03*
X480000Y408500D03*
X480000Y391500D03*
X510000Y391500D03*
X510000Y408500D03*
X560000Y571500D03*
X560000Y588500D03*
D12*
X103500Y570000D03*
X86500Y570000D03*
D11*
X85000Y438500D03*
X85000Y421500D03*
X165000Y461500D03*
X165000Y478500D03*
X115000Y438500D03*
X115000Y421500D03*
D12*
X38500Y560000D03*
X21500Y560000D03*
X21500Y535000D03*
X38500Y535000D03*
X21500Y510000D03*
X38500Y510000D03*
X38500Y485000D03*
X21500Y485000D03*
X411500Y185000D03*
X428500Y185000D03*
X411500Y265000D03*
X428500Y265000D03*
X428500Y360000D03*
X411500Y360000D03*
X428500Y415000D03*
X411500Y415000D03*
D11*
X505000Y326500D03*
X505000Y343500D03*
X500000Y208500D03*
X500000Y191500D03*
X535000Y191500D03*
X535000Y208500D03*
X535000Y343500D03*
X535000Y326500D03*
X525000Y571500D03*
X525000Y588500D03*
X510000Y538500D03*
X510000Y521500D03*
M02*
