G04 EAGLE Gerber RS-274X export*
G75*
%MOMM*%
%FSLAX34Y34*%
%LPD*%
%IN*%
%IPPOS*%
%AMOC8*
5,1,8,0,0,1.08239X$1,22.5*%
G01*
%ADD10C,0.254000*%


D10*
X0Y0D02*
X600020Y0D01*
X600020Y1100000D01*
X0Y1099800D01*
X0Y0D01*
X150790Y53224D02*
X150719Y54222D01*
X150576Y55211D01*
X150364Y56189D01*
X150082Y57148D01*
X149733Y58085D01*
X149317Y58995D01*
X148838Y59872D01*
X148297Y60714D01*
X147698Y61514D01*
X147043Y62270D01*
X146336Y62977D01*
X145580Y63632D01*
X144780Y64231D01*
X143938Y64772D01*
X143061Y65251D01*
X142151Y65667D01*
X141214Y66016D01*
X140255Y66298D01*
X139277Y66510D01*
X138288Y66653D01*
X137290Y66724D01*
X136290Y66724D01*
X135293Y66653D01*
X134303Y66510D01*
X133326Y66298D01*
X132366Y66016D01*
X131429Y65667D01*
X130519Y65251D01*
X129642Y64772D01*
X128800Y64231D01*
X128000Y63632D01*
X127244Y62977D01*
X126537Y62270D01*
X125882Y61514D01*
X125283Y60714D01*
X124742Y59872D01*
X124263Y58995D01*
X123847Y58085D01*
X123498Y57148D01*
X123216Y56189D01*
X123004Y55211D01*
X122861Y54222D01*
X122790Y53224D01*
X122790Y52224D01*
X122861Y51227D01*
X123004Y50237D01*
X123216Y49260D01*
X123498Y48300D01*
X123847Y47363D01*
X124263Y46453D01*
X124742Y45576D01*
X125283Y44734D01*
X125882Y43934D01*
X126537Y43178D01*
X127244Y42471D01*
X128000Y41816D01*
X128800Y41217D01*
X129642Y40676D01*
X130519Y40197D01*
X131429Y39781D01*
X132366Y39432D01*
X133326Y39150D01*
X134303Y38938D01*
X135293Y38795D01*
X136290Y38724D01*
X137290Y38724D01*
X138288Y38795D01*
X139277Y38938D01*
X140255Y39150D01*
X141214Y39432D01*
X142151Y39781D01*
X143061Y40197D01*
X143938Y40676D01*
X144780Y41217D01*
X145580Y41816D01*
X146336Y42471D01*
X147043Y43178D01*
X147698Y43934D01*
X148297Y44734D01*
X148838Y45576D01*
X149317Y46453D01*
X149733Y47363D01*
X150082Y48300D01*
X150364Y49260D01*
X150576Y50237D01*
X150719Y51227D01*
X150790Y52224D01*
X150790Y53224D01*
X191850Y820368D02*
X191774Y819499D01*
X191622Y818639D01*
X191396Y817795D01*
X191098Y816975D01*
X190729Y816183D01*
X190292Y815427D01*
X189791Y814712D01*
X189230Y814043D01*
X188612Y813425D01*
X187943Y812864D01*
X187228Y812363D01*
X186472Y811926D01*
X185680Y811557D01*
X184860Y811259D01*
X184016Y811033D01*
X183157Y810881D01*
X182287Y810805D01*
X181413Y810805D01*
X180544Y810881D01*
X179684Y811033D01*
X178840Y811259D01*
X178020Y811557D01*
X177228Y811926D01*
X176472Y812363D01*
X175757Y812864D01*
X175088Y813425D01*
X174470Y814043D01*
X173909Y814712D01*
X173408Y815427D01*
X172971Y816183D01*
X172602Y816975D01*
X172304Y817795D01*
X172078Y818639D01*
X171926Y819499D01*
X171850Y820368D01*
X171850Y821242D01*
X171926Y822112D01*
X172078Y822971D01*
X172304Y823815D01*
X172602Y824635D01*
X172971Y825427D01*
X173408Y826183D01*
X173909Y826898D01*
X174470Y827567D01*
X175088Y828185D01*
X175757Y828746D01*
X176472Y829247D01*
X177228Y829684D01*
X178020Y830053D01*
X178840Y830351D01*
X179684Y830577D01*
X180544Y830729D01*
X181413Y830805D01*
X182287Y830805D01*
X183157Y830729D01*
X184016Y830577D01*
X184860Y830351D01*
X185680Y830053D01*
X186472Y829684D01*
X187228Y829247D01*
X187943Y828746D01*
X188612Y828185D01*
X189230Y827567D01*
X189791Y826898D01*
X190292Y826183D01*
X190729Y825427D01*
X191098Y824635D01*
X191396Y823815D01*
X191622Y822971D01*
X191774Y822112D01*
X191850Y821242D01*
X191850Y820368D01*
X426610Y820368D02*
X426534Y819499D01*
X426382Y818639D01*
X426156Y817795D01*
X425858Y816975D01*
X425489Y816183D01*
X425052Y815427D01*
X424551Y814712D01*
X423990Y814043D01*
X423372Y813425D01*
X422703Y812864D01*
X421988Y812363D01*
X421232Y811926D01*
X420440Y811557D01*
X419620Y811259D01*
X418776Y811033D01*
X417917Y810881D01*
X417047Y810805D01*
X416173Y810805D01*
X415304Y810881D01*
X414444Y811033D01*
X413600Y811259D01*
X412780Y811557D01*
X411988Y811926D01*
X411232Y812363D01*
X410517Y812864D01*
X409848Y813425D01*
X409230Y814043D01*
X408669Y814712D01*
X408168Y815427D01*
X407731Y816183D01*
X407362Y816975D01*
X407064Y817795D01*
X406838Y818639D01*
X406686Y819499D01*
X406610Y820368D01*
X406610Y821242D01*
X406686Y822112D01*
X406838Y822971D01*
X407064Y823815D01*
X407362Y824635D01*
X407731Y825427D01*
X408168Y826183D01*
X408669Y826898D01*
X409230Y827567D01*
X409848Y828185D01*
X410517Y828746D01*
X411232Y829247D01*
X411988Y829684D01*
X412780Y830053D01*
X413600Y830351D01*
X414444Y830577D01*
X415304Y830729D01*
X416173Y830805D01*
X417047Y830805D01*
X417917Y830729D01*
X418776Y830577D01*
X419620Y830351D01*
X420440Y830053D01*
X421232Y829684D01*
X421988Y829247D01*
X422703Y828746D01*
X423372Y828185D01*
X423990Y827567D01*
X424551Y826898D01*
X425052Y826183D01*
X425489Y825427D01*
X425858Y824635D01*
X426156Y823815D01*
X426382Y822971D01*
X426534Y822112D01*
X426610Y821242D01*
X426610Y820368D01*
X586799Y582080D02*
X586241Y582143D01*
X585694Y582268D01*
X585164Y582453D01*
X584658Y582697D01*
X584182Y582996D01*
X583743Y583346D01*
X583346Y583743D01*
X582996Y584182D01*
X582697Y584658D01*
X582453Y585164D01*
X582268Y585694D01*
X582143Y586241D01*
X582080Y586799D01*
X582080Y587361D01*
X582143Y587919D01*
X582268Y588466D01*
X582453Y588996D01*
X582697Y589502D01*
X582996Y589978D01*
X583346Y590417D01*
X583743Y590814D01*
X584182Y591164D01*
X584658Y591463D01*
X585164Y591707D01*
X585694Y591892D01*
X586241Y592017D01*
X586799Y592080D01*
X587361Y592080D01*
X587919Y592017D01*
X588466Y591892D01*
X588996Y591707D01*
X589502Y591463D01*
X589978Y591164D01*
X590417Y590814D01*
X590814Y590417D01*
X591164Y589978D01*
X591463Y589502D01*
X591707Y588996D01*
X591892Y588466D01*
X592017Y587919D01*
X592080Y587361D01*
X592080Y586799D01*
X592017Y586241D01*
X591892Y585694D01*
X591707Y585164D01*
X591463Y584658D01*
X591164Y584182D01*
X590814Y583743D01*
X590417Y583346D01*
X589978Y582996D01*
X589502Y582697D01*
X588996Y582453D01*
X588466Y582268D01*
X587919Y582143D01*
X587361Y582080D01*
X586799Y582080D01*
X586799Y8080D02*
X586241Y8143D01*
X585694Y8268D01*
X585164Y8453D01*
X584658Y8697D01*
X584182Y8996D01*
X583743Y9346D01*
X583346Y9743D01*
X582996Y10182D01*
X582697Y10658D01*
X582453Y11164D01*
X582268Y11694D01*
X582143Y12241D01*
X582080Y12799D01*
X582080Y13361D01*
X582143Y13919D01*
X582268Y14466D01*
X582453Y14996D01*
X582697Y15502D01*
X582996Y15978D01*
X583346Y16417D01*
X583743Y16814D01*
X584182Y17164D01*
X584658Y17463D01*
X585164Y17707D01*
X585694Y17892D01*
X586241Y18017D01*
X586799Y18080D01*
X587361Y18080D01*
X587919Y18017D01*
X588466Y17892D01*
X588996Y17707D01*
X589502Y17463D01*
X589978Y17164D01*
X590417Y16814D01*
X590814Y16417D01*
X591164Y15978D01*
X591463Y15502D01*
X591707Y14996D01*
X591892Y14466D01*
X592017Y13919D01*
X592080Y13361D01*
X592080Y12799D01*
X592017Y12241D01*
X591892Y11694D01*
X591707Y11164D01*
X591463Y10658D01*
X591164Y10182D01*
X590814Y9743D01*
X590417Y9346D01*
X589978Y8996D01*
X589502Y8697D01*
X588996Y8453D01*
X588466Y8268D01*
X587919Y8143D01*
X587361Y8080D01*
X586799Y8080D01*
X12799Y582080D02*
X12241Y582143D01*
X11694Y582268D01*
X11164Y582453D01*
X10658Y582697D01*
X10182Y582996D01*
X9743Y583346D01*
X9346Y583743D01*
X8996Y584182D01*
X8697Y584658D01*
X8453Y585164D01*
X8268Y585694D01*
X8143Y586241D01*
X8080Y586799D01*
X8080Y587361D01*
X8143Y587919D01*
X8268Y588466D01*
X8453Y588996D01*
X8697Y589502D01*
X8996Y589978D01*
X9346Y590417D01*
X9743Y590814D01*
X10182Y591164D01*
X10658Y591463D01*
X11164Y591707D01*
X11694Y591892D01*
X12241Y592017D01*
X12799Y592080D01*
X13361Y592080D01*
X13919Y592017D01*
X14466Y591892D01*
X14996Y591707D01*
X15502Y591463D01*
X15978Y591164D01*
X16417Y590814D01*
X16814Y590417D01*
X17164Y589978D01*
X17463Y589502D01*
X17707Y588996D01*
X17892Y588466D01*
X18017Y587919D01*
X18080Y587361D01*
X18080Y586799D01*
X18017Y586241D01*
X17892Y585694D01*
X17707Y585164D01*
X17463Y584658D01*
X17164Y584182D01*
X16814Y583743D01*
X16417Y583346D01*
X15978Y582996D01*
X15502Y582697D01*
X14996Y582453D01*
X14466Y582268D01*
X13919Y582143D01*
X13361Y582080D01*
X12799Y582080D01*
X12799Y8080D02*
X12241Y8143D01*
X11694Y8268D01*
X11164Y8453D01*
X10658Y8697D01*
X10182Y8996D01*
X9743Y9346D01*
X9346Y9743D01*
X8996Y10182D01*
X8697Y10658D01*
X8453Y11164D01*
X8268Y11694D01*
X8143Y12241D01*
X8080Y12799D01*
X8080Y13361D01*
X8143Y13919D01*
X8268Y14466D01*
X8453Y14996D01*
X8697Y15502D01*
X8996Y15978D01*
X9346Y16417D01*
X9743Y16814D01*
X10182Y17164D01*
X10658Y17463D01*
X11164Y17707D01*
X11694Y17892D01*
X12241Y18017D01*
X12799Y18080D01*
X13361Y18080D01*
X13919Y18017D01*
X14466Y17892D01*
X14996Y17707D01*
X15502Y17463D01*
X15978Y17164D01*
X16417Y16814D01*
X16814Y16417D01*
X17164Y15978D01*
X17463Y15502D01*
X17707Y14996D01*
X17892Y14466D01*
X18017Y13919D01*
X18080Y13361D01*
X18080Y12799D01*
X18017Y12241D01*
X17892Y11694D01*
X17707Y11164D01*
X17463Y10658D01*
X17164Y10182D01*
X16814Y9743D01*
X16417Y9346D01*
X15978Y8996D01*
X15502Y8697D01*
X14996Y8453D01*
X14466Y8268D01*
X13919Y8143D01*
X13361Y8080D01*
X12799Y8080D01*
X299567Y435905D02*
X298570Y435976D01*
X297580Y436119D01*
X296603Y436331D01*
X295643Y436613D01*
X294706Y436962D01*
X293796Y437378D01*
X292919Y437857D01*
X292077Y438398D01*
X291277Y438997D01*
X290521Y439652D01*
X289814Y440359D01*
X289159Y441115D01*
X288560Y441915D01*
X288019Y442757D01*
X287540Y443634D01*
X287124Y444544D01*
X286775Y445481D01*
X286493Y446441D01*
X286281Y447418D01*
X286138Y448408D01*
X286067Y449405D01*
X286067Y450405D01*
X286138Y451403D01*
X286281Y452392D01*
X286493Y453370D01*
X286775Y454329D01*
X287124Y455266D01*
X287540Y456176D01*
X288019Y457053D01*
X288560Y457895D01*
X289159Y458695D01*
X289814Y459451D01*
X290521Y460158D01*
X291277Y460813D01*
X292077Y461412D01*
X292919Y461953D01*
X293796Y462432D01*
X294706Y462848D01*
X295643Y463197D01*
X296603Y463479D01*
X297580Y463691D01*
X298570Y463834D01*
X299567Y463905D01*
X300567Y463905D01*
X301565Y463834D01*
X302554Y463691D01*
X303532Y463479D01*
X304491Y463197D01*
X305428Y462848D01*
X306338Y462432D01*
X307215Y461953D01*
X308057Y461412D01*
X308857Y460813D01*
X309613Y460158D01*
X310320Y459451D01*
X310975Y458695D01*
X311574Y457895D01*
X312115Y457053D01*
X312594Y456176D01*
X313010Y455266D01*
X313359Y454329D01*
X313641Y453370D01*
X313853Y452392D01*
X313996Y451403D01*
X314067Y450405D01*
X314067Y449405D01*
X313996Y448408D01*
X313853Y447418D01*
X313641Y446441D01*
X313359Y445481D01*
X313010Y444544D01*
X312594Y443634D01*
X312115Y442757D01*
X311574Y441915D01*
X310975Y441115D01*
X310320Y440359D01*
X309613Y439652D01*
X308857Y438997D01*
X308057Y438398D01*
X307215Y437857D01*
X306338Y437378D01*
X305428Y436962D01*
X304491Y436613D01*
X303532Y436331D01*
X302554Y436119D01*
X301565Y435976D01*
X300567Y435905D01*
X299567Y435905D01*
X299567Y136185D02*
X298570Y136256D01*
X297580Y136399D01*
X296603Y136611D01*
X295643Y136893D01*
X294706Y137242D01*
X293796Y137658D01*
X292919Y138137D01*
X292077Y138678D01*
X291277Y139277D01*
X290521Y139932D01*
X289814Y140639D01*
X289159Y141395D01*
X288560Y142195D01*
X288019Y143037D01*
X287540Y143914D01*
X287124Y144824D01*
X286775Y145761D01*
X286493Y146721D01*
X286281Y147698D01*
X286138Y148688D01*
X286067Y149685D01*
X286067Y150685D01*
X286138Y151683D01*
X286281Y152672D01*
X286493Y153650D01*
X286775Y154609D01*
X287124Y155546D01*
X287540Y156456D01*
X288019Y157333D01*
X288560Y158175D01*
X289159Y158975D01*
X289814Y159731D01*
X290521Y160438D01*
X291277Y161093D01*
X292077Y161692D01*
X292919Y162233D01*
X293796Y162712D01*
X294706Y163128D01*
X295643Y163477D01*
X296603Y163759D01*
X297580Y163971D01*
X298570Y164114D01*
X299567Y164185D01*
X300567Y164185D01*
X301565Y164114D01*
X302554Y163971D01*
X303532Y163759D01*
X304491Y163477D01*
X305428Y163128D01*
X306338Y162712D01*
X307215Y162233D01*
X308057Y161692D01*
X308857Y161093D01*
X309613Y160438D01*
X310320Y159731D01*
X310975Y158975D01*
X311574Y158175D01*
X312115Y157333D01*
X312594Y156456D01*
X313010Y155546D01*
X313359Y154609D01*
X313641Y153650D01*
X313853Y152672D01*
X313996Y151683D01*
X314067Y150685D01*
X314067Y149685D01*
X313996Y148688D01*
X313853Y147698D01*
X313641Y146721D01*
X313359Y145761D01*
X313010Y144824D01*
X312594Y143914D01*
X312115Y143037D01*
X311574Y142195D01*
X310975Y141395D01*
X310320Y140639D01*
X309613Y139932D01*
X308857Y139277D01*
X308057Y138678D01*
X307215Y138137D01*
X306338Y137658D01*
X305428Y137242D01*
X304491Y136893D01*
X303532Y136611D01*
X302554Y136399D01*
X301565Y136256D01*
X300567Y136185D01*
X299567Y136185D01*
X449707Y265445D02*
X448710Y265516D01*
X447720Y265659D01*
X446743Y265871D01*
X445783Y266153D01*
X444846Y266502D01*
X443936Y266918D01*
X443059Y267397D01*
X442217Y267938D01*
X441417Y268537D01*
X440661Y269192D01*
X439954Y269899D01*
X439299Y270655D01*
X438700Y271455D01*
X438159Y272297D01*
X437680Y273174D01*
X437264Y274084D01*
X436915Y275021D01*
X436633Y275981D01*
X436421Y276958D01*
X436278Y277948D01*
X436207Y278945D01*
X436207Y279945D01*
X436278Y280943D01*
X436421Y281932D01*
X436633Y282910D01*
X436915Y283869D01*
X437264Y284806D01*
X437680Y285716D01*
X438159Y286593D01*
X438700Y287435D01*
X439299Y288235D01*
X439954Y288991D01*
X440661Y289698D01*
X441417Y290353D01*
X442217Y290952D01*
X443059Y291493D01*
X443936Y291972D01*
X444846Y292388D01*
X445783Y292737D01*
X446743Y293019D01*
X447720Y293231D01*
X448710Y293374D01*
X449707Y293445D01*
X450707Y293445D01*
X451705Y293374D01*
X452694Y293231D01*
X453672Y293019D01*
X454631Y292737D01*
X455568Y292388D01*
X456478Y291972D01*
X457355Y291493D01*
X458197Y290952D01*
X458997Y290353D01*
X459753Y289698D01*
X460460Y288991D01*
X461115Y288235D01*
X461714Y287435D01*
X462255Y286593D01*
X462734Y285716D01*
X463150Y284806D01*
X463499Y283869D01*
X463781Y282910D01*
X463993Y281932D01*
X464136Y280943D01*
X464207Y279945D01*
X464207Y278945D01*
X464136Y277948D01*
X463993Y276958D01*
X463781Y275981D01*
X463499Y275021D01*
X463150Y274084D01*
X462734Y273174D01*
X462255Y272297D01*
X461714Y271455D01*
X461115Y270655D01*
X460460Y269899D01*
X459753Y269192D01*
X458997Y268537D01*
X458197Y267938D01*
X457355Y267397D01*
X456478Y266918D01*
X455568Y266502D01*
X454631Y266153D01*
X453672Y265871D01*
X452694Y265659D01*
X451705Y265516D01*
X450707Y265445D01*
X449707Y265445D01*
X149707Y305445D02*
X148710Y305516D01*
X147720Y305659D01*
X146743Y305871D01*
X145783Y306153D01*
X144846Y306502D01*
X143936Y306918D01*
X143059Y307397D01*
X142217Y307938D01*
X141417Y308537D01*
X140661Y309192D01*
X139954Y309899D01*
X139299Y310655D01*
X138700Y311455D01*
X138159Y312297D01*
X137680Y313174D01*
X137264Y314084D01*
X136915Y315021D01*
X136633Y315981D01*
X136421Y316958D01*
X136278Y317948D01*
X136207Y318945D01*
X136207Y319945D01*
X136278Y320943D01*
X136421Y321932D01*
X136633Y322910D01*
X136915Y323869D01*
X137264Y324806D01*
X137680Y325716D01*
X138159Y326593D01*
X138700Y327435D01*
X139299Y328235D01*
X139954Y328991D01*
X140661Y329698D01*
X141417Y330353D01*
X142217Y330952D01*
X143059Y331493D01*
X143936Y331972D01*
X144846Y332388D01*
X145783Y332737D01*
X146743Y333019D01*
X147720Y333231D01*
X148710Y333374D01*
X149707Y333445D01*
X150707Y333445D01*
X151705Y333374D01*
X152694Y333231D01*
X153672Y333019D01*
X154631Y332737D01*
X155568Y332388D01*
X156478Y331972D01*
X157355Y331493D01*
X158197Y330952D01*
X158997Y330353D01*
X159753Y329698D01*
X160460Y328991D01*
X161115Y328235D01*
X161714Y327435D01*
X162255Y326593D01*
X162734Y325716D01*
X163150Y324806D01*
X163499Y323869D01*
X163781Y322910D01*
X163993Y321932D01*
X164136Y320943D01*
X164207Y319945D01*
X164207Y318945D01*
X164136Y317948D01*
X163993Y316958D01*
X163781Y315981D01*
X163499Y315021D01*
X163150Y314084D01*
X162734Y313174D01*
X162255Y312297D01*
X161714Y311455D01*
X161115Y310655D01*
X160460Y309899D01*
X159753Y309192D01*
X158997Y308537D01*
X158197Y307938D01*
X157355Y307397D01*
X156478Y306918D01*
X155568Y306502D01*
X154631Y306153D01*
X153672Y305871D01*
X152694Y305659D01*
X151705Y305516D01*
X150707Y305445D01*
X149707Y305445D01*
M02*
