M48
;GenerationSoftware,Autodesk,EAGLE,9.3.0*%
;CreationDate,2019-03-27T20:37:42Z*%
FMAT,2
ICI,OFF
METRIC,TZ,000.000
T12C0.350
T11C0.730
T10C0.759
T9C0.965
T8C0.991
T7C1.000
T6C1.016
T5C1.100
T4C1.118
T3C2.000
T2C2.540
T1C2.800
%
G90
M71
T1
X13679Y5272
X30007Y15018
X30007Y44990
X45021Y27944
X15021Y31944
T2
X2635Y75692
X14835Y75692
X45178Y75682
X57378Y75682
T3
X41661Y82581
X18185Y82581
T4
X3909Y20367
X9995Y28503
X38420Y3500
X48580Y3500
T5
X4953Y97000
X4953Y94000
X4953Y85500
X4953Y108505
X14986Y94000
X14986Y85500
X25019Y97000
X25019Y94000
X25019Y85500
X35052Y94000
X35052Y85500
X45085Y97000
X45085Y97005
X14986Y108505
X25019Y97005
X25019Y100005
X25019Y108505
X14986Y97000
X35052Y97000
X11266Y21274
X45085Y85500
X35052Y97005
X35052Y100005
X55118Y97000
X55118Y94000
X55118Y85500
X35052Y108505
X13552Y21274
X45085Y100005
X45085Y108505
X45085Y94000
X4953Y100005
X15838Y21274
X14986Y100005
X14986Y97005
X55118Y97005
X55118Y100005
X55118Y108505
X4953Y97005
T6
X3831Y16205
X6371Y6045
X6371Y8585
X6371Y11125
X6371Y13665
X6371Y16205
X3831Y6045
X11996Y65958
X11996Y61436
X5494Y61436
X5494Y65958
X54539Y61416
X54539Y65938
X48037Y65938
X48037Y61416
X3831Y8585
X3831Y11125
X3831Y13665
T7
X11235Y68192
X8735Y68192
X6235Y68192
X1308Y1308
X1308Y58708
X48778Y68182
X51278Y68182
X53778Y68182
X48778Y82682
X53778Y82682
X58708Y1308
X58708Y58708
X22325Y82660
X24865Y82660
X27405Y82660
X29945Y82660
X32485Y82660
X35025Y82660
X37565Y82660
X6235Y82692
X11235Y82692
T8
X38380Y18160
X38380Y23240
X38380Y20700
X38380Y15620
X38380Y13080
X38380Y10540
X38380Y8000
X46000Y8000
X46000Y10540
X46000Y13080
X46000Y15620
X46000Y18160
X46000Y20700
X46000Y23240
X48880Y23240
X48880Y20700
X48880Y18160
X48880Y15620
X48880Y13080
X48880Y10540
X48880Y8000
X56500Y8000
X56500Y10540
X56500Y13080
X56500Y15620
X56500Y18160
X56500Y20700
X56500Y23240
T9
X21916Y48041
X34616Y42961
X34616Y55661
X34616Y53121
X34616Y50581
X34616Y48041
X34616Y4861
X34616Y45501
X34616Y40421
X34616Y37881
X34616Y35341
X34616Y32801
X34616Y30261
X34616Y27721
X19376Y27721
X19376Y30261
X19376Y32801
X19376Y35341
X19376Y37881
X19376Y40421
X19376Y42961
X19376Y45501
X19376Y48041
X19376Y50581
X19376Y53121
X34616Y58201
X19376Y55661
X2576Y24928
X19376Y58201
X34616Y60741
X19376Y60741
X34616Y25181
X19376Y25181
X34616Y22641
X34616Y20101
X34616Y17561
X34616Y15021
X34616Y12481
X34616Y9941
X34616Y7401
X34616Y2321
X19376Y2321
X19376Y4861
X19376Y7401
X19376Y9941
X19376Y12481
X19376Y15021
X19376Y17561
X19376Y20101
X19376Y22641
X21916Y58201
X21916Y53121
X21916Y50581
X2576Y35088
X2576Y32548
X2576Y30008
X2576Y27468
T10
X6095Y49000
X6095Y46460
X6095Y43920
X6095Y41380
X13905Y41380
X13905Y46460
X13905Y43920
X13905Y49000
X13905Y51540
X13905Y54080
X13905Y56620
X6095Y56620
X6095Y54080
X6095Y51540
T11
X56860Y39460
X56860Y42000
X56860Y44540
X56860Y47080
X56860Y49620
X38030Y49620
X38030Y47080
X38030Y44540
X38030Y42000
X38030Y39460
X38030Y36920
X38030Y34380
X45970Y34380
X45970Y36920
X45970Y39460
X45970Y42000
X45970Y44540
X45970Y47080
X45970Y49620
X48920Y44540
X48920Y49620
X48920Y47080
X48920Y42000
X48920Y39460
X48920Y36920
X48920Y34380
X56860Y34380
X56860Y36920
T12
X30000Y99500
X57500Y27500
X52500Y76500
X48000Y71500
X51000Y74500
X49500Y73000
X9000Y94250
X10000Y86500
X26000Y70000
X11500Y56000
X11500Y46500
X10000Y99500
X8000Y49000
X10500Y58000
X27500Y75000
X32500Y67500
X41500Y75500
X7500Y78000
X21000Y66500
X52000Y99500
X48500Y99500
X44000Y53000
X38500Y53000
X40000Y99500
X20000Y99500
M30