G04 EAGLE Gerber RS-274X export*
G75*
%MOMM*%
%FSLAX34Y34*%
%LPD*%
%INTop Copper*%
%IPPOS*%
%AMOC8*
5,1,8,0,0,1.08239X$1,22.5*%
G01*
%ADD10C,1.676400*%
%ADD11R,1.508000X1.508000*%
%ADD12R,3.556000X3.556000*%
%ADD13P,1.649562X8X112.500000*%
%ADD14C,1.473200*%
%ADD15R,1.930400X1.930400*%
%ADD16C,1.930400*%
%ADD17C,1.650000*%
%ADD18C,1.524000*%
%ADD19C,1.508000*%
%ADD20R,1.267000X1.267000*%
%ADD21C,1.267000*%
%ADD22R,1.238000X1.238000*%
%ADD23C,1.238000*%
%ADD24R,1.498600X1.498600*%
%ADD25C,1.498600*%
%ADD26R,1.500000X1.300000*%
%ADD27C,0.152400*%
%ADD28C,0.756400*%
%ADD29C,0.152400*%


D10*
X39090Y203673D03*
X99950Y285027D03*
D11*
X62350Y681920D03*
X87350Y681920D03*
X112350Y681920D03*
X62350Y826920D03*
X112350Y826920D03*
D12*
X26350Y756920D03*
X148350Y756920D03*
D13*
X38310Y60450D03*
X38310Y85850D03*
X38310Y111250D03*
X38310Y136650D03*
X38310Y162050D03*
X63710Y60450D03*
X63710Y85850D03*
X63710Y111250D03*
X63710Y136650D03*
X63710Y162050D03*
D14*
X346160Y556610D03*
X346160Y531210D03*
X346160Y505810D03*
X346160Y480410D03*
X346160Y455010D03*
X346160Y429610D03*
X346160Y404210D03*
X346160Y378810D03*
X346160Y353410D03*
X346160Y328010D03*
X346160Y302610D03*
X346160Y277210D03*
X193760Y277210D03*
X193760Y302610D03*
X193760Y328010D03*
X193760Y353410D03*
X193760Y378810D03*
X193760Y404210D03*
X193760Y429610D03*
X193760Y455010D03*
X193760Y480410D03*
X193760Y505810D03*
X193760Y531210D03*
X346160Y582010D03*
X193760Y556610D03*
X193760Y582010D03*
X346160Y607410D03*
X193760Y607410D03*
X346160Y251810D03*
X193760Y251810D03*
X346160Y226410D03*
X346160Y201010D03*
X346160Y175610D03*
X346160Y150210D03*
X346160Y124810D03*
X346160Y99410D03*
X346160Y74010D03*
X346160Y48610D03*
X346160Y23210D03*
X193760Y23210D03*
X193760Y48610D03*
X193760Y74010D03*
X193760Y99410D03*
X193760Y124810D03*
X193760Y150210D03*
X193760Y175610D03*
X193760Y201010D03*
X193760Y226410D03*
X219160Y582010D03*
X219160Y531210D03*
X219160Y505810D03*
X219160Y480410D03*
D15*
X112660Y212744D03*
D16*
X135520Y212744D03*
D15*
X158380Y212744D03*
D17*
X551180Y855002D03*
X551180Y940002D03*
X551180Y970002D03*
X250190Y1085050D03*
X250190Y1000050D03*
X250190Y970050D03*
X149860Y1085050D03*
X149860Y1000050D03*
X149860Y970050D03*
X49530Y1085050D03*
X49530Y1000050D03*
X49530Y970050D03*
X450850Y855002D03*
X450850Y940002D03*
X450850Y970002D03*
X350520Y855002D03*
X350520Y940002D03*
X350520Y970002D03*
X250190Y855002D03*
X250190Y940002D03*
X250190Y970002D03*
X149860Y855002D03*
X149860Y940002D03*
X149860Y970002D03*
X49530Y855002D03*
X49530Y940002D03*
X49530Y970002D03*
X551180Y1085050D03*
X551180Y1000050D03*
X551180Y970050D03*
X450850Y1085050D03*
X450850Y1000050D03*
X450850Y970050D03*
X350520Y1085050D03*
X350520Y1000050D03*
X350520Y970050D03*
D18*
X127582Y614364D02*
X112342Y614364D01*
X112342Y659576D02*
X127582Y659576D01*
X62558Y614364D02*
X47318Y614364D01*
X47318Y659576D02*
X62558Y659576D01*
X537772Y614164D02*
X553012Y614164D01*
X553012Y659376D02*
X537772Y659376D01*
X487988Y614164D02*
X472748Y614164D01*
X472748Y659376D02*
X487988Y659376D01*
D11*
X487780Y681820D03*
X512780Y681820D03*
X537780Y681820D03*
X487780Y826820D03*
X537780Y826820D03*
D12*
X451780Y756820D03*
X573780Y756820D03*
D11*
X223250Y826600D03*
D19*
X248650Y826600D03*
X274050Y826600D03*
X299450Y826600D03*
X324850Y826600D03*
X350250Y826600D03*
X375650Y826600D03*
D20*
X139050Y413800D03*
D21*
X139050Y439200D03*
X139050Y464600D03*
X139050Y490000D03*
X139050Y515400D03*
X139050Y540800D03*
X139050Y566200D03*
X60950Y566200D03*
X60950Y540800D03*
X60950Y515400D03*
X60950Y490000D03*
X60950Y464600D03*
X60950Y439200D03*
X60950Y413800D03*
D22*
X489200Y496200D03*
D23*
X489200Y470800D03*
X489200Y445400D03*
X489200Y420000D03*
X489200Y394600D03*
X489200Y369200D03*
X489200Y343800D03*
X568600Y343800D03*
X568600Y369200D03*
X568600Y394600D03*
X568600Y420000D03*
X568600Y445400D03*
X568600Y470800D03*
X568600Y496200D03*
D22*
X380300Y496200D03*
D23*
X380300Y470800D03*
X380300Y445400D03*
X380300Y420000D03*
X380300Y394600D03*
X380300Y369200D03*
X380300Y343800D03*
X459700Y343800D03*
X459700Y369200D03*
X459700Y394600D03*
X459700Y420000D03*
X459700Y445400D03*
X459700Y470800D03*
X459700Y496200D03*
D10*
X485800Y35000D03*
X384200Y35000D03*
D24*
X383800Y232400D03*
D25*
X383800Y207000D03*
X383800Y181600D03*
X383800Y156200D03*
X383800Y130800D03*
X383800Y105400D03*
X383800Y80000D03*
X460000Y80000D03*
X460000Y105400D03*
X460000Y130800D03*
X460000Y156200D03*
X460000Y181600D03*
X460000Y207000D03*
X460000Y232400D03*
D24*
X488800Y232400D03*
D25*
X488800Y207000D03*
X488800Y181600D03*
X488800Y156200D03*
X488800Y130800D03*
X488800Y105400D03*
X488800Y80000D03*
X565000Y80000D03*
X565000Y105400D03*
X565000Y130800D03*
X565000Y156200D03*
X565000Y181600D03*
X565000Y207000D03*
X565000Y232400D03*
D14*
X25760Y350880D03*
X25760Y325480D03*
X25760Y300080D03*
X25760Y274680D03*
X25760Y249280D03*
D26*
X112500Y173800D03*
X112500Y154800D03*
X157500Y174500D03*
X157500Y155500D03*
D27*
X210000Y598250D02*
X210000Y665000D01*
X210000Y598250D02*
X193760Y582010D01*
D28*
X210000Y665000D03*
D27*
X112500Y136650D02*
X63710Y136650D01*
X112500Y136650D02*
X154150Y136650D01*
X157500Y140000D02*
X157500Y155500D01*
X157500Y140000D02*
X154150Y136650D01*
X112500Y136650D02*
X112500Y154800D01*
X120950Y264027D02*
X275000Y264027D01*
X120950Y264027D02*
X99950Y285027D01*
X275000Y264027D02*
X275000Y417700D01*
X378000Y417700D02*
X380300Y420000D01*
X378000Y417700D02*
X275000Y417700D01*
X112660Y213148D02*
X112500Y213072D01*
X112500Y173800D01*
X112660Y212744D02*
X112660Y213148D01*
X139050Y490000D02*
X170000Y490000D01*
X170000Y607400D01*
X193750Y607400D02*
X193760Y607410D01*
X193750Y607400D02*
X170000Y607400D01*
X158380Y212744D02*
X158380Y174880D01*
X157500Y174500D01*
X233525Y811475D02*
X248650Y826600D01*
X233525Y811475D02*
X233525Y556610D01*
X193760Y556610D01*
X75000Y780000D02*
X62350Y792650D01*
X62350Y826920D01*
D28*
X75000Y780000D03*
D27*
X325000Y675000D02*
X325000Y603170D01*
X346160Y582010D01*
D28*
X325000Y675000D03*
X415000Y755000D03*
D27*
X476820Y826820D02*
X487780Y826820D01*
X476820Y826820D02*
X415000Y765000D01*
X415000Y755000D01*
X245000Y277210D02*
X193760Y277210D01*
X245000Y797550D02*
X274050Y826600D01*
X245000Y797550D02*
X245000Y277210D01*
X375650Y816600D02*
X375650Y826600D01*
X375650Y816600D02*
X260000Y700950D01*
X260000Y700000D01*
D28*
X260000Y700000D03*
X275000Y750000D03*
D27*
X275000Y751350D02*
X350250Y826600D01*
X275000Y751350D02*
X275000Y750000D01*
X213760Y443500D02*
X213760Y398810D01*
X193760Y378810D01*
X157500Y452500D02*
X100000Y452500D01*
X100000Y575000D02*
X105000Y580000D01*
D28*
X105000Y580000D03*
D27*
X166500Y443500D02*
X213760Y443500D01*
X166500Y443500D02*
X157500Y452500D01*
X100000Y452500D02*
X100000Y575000D01*
X26080Y275000D02*
X25760Y274680D01*
X26080Y275000D02*
X38580Y275000D01*
X193190Y429610D02*
X193760Y429610D01*
X193190Y429610D02*
X39290Y275710D01*
X38580Y275000D01*
D29*
X39290Y275710D03*
D27*
X35760Y249280D02*
X25760Y249280D01*
X190690Y404210D02*
X193760Y404210D01*
X190690Y404210D02*
X35760Y249280D01*
D28*
X80000Y490000D03*
D27*
X80000Y535000D01*
X74200Y540800D02*
X60950Y540800D01*
X74200Y540800D02*
X80000Y535000D01*
D28*
X100000Y995000D03*
D27*
X110000Y985000D01*
X110000Y880000D01*
X125000Y865000D02*
X125000Y805000D01*
X125000Y478650D02*
X139050Y464600D01*
X125000Y478650D02*
X125000Y585000D01*
X145000Y605000D01*
X145000Y705000D01*
X115000Y735000D02*
X115000Y795000D01*
X125000Y805000D01*
X115000Y735000D02*
X145000Y705000D01*
X125000Y865000D02*
X110000Y880000D01*
D28*
X115000Y465000D03*
D27*
X115000Y560000D01*
D28*
X115000Y560000D03*
X200000Y995000D03*
D27*
X202772Y992228D01*
X202772Y707772D01*
X160000Y665000D01*
X160000Y515000D01*
X159600Y515400D01*
X139050Y515400D01*
D28*
X100000Y865000D03*
D27*
X100000Y775000D01*
X35000Y710000D01*
X35000Y515000D01*
X60550Y515000D01*
X60950Y515400D01*
D28*
X90000Y942500D03*
D27*
X29277Y714454D02*
X29277Y465000D01*
X60550Y465000D01*
X60950Y464600D01*
X55000Y740177D02*
X55000Y775000D01*
X55000Y740177D02*
X29277Y714454D01*
X55000Y775000D02*
X25000Y805000D01*
X25000Y870000D01*
X90000Y880000D02*
X90000Y942500D01*
X80000Y870000D02*
X25000Y870000D01*
X80000Y870000D02*
X90000Y880000D01*
D28*
X495000Y730000D03*
D27*
X500000Y725000D01*
X500000Y354600D02*
X489200Y343800D01*
X500000Y354600D02*
X500000Y725000D01*
D28*
X510000Y745000D03*
D27*
X510000Y720000D01*
X525000Y705000D01*
X525000Y387400D02*
X568600Y343800D01*
X525000Y387400D02*
X525000Y705000D01*
D28*
X480000Y715000D03*
D27*
X460000Y695000D01*
X460000Y560000D01*
X487500Y496200D02*
X489200Y496200D01*
X487500Y496200D02*
X487500Y532500D01*
X460000Y560000D01*
D28*
X525000Y765000D03*
D27*
X525000Y725000D01*
X570000Y680000D01*
X570000Y497600D01*
X568600Y496200D01*
X560000Y35000D02*
X485800Y35000D01*
X560000Y35000D02*
X580000Y55000D01*
X580000Y270000D01*
D28*
X575000Y275000D03*
D27*
X580000Y270000D01*
D28*
X300000Y995000D03*
D27*
X368932Y785000D02*
X368932Y497568D01*
X370300Y496200D02*
X380300Y496200D01*
X370300Y496200D02*
X368932Y497568D01*
X315000Y840000D02*
X303932Y851068D01*
X303932Y991068D02*
X300000Y995000D01*
X303932Y991068D02*
X303932Y851068D01*
X390000Y840000D02*
X390000Y806068D01*
X390000Y840000D02*
X315000Y840000D01*
X368932Y785000D02*
X390000Y806068D01*
D28*
X400000Y995000D03*
D27*
X405000Y363500D02*
X385300Y343800D01*
X380300Y343800D01*
X405000Y363500D02*
X405000Y632727D01*
X395688Y990688D02*
X400000Y995000D01*
X395688Y990688D02*
X395688Y790000D01*
X380000Y774312D01*
X380000Y657727D01*
X405000Y632727D01*
D28*
X385000Y530000D03*
D27*
X395000Y520000D01*
X395000Y370000D01*
X381100Y370000D01*
X380300Y369200D01*
D28*
X440000Y530000D03*
D27*
X440000Y380000D01*
X450800Y369200D01*
X459700Y369200D01*
D28*
X485000Y995000D03*
D27*
X485000Y985000D01*
X425000Y378500D02*
X459700Y343800D01*
X425000Y378500D02*
X425000Y635000D01*
X395000Y764607D02*
X437532Y807139D01*
X410000Y985000D02*
X485000Y985000D01*
X410000Y985000D02*
X410000Y850000D01*
X437532Y839471D02*
X437532Y807139D01*
X437532Y839471D02*
X430276Y846727D01*
X413273Y846727D01*
X410000Y850000D01*
X395000Y665000D02*
X425000Y635000D01*
X395000Y665000D02*
X395000Y764607D01*
D28*
X520000Y995000D03*
D27*
X454700Y550000D02*
X454700Y501200D01*
X459700Y496200D01*
X505000Y805000D02*
X505000Y985000D01*
X445000Y559700D02*
X454700Y550000D01*
X445000Y559700D02*
X445000Y705000D01*
X485000Y745000D01*
X485000Y785000D02*
X505000Y805000D01*
X485000Y785000D02*
X485000Y745000D01*
X505000Y985000D02*
X515000Y995000D01*
X520000Y995000D01*
X560000Y295000D02*
X560000Y237400D01*
X565000Y232400D01*
X560000Y295000D02*
X589098Y295000D01*
X589098Y445000D01*
X588698Y445400D01*
X568600Y445400D01*
X545000Y150800D02*
X565000Y130800D01*
X580000Y310000D02*
X545000Y310000D01*
X580000Y310000D02*
X580000Y395000D01*
X579600Y394600D01*
X568600Y394600D01*
X545000Y310000D02*
X545000Y150800D01*
X460000Y232400D02*
X442500Y232400D01*
X472500Y437500D02*
X480400Y445400D01*
X489200Y445400D01*
X420000Y254900D02*
X442500Y232400D01*
X420000Y254900D02*
X420000Y302400D01*
X430100Y312500D01*
X472500Y312500D01*
X472500Y437500D01*
X475000Y145800D02*
X460000Y130800D01*
X475000Y270000D02*
X480000Y275000D01*
X480000Y395000D01*
X480400Y394600D01*
X489200Y394600D01*
X475000Y270000D02*
X475000Y145800D01*
X502500Y64410D02*
X376160Y64410D01*
X365285Y75285D01*
X488800Y156200D02*
X510000Y156200D01*
X510000Y71910D02*
X502500Y64410D01*
X510000Y71910D02*
X510000Y156200D01*
X365285Y80285D02*
X346160Y99410D01*
X365285Y80285D02*
X365285Y75285D01*
X350050Y52500D02*
X550000Y52500D01*
X350050Y52500D02*
X346160Y48610D01*
X550000Y52500D02*
X565000Y67500D01*
X565000Y80000D01*
M02*
