G04 EAGLE Gerber RS-274X export*
G75*
%MOMM*%
%FSLAX34Y34*%
%LPD*%
%INSoldermask Bottom*%
%IPPOS*%
%AMOC8*
5,1,8,0,0,1.08239X$1,22.5*%
G01*
%ADD10C,1.879600*%
%ADD11R,1.711200X1.711200*%
%ADD12R,3.759200X3.759200*%
%ADD13P,1.869504X8X112.500000*%
%ADD14C,1.676400*%
%ADD15R,2.133600X2.133600*%
%ADD16C,2.133600*%
%ADD17C,3.003200*%
%ADD18C,1.853200*%
%ADD19C,1.727200*%
%ADD20C,2.203200*%
%ADD21C,1.711200*%
%ADD22R,1.470200X1.470200*%
%ADD23C,1.470200*%
%ADD24R,1.441200X1.441200*%
%ADD25C,1.441200*%
%ADD26R,1.703200X1.503200*%
%ADD27R,1.503200X1.703200*%
%ADD28R,1.701800X1.701800*%
%ADD29C,1.701800*%
%ADD30C,1.203200*%
%ADD31C,0.959600*%


D10*
X39090Y203673D03*
X99950Y285027D03*
D11*
X62350Y681920D03*
X87350Y681920D03*
X112350Y681920D03*
X62350Y826920D03*
X112350Y826920D03*
D12*
X26350Y756920D03*
X148350Y756920D03*
D13*
X38310Y60450D03*
X38310Y85850D03*
X38310Y111250D03*
X38310Y136650D03*
X38310Y162050D03*
X63710Y60450D03*
X63710Y85850D03*
X63710Y111250D03*
X63710Y136650D03*
X63710Y162050D03*
D14*
X346160Y556610D03*
X346160Y531210D03*
X346160Y505810D03*
X346160Y480410D03*
X346160Y455010D03*
X346160Y429610D03*
X346160Y404210D03*
X346160Y378810D03*
X346160Y353410D03*
X346160Y328010D03*
X346160Y302610D03*
X346160Y277210D03*
X193760Y277210D03*
X193760Y302610D03*
X193760Y328010D03*
X193760Y353410D03*
X193760Y378810D03*
X193760Y404210D03*
X193760Y429610D03*
X193760Y455010D03*
X193760Y480410D03*
X193760Y505810D03*
X193760Y531210D03*
X346160Y582010D03*
X193760Y556610D03*
X193760Y582010D03*
X346160Y607410D03*
X193760Y607410D03*
X346160Y251810D03*
X193760Y251810D03*
X346160Y226410D03*
X346160Y201010D03*
X346160Y175610D03*
X346160Y150210D03*
X346160Y124810D03*
X346160Y99410D03*
X346160Y74010D03*
X346160Y48610D03*
X346160Y23210D03*
X193760Y23210D03*
X193760Y48610D03*
X193760Y74010D03*
X193760Y99410D03*
X193760Y124810D03*
X193760Y150210D03*
X193760Y175610D03*
X193760Y201010D03*
X193760Y226410D03*
X219160Y582010D03*
X219160Y531210D03*
X219160Y505810D03*
X219160Y480410D03*
D15*
X112660Y212744D03*
D16*
X135520Y212744D03*
D15*
X158380Y212744D03*
D17*
X136790Y52724D03*
D18*
X551180Y855002D03*
X551180Y940002D03*
X551180Y970002D03*
X250190Y1085050D03*
X250190Y1000050D03*
X250190Y970050D03*
X149860Y1085050D03*
X149860Y1000050D03*
X149860Y970050D03*
X49530Y1085050D03*
X49530Y1000050D03*
X49530Y970050D03*
X450850Y855002D03*
X450850Y940002D03*
X450850Y970002D03*
X350520Y855002D03*
X350520Y940002D03*
X350520Y970002D03*
X250190Y855002D03*
X250190Y940002D03*
X250190Y970002D03*
X149860Y855002D03*
X149860Y940002D03*
X149860Y970002D03*
X49530Y855002D03*
X49530Y940002D03*
X49530Y970002D03*
X551180Y1085050D03*
X551180Y1000050D03*
X551180Y970050D03*
X450850Y1085050D03*
X450850Y1000050D03*
X450850Y970050D03*
X350520Y1085050D03*
X350520Y1000050D03*
X350520Y970050D03*
D19*
X127582Y614364D02*
X112342Y614364D01*
X112342Y659576D02*
X127582Y659576D01*
X62558Y614364D02*
X47318Y614364D01*
X47318Y659576D02*
X62558Y659576D01*
X537772Y614164D02*
X553012Y614164D01*
X553012Y659376D02*
X537772Y659376D01*
X487988Y614164D02*
X472748Y614164D01*
X472748Y659376D02*
X487988Y659376D01*
D11*
X487780Y681820D03*
X512780Y681820D03*
X537780Y681820D03*
X487780Y826820D03*
X537780Y826820D03*
D12*
X451780Y756820D03*
X573780Y756820D03*
D20*
X181850Y825805D03*
X416610Y825805D03*
D11*
X223250Y826600D03*
D21*
X248650Y826600D03*
X274050Y826600D03*
X299450Y826600D03*
X324850Y826600D03*
X350250Y826600D03*
X375650Y826600D03*
D22*
X139050Y413800D03*
D23*
X139050Y439200D03*
X139050Y464600D03*
X139050Y490000D03*
X139050Y515400D03*
X139050Y540800D03*
X139050Y566200D03*
X60950Y566200D03*
X60950Y540800D03*
X60950Y515400D03*
X60950Y490000D03*
X60950Y464600D03*
X60950Y439200D03*
X60950Y413800D03*
D24*
X489200Y496200D03*
D25*
X489200Y470800D03*
X489200Y445400D03*
X489200Y420000D03*
X489200Y394600D03*
X489200Y369200D03*
X489200Y343800D03*
X568600Y343800D03*
X568600Y369200D03*
X568600Y394600D03*
X568600Y420000D03*
X568600Y445400D03*
X568600Y470800D03*
X568600Y496200D03*
D24*
X380300Y496200D03*
D25*
X380300Y470800D03*
X380300Y445400D03*
X380300Y420000D03*
X380300Y394600D03*
X380300Y369200D03*
X380300Y343800D03*
X459700Y343800D03*
X459700Y369200D03*
X459700Y394600D03*
X459700Y420000D03*
X459700Y445400D03*
X459700Y470800D03*
X459700Y496200D03*
D10*
X485800Y35000D03*
X384200Y35000D03*
D26*
X100000Y1030500D03*
X100000Y1049500D03*
X200000Y1049500D03*
X200000Y1030500D03*
X67500Y909500D03*
X67500Y890500D03*
X167500Y909500D03*
X167500Y890500D03*
X300000Y1030500D03*
X300000Y1049500D03*
X400000Y1030500D03*
X400000Y1049500D03*
X567500Y1030500D03*
X567500Y1049500D03*
X485000Y1030500D03*
X485000Y1049500D03*
X267500Y890500D03*
X267500Y909500D03*
X367500Y890500D03*
X367500Y909500D03*
X467500Y890500D03*
X467500Y909500D03*
X532500Y890500D03*
X532500Y909500D03*
X405000Y475500D03*
X405000Y494500D03*
X410000Y569500D03*
X410000Y550500D03*
X385000Y569500D03*
X385000Y550500D03*
X405000Y364500D03*
X405000Y345500D03*
X435000Y345500D03*
X435000Y364500D03*
X460000Y550500D03*
X460000Y569500D03*
X85000Y579500D03*
X85000Y560500D03*
X100000Y505500D03*
X100000Y524500D03*
X85000Y469500D03*
X85000Y450500D03*
X85000Y414500D03*
X85000Y395500D03*
D27*
X39500Y550000D03*
X20500Y550000D03*
X20500Y510000D03*
X39500Y510000D03*
X20500Y450000D03*
X39500Y450000D03*
X39500Y395000D03*
X20500Y395000D03*
D26*
X510000Y569500D03*
X510000Y550500D03*
X485000Y569500D03*
X485000Y550500D03*
X535000Y550500D03*
X535000Y569500D03*
X560000Y550500D03*
X560000Y569500D03*
X515000Y475500D03*
X515000Y494500D03*
X515000Y364500D03*
X515000Y345500D03*
X545000Y345500D03*
X545000Y364500D03*
X545000Y494500D03*
X545000Y475500D03*
X435000Y550500D03*
X435000Y569500D03*
X435000Y494500D03*
X435000Y475500D03*
D28*
X383800Y232400D03*
D29*
X383800Y207000D03*
X383800Y181600D03*
X383800Y156200D03*
X383800Y130800D03*
X383800Y105400D03*
X383800Y80000D03*
X460000Y80000D03*
X460000Y105400D03*
X460000Y130800D03*
X460000Y156200D03*
X460000Y181600D03*
X460000Y207000D03*
X460000Y232400D03*
D28*
X488800Y232400D03*
D29*
X488800Y207000D03*
X488800Y181600D03*
X488800Y156200D03*
X488800Y130800D03*
X488800Y105400D03*
X488800Y80000D03*
X565000Y80000D03*
X565000Y105400D03*
X565000Y130800D03*
X565000Y156200D03*
X565000Y181600D03*
X565000Y207000D03*
X565000Y232400D03*
D30*
X587080Y587080D03*
X587080Y13080D03*
X13080Y587080D03*
X13080Y13080D03*
D14*
X25760Y350880D03*
X25760Y325480D03*
X25760Y300080D03*
X25760Y274680D03*
X25760Y249280D03*
D17*
X300067Y449905D03*
X300067Y150185D03*
X450207Y279445D03*
X150207Y319445D03*
D26*
X132500Y264500D03*
X132500Y245500D03*
X162500Y264500D03*
X162500Y245500D03*
D27*
X523000Y30000D03*
X542000Y30000D03*
X523000Y60000D03*
X542000Y60000D03*
D26*
X225000Y124500D03*
X225000Y105500D03*
X260000Y124500D03*
X260000Y105500D03*
D31*
X210000Y665000D03*
X75000Y780000D03*
X325000Y675000D03*
X415000Y755000D03*
X260000Y700000D03*
X275000Y750000D03*
X105000Y580000D03*
X80000Y490000D03*
X100000Y995000D03*
X115000Y465000D03*
X115000Y560000D03*
X200000Y995000D03*
X100000Y865000D03*
X90000Y942500D03*
X495000Y730000D03*
X510000Y745000D03*
X480000Y715000D03*
X525000Y765000D03*
X575000Y275000D03*
X300000Y995000D03*
X400000Y995000D03*
X385000Y530000D03*
X440000Y530000D03*
X485000Y995000D03*
X520000Y995000D03*
M02*
