G04 EAGLE Gerber RS-274X export*
G75*
%MOMM*%
%FSLAX34Y34*%
%LPD*%
%INSolderpaste Bottom*%
%IPPOS*%
%AMOC8*
5,1,8,0,0,1.08239X$1,22.5*%
G01*
%ADD10R,1.500000X1.300000*%
%ADD11R,1.300000X1.500000*%


D10*
X100000Y1030500D03*
X100000Y1049500D03*
X200000Y1049500D03*
X200000Y1030500D03*
X67500Y909500D03*
X67500Y890500D03*
X167500Y909500D03*
X167500Y890500D03*
X300000Y1030500D03*
X300000Y1049500D03*
X400000Y1030500D03*
X400000Y1049500D03*
X567500Y1030500D03*
X567500Y1049500D03*
X485000Y1030500D03*
X485000Y1049500D03*
X267500Y890500D03*
X267500Y909500D03*
X367500Y890500D03*
X367500Y909500D03*
X467500Y890500D03*
X467500Y909500D03*
X532500Y890500D03*
X532500Y909500D03*
X405000Y475500D03*
X405000Y494500D03*
X410000Y569500D03*
X410000Y550500D03*
X385000Y569500D03*
X385000Y550500D03*
X405000Y364500D03*
X405000Y345500D03*
X435000Y345500D03*
X435000Y364500D03*
X460000Y550500D03*
X460000Y569500D03*
X85000Y579500D03*
X85000Y560500D03*
X100000Y505500D03*
X100000Y524500D03*
X85000Y469500D03*
X85000Y450500D03*
X85000Y414500D03*
X85000Y395500D03*
D11*
X39500Y550000D03*
X20500Y550000D03*
X20500Y510000D03*
X39500Y510000D03*
X20500Y450000D03*
X39500Y450000D03*
X39500Y395000D03*
X20500Y395000D03*
D10*
X510000Y569500D03*
X510000Y550500D03*
X485000Y569500D03*
X485000Y550500D03*
X535000Y550500D03*
X535000Y569500D03*
X560000Y550500D03*
X560000Y569500D03*
X515000Y475500D03*
X515000Y494500D03*
X515000Y364500D03*
X515000Y345500D03*
X545000Y345500D03*
X545000Y364500D03*
X545000Y494500D03*
X545000Y475500D03*
X435000Y550500D03*
X435000Y569500D03*
X435000Y494500D03*
X435000Y475500D03*
X132500Y264500D03*
X132500Y245500D03*
X162500Y264500D03*
X162500Y245500D03*
D11*
X523000Y30000D03*
X542000Y30000D03*
X523000Y60000D03*
X542000Y60000D03*
D10*
X225000Y124500D03*
X225000Y105500D03*
X260000Y124500D03*
X260000Y105500D03*
M02*
